<svg width="194" height="114" viewBox="0 0 194 114" fill="none" xmlns="http://www.w3.org/2000/svg">
<path d="M175.586 41.7512C175.586 43.4561 175.432 45.1248 175.136 46.7442C170.627 49.3341 170.112 53.113 170.954 57.0575C168.935 60.0786 166.336 62.6789 163.316 64.6987C158.563 64.0504 155.236 65.7921 152.965 68.8918C151.354 69.1845 149.695 69.3374 148 69.3374C146.305 69.3374 144.646 69.1845 143.035 68.8918C140.564 66.3845 137.074 64.8775 132.73 64.7292C129.674 62.6939 127.046 60.0651 125.013 57.0073C125.499 51.74 123.812 48.4883 120.873 46.7905C120.571 45.1566 120.414 43.4723 120.414 41.7512C120.414 40.0414 120.569 38.368 120.867 36.7443C124.115 34.097 125.616 30.69 124.957 26.5788C127.02 23.4527 129.701 20.771 132.828 18.7085C137.316 18.7762 140.904 17.5888 143.037 14.6102C144.647 14.3177 146.306 14.165 148 14.165C149.718 14.165 151.399 14.322 153.031 14.6226C155.874 17.5216 159.362 18.8772 163.248 18.7583C166.309 20.7922 168.94 23.421 170.977 26.4796C169.729 30.3431 170.824 33.8977 175.129 36.7237C175.429 38.3539 175.586 40.0342 175.586 41.7512Z" fill="#FFA424"/>
<path d="M146.805 7.95807C147.336 7.03853 148.664 7.03852 149.195 7.95806L153.973 16.2339C154.503 17.1535 153.84 18.3029 152.778 18.3029H143.222C142.16 18.3029 141.496 17.1535 142.027 16.2339L146.805 7.95807Z" fill="#FFA424"/>
<path d="M122.746 18.1866C122.471 17.161 123.41 16.2225 124.435 16.4973L133.666 18.9706C134.692 19.2454 135.035 20.5274 134.284 21.2782L127.527 28.0355C126.776 28.7863 125.494 28.4428 125.219 27.4171L122.746 18.1866Z" fill="#FFA424"/>
<path d="M173.213 18.1866C173.488 17.161 172.55 16.2225 171.524 16.4973L162.293 18.9706C161.268 19.2454 160.924 20.5274 161.675 21.2782L168.432 28.0355C169.183 28.7863 170.465 28.4428 170.74 27.4171L173.213 18.1866Z" fill="#FFA424"/>
<path d="M173.213 65.2752C173.488 66.3008 172.55 67.2393 171.524 66.9645L162.293 64.4912C161.268 64.2164 160.924 62.9343 161.675 62.1835L168.432 55.4263C169.183 54.6755 170.465 55.019 170.74 56.0447L173.213 65.2752Z" fill="#FFA424"/>
<path d="M122.746 65.2752C122.471 66.3008 123.41 67.2393 124.435 66.9645L133.666 64.4912C134.692 64.2164 135.035 62.9343 134.284 62.1835L127.527 55.4263C126.776 54.6755 125.494 55.019 125.219 56.0447L122.746 65.2752Z" fill="#FFA424"/>
<path d="M146.805 75.5443C147.336 76.4638 148.664 76.4638 149.195 75.5443L153.973 67.2684C154.503 66.3489 153.84 65.1994 152.778 65.1994H143.222C142.16 65.1994 141.496 66.3489 142.027 67.2684L146.805 75.5443Z" fill="#FFA424"/>
<path d="M181.793 42.9457C182.713 42.4148 182.713 41.0876 181.793 40.5567L173.517 35.7786C172.598 35.2477 171.448 35.9113 171.448 36.9731V46.5293C171.448 47.591 172.598 48.2547 173.517 47.7238L181.793 42.9457Z" fill="#FFA424"/>
<path d="M114.207 42.9457C113.287 42.4148 113.287 41.0876 114.207 40.5567L122.483 35.7786C123.402 35.2477 124.552 35.9113 124.552 36.9731V46.5293C124.552 47.591 123.402 48.2547 122.483 47.7238L114.207 42.9457Z" fill="#FFA424"/>
<circle cx="148" cy="41.7512" r="20.6897" fill="#FFD024"/>
<circle cx="141.103" cy="30.7167" r="2.75862" fill="#EBB400"/>
<circle cx="136.965" cy="37.6133" r="1.37931" fill="#EBB400"/>
<path d="M194 77.2438C194 58.19 178.554 42.7438 159.5 42.7438H145.5C126.446 42.7438 111 58.19 111 77.2438V111.744H194V77.2438Z" fill="#43C9E0"/>
<path d="M194 80.6938H111V111.744H194V80.6938Z" fill="#FFC26D"/>
<path d="M111 75.5188H134.942V80.7976C134.942 87.4091 129.583 92.7688 122.971 92.7688C116.36 92.7688 111 87.4091 111 80.7976V75.5188Z" fill="#43C9E0"/>
<path d="M130.154 75.5188H154.096V80.7976C154.096 87.4091 148.736 92.7688 142.125 92.7688C135.513 92.7688 130.154 87.4091 130.154 80.7976V75.5188Z" fill="#43C9E0"/>
<path d="M149.308 75.5188H173.25V80.7976C173.25 87.4091 167.89 92.7688 161.279 92.7688C154.667 92.7688 149.308 87.4091 149.308 80.7976V75.5188Z" fill="#43C9E0"/>
<path d="M170.058 75.5188H194V80.7976C194 87.4091 188.64 92.7688 182.029 92.7688C175.417 92.7688 170.058 87.4091 170.058 80.7976V75.5188Z" fill="#43C9E0"/>
<path d="M52 106.744C52 95.698 43.0457 86.7437 32 86.7437H20C8.9543 86.7437 0 95.698 0 106.744V112.744H52V106.744Z" fill="#10ACC7"/>
<rect x="39.1339" y="32.222" width="5.14016" height="78.6956" fill="#C36800"/>
<rect x="40.8472" y="32.222" width="3.42677" height="78.6956" fill="#D77C00"/>
<ellipse cx="41.7039" cy="20.8549" rx="19.7039" ry="20.1111" fill="#10ACC7"/>
<path d="M41.7039 40.966C30.8217 40.966 22 31.9619 22 20.8549C22 9.74782 30.8217 0.743774 41.7039 0.743774C27.3221 6.44915 28.5512 38.9247 41.7039 40.966Z" fill="#0E92AA"/>
<ellipse cx="49.4141" cy="7.7389" rx="1.71338" ry="1.74879" fill="#24C0DB"/>
<ellipse cx="51.5558" cy="10.7993" rx="0.428346" ry="0.437198" fill="#24C0DB"/>
<path d="M73 92.7438C73 81.6981 64.0457 72.7438 53 72.7438H41C29.9543 72.7438 21 81.6981 21 92.7438V112.744H73V92.7438Z" fill="#43C9E0"/>
<path d="M73 94.7438H21V112.744H73V94.7438Z" fill="#FFC26D"/>
<path d="M21 91.7438H36V94.2438C36 98.3859 32.6421 101.744 28.5 101.744C24.3579 101.744 21 98.3859 21 94.2438V91.7438Z" fill="#43C9E0"/>
<path d="M33 91.7438H48V94.2438C48 98.3859 44.6421 101.744 40.5 101.744C36.3579 101.744 33 98.3859 33 94.2438V91.7438Z" fill="#43C9E0"/>
<path d="M45 91.7438H60V94.2438C60 98.3859 56.6421 101.744 52.5 101.744C48.3579 101.744 45 98.3859 45 94.2438V91.7438Z" fill="#43C9E0"/>
<path d="M58 91.7438H73V94.2438C73 98.3859 69.6421 101.744 65.5 101.744C61.3579 101.744 58 98.3859 58 94.2438V91.7438Z" fill="#43C9E0"/>
<rect x="66" y="70.7438" width="2" height="42" fill="#0E92AA"/>
<path d="M65 60.0771C65 58.2362 66.4924 56.7438 68.3333 56.7438C68.7015 56.7438 69 57.0423 69 57.4104V62.7438C69 63.8483 68.1046 64.7438 67 64.7438C65.8954 64.7438 65 63.8483 65 62.7438V60.0771Z" fill="#FFC800"/>
<path d="M69 79.4104C69 81.2514 67.5076 82.7438 65.6667 82.7438C65.2985 82.7438 65 82.4453 65 82.0771V76.7438C65 75.6392 65.8954 74.7438 67 74.7438C68.1046 74.7438 69 75.6392 69 76.7438V79.4104Z" fill="#FFC800"/>
<path d="M75.3997 64.5582C77.1296 63.9286 79.0424 64.8205 79.672 66.5504C79.798 66.8964 79.6196 67.279 79.2736 67.4049L74.2619 69.229C73.2239 69.6068 72.0763 69.0716 71.6985 68.0337C71.3207 66.9957 71.8559 65.848 72.8938 65.4702L75.3997 64.5582Z" fill="#FFC800"/>
<path d="M58.6003 74.9294C56.8704 75.559 54.9576 74.667 54.328 72.9371C54.202 72.5911 54.3804 72.2086 54.7264 72.0826L59.7381 70.2585C60.7761 69.8807 61.9238 70.4159 62.3015 71.4539C62.6793 72.4918 62.1442 73.6395 61.1062 74.0173L58.6003 74.9294Z" fill="#FFC800"/>
<path d="M57.2323 68.317C55.5023 67.6873 54.6104 65.7745 55.24 64.0446C55.3659 63.6986 55.7485 63.5202 56.0945 63.6461L61.1062 65.4702C62.1441 65.848 62.6793 66.9957 62.3015 68.0337C61.9237 69.0716 60.7761 69.6068 59.7381 69.229L57.2323 68.317Z" fill="#FFC800"/>
<path d="M76.7677 71.1706C78.4977 71.8002 79.3896 73.713 78.76 75.443C78.634 75.7889 78.2515 75.9673 77.9055 75.8414L72.8938 74.0173C71.8558 73.6395 71.3207 72.4918 71.6985 71.4539C72.0762 70.4159 73.2239 69.8807 74.2619 70.2585L76.7677 71.1706Z" fill="#FFC800"/>
<path d="M68.4268 59.976C69.0565 58.2461 70.9693 57.3542 72.6992 57.9838C73.0452 58.1097 73.2236 58.4923 73.0976 58.8383L71.2735 63.85C70.8957 64.8879 69.7481 65.4231 68.7101 65.0453C67.6721 64.6675 67.137 63.5198 67.5148 62.4819L68.4268 59.976Z" fill="#FFC800"/>
<path d="M65.5732 79.5115C64.9436 81.2414 63.0307 82.1334 61.3008 81.5038C60.9548 81.3778 60.7764 80.9953 60.9024 80.6493L62.7265 75.6376C63.1043 74.5996 64.2519 74.0645 65.2899 74.4422C66.3279 74.82 66.863 75.9677 66.4852 77.0057L65.5732 79.5115Z" fill="#FFC800"/>
<path d="M61.8144 61.3441C61.1848 59.6142 62.0767 57.7014 63.8067 57.0717C64.1526 56.9458 64.5352 57.1242 64.6611 57.4702L66.4852 62.4819C66.863 63.5198 66.3279 64.6675 65.2899 65.0453C64.2519 65.4231 63.1043 64.8879 62.7265 63.85L61.8144 61.3441Z" fill="#FFC800"/>
<path d="M72.1856 78.1434C72.8152 79.8734 71.9233 81.7862 70.1933 82.4158C69.8474 82.5417 69.4648 82.3633 69.3389 82.0174L67.5148 77.0057C67.137 75.9677 67.6721 74.82 68.7101 74.4422C69.7481 74.0645 70.8957 74.5996 71.2735 75.6376L72.1856 78.1434Z" fill="#FFC800"/>
<path d="M72.4212 61.4942C73.7229 60.1924 75.8335 60.1924 77.1352 61.4942C77.3955 61.7545 77.3955 62.1767 77.1352 62.437L73.364 66.2082C72.5829 66.9893 71.3166 66.9893 70.5355 66.2082C69.7545 65.4272 69.7545 64.1609 70.5355 63.3798L72.4212 61.4942Z" fill="#FFC800"/>
<path d="M61.5788 77.9934C60.2771 79.2951 58.1666 79.2951 56.8648 77.9934C56.6045 77.733 56.6045 77.3109 56.8648 77.0505L60.636 73.2793C61.4171 72.4983 62.6834 72.4983 63.4645 73.2793C64.2455 74.0604 64.2455 75.3267 63.4645 76.1077L61.5788 77.9934Z" fill="#FFC800"/>
<path d="M58.7504 64.3226C57.4487 63.0209 57.4487 60.9103 58.7504 59.6086C59.0108 59.3482 59.4329 59.3482 59.6932 59.6086L63.4645 63.3798C64.2455 64.1609 64.2455 65.4272 63.4645 66.2082C62.6834 66.9893 61.4171 66.9893 60.636 66.2082L58.7504 64.3226Z" fill="#FFC800"/>
<path d="M75.2496 75.1649C76.5513 76.4667 76.5513 78.5772 75.2496 79.879C74.9892 80.1393 74.5671 80.1393 74.3068 79.879L70.5355 76.1077C69.7545 75.3267 69.7545 74.0604 70.5355 73.2793C71.3166 72.4983 72.5829 72.4983 73.364 73.2793L75.2496 75.1649Z" fill="#FFC800"/>
<path d="M57.3333 71.7438C55.4924 71.7438 54 70.2514 54 68.4104C54 68.0423 54.2985 67.7438 54.6667 67.7438H60C61.1046 67.7438 62 68.6392 62 69.7438C62 70.8483 61.1046 71.7438 60 71.7438H57.3333Z" fill="#FFC800"/>
<path d="M76.6667 67.7438C78.5076 67.7438 80 69.2362 80 71.0771C80 71.4453 79.7015 71.7438 79.3333 71.7438H74C72.8954 71.7438 72 70.8483 72 69.7438C72 68.6392 72.8954 67.7438 74 67.7438H76.6667Z" fill="#FFC800"/>
<circle cx="67" cy="69.7438" r="6" fill="#AF5400"/>
<circle cx="67" cy="69.7438" r="3" fill="#9B4000"/>
<path d="M74.9801 83.578C76.4526 83.0648 77.8511 84.4093 77.3745 85.894C76.8534 87.5177 76.2701 88.9421 75.5571 90.4283C74.4755 92.6829 71.4698 93.0842 69.7016 91.316C67.8821 89.4965 68.3702 86.3927 70.707 85.3155C72.0884 84.6788 73.4317 84.1177 74.9801 83.578Z" fill="#0E92AA"/>
<path d="M73.232 87.2491C73.3319 87.1492 73.4938 87.1492 73.5937 87.2491C73.6936 87.349 73.6936 87.5109 73.5937 87.6108L69.7951 91.4095L69.4333 91.0477L73.232 87.2491Z" fill="#0B7A8E"/>
<path d="M58.3065 90.2084C56.8292 90.0995 55.8765 91.677 56.6788 92.9223C57.5563 94.2841 58.4417 95.4476 59.4614 96.6361C61.0082 98.439 63.8649 98.0682 65.0527 96.011C66.2749 93.894 65.0639 91.166 62.6547 90.7521C61.2307 90.5074 59.8601 90.3229 58.3065 90.2084Z" fill="#0E92AA"/>
<path d="M60.8132 93.1471C60.697 93.08 60.5484 93.1199 60.4813 93.2361C60.4142 93.3523 60.454 93.501 60.5702 93.5681L64.9899 96.1197L65.2329 95.6988L60.8132 93.1471Z" fill="#0B7A8E"/>
<rect x="148.759" y="77.5023" width="1.6798" height="35.2757" fill="#0E92AA"/>
<path d="M147.919 68.5434C147.919 66.9972 149.172 65.7438 150.718 65.7438C151.028 65.7438 151.278 65.9945 151.278 66.3037V70.7832C151.278 71.7109 150.526 72.463 149.598 72.463C148.671 72.463 147.919 71.7109 147.919 70.7832V68.5434Z" fill="#FF9600"/>
<path d="M151.278 84.7815C151.278 86.3277 150.025 87.5811 148.479 87.5811C148.169 87.5811 147.919 87.3304 147.919 87.0212V82.5417C147.919 81.614 148.671 80.8619 149.598 80.8619C150.526 80.8619 151.278 81.614 151.278 82.5417V84.7815Z" fill="#FF9600"/>
<path d="M156.653 72.3071C158.106 71.7783 159.713 72.5274 160.242 73.9804C160.347 74.271 160.198 74.5923 159.907 74.698L155.698 76.2301C154.826 76.5474 153.862 76.0979 153.545 75.2261C153.227 74.3544 153.677 73.3904 154.549 73.0731L156.653 72.3071Z" fill="#FF9600"/>
<path d="M142.544 81.0178C141.091 81.5466 139.484 80.7975 138.955 79.3445C138.85 79.0539 138.999 78.7326 139.29 78.6268L143.499 77.0948C144.371 76.7775 145.335 77.227 145.652 78.0988C145.97 78.9705 145.52 79.9345 144.648 80.2518L142.544 81.0178Z" fill="#FF9600"/>
<path d="M141.395 75.4641C139.942 74.9352 139.192 73.3287 139.721 71.8757C139.827 71.5851 140.148 71.4353 140.439 71.5411L144.648 73.0731C145.52 73.3904 145.97 74.3544 145.652 75.2261C145.335 76.0979 144.371 76.5474 143.499 76.2301L141.395 75.4641Z" fill="#FF9600"/>
<path d="M157.802 77.8608C159.255 78.3897 160.004 79.9962 159.476 81.4492C159.37 81.7398 159.049 81.8896 158.758 81.7838L154.549 80.2518C153.677 79.9345 153.227 78.9705 153.545 78.0988C153.862 77.227 154.826 76.7775 155.698 77.0948L157.802 77.8608Z" fill="#FF9600"/>
<path d="M150.797 68.4585C151.326 67.0056 152.932 66.2564 154.385 66.7853C154.676 66.891 154.826 67.2123 154.72 67.5029L153.188 71.7122C152.871 72.584 151.907 73.0335 151.035 72.7162C150.163 72.3989 149.714 71.435 150.031 70.5632L150.797 68.4585Z" fill="#FF9600"/>
<path d="M148.4 84.8663C147.871 86.3193 146.265 87.0685 144.812 86.5396C144.521 86.4339 144.371 86.1125 144.477 85.8219L146.009 81.6126C146.326 80.7409 147.29 80.2914 148.162 80.6087C149.034 80.926 149.483 81.8899 149.166 82.7617L148.4 84.8663Z" fill="#FF9600"/>
<path d="M145.243 69.6076C144.714 68.1546 145.463 66.5481 146.916 66.0192C147.207 65.9135 147.528 66.0633 147.634 66.3539L149.166 70.5632C149.483 71.435 149.034 72.3989 148.162 72.7162C147.29 73.0335 146.326 72.584 146.009 71.7122L145.243 69.6076Z" fill="#FF9600"/>
<path d="M153.954 83.7173C154.483 85.1703 153.734 86.7768 152.281 87.3057C151.99 87.4114 151.669 87.2616 151.563 86.971L150.031 82.7617C149.714 81.8899 150.163 80.926 151.035 80.6087C151.907 80.2914 152.871 80.7409 153.188 81.6126L153.954 83.7173Z" fill="#FF9600"/>
<path d="M154.152 69.7336C155.245 68.6403 157.018 68.6403 158.111 69.7336C158.33 69.9523 158.33 70.3068 158.111 70.5255L154.944 73.693C154.288 74.349 153.224 74.349 152.568 73.693C151.912 73.037 151.912 71.9734 152.568 71.3174L154.152 69.7336Z" fill="#FF9600"/>
<path d="M145.045 83.5912C143.952 84.6846 142.179 84.6846 141.086 83.5912C140.867 83.3726 140.867 83.018 141.086 82.7994L144.253 79.6319C144.909 78.9759 145.973 78.9759 146.629 79.6319C147.285 80.2879 147.285 81.3515 146.629 82.0075L145.045 83.5912Z" fill="#FF9600"/>
<path d="M142.67 72.1092C141.576 71.0159 141.576 69.2432 142.67 68.1499C142.888 67.9312 143.243 67.9312 143.462 68.1499L146.629 71.3174C147.285 71.9734 147.285 73.037 146.629 73.693C145.973 74.349 144.909 74.349 144.253 73.693L142.67 72.1092Z" fill="#FF9600"/>
<path d="M156.527 81.2157C157.621 82.309 157.621 84.0816 156.527 85.175C156.309 85.3936 155.954 85.3936 155.735 85.175L152.568 82.0075C151.912 81.3515 151.912 80.2879 152.568 79.6319C153.224 78.9759 154.288 78.9759 154.944 79.6319L156.527 81.2157Z" fill="#FF9600"/>
<path d="M141.479 78.3422C139.933 78.3422 138.68 77.0888 138.68 75.5426C138.68 75.2333 138.93 74.9826 139.24 74.9826H143.719C144.647 74.9826 145.399 75.7347 145.399 76.6624C145.399 77.5902 144.647 78.3422 143.719 78.3422H141.479Z" fill="#FF9600"/>
<path d="M157.717 74.9826C159.264 74.9826 160.517 76.2361 160.517 77.7823C160.517 78.0915 160.266 78.3422 159.957 78.3422H155.478C154.55 78.3422 153.798 77.5902 153.798 76.6624C153.798 75.7347 154.55 74.9826 155.478 74.9826H157.717Z" fill="#FF9600"/>
<circle cx="149.598" cy="76.6624" r="5.03939" fill="#AF5400"/>
<circle cx="149.598" cy="76.6625" r="2.51969" fill="#9B4000"/>
<path d="M156.301 88.2818C157.538 87.8507 158.712 88.98 158.312 90.227C157.874 91.5908 157.384 92.7871 156.786 94.0354C155.877 95.929 153.353 96.266 151.868 94.7809C150.339 93.2527 150.749 90.6459 152.712 89.7411C153.872 89.2063 155 88.7351 156.301 88.2818Z" fill="#0E92AA"/>
<path d="M154.833 91.3651C154.917 91.2812 155.053 91.2812 155.137 91.3651C155.22 91.449 155.22 91.585 155.137 91.6689L151.946 94.8594L151.642 94.5555L154.833 91.3651Z" fill="#0B7A8E"/>
<path d="M142.297 93.8506C141.056 93.7592 140.256 95.0841 140.93 96.13C141.667 97.2738 142.41 98.2511 143.267 99.2493C144.566 100.764 146.965 100.452 147.963 98.7242C148.989 96.9462 147.972 94.6549 145.949 94.3073C144.753 94.1018 143.602 93.9468 142.297 93.8506Z" fill="#0E92AA"/>
<path d="M144.402 96.3189C144.305 96.2625 144.18 96.296 144.123 96.3936C144.067 96.4912 144.1 96.6161 144.198 96.6724L147.91 98.8156L148.114 98.4621L144.402 96.3189Z" fill="#0B7A8E"/>
<path d="M189.598 101.59C189.598 103.79 187.782 105.573 185.541 105.573C183.301 105.573 181.484 103.79 181.484 101.59C181.484 99.3901 183.301 97.6066 185.541 97.6066C187.782 97.6066 189.598 99.3901 189.598 101.59Z" fill="#FC4EA8"/>
<path d="M182.173 108.07C181.132 108.619 179.871 107.707 180.115 106.572C180.742 103.664 181.251 101.252 181.888 99.8747C182.161 99.2853 182.89 99.2118 183.425 99.5908L188.116 102.915C188.658 103.298 188.827 104.021 188.34 104.469C187.153 105.559 184.92 106.622 182.173 108.07Z" fill="#FC4EA8"/>
<path d="M189.598 101.59C189.598 103.79 183.146 108.229 181.484 108.229C178.816 108.229 180.161 102.932 181.484 100.262C182.83 97.5447 185.534 97.5397 185.541 97.6064C185.547 97.673 189.598 99.3898 189.598 101.59Z" fill="#FF7171"/>
<path d="M189.598 101.59C189.598 104.246 181.704 108.245 181.484 108.229C179.01 108.053 183.321 97.4319 185.541 97.6066C187.781 97.6066 189.598 99.3901 189.598 101.59Z" fill="#FFB349"/>
<path d="M189.598 101.59C189.598 106.901 181.965 108.291 181.484 108.229C181.004 108.167 185.661 97.7504 186.894 97.8455C187.088 97.8604 189.598 98.7468 189.598 101.59Z" fill="#FFD849"/>
<path d="M189.598 101.59C189.598 105.02 184.661 108.023 181.79 108.229C181.685 108.236 181.583 108.229 181.484 108.229C186.253 104.577 187.569 98.1377 187.569 98.1377C187.569 98.1377 189.598 98.9342 189.598 101.59Z" fill="#70DE66"/>
<path d="M189.598 101.577C189.598 106.237 184.189 108.229 181.62 108.229C189.598 105.573 188.246 98.5624 188.246 98.5624C188.246 98.5624 189.598 99.4429 189.598 101.577Z" fill="#43C9E0"/>
<path d="M176.211 102.688H181.246V109.608H176.211V102.688Z" fill="#F3F2F2"/>
<path d="M170.735 102.688H175.771V109.484H170.735V102.688Z" fill="#F3F2F2"/>
<path d="M175.791 106.937C171.156 106.937 167.798 103.132 167.798 98.4396V95.8904C167.798 91.1975 171.555 87.3931 176.19 87.3931C180.825 87.3931 182.986 91.1975 182.986 95.8904L184.583 98.4396C184.583 103.132 180.426 106.937 175.791 106.937Z" fill="#F3F2F2"/>
<path d="M168.451 90.7922L172.012 94.3972L167.282 99.2018L163.743 95.6186L168.451 90.7922Z" fill="#F3F2F2"/>
<path d="M181.951 90.7922L178.391 94.3972L183.179 99.2018L186.718 95.8177L181.951 90.7922Z" fill="#F3F2F2"/>
<path d="M170.736 104.897L175.772 106.926V110.76C175.772 111.23 175.396 111.61 174.932 111.61H171.575C171.112 111.61 170.736 110.07 170.736 109.601V104.897Z" fill="#E6E6E6"/>
<path d="M175.772 106.926C171.136 106.926 167.799 103.359 167.799 98.6663V95.8904C167.799 91.1974 168.452 90.7919 168.452 90.7919C167.82 99.4962 175.772 106.926 175.772 106.926Z" fill="#E6E6E6"/>
<path d="M168.452 90.7919L167.799 98.6663L166.62 99.6372C166.62 99.6372 164.013 95.9504 163.685 95.6183L168.452 90.7919Z" fill="#E6E6E6"/>
<path d="M176.212 107.674C177.067 108.752 177.786 109.452 178.599 110.065C179.293 110.587 178.978 111.744 178.11 111.744H177.063C176.593 111.744 176.212 111.362 176.212 110.892V107.674Z" fill="#E6E6E6"/>
<path d="M176.211 109.602H181.247V110.892C181.247 111.362 180.866 111.744 180.395 111.744H177.063C176.593 111.744 176.211 111.362 176.211 110.892V109.602Z" fill="#FD81C1"/>
<path d="M176.211 109.602H178.02C178.02 109.602 180.495 111.744 180.408 111.744C180.26 111.744 178.245 111.744 177.062 111.744C176.592 111.744 176.211 111.362 176.211 110.892V109.602Z" fill="#FD68B5"/>
<path d="M170.736 109.602H175.771V110.892C175.771 111.362 175.39 111.744 174.919 111.744H171.588C171.117 111.744 170.736 111.362 170.736 110.892V109.602Z" fill="#FD68B5"/>
<path d="M186.522 95.6183L183.139 99.2336L184.026 100.14C184.355 100.476 184.889 100.476 185.218 100.14L187.548 97.7612C187.892 97.4101 187.874 96.8356 187.51 96.5072L186.522 95.6183Z" fill="#FD81C1"/>
<path d="M185.512 98.0222L185.889 99.4556L186.916 98.4062L185.512 98.0222Z" fill="#FEB4DA"/>
<path d="M165.61 66.0444H186.868L192.873 84.5143C194.006 88.001 191.441 91.5903 187.815 91.5903H164.662C161.037 91.5903 158.472 88.001 159.605 84.5143L165.61 66.0444Z" fill="#F3F2F2"/>
<path d="M167.755 60.5268C168.157 59.4895 169.558 59.3667 170.131 60.3186L173.599 66.0874H165.599L167.755 60.5268Z" fill="#F3F2F2"/>
<path d="M182.435 60.3904C183.005 59.4225 184.426 59.5476 184.822 60.6004L186.919 66.2021H179.214L182.435 60.3904Z" fill="#F3F2F2"/>
<path d="M168.215 59.9328C165.322 67.9698 166.402 80.4876 166.469 80.6999C166.537 80.9122 158.544 87.7635 159.673 84.3072C165.757 65.2656 167.496 60.1808 168.215 59.9328Z" fill="#E6E6E6"/>
<path d="M175.026 76.5022C175.026 76.3244 175.094 76.1522 175.227 76.0339C176.5 74.8969 178.506 74.4911 180.389 76.0314C180.535 76.1508 180.614 76.3324 180.614 76.521C180.614 77.064 179.998 77.3791 179.521 77.1215C178.292 76.4596 177.362 76.4569 176.136 77.1126C175.65 77.3725 175.026 77.0529 175.026 76.5022Z" fill="#CDCCCC"/>
<path d="M168.241 76.5022C168.241 76.3244 168.309 76.1522 168.441 76.0339C169.715 74.8969 171.72 74.4911 173.604 76.0314C173.75 76.1508 173.829 76.3324 173.829 76.521C173.829 77.064 173.213 77.3791 172.735 77.1215C171.507 76.4596 170.577 76.4569 169.351 77.1126C168.865 77.3725 168.241 77.0529 168.241 76.5022Z" fill="#CDCCCC"/>
<path d="M160.854 81.5448C173.856 78.7805 178.881 78.7479 191.883 81.4713C192.313 82.7812 192.668 83.8978 192.99 84.94C194.051 88.3751 191.428 91.8295 187.833 91.8295H165.006C161.371 91.8295 158.773 88.312 159.841 84.8372L160.854 81.5448Z" fill="#FD81C1"/>
<path d="M160.57 81.484C164.721 80.607 166.599 80.4688 166.599 80.4688C167.24 86.1899 172.785 91.7924 172.997 91.8361H164.557C160.988 91.8361 158.304 88.411 159.36 85.0022C159.698 83.9116 160.082 82.7784 160.57 81.484Z" fill="#FD68B5"/>
<path d="M171.089 82.7198H171.089C170.046 82.7198 169.201 83.5652 169.201 84.6081V85.505C169.201 86.5478 170.046 87.3933 171.089 87.3933H171.089C172.132 87.3933 172.977 86.5478 172.977 85.505V84.6081C172.977 83.5652 172.132 82.7198 171.089 82.7198Z" fill="#FC4EA8"/>
<path d="M175.705 82.7198H175.705C174.662 82.7198 173.817 83.5652 173.817 84.6081V85.505C173.817 86.5478 174.662 87.3933 175.705 87.3933H175.705C176.748 87.3933 177.593 86.5478 177.593 85.505V84.6081C177.593 83.5652 176.748 82.7198 175.705 82.7198Z" fill="#FC4EA8"/>
<path d="M180.954 65.9001C180.954 68.1 179.138 69.8834 176.897 69.8834C174.657 69.8834 172.84 68.1 172.84 65.9001C172.84 63.7001 174.657 61.9167 176.897 61.9167C179.138 61.9167 180.954 63.7001 180.954 65.9001Z" fill="#FC4EA8"/>
<path d="M173.529 72.3799C172.488 72.9289 171.227 72.0172 171.472 70.8817C172.099 67.9736 172.607 65.5613 173.244 64.1848C173.517 63.5952 174.246 63.5218 174.781 63.9008L179.472 67.2248C180.014 67.6085 180.184 68.3312 179.696 68.7789C178.509 69.8688 176.277 70.9319 173.529 72.3799Z" fill="#FC4EA8"/>
<path d="M180.954 65.8998C180.954 68.0998 174.503 72.5388 172.84 72.5388C170.172 72.5388 171.518 67.2419 172.84 64.572C174.187 61.8546 176.891 61.8498 176.897 61.9164C176.904 61.983 180.954 63.6998 180.954 65.8998Z" fill="#FF7171"/>
<path d="M180.954 65.9001C180.954 68.5557 173.06 72.5548 172.84 72.5391C170.367 72.363 174.677 61.7419 176.897 61.9167C179.138 61.9167 180.954 63.7002 180.954 65.9001Z" fill="#FFB349"/>
<path d="M180.955 65.8998C180.955 71.211 173.321 72.6007 172.841 72.5388C172.36 72.4769 177.017 62.0605 178.25 62.1554C178.444 62.1704 180.955 63.0567 180.955 65.8998Z" fill="#FFD849"/>
<path d="M180.954 65.8998C180.954 69.3297 176.017 72.3324 173.146 72.5388C173.041 72.5463 172.939 72.5388 172.84 72.5388C177.609 68.887 178.926 62.4475 178.926 62.4475C178.926 62.4475 180.954 63.2442 180.954 65.8998Z" fill="#70DE66"/>
<path d="M180.954 65.8865C180.954 70.547 175.545 72.5386 172.976 72.5386C180.954 69.8832 179.602 62.8723 179.602 62.8723C179.602 62.8723 180.954 63.7527 180.954 65.8865Z" fill="#43C9E0"/>
<path d="M175.548 50.4121C175.921 49.5064 177.21 49.5258 177.556 50.4423L180.365 57.8924C180.631 58.5983 180.109 59.3525 179.355 59.3525H173.478C172.709 59.3525 172.187 58.5726 172.48 57.8622L175.548 50.4121Z" fill="#FFD849"/>
<path d="M174.912 51.9598C174.698 55.8864 175.255 57.4841 178.709 59.3524H173.653C172.994 59.401 172.184 58.7151 172.394 58.0778C172.604 57.4406 174.912 51.9598 174.912 51.9598Z" fill="#FFD024"/>
<path d="M174.132 56.9585C174.32 56.9585 174.473 56.8097 174.473 56.626C174.473 56.4424 174.32 56.2935 174.132 56.2935C173.944 56.2935 173.791 56.4424 173.791 56.626C173.791 56.8097 173.944 56.9585 174.132 56.9585Z" fill="#EBB400"/>
<path d="M176.825 54.1322C177.296 54.1322 177.678 53.7601 177.678 53.301C177.678 52.8419 177.296 52.4697 176.825 52.4697C176.355 52.4697 175.973 52.8419 175.973 53.301C175.973 53.7601 176.355 54.1322 176.825 54.1322Z" fill="#EBB400"/>
<mask id="mask0" mask-type="alpha" maskUnits="userSpaceOnUse" x="163" y="86" width="8" height="5">
<path d="M164.233 89.3521C163.359 87.6328 164.501 85.958 166.294 86.6668C167.887 87.2961 169.296 87.8515 170.192 86.8529C170.37 86.6541 170.707 86.6334 170.854 86.8562C170.924 86.961 170.931 87.0962 170.873 87.2079C169.717 89.4359 168.627 90.3479 166.815 90.7289C165.753 90.9523 164.725 90.3192 164.233 89.3521Z" fill="#FD9BCE"/>
</mask>
<g mask="url(#mask0)">
<path d="M171.787 83.965H161.808V91.1495H171.787V83.965Z" fill="white"/>
</g>
<path d="M183.408 92.9841C184.51 92.9841 185.404 92.0906 185.404 90.9884C185.404 89.8862 184.51 88.9927 183.408 88.9927C182.306 88.9927 181.412 89.8862 181.412 90.9884C181.412 92.0906 182.306 92.9841 183.408 92.9841Z" fill="#FD81C1"/>
<path d="M183.408 92.1859C184.07 92.1859 184.606 91.6498 184.606 90.9884C184.606 90.3271 184.07 89.791 183.408 89.791C182.747 89.791 182.211 90.3271 182.211 90.9884C182.211 91.6498 182.747 92.1859 183.408 92.1859Z" fill="#FD9BCE"/>
<path d="M161.467 97.0299L161.451 97.0006L161.432 96.9735C161.309 96.8027 161.283 96.5077 161.51 96.0955C161.731 95.6944 162.144 95.2921 162.646 95.0411C163.145 94.792 163.69 94.7113 164.195 94.8774C164.692 95.0411 165.234 95.4721 165.679 96.4132C166.579 98.3188 166.341 100.331 165.848 101.908C165.608 102.676 165.311 103.327 165.071 103.791L161.467 97.0299Z" stroke="#FD9BCE" stroke-width="0.993903"/>
<path d="M154.773 97.8615L160.865 95.257L166.621 104.506L157.482 108.413L154.773 97.8615Z" fill="#FD9BCE"/>
<path d="M166.143 103.81L157.309 107.586C157.056 107.694 156.939 107.986 157.047 108.239C157.155 108.491 157.447 108.608 157.699 108.5L166.534 104.724C166.786 104.616 166.903 104.324 166.795 104.071C166.688 103.819 166.396 103.702 166.143 103.81Z" fill="#FD81C1"/>
<path d="M160.953 95.0395L154.555 97.7743C154.303 97.8821 154.186 98.1742 154.294 98.4266C154.401 98.6789 154.694 98.796 154.946 98.6882L161.343 95.9534C161.596 95.8455 161.713 95.5535 161.605 95.3011C161.497 95.0488 161.205 94.9316 160.953 95.0395Z" fill="#FD81C1"/>
<path d="M149.04 102.047L156.507 104.236L157.103 106.683L148.915 102.933L149.04 102.047Z" fill="#FD9BCE"/>
<path d="M147.615 103.919C147.993 104.033 148.412 103.959 148.779 103.714C149.145 103.468 149.43 103.07 149.57 102.607C149.71 102.144 149.694 101.655 149.526 101.247C149.357 100.839 149.05 100.546 148.671 100.431L148.143 102.175L147.615 103.919Z" fill="#FD9BCE"/>
<path d="M147.903 103.964L148.959 100.476C148.999 100.345 148.925 100.206 148.794 100.166L148.794 100.166C148.662 100.126 148.524 100.201 148.484 100.332L147.427 103.82C147.387 103.951 147.462 104.09 147.593 104.13L147.593 104.13C147.724 104.169 147.863 104.095 147.903 103.964Z" fill="#FD81C1"/>
<path d="M146.971 100.634C147.207 100.828 147.477 100.89 147.574 100.772C147.671 100.654 147.558 100.401 147.322 100.207C147.086 100.013 146.816 99.9517 146.719 100.07C146.622 100.188 146.735 100.44 146.971 100.634Z" fill="#24C0DB"/>
<path d="M145.708 101.244C146.006 101.307 146.274 101.236 146.305 101.087C146.337 100.938 146.12 100.766 145.821 100.703C145.522 100.64 145.254 100.711 145.223 100.86C145.192 101.01 145.409 101.182 145.708 101.244Z" fill="#24C0DB"/>
<path d="M140.653 105.024C140.925 104.884 141.088 104.661 141.019 104.525C140.949 104.389 140.672 104.392 140.4 104.532C140.129 104.672 139.965 104.895 140.035 105.031C140.105 105.167 140.382 105.164 140.653 105.024Z" fill="#24C0DB"/>
<path d="M143.454 103.954C143.656 103.725 143.726 103.457 143.612 103.356C143.497 103.255 143.241 103.359 143.039 103.588C142.837 103.818 142.766 104.085 142.881 104.186C142.995 104.287 143.252 104.183 143.454 103.954Z" fill="#24C0DB"/>
<path d="M143.111 101.797C143.374 101.641 143.523 101.408 143.445 101.277C143.367 101.146 143.091 101.166 142.829 101.322C142.566 101.478 142.416 101.711 142.494 101.842C142.572 101.973 142.849 101.953 143.111 101.797Z" fill="#24C0DB"/>
<path d="M143.503 109.422C143.683 109.176 143.729 108.903 143.606 108.813C143.482 108.723 143.236 108.85 143.056 109.097C142.877 109.343 142.831 109.616 142.954 109.706C143.077 109.796 143.323 109.669 143.503 109.422Z" fill="#24C0DB"/>
<path d="M146.982 102.506C147.267 102.396 147.454 102.191 147.399 102.049C147.344 101.907 147.068 101.88 146.783 101.99C146.498 102.1 146.312 102.304 146.367 102.447C146.422 102.589 146.697 102.616 146.982 102.506Z" fill="#24C0DB"/>
<path d="M164.804 94.4918C165.979 95.5047 166.985 97.425 166.771 99.4858L166.114 99.8507C165.719 100.07 165.226 99.9333 164.993 99.5402L163.35 96.7679C163.14 96.4134 163.206 95.9559 163.508 95.6794L164.804 94.4918Z" fill="#FD68B5"/>
<rect x="157.5" y="87.2438" width="1.21429" height="25.5" fill="#0E92AA"/>
<path d="M156.893 80.7676C156.893 79.6499 157.799 78.7438 158.917 78.7438C159.14 78.7438 159.321 78.925 159.321 79.1485V82.3866C159.321 83.0573 158.778 83.6009 158.107 83.6009C157.436 83.6009 156.893 83.0573 156.893 82.3866V80.7676Z" fill="#FFB349"/>
<path d="M159.321 92.5057C159.321 93.6234 158.415 94.5295 157.298 94.5295C157.074 94.5295 156.893 94.3483 156.893 94.1247V90.8866C156.893 90.216 157.436 89.6723 158.107 89.6723C158.778 89.6723 159.321 90.216 159.321 90.8866V92.5057Z" fill="#FFB349"/>
<path d="M163.207 83.4882C164.257 83.106 165.419 83.6475 165.801 84.6978C165.877 84.9079 165.769 85.1402 165.559 85.2166L162.516 86.3241C161.886 86.5535 161.189 86.2285 160.96 85.5984C160.73 84.9682 161.055 84.2714 161.685 84.042L163.207 83.4882Z" fill="#FFB349"/>
<path d="M153.007 89.785C151.957 90.1673 150.796 89.6258 150.413 88.5754C150.337 88.3654 150.445 88.1331 150.655 88.0567L153.698 86.9492C154.328 86.7198 155.025 87.0447 155.254 87.6749C155.484 88.3051 155.159 89.0019 154.529 89.2313L153.007 89.785Z" fill="#FFB349"/>
<path d="M152.177 85.7704C151.126 85.3881 150.585 84.2267 150.967 83.1764C151.044 82.9663 151.276 82.858 151.486 82.9345L154.529 84.042C155.159 84.2714 155.484 84.9682 155.254 85.5984C155.025 86.2285 154.328 86.5535 153.698 86.3241L152.177 85.7704Z" fill="#FFB349"/>
<path d="M164.037 87.5029C165.088 87.8852 165.629 89.0465 165.247 90.0969C165.171 90.3069 164.938 90.4152 164.728 90.3388L161.685 89.2313C161.055 89.0019 160.73 88.3051 160.96 87.6749C161.189 87.0447 161.886 86.7198 162.516 86.9492L164.037 87.5029Z" fill="#FFB349"/>
<path d="M158.973 80.7062C159.356 79.6559 160.517 79.1144 161.567 79.4966C161.777 79.5731 161.886 79.8054 161.809 80.0154L160.702 83.0582C160.472 83.6884 159.776 84.0134 159.145 83.784C158.515 83.5546 158.19 82.8578 158.42 82.2276L158.973 80.7062Z" fill="#FFB349"/>
<path d="M157.241 92.567C156.859 93.6174 155.697 94.1589 154.647 93.7766C154.437 93.7002 154.329 93.4679 154.405 93.2578L155.512 90.215C155.742 89.5848 156.439 89.2599 157.069 89.4893C157.699 89.7186 158.024 90.4154 157.795 91.0456L157.241 92.567Z" fill="#FFB349"/>
<path d="M154.959 81.5368C154.576 80.4865 155.118 79.3252 156.168 78.9429C156.378 78.8664 156.611 78.9748 156.687 79.1848L157.795 82.2276C158.024 82.8578 157.699 83.5546 157.069 83.784C156.439 84.0134 155.742 83.6884 155.512 83.0582L154.959 81.5368Z" fill="#FFB349"/>
<path d="M161.255 91.7364C161.638 92.7867 161.096 93.9481 160.046 94.3304C159.836 94.4068 159.604 94.2985 159.527 94.0884L158.42 91.0456C158.19 90.4154 158.515 89.7186 159.145 89.4893C159.776 89.2599 160.472 89.5848 160.702 90.215L161.255 91.7364Z" fill="#FFB349"/>
<path d="M161.399 81.628C162.189 80.8376 163.47 80.8376 164.261 81.628C164.419 81.786 164.419 82.0423 164.261 82.2004L161.971 84.4901C161.497 84.9643 160.728 84.9643 160.254 84.4901C159.779 84.0158 159.779 83.247 160.254 82.7728L161.399 81.628Z" fill="#FFB349"/>
<path d="M154.816 91.6453C154.025 92.4357 152.744 92.4357 151.954 91.6453C151.796 91.4872 151.796 91.231 151.954 91.0729L154.243 88.7832C154.717 88.309 155.486 88.309 155.961 88.7832C156.435 89.2574 156.435 90.0263 155.961 90.5005L154.816 91.6453Z" fill="#FFB349"/>
<path d="M153.098 83.3452C152.308 82.5549 152.308 81.2735 153.098 80.4831C153.256 80.325 153.513 80.325 153.671 80.4831L155.961 82.7728C156.435 83.247 156.435 84.0158 155.961 84.4901C155.486 84.9643 154.717 84.9643 154.243 84.4901L153.098 83.3452Z" fill="#FFB349"/>
<path d="M163.116 89.928C163.906 90.7184 163.906 91.9998 163.116 92.7901C162.958 92.9482 162.701 92.9482 162.543 92.7901L160.254 90.5005C159.779 90.0263 159.779 89.2574 160.254 88.7832C160.728 88.309 161.497 88.309 161.971 88.7832L163.116 89.928Z" fill="#FFB349"/>
<path d="M152.238 87.8509C151.12 87.8509 150.214 86.9448 150.214 85.8271C150.214 85.6036 150.395 85.4223 150.619 85.4223H153.857C154.528 85.4223 155.071 85.966 155.071 86.6366C155.071 87.3073 154.528 87.8509 153.857 87.8509H152.238Z" fill="#FFB349"/>
<path d="M163.976 85.4223C165.094 85.4223 166 86.3284 166 87.4462C166 87.6697 165.819 87.8509 165.595 87.8509H162.357C161.686 87.8509 161.143 87.3073 161.143 86.6366C161.143 85.966 161.686 85.4223 162.357 85.4223H163.976Z" fill="#FFB349"/>
<circle cx="158.107" cy="86.6366" r="3.64286" fill="#AF5400"/>
<circle cx="158.107" cy="86.6366" r="1.82143" fill="#9B4000"/>
<path d="M162.952 95.036C163.846 94.7244 164.695 95.5407 164.406 96.4421C164.09 97.4279 163.735 98.2927 163.302 99.1951C162.646 100.564 160.821 100.808 159.747 99.734C158.643 98.6293 158.939 96.7449 160.358 96.0909C161.196 95.7043 162.012 95.3636 162.952 95.036Z" fill="#0E92AA"/>
<path d="M161.891 97.2649C161.952 97.2042 162.05 97.2042 162.111 97.2649C162.171 97.3255 162.171 97.4238 162.111 97.4845L159.804 99.7908L159.585 99.5712L161.891 97.2649Z" fill="#0B7A8E"/>
<path d="M152.829 99.0616C151.932 98.9954 151.354 99.9532 151.841 100.709C152.373 101.536 152.911 102.243 153.53 102.964C154.469 104.059 156.204 103.834 156.925 102.585C157.667 101.299 156.932 99.643 155.469 99.3917C154.604 99.2431 153.772 99.1311 152.829 99.0616Z" fill="#0E92AA"/>
<path d="M154.351 100.846C154.28 100.805 154.19 100.829 154.149 100.9C154.109 100.97 154.133 101.061 154.203 101.101L156.887 102.651L157.034 102.395L154.351 100.846Z" fill="#0B7A8E"/>
<circle cx="89.5" cy="65.2438" r="2.5" fill="#DEA2EF"/>
<circle cx="100.5" cy="71.2438" r="1.5" fill="#D88FEC"/>
<circle cx="95" cy="102.744" r="2" fill="#D88FEC"/>
<circle cx="92" cy="89.7438" r="1" fill="#D88FEC"/>
<circle cx="98" cy="82.7438" r="1" fill="#DEA2EF"/>
<circle cx="102.5" cy="55.2438" r="1.5" fill="#DEA2EF"/>
<path d="M83.0499 37.6472C83.0499 19.1093 108.699 19.1093 109.032 37.6472C109.259 50.3168 107.309 51.5868 106.051 51.1213C105.31 50.847 104.533 50.4581 103.766 50.6508C97.9392 52.1168 94.1787 52.0971 88.3627 50.6576C87.5731 50.4622 86.7831 50.919 86.0044 51.1543C84.82 51.5121 83.0499 49.9834 83.0499 37.6472Z" fill="#BD68D5"/>
<path d="M85.7254 29.0259C86.5684 27.8701 87.5207 26.7274 87.5 26.7438C85.9782 27.946 83.7902 41.8071 96.5 51.7438C92.3312 51.7904 88.7828 51.2169 87.9229 51.173C87.2899 51.1407 86.2979 51.7626 85.6479 51.7626C85.3942 51.7649 85.1694 51.5939 84.9979 51.42C84.3479 50.7612 83.8604 49.279 83.6317 47.7966C83.3729 46.6438 82.6877 39.8719 83.1646 36.1007C83.3096 34.1849 83.7998 32.2326 84.5453 30.842C84.9456 30.0955 85.431 29.4296 85.7254 29.0259Z" fill="#A954C1"/>
<path d="M100.364 40.8901C100.395 40.9492 100.402 41.0184 100.382 41.0826C100.043 42.2183 99.6002 42.4305 98.4984 42.0817C98.4344 42.0614 98.3815 42.0156 98.3506 41.9556C98.2337 41.7281 98.4942 41.4512 98.7402 41.515C98.9868 41.5789 99.2387 41.6039 99.4051 41.5157C99.5712 41.4277 99.6948 41.2043 99.7841 40.9629C99.8735 40.721 100.247 40.6622 100.364 40.8901Z" fill="#A954C1"/>
<circle cx="84.5" cy="39.2438" r="0.5" fill="#9540AD"/>
<circle cx="103" cy="28.7438" r="1" fill="#D17CE9"/>
<circle cx="104.446" cy="30.8579" r="0.5" fill="#D17CE9"/>
<path d="M95.432 26.3777C95.6192 25.8392 96.3808 25.8392 96.568 26.3777C96.6505 26.6153 96.8722 26.7764 97.1237 26.7815C97.6937 26.7931 97.929 27.5174 97.4747 27.8618C97.2743 28.0137 97.1896 28.2744 97.2624 28.5151C97.4275 29.0608 96.8114 29.5084 96.3434 29.1828C96.137 29.0391 95.863 29.0391 95.6566 29.1828C95.1886 29.5084 94.5725 29.0608 94.7376 28.5151C94.8104 28.2744 94.7257 28.0137 94.5253 27.8618C94.071 27.5174 94.3063 26.7931 94.8763 26.7815C95.1278 26.7764 95.3495 26.6153 95.432 26.3777Z" fill="#9540AD"/>
<path d="M89 35.5969C89 35.3742 89.073 35.1585 89.2155 35.0102C90.5828 33.586 92.7362 33.0776 94.7587 35.0071C94.9154 35.1567 95 35.3843 95 35.6205C95 36.3007 94.3389 36.6955 93.8259 36.3727C92.5064 35.5436 91.5081 35.5401 90.1919 36.3616C89.6703 36.6872 89 36.2868 89 35.5969Z" fill="#9540AD"/>
<path d="M97 35.5969C97 35.3742 97.073 35.1585 97.2155 35.0102C98.5828 33.586 100.736 33.0776 102.759 35.0071C102.915 35.1567 103 35.3843 103 35.6205C103 36.3007 102.339 36.6955 101.826 36.3727C100.506 35.5436 99.5081 35.5401 98.1919 36.3616C97.6703 36.6872 97 36.2868 97 35.5969Z" fill="#9540AD"/>
<circle cx="27.7353" cy="85.1261" r="0.735294" fill="#FEB4DA"/>
<circle cx="30.9706" cy="86.8908" r="0.441176" fill="#FD68B5"/>
<circle cx="29.3529" cy="96.1556" r="0.588235" fill="#FD68B5"/>
<circle cx="28.4706" cy="92.332" r="0.294118" fill="#FD68B5"/>
<circle cx="30.2353" cy="90.2732" r="0.294118" fill="#FEB4DA"/>
<circle cx="31.5589" cy="82.185" r="0.441176" fill="#FEB4DA"/>
<circle r="0.735294" transform="matrix(-1 0 0 1 28.2647 98.1261)" fill="#FEB4DA"/>
<circle r="0.441176" transform="matrix(-1 0 0 1 25.0294 99.8908)" fill="#FD68B5"/>
<circle r="0.588235" transform="matrix(-1 0 0 1 26.6471 109.156)" fill="#FD68B5"/>
<circle r="0.294118" transform="matrix(-1 0 0 1 27.5294 105.332)" fill="#FD68B5"/>
<circle r="0.294118" transform="matrix(-1 0 0 1 25.7647 103.273)" fill="#FEB4DA"/>
<circle r="0.441176" transform="matrix(-1 0 0 1 24.4411 95.185)" fill="#FEB4DA"/>
<circle cx="21.7353" cy="85.1261" r="0.735294" fill="#FEB4DA"/>
<circle cx="24.9706" cy="86.8908" r="0.441176" fill="#FD68B5"/>
<circle cx="23.3529" cy="96.1556" r="0.588235" fill="#FD68B5"/>
<circle cx="22.4706" cy="92.332" r="0.294118" fill="#FD68B5"/>
<circle cx="24.2353" cy="90.2732" r="0.294118" fill="#FEB4DA"/>
<circle cx="25.5589" cy="82.185" r="0.441176" fill="#FEB4DA"/>
<path d="M16.0381 69.4359C16.0381 55.1797 35.7294 55.1797 35.9852 69.4359C36.1598 79.1709 34.665 80.1542 33.6993 79.7988C33.1283 79.5886 32.5298 79.2882 31.9398 79.4369C27.4689 80.5632 24.5824 80.548 20.1202 79.4421C19.5122 79.2914 18.9039 79.6444 18.3038 79.824C17.3946 80.0962 16.0381 78.9139 16.0381 69.4359Z" fill="#FD68B5"/>
<path d="M18.0965 62.372C18.7449 61.483 20.0949 60.6041 20.0789 60.6166C18.9083 61.5415 16.49 72.6376 26.2668 80.2812C23.0601 80.3171 20.4483 79.442 19.7869 79.4082C19.2999 79.3834 18.5369 79.8618 18.0369 79.8618C17.8417 79.8636 17.6688 79.732 17.5369 79.5983C17.0369 79.0915 16.6619 77.9513 16.4859 76.811C16.2869 75.9242 15.7598 70.7151 16.1266 67.8141C16.2381 66.3404 16.6152 64.8387 17.1887 63.769C17.4966 63.1948 17.87 62.6826 18.0965 62.372Z" fill="#FC4EA8"/>
<rect x="21.0291" y="63.6452" width="3.99221" height="7.03805" rx="1.99611" fill="#333232"/>
<path d="M22.2205 64.2032C22.2554 64.1666 22.2946 64.1345 22.3402 64.1127C22.561 64.0073 23.2921 63.7409 24.0233 64.3993C24.5959 64.915 24.6832 65.6429 24.6494 66.1828C24.623 66.6055 24.2094 66.8497 23.7943 66.7658C23.479 66.7021 23.2283 66.463 23.1498 66.1511L23.1135 66.0069C23.0563 65.7794 22.9259 65.5769 22.7424 65.4307L22.2795 65.0618C22.0117 64.8484 21.9844 64.4513 22.2205 64.2032Z" fill="white"/>
<rect x="27.0174" y="63.6452" width="3.99221" height="7.03805" rx="1.99611" fill="#333232"/>
<path d="M28.2088 64.2032C28.2437 64.1666 28.2828 64.1345 28.3285 64.1127C28.5492 64.0073 29.2804 63.7409 30.0115 64.3993C30.5841 64.915 30.6714 65.6429 30.6376 66.1828C30.6112 66.6055 30.1977 66.8497 29.7825 66.7658C29.4672 66.7021 29.2166 66.463 29.1381 66.1511L29.1018 66.0069C29.0445 65.7794 28.9141 65.5769 28.7306 65.4307L28.2677 65.0618C27.9999 64.8484 27.9726 64.4513 28.2088 64.2032Z" fill="white"/>
<path d="M28.762 72.2254C28.762 71.6509 29.2801 71.2188 29.8543 71.2369C30.2088 71.248 30.5612 71.2269 30.7581 71.1269C31.0435 70.9821 31.0025 71.6658 30.915 72.2777C30.8415 72.7922 30.3877 73.1536 29.868 73.1536H29.6902C29.1776 73.1536 28.762 72.738 28.762 72.2254Z" fill="#D42680"/>
<path d="M23.245 72.2254C23.245 71.6509 22.727 71.2188 22.1527 71.2369C21.7983 71.248 21.4458 71.2269 21.2489 71.1269C20.9635 70.9821 21.0045 71.6658 21.092 72.2777C21.1655 72.7922 21.6193 73.1536 22.139 73.1536H22.3168C22.8294 73.1536 23.245 72.738 23.245 72.2254Z" fill="#D42680"/>
<ellipse cx="31.7581" cy="62.8912" rx="0.74854" ry="0.754076" fill="#FD9BCE"/>
<ellipse cx="32.7562" cy="64.3994" rx="0.249513" ry="0.251412" fill="#FD9BCE"/>
<path d="M25.8772 60.7723C25.9117 60.5972 26.1621 60.5972 26.1965 60.7723C26.2212 60.8976 26.3741 60.947 26.4674 60.8597C26.5974 60.738 26.7982 60.8885 26.7245 61.0506C26.6716 61.1671 26.7656 61.2984 26.8927 61.2833C27.0706 61.262 27.1463 61.5022 26.9905 61.5907C26.8791 61.654 26.8791 61.8157 26.9905 61.879C27.1463 61.9675 27.0706 62.2077 26.8927 62.1864C26.7656 62.1713 26.6716 62.3026 26.7245 62.4191C26.7982 62.5812 26.5974 62.7317 26.4674 62.61C26.3741 62.5227 26.2212 62.5721 26.1965 62.6974C26.1621 62.8725 25.9117 62.8725 25.8772 62.6974C25.8525 62.5721 25.6996 62.5227 25.6064 62.61C25.4763 62.7317 25.2755 62.5812 25.3492 62.4191C25.4021 62.3026 25.3081 62.1713 25.181 62.1864C25.0031 62.2077 24.9275 61.9675 25.0833 61.879C25.1946 61.8157 25.1946 61.654 25.0833 61.5907C24.9275 61.5022 25.0031 61.262 25.181 61.2833C25.3081 61.2984 25.4021 61.1671 25.3492 61.0506C25.2755 60.8885 25.4763 60.738 25.6064 60.8597C25.6996 60.947 25.8525 60.8976 25.8772 60.7723Z" fill="#D42680"/>
<circle cx="12.9827" cy="92.1936" r="0.374856" fill="#70DE66"/>
<circle cx="14.6321" cy="93.0932" r="0.224913" fill="#25BA18"/>
<circle cx="13.8074" cy="97.8164" r="0.299885" fill="#25BA18"/>
<circle cx="13.3576" cy="95.8672" r="0.149942" fill="#25BA18"/>
<circle cx="14.2572" cy="94.8175" r="0.149942" fill="#70DE66"/>
<circle cx="14.9319" cy="90.6942" r="0.224913" fill="#70DE66"/>
<circle r="0.374856" transform="matrix(-1 0 0 1 13.2526 98.821)" fill="#70DE66"/>
<circle r="0.224913" transform="matrix(-1 0 0 1 11.6032 99.7206)" fill="#25BA18"/>
<circle r="0.299885" transform="matrix(-1 0 0 1 12.4279 104.444)" fill="#25BA18"/>
<circle r="0.149942" transform="matrix(-1 0 0 1 12.8777 102.495)" fill="#25BA18"/>
<circle r="0.149942" transform="matrix(-1 0 0 1 11.978 101.445)" fill="#70DE66"/>
<circle r="0.224913" transform="matrix(-1 0 0 1 11.3033 97.3216)" fill="#70DE66"/>
<circle cx="9.92387" cy="92.1936" r="0.374856" fill="#70DE66"/>
<circle cx="11.5732" cy="93.0932" r="0.224913" fill="#25BA18"/>
<circle cx="10.7486" cy="97.8164" r="0.299885" fill="#25BA18"/>
<circle cx="10.2987" cy="95.8672" r="0.149942" fill="#25BA18"/>
<circle cx="11.1984" cy="94.8175" r="0.149942" fill="#70DE66"/>
<circle cx="11.8731" cy="90.6942" r="0.224913" fill="#70DE66"/>
<path d="M7.02014 84.1945C7.02014 76.9267 17.0588 76.9267 17.1892 84.1945C17.2782 89.1575 16.5162 89.6588 16.0238 89.4776C15.7328 89.3704 15.4277 89.2173 15.1269 89.2931C12.8476 89.8673 11.376 89.8596 9.10117 89.2957C8.7912 89.2189 8.48111 89.3989 8.17518 89.4904C7.71164 89.6292 7.02014 89.0265 7.02014 84.1945Z" fill="#25BA18"/>
<path d="M8.0688 80.5933C8.39938 80.1401 9.08757 79.692 9.07944 79.6984C8.48266 80.1699 7.24983 85.8267 12.2341 89.7235C10.5993 89.7418 9.26777 89.2957 8.93056 89.2785C8.68232 89.2658 8.2933 89.5097 8.0384 89.5097C7.93889 89.5106 7.85075 89.4435 7.7835 89.3753C7.5286 89.117 7.33742 88.5357 7.24772 87.9544C7.14625 87.5023 6.87755 84.8467 7.06455 83.3677C7.1214 82.6164 7.31363 81.8508 7.60599 81.3055C7.76296 81.0128 7.95332 80.7516 8.0688 80.5933Z" fill="#209F15"/>
<rect x="9.56384" y="81.2425" width="2.03525" height="3.58802" rx="1.01762" fill="#333232"/>
<path d="M10.1712 81.527C10.189 81.5083 10.209 81.4919 10.2322 81.4808C10.3448 81.4271 10.7175 81.2913 11.0903 81.627C11.3822 81.8898 11.4267 82.2609 11.4095 82.5362C11.396 82.7517 11.1852 82.8762 10.9735 82.8334C10.8128 82.8009 10.685 82.679 10.645 82.52L10.6265 82.4465C10.5973 82.3305 10.5308 82.2273 10.4373 82.1528L10.2013 81.9647C10.0648 81.8559 10.0508 81.6534 10.1712 81.527Z" fill="white"/>
<rect x="12.6167" y="81.2425" width="2.03525" height="3.58802" rx="1.01762" fill="#333232"/>
<path d="M13.2241 81.527C13.2419 81.5083 13.2618 81.4919 13.2851 81.4808C13.3976 81.4271 13.7704 81.2913 14.1431 81.627C14.435 81.8898 14.4795 82.2609 14.4623 82.5362C14.4488 82.7517 14.238 82.8762 14.0264 82.8334C13.8657 82.8009 13.7379 82.679 13.6978 82.52L13.6793 82.4465C13.6501 82.3305 13.5837 82.2273 13.4901 82.1528L13.2541 81.9647C13.1176 81.8559 13.1037 81.6534 13.2241 81.527Z" fill="white"/>
<ellipse cx="15.0335" cy="80.8581" rx="0.381609" ry="0.384431" fill="#53D847"/>
<ellipse cx="15.5424" cy="81.627" rx="0.127203" ry="0.128171" fill="#53D847"/>
<path d="M12.0018 79.6334C12.0451 79.5322 12.1886 79.5322 12.2318 79.6334L12.4202 80.0745C12.424 80.0833 12.4287 80.0916 12.4344 80.0993L12.72 80.4892C12.7845 80.5773 12.713 80.7 12.6046 80.6873L12.1314 80.6319C12.1217 80.6308 12.1119 80.6308 12.1023 80.6319L11.6291 80.6873C11.5206 80.7 11.4492 80.5773 11.5137 80.4892L11.7993 80.0993C11.8049 80.0916 11.8097 80.0833 11.8134 80.0745L12.0018 79.6334Z" fill="#156A0E"/>
<rect y="111.744" width="194" height="2" rx="1" fill="#C36800"/>
</svg>
