<svg width="80" height="86" viewBox="0 0 80 86" fill="none" xmlns="http://www.w3.org/2000/svg">
<path d="M0.155762 43.1799C0.155762 -13.084 78.9209 -13.0839 79.9439 43.1798C80.6393 81.4265 74.717 85.4452 70.8528 84.0969C68.5308 83.2868 66.1123 82.0663 63.7256 82.659C45.8763 87.0917 34.3381 87.0324 16.5243 82.6804C14.0637 82.0793 11.6017 83.5178 9.1608 84.1943C5.52444 85.202 0.155762 80.3891 0.155762 43.1799Z" fill="#BD68D5"/>
<path d="M8.38597 15.3011C10.9797 11.7924 16.3794 8.32374 16.3156 8.37345C11.6332 12.0233 1.96017 55.8155 41.0673 85.982C28.2403 86.1236 17.7933 82.6702 15.1475 82.5368C13.1997 82.4386 10.1475 84.3268 8.14746 84.3268C7.36667 84.3339 6.67513 83.8144 6.14746 83.2868C4.14746 81.2868 2.64746 76.7868 1.94368 72.2864C1.14746 68.7868 -0.960778 48.2283 0.506472 36.7792C0.952518 30.9631 2.46081 25.0363 4.75473 20.8148C5.98631 18.5483 7.47988 16.5268 8.38597 15.3011Z" fill="#A954C1"/>
<path d="M53.4269 53.0331C53.5214 53.2146 53.5434 53.4266 53.484 53.6226C52.4402 57.0679 51.0775 57.7121 47.6895 56.6542C47.4914 56.5924 47.3271 56.452 47.2311 56.2678C46.8703 55.5752 47.6642 54.7356 48.4199 54.9302C49.1824 55.1266 49.9627 55.2046 50.4774 54.9354C50.991 54.6667 51.3727 53.9831 51.6477 53.246C51.9214 52.5121 53.0652 52.3391 53.4269 53.0331Z" fill="#A954C1"/>
<rect x="20.1165" y="20.3264" width="15.9688" height="27.7765" rx="7.98442" fill="#333232"/>
<path d="M24.8852 22.5255C25.0228 22.3829 25.1769 22.2585 25.3561 22.1738C26.2331 21.7593 29.1632 20.6994 32.0932 23.3027C34.3733 25.3285 34.7295 28.1847 34.5994 30.3124C34.4962 32.0011 32.8436 32.9745 31.1844 32.6437C29.9188 32.3914 28.9103 31.435 28.5913 30.1845L28.4556 29.6526C28.2256 28.7513 27.7046 27.9511 26.9735 27.3762L25.1179 25.9171C24.0514 25.0785 23.9432 23.5019 24.8852 22.5255Z" fill="white"/>
<rect x="44.0696" y="20.3264" width="15.9688" height="27.7765" rx="7.98442" fill="#333232"/>
<path d="M48.8383 22.5255C48.9759 22.3829 49.13 22.2585 49.3092 22.1738C50.1862 21.7593 53.1163 20.6994 56.0463 23.3027C58.3264 25.3285 58.6826 28.1847 58.5525 30.3124C58.4493 32.0011 56.7967 32.9745 55.1375 32.6437C53.8719 32.3914 52.8634 31.435 52.5444 30.1845L52.4087 29.6526C52.1787 28.7513 51.6578 27.9511 50.9266 27.3762L49.071 25.9171C48.0045 25.0785 47.8963 23.5019 48.8383 22.5255Z" fill="white"/>
<ellipse cx="63.0325" cy="17.3503" rx="2.99416" ry="2.97606" fill="#D17CE9"/>
<ellipse cx="67.0249" cy="23.3026" rx="0.998053" ry="0.992229" fill="#D17CE9"/>
<ellipse cx="5.14551" cy="47.1111" rx="0.998053" ry="0.992229" fill="#9540AD"/>
<path d="M39.1964 8.71384C39.4958 7.79253 40.7992 7.79253 41.0985 8.71384L41.4945 9.93269C41.6284 10.3447 42.0124 10.6237 42.4456 10.6237H43.7272C44.6959 10.6237 45.0987 11.8633 44.315 12.4327L43.2781 13.186C42.9277 13.4406 42.781 13.892 42.9149 14.304L43.3109 15.5229C43.6103 16.4442 42.5558 17.2103 41.7721 16.6409L40.7352 15.8876C40.3848 15.633 39.9102 15.633 39.5597 15.8876L38.5229 16.6409C37.7391 17.2103 36.6847 16.4442 36.984 15.5229L37.38 14.304C37.5139 13.892 37.3673 13.4406 37.0168 13.186L35.98 12.4327C35.1962 11.8633 35.599 10.6237 36.5677 10.6237H37.8493C38.2825 10.6237 38.6665 10.3447 38.8004 9.93269L39.1964 8.71384Z" fill="#A954C1"/>
</svg>
