<svg width="51" height="50" viewBox="0 0 51 50" fill="none" xmlns="http://www.w3.org/2000/svg">
<mask id="mask0_2327_483" style="mask-type:alpha" maskUnits="userSpaceOnUse" x="0" y="0" width="51" height="50">
<circle cx="25.7672" cy="25" r="25" fill="#FFE792"/>
</mask>
<g mask="url(#mask0_2327_483)">
<rect x="0.767212" width="50" height="50" fill="#EBC7F5"/>
<rect x="14" y="21" width="2" height="21" rx="1" fill="#66371A"/>
<rect x="16" y="19" width="2" height="21" rx="1" fill="#66371A"/>
<rect x="35" y="17" width="2" height="23" rx="1" fill="#66371A"/>
<rect x="32" y="17" width="3" height="26" rx="1.5" fill="#66371A"/>
<circle cx="37" cy="25" r="3" fill="#DB8E73"/>
<circle cx="14" cy="25" r="3" fill="#DB8E73"/>
<rect x="37" y="26" width="1" height="1" rx="0.5" fill="#FFC800"/>
<rect x="13" y="26" width="1" height="1" rx="0.5" fill="#FFC800"/>
<path d="M14.7672 22C14.7672 15.9249 19.6921 11 25.7672 11C31.8423 11 36.7672 15.9249 36.7672 22V35C36.7672 37.2091 34.9764 39 32.7672 39H18.7672C16.5581 39 14.7672 37.2091 14.7672 35V22Z" fill="#DB8E73"/>
<path d="M13 47C13 43.6863 15.6863 41 19 41H33C36.3137 41 39 43.6863 39 47V50H13V47Z" fill="#222222"/>
<path d="M30 41C30 41.2626 29.8965 41.5227 29.6955 41.7654C29.4945 42.008 29.1999 42.2285 28.8284 42.4142C28.457 42.5999 28.016 42.7472 27.5307 42.8478C27.0454 42.9483 26.5253 43 26 43C25.4747 43 24.9546 42.9483 24.4693 42.8478C23.984 42.7472 23.543 42.5999 23.1716 42.4142C22.8001 42.2285 22.5055 42.008 22.3045 41.7654C22.1035 41.5227 22 41.2626 22 41L30 41Z" fill="#DB8E73"/>
<path d="M22 39H30V41C30 41.5523 29.5523 42 29 42H23C22.4477 42 22 41.5523 22 41V39Z" fill="#DB8E73"/>
<path d="M13.7672 18C13.7672 12.4772 18.2444 8 23.7672 8H27.7672C33.2901 8 37.7672 12.4772 37.7672 18V21L25.7672 18.5L13.7672 21V18Z" fill="#333232"/>
<mask id="mask1_2327_483" style="mask-type:alpha" maskUnits="userSpaceOnUse" x="24" y="10" width="4" height="4">
<path d="M24 11.9862C24 9.33793 27.9459 9.33793 27.9972 11.9862C28.033 13.8365 27.7186 13.9849 27.5258 13.9063C27.423 13.8643 27.3128 13.8143 27.2047 13.8398C26.2922 14.0547 25.7103 14.0518 24.7994 13.8407C24.6877 13.8148 24.5755 13.8732 24.4675 13.9116C24.2856 13.9765 24 13.7909 24 11.9862Z" fill="#BD68D5"/>
</mask>
<g mask="url(#mask1_2327_483)">
<path d="M24 9.88889L28 9.88889V14.111H24V9.88889Z" fill="#F3F2F2"/>
<rect x="24.8889" y="10.9474" width="0.888889" height="1.47368" rx="0.444444" fill="#333232"/>
<rect x="26.2223" y="10.9474" width="0.888889" height="1.47368" rx="0.444444" fill="#333232"/>
</g>
<path d="M14 21C14 21 21.005 18 26 18C30.995 18 38 21 38 21" stroke="#222222" stroke-width="3" stroke-linecap="round"/>
<rect x="26.5" y="19.5" width="9" height="9" rx="3.5" fill="#F3F2F2" stroke="#FFC800"/>
<rect x="27.7672" y="23" width="2" height="3" rx="1" fill="#333232"/>
<rect x="-0.5" y="0.5" width="9" height="9" rx="3.5" transform="matrix(-1 0 0 1 25 19)" fill="#F3F2F2" stroke="#FFC800"/>
<rect width="2" height="3" rx="1" transform="matrix(-1 0 0 1 24 23)" fill="#333232"/>
<path d="M24.7672 29C24.7672 28.4696 24.2404 27.9609 23.3027 27.5858C22.3651 27.2107 21.0933 27 19.7672 27C18.4411 27 17.1694 27.2107 16.2317 27.5858C15.294 27.9609 14.7672 28.4696 14.7672 29L19.7672 29H24.7672Z" fill="#DB8E73"/>
<path d="M36.7672 29C36.7672 28.4696 36.2404 27.9609 35.3027 27.5858C34.3651 27.2107 33.0933 27 31.7672 27C30.4411 27 29.1694 27.2107 28.2317 27.5858C27.294 27.9609 26.7672 28.4696 26.7672 29L31.7672 29H36.7672Z" fill="#DB8E73"/>
<path d="M13 33.6287C13 30.52 15.4988 27.7281 18.5881 27.3823C20.2186 27.1997 21.9337 27.2557 24.5674 28.1957C25.5158 28.5343 26.5311 28.7016 27.5341 28.6109C30.853 28.3107 32.5812 28.2753 33.7723 28.3405C36.6675 28.499 39 31.1079 39 34.0074V34.0074C39 36.9069 36.6495 39.2574 33.75 39.2574H18.6287C15.5201 39.2574 13 36.7373 13 33.6287V33.6287Z" fill="#66371A"/>
<path d="M23.0891 29C23.0891 29 22.5282 32.6033 24.4584 32.6034C26.3887 32.6036 26.0891 30.5001 26.0891 30.5001" stroke="#36200C" stroke-linecap="round"/>
<rect x="25" y="29" width="2" height="2" rx="1" transform="rotate(-90 25 29)" fill="#DB8E73"/>
</g>
</svg>
