<svg width="50" height="50" viewBox="0 0 50 50" fill="none" xmlns="http://www.w3.org/2000/svg">
<mask id="mask0_2327_483" style="mask-type:alpha" maskUnits="userSpaceOnUse" x="0" y="0" width="50" height="50">
<circle cx="25" cy="25" r="25" fill="#FFE792"/>
</mask>
<g mask="url(#mask0_2327_483)">
<rect width="50" height="50" rx="25" fill="#EBC7F5"/>
<rect x="13.2328" y="21" width="2" height="21" rx="1" fill="#66371A"/>
<rect x="15.2328" y="19" width="2" height="21" rx="1" fill="#66371A"/>
<rect x="34.2328" y="17" width="2" height="23" rx="1" fill="#66371A"/>
<rect x="31.2328" y="17" width="3" height="26" rx="1.5" fill="#66371A"/>
<circle cx="36.2328" cy="25" r="3" fill="#DB8E73"/>
<circle cx="13.2328" cy="25" r="3" fill="#DB8E73"/>
<rect x="36.2328" y="26" width="1" height="1" rx="0.5" fill="#FFC800"/>
<rect x="12.2328" y="26" width="1" height="1" rx="0.5" fill="#FFC800"/>
<path d="M14 22C14 15.9249 18.9249 11 25 11C31.0751 11 36 15.9249 36 22V35C36 37.2091 34.2091 39 32 39H18C15.7909 39 14 37.2091 14 35V22Z" fill="#DB8E73"/>
<path d="M12.2328 47C12.2328 43.6863 14.9191 41 18.2328 41H32.2328C35.5465 41 38.2328 43.6863 38.2328 47V50H12.2328V47Z" fill="#222222"/>
<path d="M29.2328 41C29.2328 41.2626 29.1293 41.5227 28.9283 41.7654C28.7273 42.008 28.4326 42.2285 28.0612 42.4142C27.6898 42.5999 27.2488 42.7472 26.7635 42.8478C26.2782 42.9483 25.7581 43 25.2328 43C24.7075 43 24.1874 42.9483 23.7021 42.8478C23.2168 42.7472 22.7758 42.5999 22.4044 42.4142C22.0329 42.2285 21.7383 42.008 21.5373 41.7654C21.3363 41.5227 21.2328 41.2626 21.2328 41L29.2328 41Z" fill="#DB8E73"/>
<path d="M21.2328 39H29.2328V41C29.2328 41.5523 28.7851 42 28.2328 42H22.2328C21.6805 42 21.2328 41.5523 21.2328 41V39Z" fill="#DB8E73"/>
<path d="M13 18C13 12.4772 17.4772 8 23 8H27C32.5228 8 37 12.4772 37 18V21L25 18.5L13 21V18Z" fill="#333232"/>
<mask id="mask1_2327_483" style="mask-type:alpha" maskUnits="userSpaceOnUse" x="23" y="10" width="5" height="4">
<path d="M23.2328 11.9862C23.2328 9.33793 27.1787 9.33793 27.23 11.9862C27.2658 13.8365 26.9514 13.9849 26.7586 13.9063C26.6557 13.8643 26.5456 13.8143 26.4375 13.8398C25.5249 14.0547 24.943 14.0518 24.0322 13.8407C23.9205 13.8148 23.8083 13.8732 23.7003 13.9116C23.5184 13.9765 23.2328 13.7909 23.2328 11.9862Z" fill="#BD68D5"/>
</mask>
<g mask="url(#mask1_2327_483)">
<path d="M23.2328 9.88885L27.2328 9.88886V14.1109H23.2328V9.88885Z" fill="#F3F2F2"/>
<rect x="24.1217" y="10.9474" width="0.888889" height="1.47368" rx="0.444444" fill="#333232"/>
<rect x="25.4551" y="10.9474" width="0.888889" height="1.47368" rx="0.444444" fill="#333232"/>
</g>
<path d="M13.2328 21C13.2328 21 20.2378 18 25.2328 18C30.2278 18 37.2328 21 37.2328 21" stroke="#222222" stroke-width="3" stroke-linecap="round"/>
<rect x="25.7328" y="19.5" width="9" height="9" rx="3.5" fill="#F3F2F2" stroke="#FFC800"/>
<rect x="27" y="23" width="2" height="3" rx="1" fill="#333232"/>
<rect x="-0.5" y="0.5" width="9" height="9" rx="3.5" transform="matrix(-1 0 0 1 24.2328 19)" fill="#F3F2F2" stroke="#FFC800"/>
<rect width="2" height="3" rx="1" transform="matrix(-1 0 0 1 23.2328 23)" fill="#333232"/>
<path d="M24 29C24 28.4696 23.4732 27.9609 22.5355 27.5858C21.5979 27.2107 20.3261 27 19 27C17.6739 27 16.4021 27.2107 15.4645 27.5858C14.5268 27.9609 14 28.4696 14 29L19 29H24Z" fill="#DB8E73"/>
<path d="M36 29C36 28.4696 35.4732 27.9609 34.5355 27.5858C33.5979 27.2107 32.3261 27 31 27C29.6739 27 28.4021 27.2107 27.4645 27.5858C26.5268 27.9609 26 28.4696 26 29L31 29H36Z" fill="#DB8E73"/>
<path d="M12.2328 33.6287C12.2328 30.52 14.7315 27.7281 17.8209 27.3823C19.4514 27.1997 21.1664 27.2557 23.8002 28.1957C24.7486 28.5343 25.7639 28.7016 26.7668 28.6109C30.0858 28.3107 31.8139 28.2753 33.0051 28.3405C35.9003 28.499 38.2328 31.1079 38.2328 34.0074C38.2328 36.9069 35.8823 39.2574 32.9828 39.2574H17.8615C14.7528 39.2574 12.2328 36.7373 12.2328 33.6287Z" fill="#66371A"/>
<path d="M22.3219 29C22.3219 29 21.761 32.6033 23.6912 32.6034C25.6215 32.6036 25.3219 30.5001 25.3219 30.5001" stroke="#36200C" stroke-linecap="round"/>
<rect x="24.2328" y="29" width="2" height="2" rx="1" transform="rotate(-90 24.2328 29)" fill="#DB8E73"/>
</g>
</svg>
