<svg width="157" height="36" viewBox="0 0 157 36" fill="none" xmlns="http://www.w3.org/2000/svg">
<mask id="mask0_2431_806" style="mask-type:alpha" maskUnits="userSpaceOnUse" x="0" y="1" width="32" height="34">
<path d="M0 17.8835C0 -4.47968 31.5675 -4.47967 31.9775 17.8835C32.2374 32.0619 30.1903 34.4059 28.6569 34.2225C27.4809 34.0819 26.3077 33.3758 25.1564 33.6536C18.2948 35.3093 13.7385 35.2886 6.89298 33.6636C5.70577 33.3818 4.48893 34.2387 3.26874 34.2321C1.8394 34.2243 0 31.5578 0 17.8835Z" fill="#BD68D5"/>
</mask>
<g mask="url(#mask0_2431_806)">
<path fill-rule="evenodd" clip-rule="evenodd" d="M-4.57144 -3.46031L36.5714 -3.46024V39.9669H-4.57144V-3.46031ZM7.11112 12.6667C7.11112 10.703 8.703 9.11113 10.6667 9.11113C12.6304 9.11113 14.2222 10.703 14.2222 12.6667V18C14.2222 19.9637 12.6304 21.5556 10.6667 21.5556C8.703 21.5556 7.11112 19.9637 7.11112 18V12.6667ZM21.3334 9.11112C19.3697 9.11112 17.7778 10.703 17.7778 12.6667V18C17.7778 19.9637 19.3697 21.5556 21.3334 21.5556C23.297 21.5556 24.8889 19.9637 24.8889 18V12.6667C24.8889 10.703 23.297 9.11112 21.3334 9.11112Z" fill="#BD68D5"/>
</g>
<path d="M46 7.896H50.572L59.032 30H54.352L52.372 24.672H44.092L42.148 30H37.54L46 7.896ZM48.232 13.44L45.532 20.784H50.932L48.232 13.44ZM73.2863 15.6C74.3303 14.448 75.8783 13.548 78.1463 13.548C81.4583 13.548 83.4383 15.852 83.4383 19.488V30H78.9743V20.424C78.9743 18.696 78.2183 17.544 76.6703 17.544C75.5183 17.544 74.4743 18.264 74.1863 19.632V30H69.6863V20.424C69.6863 18.696 68.9663 17.544 67.4183 17.544C66.2663 17.544 65.1863 18.264 64.8983 19.632V30H60.4343V13.908H64.8983V15.24C65.6903 14.232 67.1663 13.548 68.9663 13.548C70.8743 13.548 72.3863 14.412 73.2863 15.6ZM100.833 21.972C100.833 26.904 97.6291 30.36 92.9491 30.36C88.2691 30.36 85.0651 26.904 85.0651 21.972C85.0651 17.004 88.2691 13.548 92.9491 13.548C97.6291 13.548 100.833 17.004 100.833 21.972ZM96.4051 21.972C96.4051 19.272 95.1811 17.328 92.9491 17.328C90.7171 17.328 89.4931 19.272 89.4931 21.972C89.4931 24.636 90.7171 26.58 92.9491 26.58C95.1811 26.58 96.4051 24.636 96.4051 21.972ZM112.539 24.744H116.679C116.103 28.164 113.583 30.36 109.551 30.36C104.871 30.36 101.739 26.94 101.739 21.972C101.739 17.112 104.979 13.548 109.479 13.548C114.195 13.548 116.787 16.824 116.787 21.54V22.908H106.059C106.203 25.32 107.571 26.76 109.551 26.76C111.063 26.76 112.179 26.112 112.539 24.744ZM109.515 17.184C107.787 17.184 106.563 18.228 106.167 20.208H112.395C112.359 18.516 111.351 17.184 109.515 17.184ZM123.006 28.668V30H118.506V6.6H123.006V15.24C123.726 14.376 125.31 13.548 127.038 13.548C131.718 13.548 134.346 17.364 134.346 21.972C134.346 26.58 131.718 30.36 127.038 30.36C125.31 30.36 123.726 29.532 123.006 28.668ZM123.006 19.308V24.6C123.51 25.716 124.698 26.472 126.03 26.472C128.442 26.472 129.882 24.528 129.882 21.972C129.882 19.38 128.442 17.436 126.03 17.436C124.734 17.436 123.51 18.228 123.006 19.308ZM149.377 30H145.093V29.136C144.553 29.676 142.933 30.288 141.169 30.288C137.929 30.288 135.193 28.416 135.193 25.068C135.193 22.008 137.929 19.92 141.421 19.92C142.825 19.92 144.445 20.388 145.093 20.856V19.668C145.093 18.3 144.265 17.184 142.465 17.184C141.205 17.184 140.449 17.76 140.089 18.696H135.841C136.309 15.78 138.937 13.548 142.609 13.548C146.893 13.548 149.377 15.888 149.377 19.74V30ZM145.093 25.608V24.456C144.697 23.592 143.473 23.052 142.177 23.052C140.773 23.052 139.333 23.664 139.333 25.032C139.333 26.436 140.773 27.012 142.177 27.012C143.473 27.012 144.697 26.472 145.093 25.608Z" fill="#BD68D5"/>
</svg>
