<?xml version="1.0" encoding="UTF-8"?>
<svg width="333px" height="333px" viewBox="0 0 333 333" version="1.1" xmlns="http://www.w3.org/2000/svg" xmlns:xlink="http://www.w3.org/1999/xlink">
    <!-- Generator: sketchtool 60 (101010) - https://sketch.com -->
    <title>259C55BD-2006-48EF-8AAE-8DB7FDC70CBE</title>
    <desc>Created with sketchtool.</desc>
    <g id="Flow" stroke="none" stroke-width="1" fill="none" fill-rule="evenodd" opacity="0.15484189">
        <g id="Sign-up" transform="translate(-1027.000000, -271.000000)" fill="#EB7AE2" fill-rule="nonzero">
            <g id="Tip-Space" transform="translate(883.000000, 0.000000)">
                <g id="dots" transform="translate(144.000000, 271.000000)">
                    <circle id="Oval" cx="8.5" cy="8.5" r="8.5"></circle>
                    <circle id="Oval" cx="8.5" cy="32.5" r="8.5"></circle>
                    <circle id="Oval" cx="8.5" cy="57.5" r="8.5"></circle>
                    <circle id="Oval" cx="8.5" cy="81.5" r="8.5"></circle>
                    <circle id="Oval" cx="8.5" cy="105.5" r="8.5"></circle>
                    <circle id="Oval" cx="8.5" cy="129.5" r="8.5"></circle>
                    <circle id="Oval" cx="8.5" cy="154.5" r="8.5"></circle>
                    <circle id="Oval" cx="8.5" cy="178.5" r="8.5"></circle>
                    <circle id="Oval" cx="8.5" cy="202.5" r="8.5"></circle>
                    <circle id="Oval" cx="8.5" cy="227.5" r="8.5"></circle>
                    <circle id="Oval" cx="8.5" cy="251.5" r="8.5"></circle>
                    <circle id="Oval" cx="8.5" cy="275.5" r="8.5"></circle>
                    <circle id="Oval" cx="8.5" cy="300.5" r="8.5"></circle>
                    <circle id="Oval" cx="8.5" cy="324.5" r="8.5"></circle>
                    <circle id="Oval" cx="32.5" cy="8.5" r="8.5"></circle>
                    <circle id="Oval" cx="32.5" cy="32.5" r="8.5"></circle>
                    <circle id="Oval" cx="32.5" cy="57.5" r="8.5"></circle>
                    <circle id="Oval" cx="32.5" cy="81.5" r="8.5"></circle>
                    <circle id="Oval" cx="32.5" cy="105.5" r="8.5"></circle>
                    <circle id="Oval" cx="32.5" cy="129.5" r="8.5"></circle>
                    <circle id="Oval" cx="32.5" cy="154.5" r="8.5"></circle>
                    <circle id="Oval" cx="32.5" cy="178.5" r="8.5"></circle>
                    <circle id="Oval" cx="32.5" cy="202.5" r="8.5"></circle>
                    <circle id="Oval" cx="32.5" cy="227.5" r="8.5"></circle>
                    <circle id="Oval" cx="32.5" cy="251.5" r="8.5"></circle>
                    <circle id="Oval" cx="32.5" cy="275.5" r="8.5"></circle>
                    <circle id="Oval" cx="32.5" cy="300.5" r="8.5"></circle>
                    <circle id="Oval" cx="32.5" cy="324.5" r="8.5"></circle>
                    <circle id="Oval" cx="57.5" cy="8.5" r="8.5"></circle>
                    <circle id="Oval" cx="57.5" cy="32.5" r="8.5"></circle>
                    <circle id="Oval" cx="57.5" cy="57.5" r="8.5"></circle>
                    <circle id="Oval" cx="57.5" cy="81.5" r="8.5"></circle>
                    <circle id="Oval" cx="57.5" cy="105.5" r="8.5"></circle>
                    <circle id="Oval" cx="57.5" cy="129.5" r="8.5"></circle>
                    <circle id="Oval" cx="57.5" cy="154.5" r="8.5"></circle>
                    <circle id="Oval" cx="57.5" cy="178.5" r="8.5"></circle>
                    <circle id="Oval" cx="57.5" cy="202.5" r="8.5"></circle>
                    <circle id="Oval" cx="57.5" cy="227.5" r="8.5"></circle>
                    <circle id="Oval" cx="57.5" cy="251.5" r="8.5"></circle>
                    <circle id="Oval" cx="57.5" cy="275.5" r="8.5"></circle>
                    <circle id="Oval" cx="57.5" cy="300.5" r="8.5"></circle>
                    <circle id="Oval" cx="57.5" cy="324.5" r="8.5"></circle>
                    <circle id="Oval" cx="81.5" cy="8.5" r="8.5"></circle>
                    <circle id="Oval" cx="81.5" cy="32.5" r="8.5"></circle>
                    <circle id="Oval" cx="81.5" cy="57.5" r="8.5"></circle>
                    <circle id="Oval" cx="81.5" cy="81.5" r="8.5"></circle>
                    <circle id="Oval" cx="81.5" cy="105.5" r="8.5"></circle>
                    <circle id="Oval" cx="81.5" cy="129.5" r="8.5"></circle>
                    <circle id="Oval" cx="81.5" cy="154.5" r="8.5"></circle>
                    <circle id="Oval" cx="81.5" cy="178.5" r="8.5"></circle>
                    <circle id="Oval" cx="81.5" cy="202.5" r="8.5"></circle>
                    <circle id="Oval" cx="81.5" cy="227.5" r="8.5"></circle>
                    <circle id="Oval" cx="81.5" cy="251.5" r="8.5"></circle>
                    <circle id="Oval" cx="81.5" cy="275.5" r="8.5"></circle>
                    <circle id="Oval" cx="81.5" cy="300.5" r="8.5"></circle>
                    <circle id="Oval" cx="81.5" cy="324.5" r="8.5"></circle>
                    <circle id="Oval" cx="105.5" cy="8.5" r="8.5"></circle>
                    <circle id="Oval" cx="105.5" cy="32.5" r="8.5"></circle>
                    <circle id="Oval" cx="105.5" cy="57.5" r="8.5"></circle>
                    <circle id="Oval" cx="105.5" cy="81.5" r="8.5"></circle>
                    <circle id="Oval" cx="105.5" cy="105.5" r="8.5"></circle>
                    <circle id="Oval" cx="105.5" cy="129.5" r="8.5"></circle>
                    <circle id="Oval" cx="105.5" cy="154.5" r="8.5"></circle>
                    <circle id="Oval" cx="105.5" cy="178.5" r="8.5"></circle>
                    <circle id="Oval" cx="105.5" cy="202.5" r="8.5"></circle>
                    <circle id="Oval" cx="105.5" cy="227.5" r="8.5"></circle>
                    <circle id="Oval" cx="105.5" cy="251.5" r="8.5"></circle>
                    <circle id="Oval" cx="105.5" cy="275.5" r="8.5"></circle>
                    <circle id="Oval" cx="105.5" cy="300.5" r="8.5"></circle>
                    <circle id="Oval" cx="105.5" cy="324.5" r="8.5"></circle>
                    <circle id="Oval" cx="129.5" cy="8.5" r="8.5"></circle>
                    <circle id="Oval" cx="129.5" cy="32.5" r="8.5"></circle>
                    <circle id="Oval" cx="129.5" cy="57.5" r="8.5"></circle>
                    <circle id="Oval" cx="129.5" cy="81.5" r="8.5"></circle>
                    <circle id="Oval" cx="129.5" cy="105.5" r="8.5"></circle>
                    <circle id="Oval" cx="129.5" cy="129.5" r="8.5"></circle>
                    <circle id="Oval" cx="129.5" cy="154.5" r="8.5"></circle>
                    <circle id="Oval" cx="129.5" cy="178.5" r="8.5"></circle>
                    <circle id="Oval" cx="129.5" cy="202.5" r="8.5"></circle>
                    <circle id="Oval" cx="129.5" cy="227.5" r="8.5"></circle>
                    <circle id="Oval" cx="129.5" cy="251.5" r="8.5"></circle>
                    <circle id="Oval" cx="129.5" cy="275.5" r="8.5"></circle>
                    <circle id="Oval" cx="129.5" cy="300.5" r="8.5"></circle>
                    <circle id="Oval" cx="129.5" cy="324.5" r="8.5"></circle>
                    <circle id="Oval" cx="154.5" cy="8.5" r="8.5"></circle>
                    <circle id="Oval" cx="154.5" cy="32.5" r="8.5"></circle>
                    <circle id="Oval" cx="154.5" cy="57.5" r="8.5"></circle>
                    <circle id="Oval" cx="154.5" cy="81.5" r="8.5"></circle>
                    <circle id="Oval" cx="154.5" cy="105.5" r="8.5"></circle>
                    <circle id="Oval" cx="154.5" cy="129.5" r="8.5"></circle>
                    <circle id="Oval" cx="154.5" cy="154.5" r="8.5"></circle>
                    <circle id="Oval" cx="154.5" cy="178.5" r="8.5"></circle>
                    <circle id="Oval" cx="154.5" cy="202.5" r="8.5"></circle>
                    <circle id="Oval" cx="154.5" cy="227.5" r="8.5"></circle>
                    <circle id="Oval" cx="154.5" cy="251.5" r="8.5"></circle>
                    <circle id="Oval" cx="154.5" cy="275.5" r="8.5"></circle>
                    <circle id="Oval" cx="154.5" cy="300.5" r="8.5"></circle>
                    <circle id="Oval" cx="154.5" cy="324.5" r="8.5"></circle>
                    <circle id="Oval" cx="178.5" cy="8.5" r="8.5"></circle>
                    <circle id="Oval" cx="178.5" cy="32.5" r="8.5"></circle>
                    <circle id="Oval" cx="178.5" cy="57.5" r="8.5"></circle>
                    <circle id="Oval" cx="178.5" cy="81.5" r="8.5"></circle>
                    <circle id="Oval" cx="178.5" cy="105.5" r="8.5"></circle>
                    <circle id="Oval" cx="178.5" cy="129.5" r="8.5"></circle>
                    <circle id="Oval" cx="178.5" cy="154.5" r="8.5"></circle>
                    <circle id="Oval" cx="178.5" cy="178.5" r="8.5"></circle>
                    <circle id="Oval" cx="178.5" cy="202.5" r="8.5"></circle>
                    <circle id="Oval" cx="178.5" cy="227.5" r="8.5"></circle>
                    <circle id="Oval" cx="178.5" cy="251.5" r="8.5"></circle>
                    <circle id="Oval" cx="178.5" cy="275.5" r="8.5"></circle>
                    <circle id="Oval" cx="178.5" cy="300.5" r="8.5"></circle>
                    <circle id="Oval" cx="178.5" cy="324.5" r="8.5"></circle>
                    <circle id="Oval" cx="202.5" cy="8.5" r="8.5"></circle>
                    <circle id="Oval" cx="202.5" cy="32.5" r="8.5"></circle>
                    <circle id="Oval" cx="202.5" cy="57.5" r="8.5"></circle>
                    <circle id="Oval" cx="202.5" cy="81.5" r="8.5"></circle>
                    <circle id="Oval" cx="202.5" cy="105.5" r="8.5"></circle>
                    <circle id="Oval" cx="202.5" cy="129.5" r="8.5"></circle>
                    <circle id="Oval" cx="202.5" cy="154.5" r="8.5"></circle>
                    <circle id="Oval" cx="202.5" cy="178.5" r="8.5"></circle>
                    <circle id="Oval" cx="202.5" cy="202.5" r="8.5"></circle>
                    <circle id="Oval" cx="202.5" cy="227.5" r="8.5"></circle>
                    <circle id="Oval" cx="202.5" cy="251.5" r="8.5"></circle>
                    <circle id="Oval" cx="202.5" cy="275.5" r="8.5"></circle>
                    <circle id="Oval" cx="202.5" cy="300.5" r="8.5"></circle>
                    <circle id="Oval" cx="202.5" cy="324.5" r="8.5"></circle>
                    <circle id="Oval" cx="227.5" cy="8.5" r="8.5"></circle>
                    <circle id="Oval" cx="227.5" cy="32.5" r="8.5"></circle>
                    <circle id="Oval" cx="227.5" cy="57.5" r="8.5"></circle>
                    <circle id="Oval" cx="227.5" cy="81.5" r="8.5"></circle>
                    <circle id="Oval" cx="227.5" cy="105.5" r="8.5"></circle>
                    <circle id="Oval" cx="227.5" cy="129.5" r="8.5"></circle>
                    <circle id="Oval" cx="227.5" cy="154.5" r="8.5"></circle>
                    <circle id="Oval" cx="227.5" cy="178.5" r="8.5"></circle>
                    <circle id="Oval" cx="227.5" cy="202.5" r="8.5"></circle>
                    <circle id="Oval" cx="227.5" cy="227.5" r="8.5"></circle>
                    <circle id="Oval" cx="227.5" cy="251.5" r="8.5"></circle>
                    <circle id="Oval" cx="227.5" cy="275.5" r="8.5"></circle>
                    <circle id="Oval" cx="227.5" cy="300.5" r="8.5"></circle>
                    <circle id="Oval" cx="227.5" cy="324.5" r="8.5"></circle>
                    <circle id="Oval" cx="251.5" cy="8.5" r="8.5"></circle>
                    <circle id="Oval" cx="251.5" cy="32.5" r="8.5"></circle>
                    <circle id="Oval" cx="251.5" cy="57.5" r="8.5"></circle>
                    <circle id="Oval" cx="251.5" cy="81.5" r="8.5"></circle>
                    <circle id="Oval" cx="251.5" cy="105.5" r="8.5"></circle>
                    <circle id="Oval" cx="251.5" cy="129.5" r="8.5"></circle>
                    <circle id="Oval" cx="251.5" cy="154.5" r="8.5"></circle>
                    <circle id="Oval" cx="251.5" cy="178.5" r="8.5"></circle>
                    <circle id="Oval" cx="251.5" cy="202.5" r="8.5"></circle>
                    <circle id="Oval" cx="251.5" cy="227.5" r="8.5"></circle>
                    <circle id="Oval" cx="251.5" cy="251.5" r="8.5"></circle>
                    <circle id="Oval" cx="251.5" cy="275.5" r="8.5"></circle>
                    <circle id="Oval" cx="251.5" cy="300.5" r="8.5"></circle>
                    <circle id="Oval" cx="251.5" cy="324.5" r="8.5"></circle>
                    <circle id="Oval" cx="275.5" cy="8.5" r="8.5"></circle>
                    <circle id="Oval" cx="275.5" cy="32.5" r="8.5"></circle>
                    <circle id="Oval" cx="275.5" cy="57.5" r="8.5"></circle>
                    <circle id="Oval" cx="275.5" cy="81.5" r="8.5"></circle>
                    <circle id="Oval" cx="275.5" cy="105.5" r="8.5"></circle>
                    <circle id="Oval" cx="275.5" cy="129.5" r="8.5"></circle>
                    <circle id="Oval" cx="275.5" cy="154.5" r="8.5"></circle>
                    <circle id="Oval" cx="275.5" cy="178.5" r="8.5"></circle>
                    <circle id="Oval" cx="275.5" cy="202.5" r="8.5"></circle>
                    <circle id="Oval" cx="275.5" cy="227.5" r="8.5"></circle>
                    <circle id="Oval" cx="275.5" cy="251.5" r="8.5"></circle>
                    <circle id="Oval" cx="275.5" cy="275.5" r="8.5"></circle>
                    <circle id="Oval" cx="275.5" cy="300.5" r="8.5"></circle>
                    <circle id="Oval" cx="275.5" cy="324.5" r="8.5"></circle>
                    <circle id="Oval" cx="300.5" cy="8.5" r="8.5"></circle>
                    <circle id="Oval" cx="300.5" cy="32.5" r="8.5"></circle>
                    <circle id="Oval" cx="300.5" cy="57.5" r="8.5"></circle>
                    <circle id="Oval" cx="300.5" cy="81.5" r="8.5"></circle>
                    <circle id="Oval" cx="300.5" cy="105.5" r="8.5"></circle>
                    <circle id="Oval" cx="300.5" cy="129.5" r="8.5"></circle>
                    <circle id="Oval" cx="300.5" cy="154.5" r="8.5"></circle>
                    <circle id="Oval" cx="300.5" cy="178.5" r="8.5"></circle>
                    <circle id="Oval" cx="300.5" cy="202.5" r="8.5"></circle>
                    <circle id="Oval" cx="300.5" cy="227.5" r="8.5"></circle>
                    <circle id="Oval" cx="300.5" cy="251.5" r="8.5"></circle>
                    <circle id="Oval" cx="300.5" cy="275.5" r="8.5"></circle>
                    <circle id="Oval" cx="300.5" cy="300.5" r="8.5"></circle>
                    <circle id="Oval" cx="300.5" cy="324.5" r="8.5"></circle>
                    <circle id="Oval" cx="324.5" cy="8.5" r="8.5"></circle>
                    <circle id="Oval" cx="324.5" cy="32.5" r="8.5"></circle>
                    <circle id="Oval" cx="324.5" cy="57.5" r="8.5"></circle>
                    <circle id="Oval" cx="324.5" cy="81.5" r="8.5"></circle>
                    <circle id="Oval" cx="324.5" cy="105.5" r="8.5"></circle>
                    <circle id="Oval" cx="324.5" cy="129.5" r="8.5"></circle>
                    <circle id="Oval" cx="324.5" cy="154.5" r="8.5"></circle>
                    <circle id="Oval" cx="324.5" cy="178.5" r="8.5"></circle>
                    <circle id="Oval" cx="324.5" cy="202.5" r="8.5"></circle>
                    <circle id="Oval" cx="324.5" cy="227.5" r="8.5"></circle>
                    <circle id="Oval" cx="324.5" cy="251.5" r="8.5"></circle>
                    <circle id="Oval" cx="324.5" cy="275.5" r="8.5"></circle>
                    <circle id="Oval" cx="324.5" cy="300.5" r="8.5"></circle>
                    <circle id="Oval" cx="324.5" cy="324.5" r="8.5"></circle>
                </g>
            </g>
        </g>
    </g>
</svg>
