<svg height="30" viewBox="0 0 19 22" width="22" xmlns="http://www.w3.org/2000/svg"><path d="m58.8972767 19.6145492v-2.1211464c0-1.1149467-.3744343-1.9349994-1.1234112-2.4602136.4692881-.046053.9000825-.1105714 1.2925997-.1934999.3925172-.0829286.807665-.2027327 1.2452269-.3593571.4376702-.1566244.8301873-.3432136 1.1775515-.5597677.3474724-.2165541.6813015-.4975713 1.0015955-.8431069.3204023-.3455356.5887758-.7371242.805337-1.1748211s.3880777-.962911.5143329-1.5756424c.1263634-.61273139.189491-1.28771448.189491-2.0248387 0-1.42819546-.4556448-2.64448083-1.3670426-3.64885612.4151478-1.10571397.3699948-2.30817792-.1353507-3.60739184-.6632187.02148771-1.1978542.1090234-1.6039064.26260707-.6090784.23037551-1.2925997.60814269-2.0505639 1.13335682-1.0737104-.30407134-2.1881343-.45610701-3.3431093-.45610701-1.1640165 0-2.2738926.15203567-3.3296285.45610701-.4782212-.33171419-1.116607-.82156644-1.9358608-1.13335682-.5461693-.20786025-1.1235507-.29539594-1.7321445-.26260707-.3669629 1.67394039-.4120798 2.87640433-.1353507 3.60739184-.9113437 1.00437529-1.3670426 2.22066066-1.3670426 3.64885612 0 .73712422.0631817 1.41210731.189491 2.0248387.1263094.6127314.2977717 1.1379455.5143329 1.5756424s.4849888.8292855.805337 1.1748211c.3203481.3455356.6541772.6265528 1.0015955.8431069s.7399355.4031433 1.1775515.5597677c.4376161.1566244.8527097.2764285 1.2452269.3593571.3925172.0829285.8233657.1474469 1.2925997.1934999-.7399355.5159814-1.1098762 1.3360895-1.1098762 2.4602136v2.1625001c.4763612.9068642 1.6042751 1.3548702 3.3837417 1.3440183 1.7794666-.010852 2.9118922-.4726427 3.3972767-1.385372z" fill="none" stroke="#fff" transform="translate(-46)"/></svg>