<?xml version="1.0" encoding="UTF-8"?>
<svg width="137px" height="37px" viewBox="0 0 207 37" version="1.1" xmlns="http://www.w3.org/2000/svg" xmlns:xlink="http://www.w3.org/1999/xlink">
    <g id="Flow" stroke="none" stroke-width="1" fill="none" fill-rule="evenodd">
        <g id="Home" transform="translate(-143.000000, -33.000000)">
            <g id="HGLogo-2019-v05_default-dark-Copy" transform="translate(143.000000, 33.000000)">
                <path d="M84.0717986,24.4507582 C84.3237986,26.0113559 85.7517986,26.5929191 87.3099985,26.5929191 C88.8681985,26.5929191 90.0609985,25.9360455 90.0945985,25.141103 C90.1491985,23.9361375 89.1999985,23.2206893 87.8559985,22.961287 C86.9277985,22.7855628 84.1431986,22.2374709 84.1431986,22.2374709 C80.7579986,21.6224364 78.8301987,20.6475859 78.8301987,17.7816089 C78.8301987,14.049563 82.0683986,11.6187124 86.6925985,11.6187124 C91.2411985,11.6187124 94.2525984,13.685563 94.9875984,16.8402296 L89.6745985,17.8903905 C89.4939985,16.7649193 88.4145985,15.7524135 86.6169985,15.7524135 C85.0545986,15.7524135 84.2691986,16.4051032 84.1263986,17.1665744 C84.0297986,17.6644595 84.2691986,18.0786664 85.9281986,18.4217468 C86.9991985,18.6518618 90.2205985,19.2919997 90.2205985,19.2919997 C93.6771984,20.0158158 95.2605984,22.0826663 95.2605984,24.7645513 C95.2605984,28.7894708 91.7661985,30.8939765 86.9613985,30.8939765 C82.6689986,30.8939765 78.9813987,29.3333788 78.3723987,25.6013329 L84.0717986,24.4507582 Z" id="Path" fill="#fff" fill-rule="nonzero"></path>
                <path d="M137.151398,16.1749882 C137.246664,16.9117803 137.295759,17.6537692 137.298398,18.3966434 C137.298398,25.7896088 131.997998,31.1073558 124.614398,31.1073558 C117.230798,31.1073558 111.417998,25.5218386 111.417998,18.3589882 C111.417998,11.1961377 117.155198,5.6148045 124.505198,5.6148045 C129.965198,5.6148045 134.740598,8.16280446 136.458398,12.9366435 L130.645598,14.6102066 C129.217598,11.8404596 126.865598,11.1124596 124.505198,11.1124596 C120.519398,11.1124596 117.486998,14.2462067 117.486998,18.3589882 C117.486998,22.4717697 120.590798,25.643172 124.685798,25.643172 C127.902998,25.643172 130.242398,23.9696088 131.157998,21.2751721 L123.660998,21.2751721 L123.660998,16.1749882 L137.151398,16.1749882 Z" id="Path" fill="#fff" fill-rule="nonzero"></path>
                <g id="Text-Default" transform="translate(33.759999, 5.439080)" fill="#fff" fill-rule="nonzero">
                    <polygon id="Path" points="22.5623996 24.7059766 16.5689997 24.7059766 16.5689997 15.0620687 6.25799989 15.0620687 6.25799989 24.7059766 0.226799996 24.7059766 0.226799996 0.305425282 6.25799989 0.305425282 6.25799989 9.8112642 16.5689997 9.8112642 16.5689997 0.305425282 22.5623996 0.305425282"></polygon>
                    <path d="M44.2763992,15.5641377 C44.2763992,21.3546663 39.6563993,25.2164134 34.2215994,25.2164134 C28.6649995,25.2164134 24.0575996,21.3546663 24.0575996,15.5641377 C24.0575996,9.77360903 28.6775995,5.94114932 34.2215994,5.94114932 C39.6689993,5.95370105 44.2763992,9.8112642 44.2763992,15.5641377 Z M38.6399993,15.5641377 C38.6399993,12.7232642 36.4853994,10.8321377 34.2173994,10.8321377 C32.9819496,10.8459731 31.8044624,11.3562227 30.9520189,12.24715 C30.0995754,13.1380774 29.6444225,14.334174 29.6897995,15.5641377 C29.6897995,18.4426664 31.8443995,20.3003215 34.2215994,20.3003215 C36.4895994,20.3003215 38.6399993,18.4426664 38.6399993,15.5641377 Z" id="Shape"></path>
                    <path d="M77.8469987,23.9068502 C76.3264601,24.7873869 74.5993922,25.2521395 72.8405988,25.2540685 C68.2709988,25.2540685 65.5199989,22.777195 65.5199989,17.9908043 L65.5199989,11.049701 L62.2019989,11.049701 L62.2019989,6.44740219 L65.5199989,6.44740219 L65.5199989,1.56059767 L71.3705988,0.305425282 L71.3705988,6.42648265 L76.7801987,6.42648265 L76.7801987,11.0287814 L71.3999988,11.0287814 L71.3999988,17.3883215 C71.3999988,19.2794479 72.3113988,20.0451031 73.8485987,20.0451031 C74.7823637,20.0125432 75.6956018,19.7632604 76.5155987,19.3171031 L77.8469987,23.9068502 Z" id="Path"></path>
                    <path d="M122.039398,13.1249193 L122.039398,24.7059766 L116.411398,24.7059766 L116.411398,23.3587582 C114.88002,24.6424554 112.926611,25.3174199 110.926198,25.2540685 C106.835398,25.2540685 104.092798,22.8859766 104.092798,19.2794479 C104.092798,15.6729193 106.835398,13.3885055 111.719998,13.3885055 L116.398798,13.3885055 L116.398798,13.0245055 C116.43696,12.3326016 116.177395,11.6572725 115.685122,11.1676841 C115.192849,10.6780957 114.5145,10.4206261 113.819998,10.4597699 C112.064398,10.4597699 111.039598,11.1501148 110.749798,12.7525515 L105.230998,11.6228964 C106.033198,8.09167802 109.250398,5.87002289 113.630998,5.87002289 C118.788598,5.8783907 122.039398,8.46404583 122.039398,13.1249193 Z M116.411398,17.4971032 L116.411398,17.0787124 L112.387798,17.0787124 C110.926198,17.0787124 110.014798,17.8443675 110.014798,18.9740227 C110.014798,20.1036778 111.035398,20.8651491 112.572598,20.8651491 C114.584398,20.8818847 116.411398,19.5346663 116.411398,17.4971032 L116.411398,17.4971032 Z" id="Shape"></path>
                    <path d="M138.562198,23.9068502 C137.042583,24.78594 135.31726,25.2506129 133.559998,25.2540685 C128.990398,25.2540685 126.251998,22.777195 126.251998,17.9698848 L126.251998,11.049701 L122.925598,11.049701 L122.925598,6.44740219 L126.251998,6.44740219 L126.251998,1.56059767 L132.098398,0.305425282 L132.098398,6.42648265 L137.507998,6.42648265 L137.507998,11.0287814 L132.089998,11.0287814 L132.089998,17.3883215 C132.089998,19.2794479 133.005598,20.0451031 134.538598,20.0451031 C135.473769,20.0130369 136.388484,19.7637436 137.209798,19.3171031 L138.562198,23.9068502 Z" id="Path"></path>
                    <path d="M157.861197,15.5641377 C157.861197,21.3546663 153.241197,25.2164134 147.810597,25.2164134 C142.253998,25.2164134 137.646598,21.3546663 137.646598,15.5641377 C137.646598,9.77360903 142.266598,5.94114932 147.810597,5.94114932 C153.257997,5.95370105 157.861197,9.8112642 157.861197,15.5641377 Z M152.233197,15.5641377 C152.233197,12.7232642 150.074397,10.8321377 147.810597,10.8321377 C146.573683,10.8437312 145.394015,11.3529993 144.539748,12.2441789 C143.685481,13.1353585 143.229191,14.3327379 143.274598,15.5641377 C143.274598,18.4426664 145.433398,20.3003215 147.810597,20.3003215 C150.074397,20.3003215 152.233197,18.4426664 152.233197,15.5641377 L152.233197,15.5641377 Z" id="Shape"></path>
                    <path d="M172.813197,6.31770104 L172.556997,12.1333331 L171.494397,12.1333331 C167.403597,12.1333331 165.173397,14.2252871 165.173397,18.9823905 L165.173397,24.7059766 L159.322797,24.7059766 L159.322797,7.68165504 L165.173397,6.42648265 L165.173397,9.92004581 C166.487997,7.73604585 168.499797,6.15452863 171.494397,6.15452863 C171.939406,6.14881631 172.383112,6.20371507 172.813197,6.31770104 Z" id="Path"></path>
                </g>
                <g id="Snappy-Default">
                    <g id="Back_Leg" transform="translate(18.000000, 26.000000)">
                        <path d="M3.07859995,0.167356319 C2.05379997,1.1547586 1.03319998,2.51034478 0,3.48937925 C0.491399992,6.06248266 -0.470399992,7.19213781 0.688799988,8.11678147 C1.10879998,8.4473102 3.62879994,9.15439065 5.07779991,8.33434469 C5.10719991,6.99967804 4.37639993,6.60220678 3.59519994,6.10432174 C2.80139995,4.43075855 3.08699995,1.8367356 3.07019995,0.167356319" id="Path" fill="#4480C5"></path>
                        <path d="M3.66659994,8.7108964 C3.49826252,7.94645311 2.95533899,7.31756548 2.22179996,7.03733321 C2.80374186,7.39168199 3.14762796,8.03199699 3.12059995,8.7108964 C3.30539994,8.71926422 3.48599994,8.71926422 3.66659994,8.7108964 Z" id="Path" fill="#2E578B"></path>
                        <path d="M4.88879992,8.43475848 C4.72494511,7.67080529 4.18451621,7.04114647 3.45239994,6.76119529 C4.19999993,7.33439068 4.43939992,7.94942515 4.33439993,8.61885043 C4.52466236,8.57521067 4.71030541,8.51356675 4.88879992,8.43475848 L4.88879992,8.43475848 Z" id="Path" fill="#2E578B"></path>
                    </g>
                    <g id="Back_Arm" transform="translate(19.000000, 13.000000)">
                        <path d="M0.690666655,0.652689644 C0.102666665,1.4183448 -0.158666664,3.02496547 4.51733326,5.38050566 C4.51733326,5.38050566 2.55266662,8.42220675 1.93199997,8.97866651 C1.31133331,9.53512627 0.933333317,11.0162297 1.53999997,11.7609653 C1.8540263,12.1526477 2.21384771,12.5131165 2.61333329,12.8362297 C2.61333329,12.8362297 4.1626666,13.095632 4.82533325,12.7609193 C5.64506066,11.9483144 5.82991545,10.7699607 5.29199991,9.78616075 C5.29199991,9.78616075 9.23533318,6.0875861 8.98333318,4.97466658 C8.73133318,3.86174706 2.55266662,-1.77397698 0.690666655,0.652689644 Z" id="Path" fill="#4480C5"></path>
                        <path d="M5.26866658,9.78616075 C5.26866658,9.78616075 3.6726666,10.9660228 3.27133328,11.1668504 C3.59649165,11.0786254 3.90956599,10.9579298 4.2046666,10.8070343 C4.2046666,10.8070343 4.91399992,11.5852412 4.39599993,12.2421147 C4.39599993,12.2421147 5.32933324,11.7525975 4.70866659,10.6271263 C4.92373478,10.3841107 5.12018494,10.1283061 5.29666658,9.8614711 L5.26866658,9.78616075 Z" id="Path" fill="#2E578B"></path>
                    </g>
                    <g id="Body" transform="translate(0.000000, 4.000000)">
                        <g id="Tail_Spines" transform="translate(2.195455, 15.480460)" fill="#4480C5">
                            <path d="M6.17800899,1.98735629 C6.16733104,2.26112469 6.07934974,2.52707951 5.92333626,2.75719536 C5.66866354,3.13793098 5.52376354,3.0960919 6.15605444,3.42243672 C6.62689131,3.64966216 7.13457457,3.79959621 7.65774532,3.86593097 C8.53592713,4.00399993 8.33833622,3.91195396 7.94754532,3.11701144 C7.77574048,2.75907848 7.57152228,2.41609484 7.33720897,2.09195399 C6.45902716,0.941379294 6.21313626,1.02087355 6.17800899,1.97898847" id="Path"></path>
                            <path d="M3.02533631,1.58988503 C2.70040904,2.16308042 3.19658176,2.2551264 3.83326357,2.46850571 C4.07189195,2.5476299 4.31950166,2.59959213 4.57093629,2.6233103 C5.28665446,2.69862064 5.10223628,2.59820685 4.78609083,2.045931 C4.595688,1.70534449 4.38456465,1.37564865 4.15379993,1.05852872 C2.89360904,-0.665241368 3.49516358,0.753103435 3.02533631,1.58988503" id="Path"></path>
                            <path d="M0.302972722,1.33466664 C0.313641695,1.46556534 0.313641695,1.59705529 0.302972722,1.72795399 C0.259063632,2.2049195 0.201981815,2.12542525 0.821099986,2.17981605 C1.09685479,2.20942205 1.37522699,2.20942205 1.65098179,2.17981605 C2.44134541,2.06685054 2.15154542,1.80326434 1.73879997,1.363954 C1.59779004,1.21087049 1.44195586,1.07078779 1.27336361,0.945563202 C-0.289799995,-0.200827583 0.298581813,0.606666656 0.320536358,1.33885055" id="Path"></path>
                        </g>
                        <path d="M12.9707452,0 C12.9707452,0 8.48762713,2.20073559 8.52714531,2.89944823 C8.56666349,3.59816086 9.79172711,3.50193097 10.2835089,4.43912636 C10.2835089,4.43912636 7.53919078,6.24657461 7.71482714,7.07498839 C7.8904635,7.90340216 9.65999984,7.60216079 10.0990907,8.25903434 C10.0990907,8.25903434 9.65999984,9.90749408 10.0595726,10.5099768 C10.4591453,11.1124596 10.3976726,10.593655 10.9377544,11.3467925 C10.9772725,11.3634941 10.6611271,5.21314934 12.9707452,0 Z" id="Path" fill="#4480C5"></path>
                        <path d="M12.0310907,1.99990801 C13.611818,3.43080454 15.6052906,4.33034475 17.423127,5.43908037 C18.6743962,6.15187296 19.7773183,7.07799349 20.6767906,8.17117227 C21.765736,9.56022972 21.1158815,11.1961377 21.3881178,12.8989883 C21.4715451,13.4763676 21.5110633,14.0621147 21.5374087,14.6478618 C21.5842773,15.7128081 21.5519967,16.7795798 21.4408087,17.8401836 C21.1641815,20.3756318 21.0280633,22.4424824 19.1487542,24.3419766 C16.8040088,26.7184363 14.2221543,27.2707122 11.293418,25.2038616 C10.2611774,24.5610395 9.32097032,23.79314 8.49640895,22.9194479 C7.89485441,22.2500226 7.14839988,21.823264 6.50293625,21.1998617 C5.68330994,20.3719804 4.70576004,19.7003599 3.62249994,19.2208732 C2.48964541,18.8024824 1.70806361,19.3714939 1.15041816,19.6141606 C0.865009076,19.7396778 0.469827265,19.9823445 0.149290907,19.7396778 C0.0258041797,19.6515057 -0.0193615262,19.494853 0.0395181811,19.3589422 C0.206629025,18.9776503 0.460011864,18.636209 0.781581805,18.3589882 C2.50720905,16.8527813 5.29543627,16.8193101 7.36794533,17.8778388 C8.15391804,18.2962296 9.0101453,18.7355399 9.91906347,18.7899307 C10.5601511,18.8610163 11.2046075,18.6864264 11.7105543,18.3045974 C12.1030284,17.9611213 12.3615532,17.5008987 12.4438362,16.9992181 C12.5902852,16.3013776 12.5372066,15.5788581 12.2901543,14.9072641 C11.9520543,13.9365975 11.3461089,13.0579768 10.9509271,12.0998619 C9.63365438,8.84059755 9.19456348,5.12528727 11.3329362,2.07940226 L11.631518,1.66101147 L12.0310907,1.99990801 Z" id="Path" fill="#4480C5"></path>
                        <path d="M3.9913363,19.3631261 C5.501809,20.0827583 7.1088817,21.6935628 8.65009076,23.4298847 C10.665518,25.7101145 15.6755452,29.0697926 19.8512997,23.7897007 C23.7635996,18.8192181 21.9238087,11.8530113 21.6954814,11.0622527 L21.669136,10.9785745 C21.5374087,10.819586 18.051027,6.57710334 14.8544452,5.95788496 C14.0026089,6.6607815 13.8357543,7.90340216 14.9686088,10.045563 C16.8786543,13.6479078 18.4066906,18.8987123 15.0125179,22.1245054 C14.5071355,22.6169943 13.8875035,22.9895899 13.2034634,23.2123214 C10.7928544,23.9696088 9.51509984,22.5763674 8.00462714,21.2291491 C6.90521745,20.2216647 5.50130704,19.5689014 3.9913363,19.3631261 L3.9913363,19.3631261 Z" id="Path" fill="#FBCE3B"></path>
                        <path d="M20.3211269,23.1537467 C18.8514016,22.9948511 17.4563945,22.45186 16.2902724,21.5847812 C17.1232839,22.7423489 18.4037619,23.5382052 19.8512997,23.7980686 C20.0181542,23.5888732 20.1981815,23.3713099 20.3211269,23.1537467 Z" id="Path" fill="#ECA93F"></path>
                        <path d="M13.5327816,23.4759076 C14.1062026,24.6342313 14.9360753,25.6604935 15.9653452,26.4841375 C16.2941391,26.4105541 16.6147015,26.3068692 16.9225633,26.1745283 C15.5419614,25.6071509 14.3642438,24.6695645 13.5327816,23.4759076 L13.5327816,23.4759076 Z" id="Path" fill="#ECA93F"></path>
                        <path d="M8.40419986,23.1621145 L8.65009076,23.4382525 L8.7642544,23.5679536 C8.68598021,23.2279659 8.72446362,22.8730082 8.87402712,22.5554479 C8.70280156,22.7470125 8.5458113,22.949727 8.40419986,23.1621145 Z" id="Path" fill="#ECA93F"></path>
                        <path d="M10.0990907,24.7729191 C10.2747271,24.9068042 10.4547544,25.0406892 10.6435635,25.1913099 C10.5162271,24.6139306 10.4591453,24.0114479 10.665518,23.6767352 C10.4347399,24.0210425 10.2447685,24.3886866 10.0990907,24.7729191 L10.0990907,24.7729191 Z" id="Path" fill="#ECA93F"></path>
                        <path d="M6.78834534,21.4927353 L7.17913624,21.8734709 C7.1726862,21.6046232 7.20219634,21.3360873 7.26695442,21.0743445 C7.09645213,21.201972 6.93644873,21.3418439 6.78834534,21.4927353 Z" id="Path" fill="#FF8D4E"></path>
                        <path d="M17.3704361,18.8275859 C18.8981278,18.3883997 20.5278443,18.3883997 22.055536,18.8275859 C22.0950542,18.6183905 22.1301814,18.4091951 22.1609178,18.2083675 C19.0916724,17.5138388 17.3704361,18.8275859 17.3704361,18.8275859 Z" id="Path" fill="#ECA93F"></path>
                        <path d="M22.2531269,14.2503906 C22.2311723,13.9993561 22.2048269,13.7608733 22.1784814,13.5307584 L22.1784814,13.5307584 C18.9248179,13.455448 17.2474906,14.9616549 17.2474906,14.9616549 C18.790415,14.2120431 20.5478061,13.9623307 22.2531269,14.2503906 L22.2531269,14.2503906 Z" id="Path" fill="#ECA93F"></path>
                        <path d="M20.9709815,10.1919998 C20.8436451,10.0539309 20.703136,9.90331018 20.5318906,9.74432167 C17.0762452,9.74432167 16.1409815,11.275632 16.1409815,11.275632 C17.5796092,10.4124296 19.2792937,10.0310978 20.9709815,10.1919998 Z" id="Path" fill="#ECA93F"></path>
                        <path d="M22.2092178,13.777609 C22.1241222,13.0337884 21.9965972,12.2949329 21.8272087,11.5643216 L21.5769269,11.4178849 C20.4748087,10.731724 15.6184634,7.94942515 14.1958088,7.11264356 C14.1711817,7.31838272 14.1711817,7.52612277 14.1958088,7.73186194 C15.6887179,9.72340213 19.0389815,13.095632 22.2092178,13.777609 Z" id="Path" fill="#ECA93F"></path>
                    </g>
                    <g id="Front_Leg" transform="translate(8.000000, 25.000000)">
                        <path d="M3.11999995,1.32629883 C3.60777961,0.701145348 4.44458489,0.354040887 5.30879991,0.418390797 C7.73759987,0.694528724 6.96959988,3.2006896 6.38879989,4.67342521 C5.98533652,5.73222723 5.75270979,6.83478103 5.6975999,7.94942515 C5.6975999,9.40542513 6.33599989,9.84473546 5.55839991,10.4137469 C4.32059481,11.1695874 2.82300155,11.5328475 1.31519998,11.4429883 C-0.0335999994,11.1752182 -0.0671999989,8.75691939 2.08319996,8.14188492 C2.67839995,7.01222977 2.65439995,5.85747116 2.60639996,4.65250567 C2.57279996,3.81572407 2.49119996,2.14216088 3.11999995,1.30537929" id="Path" fill="#4480C5"></path>
                        <path d="M2.59679996,11.4304366 C2.78879995,11.4053331 2.98079995,11.3760458 3.16799995,11.3383906 C2.99921495,10.6274243 3.25171492,9.89011955 3.83999993,9.37613777 C2.95679995,9.81544811 2.66879995,10.5643676 2.59679996,11.4304366 Z" id="Path" fill="#2E578B"></path>
                        <path d="M1.29599998,11.4471722 C1.09542572,10.6706856 1.33668858,9.85754039 1.94399997,9.26317226 C1.1973092,9.66571747 0.737667693,10.3723676 0.724799988,11.137563 C0.87253539,11.2911338 1.07264393,11.3995992 1.29599998,11.4471722 L1.29599998,11.4471722 Z" id="Path" fill="#2E578B"></path>
                    </g>
                    <g id="Front_Arm" transform="translate(6.000000, 12.000000)">
                        <path d="M4.80666658,11.2337929 C4.80666658,11.2337929 4.53599992,12.6354021 5.5999999,13.1039998 C6.49599989,13.5223906 7.5973332,13.5223906 8.14799986,12.9240917 C8.90866651,12.0873101 10.0146665,10.4137469 6.98599988,8.76947112 C5.11933325,7.75278148 5.00266658,11.2045056 5.00266658,11.2045056 L4.80666658,11.2337929 Z" id="Path" fill="#2E578B"></path>
                        <path d="M5.06799991,4.5144367 C5.46466657,5.28845968 5.8239999,5.88675852 5.84266657,5.94114932 C5.86133323,5.99554013 8.30666653,3.2006896 7.8493332,2.74882754 C7.39199987,2.29696548 5.45533324,3.90777005 5.06799991,4.5144367 Z" id="Path" fill="#2E578B"></path>
                        <path d="M7.46666654,0.506252865 C10.1126665,2.79485053 4.61999992,5.8239999 4.61999992,5.8239999 C5.21733324,6.16289645 5.97333323,7.32183896 6.53799989,8.16698837 C7.10266655,9.01213778 7.32666654,8.87406881 8.0173332,9.57696535 C8.70799985,10.2798619 6.73866655,11.3300228 6.73866655,11.3300228 C6.73866655,11.3300228 0.130666664,8.12933319 0.149293857,6.07921829 C0.149293857,5.8239999 1.68466664,3.54377005 3.23399994,2.12960916 C4.01333326,1.4183448 6.20199989,-0.585747116 7.46666654,0.506252865 Z" id="Path" fill="#4480C5"></path>
                        <path d="M4.89999992,10.1919998 C4.89999992,10.1919998 4.43333326,12.3718159 5.86133323,13.0077699 C5.86133323,13.0077699 7.04199988,13.0747124 7.6393332,12.6897929 C7.6393332,12.6897929 9.12799984,10.639678 8.0173332,9.57696535 C6.90666655,8.51425273 4.89999992,10.1919998 4.89999992,10.1919998 Z" id="Path" fill="#4480C5"></path>
                        <path d="M4.87199992,10.3468044 C4.87199992,10.3468044 6.78066655,11.2630803 7.11199988,11.3467584 C6.7797455,11.3877566 6.44134274,11.3427553 6.13666656,11.2170573 C6.13666656,11.2170573 5.6699999,12.0538389 6.21599989,12.5726435 C6.21599989,12.5726435 5.33866658,12.4345745 5.65133324,11.1208274 L4.85333325,10.3844596 L4.87199992,10.3468044 Z" id="Path" fill="#2E578B"></path>
                    </g>
                    <g id="Head-2" transform="translate(11.000000, 0.000000)">
                        <path d="M1.30619998,5.52694243 C1.30619998,5.52694243 2.20079996,0.271954018 4.38899993,0.184091951 C5.8295999,0.121333331 6.55619989,1.94970112 6.55619989,1.94970112 C7.43858494,1.95358609 8.30139778,2.20911521 9.04259985,2.68606892 C9.04259985,2.68606892 9.46259984,1.96225284 10.1303998,2.19655169 C10.7981998,2.43085053 11.5583998,3.95379304 11.2853998,6.45577001 C11.9461858,6.55686838 12.5245579,6.95278317 12.8561998,7.53103435 C12.6792338,7.78404256 12.4089596,7.95701716 12.1043998,8.01218377 C11.6507998,8.04983894 9.69359983,7.33857459 9.16439984,7.80298837 C8.62537916,8.17877599 8.35223106,8.83051625 8.46299986,9.47655156 C8.46299986,9.47655156 6.29999989,9.25898835 5.33819991,8.03310331 C4.37639993,6.80721827 3.54899994,4.43075855 1.30619998,5.52694243 Z" id="Path" fill="#4480C5"></path>
                        <path d="M8.75279985,5.90767806 C8.75279985,5.90767806 9.29039984,4.14206889 10.3235998,3.64836775 C10.360279,4.50300017 10.4542887,5.3542326 10.6049998,6.19636771 C9.99377626,6.06425612 9.37532073,5.96786171 8.75279985,5.90767806 L8.75279985,5.90767806 Z" id="Path" fill="#F1F1F2" fill-rule="nonzero"></path>
                        <path d="M4.07399993,2.28859766 C4.07399993,2.28859766 5.40539991,2.92873558 6.29999989,5.67756312 C5.30354288,5.50859782 4.29514689,5.41905732 3.28439994,5.40979301 C3.77983474,4.44177053 4.04973063,3.37490397 4.07399993,2.28859766 Z" id="Path" fill="#F1F1F2" fill-rule="nonzero"></path>
                        <path d="M4.61999992,3.51029879 C4.94339992,3.51029879 5.20799991,3.87011488 5.20799991,4.31779303 C5.20799991,4.76547118 4.94339992,5.12110336 4.61999992,5.12110336 C4.29659993,5.12110336 4.03199993,4.76128728 4.03199993,4.31779303 C4.03199993,3.87429878 4.29239993,3.51029879 4.61999992,3.51029879" id="Path" fill="#2E578B"></path>
                        <path d="M9.59279984,5.65245967 C9.84899983,5.65245967 10.0547998,5.38050566 10.0547998,5.04160911 C10.0547998,4.70271256 9.84899983,4.43075855 9.59279984,4.43075855 C9.54359729,4.43348398 9.4952601,4.44481386 9.44999984,4.46422981 C9.30885254,4.62697191 9.20175764,4.81615922 9.13499984,5.02068957 C9.13292977,5.0345597 9.13292977,5.04865852 9.13499984,5.06252865 C9.13079984,5.38050566 9.33659984,5.65245967 9.59279984,5.65245967 Z" id="Path" fill="#2E578B"></path>
                        <path d="M4.19999993,6.83650563 C4.19999993,6.83650563 2.60399996,5.58133324 1.79339997,6.47668954 C0.827399986,7.5561378 1.79339997,9.2338849 1.79339997,9.2338849 C1.79339997,9.2338849 1.91099997,8.51425273 2.27219996,8.27576997 C2.27219996,8.27576997 2.41499996,10.547632 6.1277999,13.0747124 C9.84059983,15.6017928 11.4575998,15.3256549 12.2681998,15.1122756 C13.0787998,14.8988963 13.9019998,14.321517 13.5911998,13.6730113 C13.2803998,13.0245055 11.1845998,11.2630803 11.1845998,11.2630803 C11.1845998,11.2630803 10.3907998,11.3593102 8.77379985,10.7944826 C7.15679988,10.229655 4.99379991,9.12091938 3.59939994,7.19632172 C3.80570153,7.08679265 4.00617005,6.96669309 4.19999993,6.83650563" id="Path" fill="#FF8D4E"></path>
                        <path d="M3.26759994,9.79034466 C5.34681293,9.29348427 7.53708595,9.88109559 9.08459985,11.3509423 L8.66459985,11.1250113 C8.66459985,11.1250113 10.5713998,11.0329653 10.8359998,11.2965515 C11.9674459,12.0582369 12.6929114,13.2883407 12.8099998,14.6436779 C12.8645998,15.2921836 11.3231998,15.6603675 7.88759987,13.957517 C5.7539999,12.8864366 3.26759994,9.79034466 3.26759994,9.79034466 Z" id="Path" fill="#FF6B17"></path>
                        <path d="M7.44239987,10.2212872 L7.52219987,10.2631263 L7.44239987,10.2212872 Z" id="Path" fill="#FF8D4E"></path>
                        <path d="M11.0291998,11.2505285 C11.0291998,11.2505285 10.5671998,13.137471 9.85319983,12.9240917 C9.61379984,12.8529653 9.71039983,12.3174251 9.61379984,11.9492412 C9.51719984,11.5810573 9.23999984,10.8781607 9.23999984,10.8781607 L11.0291998,11.2505285 Z" id="Path" fill="#EBEEF2"></path>
                        <path d="M14.5613998,10.5350803 C14.5613998,10.5350803 14.4143998,12.4722297 13.6751998,12.3801837 C13.4273998,12.3508963 13.4357998,11.8069883 13.2803998,11.4597239 C13.1249998,11.1124596 12.7427998,10.4597699 12.7427998,10.4597699 L14.5613998,10.5350803 Z" id="Path" fill="#EBEEF2"></path>
                        <path d="M15.3467997,8.83641364 C15.2543997,7.47245964 13.4483998,6.8741608 12.1211998,7.83227573 C11.0375998,7.59379297 9.83639983,6.8741608 8.76119985,7.95360906 C8.32160019,8.31966643 8.18527201,8.93509041 8.42939986,9.45144811 C8.42939986,9.45144811 6.17819989,9.09163203 5.40119991,7.94942515 C4.62419992,6.80721827 3.60779994,5.27590796 2.51999996,5.16712635 C1.94039997,5.11273555 0.961799984,5.02905739 0.394799993,6.12942518 C-0.172199997,7.22979298 -0.445199992,9.21714927 3.75479994,12.3634481 C7.95479986,15.5097469 9.79439983,16.3590802 10.7099998,16.3549116 C11.8733998,16.3549116 11.9447998,15.9365055 13.2845998,15.7356779 C13.9691998,15.639448 14.4899998,14.4805055 13.7381998,13.4763676 C13.1100537,12.6891964 12.348095,12.0179564 11.4869998,11.4931952 C11.4449998,11.5350343 13.1165998,12.8697009 13.4273998,13.5182067 C13.7381998,14.1667124 12.8183998,14.5767354 12.0119998,14.7733791 C11.2055998,14.9700227 10.1681998,15.1917699 6.45959989,12.6814251 C2.75099995,10.1710803 2.35199996,7.63144815 2.35199996,7.63144815 C1.88159997,7.56032171 1.82699997,8.57701135 1.82699997,8.57701135 C1.82699997,8.57701135 1.28519998,7.40133321 2.01179997,6.69843667 C2.88959995,5.86165507 3.79679994,6.89508034 3.79679994,6.89508034 L3.74219994,6.89508034 C3.19199995,6.63149414 3.11639995,7.10427574 3.11639995,7.10427574 C4.57886767,8.97975984 6.51123135,10.4386313 8.71919985,11.3342067 C10.3361998,11.8990343 11.1845998,11.2630803 11.1845998,11.2630803 C11.95249,11.2576523 12.7189462,11.1961232 13.4777998,11.0789883 C14.0573998,10.9241837 15.4769997,10.6815171 15.3467997,8.83641364 Z" id="Path" fill="#FBCE3B"></path>
                        <path d="M9.96659983,8.68997686 C10.3445998,8.57282744 10.6343998,9.07908031 10.1387998,9.29664352 C10.0673998,9.48491938 10.1807998,9.68993087 10.4831998,9.76105731 C10.1862915,9.90316588 9.82995499,9.77859811 9.68729984,9.48282742 C9.5446447,9.18705673 9.66969156,8.83208544 9.96659983,8.68997686" id="Path" fill="#ECA93F"></path>
                        <path d="M14.2253998,8.53517227 C13.9145998,8.43475848 13.6751998,8.85314927 14.0867998,9.03724123 C14.1413998,9.19204582 14.0489998,9.35940214 13.7969998,9.41797685 C14.5949998,9.58114926 14.6369998,8.68160905 14.2169998,8.53517227" id="Path" fill="#ECA93F"></path>
                    </g>
                </g>
            </g>
        </g>
    </g>
</svg>
