<svg height="37" viewBox="0 0 207 37" width="137" xmlns="http://www.w3.org/2000/svg"><g fill="none" fill-rule="evenodd"><g fill="#fff" fill-rule="nonzero"><path d="m84.0717986 24.4507582c.252 1.5605977 1.68 2.1421609 3.2381999 2.1421609 1.5582 0 2.751-.6568736 2.7846-1.4518161.0546-1.2049655-.8946-1.9204137-2.2386-2.179816-.9282-.1757242-3.7127999-.7238161-3.7127999-.7238161-3.3852-.6150345-5.3129999-1.589885-5.3129999-4.455862 0-3.7320459 3.2381999-6.1628965 7.8623998-6.1628965 4.5486 0 7.5599999 2.0668506 8.2949999 5.2215172l-5.3129999 1.0501609c-.1806-1.1254712-1.26-2.137977-3.0576-2.137977-1.5623999 0-2.3477999.6526897-2.4905999 1.4141609-.0966.4978851.1428.912092 1.8018 1.2551724 1.0709999.230115 4.2923999.8702529 4.2923999.8702529 3.4565999.7238161 5.0399999 2.7906666 5.0399999 5.4725516 0 4.0249195-3.4943999 6.1294252-8.2991999 6.1294252-4.2923999 0-7.9799998-1.5605977-8.5889998-5.2926436z"/><path d="m137.151398 16.1749882c.095266.7367921.144361 1.478781.147 2.2216552 0 7.3929654-5.3004 12.7107124-12.684 12.7107124s-13.1964-5.5855172-13.1964-12.7483676c0-7.1628505 5.7372-12.7441837 13.0872-12.7441837 5.46 0 10.2354 2.54799996 11.9532 7.321839l-5.8128 1.6735631c-1.428-2.769747-3.78-3.497747-6.1404-3.497747-3.9858 0-7.0182 3.1337471-7.0182 7.2465286s3.1038 7.2841838 7.1988 7.2841838c3.2172 0 5.5566-1.6735632 6.4722-4.3679999h-7.497v-5.1001839z"/><g transform="translate(33.759999 5.43908)"><path d="m22.5623996 24.7059766h-5.9933999v-9.6439079h-10.31099981v9.6439079h-6.03119989v-24.40055132h6.03119989v9.50583892h10.31099981v-9.50583892h5.9933999z"/><path d="m44.2763992 15.5641377c0 5.7905286-4.6199999 9.6522757-10.0547998 9.6522757-5.5565999 0-10.1639998-3.8617471-10.1639998-9.6522757 0-5.79052867 4.6199999-9.62298838 10.1639998-9.62298838 5.4473999.01255173 10.0547998 3.87011488 10.0547998 9.62298838zm-5.6363999 0c0-2.8408735-2.1545999-4.732-4.4225999-4.732-1.2354498.0138354-2.412937.524085-3.2653805 1.4150123-.8524435.8909274-1.3075964 2.087024-1.2622194 3.3169877 0 2.8785287 2.1546 4.7361838 4.5317999 4.7361838 2.268 0 4.4183999-1.8576551 4.4183999-4.7361838z"/><path d="m77.8469987 23.9068502c-1.5205386.8805367-3.2476065 1.3452893-5.0063999 1.3472183-4.5696 0-7.3205999-2.4768735-7.3205999-7.2632642v-6.9411033h-3.318v-4.60229881h3.318v-4.88680452l5.8505999-1.25517239v6.12105737h5.4095999v4.60229875h-5.3801999v6.3595401c0 1.8911264.9114 2.6567816 2.4485999 2.6567816.933765-.0325599 1.8470031-.2818427 2.667-.728z"/><path d="m122.039398 13.1249193v11.5810573h-5.628v-1.3472184c-1.531378 1.2836972-3.484787 1.9586617-5.4852 1.8953103-4.0908 0-6.8334-2.3680919-6.8334-5.9746206 0-3.6065286 2.7426-5.8909424 7.6272-5.8909424h4.6788v-.364c.038162-.6919039-.221403-1.367233-.713676-1.8568214s-1.170622-.747058-1.865124-.7079142c-1.7556 0-2.7804.6903449-3.0702 2.2927816l-5.5188-1.1296551c.8022-3.53121838 4.0194-5.75287351 8.4-5.75287351 5.1576.00836781 8.4084 2.59402294 8.4084 7.25489641zm-5.628 4.3721839v-.4183908h-4.0236c-1.4616 0-2.373.7656551-2.373 1.8953103 0 1.1296551 1.0206 1.8911264 2.5578 1.8911264 2.0118.0167356 3.8388-1.3304828 3.8388-3.3680459z"/><path d="m138.562198 23.9068502c-1.519615.8790898-3.244938 1.3437627-5.0022 1.3472183-4.5696 0-7.308-2.4768735-7.308-7.2841837v-6.9201838h-3.3264v-4.60229881h3.3264v-4.88680452l5.8464-1.25517239v6.12105737h5.4096v4.60229875h-5.418v6.3595401c0 1.8911264.9156 2.6567816 2.4486 2.6567816.935171-.0320662 1.849886-.2813595 2.6712-.728z"/><path d="m157.861197 15.5641377c0 5.7905286-4.62 9.6522757-10.0506 9.6522757-5.556599 0-10.163999-3.8617471-10.163999-9.6522757 0-5.79052867 4.62-9.62298838 10.163999-9.62298838 5.4474.01255173 10.0506 3.87011488 10.0506 9.62298838zm-5.628 0c0-2.8408735-2.1588-4.732-4.4226-4.732-1.236914.0115935-2.416582.5208616-3.270849 1.4120412s-1.310557 2.088559-1.26515 3.3199588c0 2.8785287 2.1588 4.7361838 4.535999 4.7361838 2.2638 0 4.4226-1.8576551 4.4226-4.7361838z"/><path d="m172.813197 6.31770104-.2562 5.81563206h-1.0626c-4.0908 0-6.321 2.091954-6.321 6.8490574v5.7235861h-5.8506v-17.02432156l5.8506-1.25517239v3.49356316c1.3146-2.18399996 3.3264-3.76551718 6.321-3.76551718.445009-.00571232.888715.04918644 1.3188.16317241z"/></g></g><g transform="translate(18 26)"><path d="m3.07859995.16735632c-1.02479998.98740228-2.04539997 2.34298846-3.07859995 3.32202293.49139999 2.57310341-.47039999 3.70275856.68879999 4.62740222.41999999.33052873 2.93999995 1.03760918 4.38899992.21756322.0294-1.33466665-.70139998-1.73213791-1.48259997-2.23002295-.79379999-1.67356319-.50819999-4.26758614-.52499999-5.93696542" fill="#4480c5"/><g fill="#2e578b"><path d="m3.66659994 8.7108964c-.16833742-.76444329-.71126095-1.39333092-1.44479998-1.67356319.5819419.35434878.925828.99466378.89879999 1.67356319.18479999.00836782.36539999.00836782.54599999 0z"/><path d="m4.88879992 8.43475848c-.16385481-.76395319-.70428371-1.39361201-1.43639998-1.67356319.74759999.57319539.98699998 1.18822986.88199999 1.85765514.19026243-.04363976.37590548-.10528368.55439999-.18409195z"/></g></g><g transform="translate(19 13)"><path d="m.69066666.65268964c-.58799999.76565516-.84933332 2.37227583 3.8266666 4.72781602 0 0-1.96466664 3.04170109-2.58533329 3.59816085-.62066666.55645976-.99866665 2.03756319-.392 2.78229879.31402633.3916824.67384774.7521512 1.07333332 1.0752644 0 0 1.54933331.2594023 2.21199996-.0753104.81972741-.8126049 1.0045822-1.9909586.46666666-2.97475855 0 0 3.94333327-3.69857465 3.69133327-4.81149417s-6.43066656-6.74864356-8.29266652-4.32197694z" fill="#4480c5"/><path d="m5.26866658 9.78616075s-1.59599998 1.17986205-1.9973333 1.38068965c.32515837-.088225.63823271-.2089206.93333332-.3598161 0 0 .70933332.7782069.19133333 1.4350804 0 0 .93333331-.4895172.31266666-1.6149884.21506819-.2430156.41151835-.4988202.58799999-.7656552z" fill="#2e578b"/></g><g transform="translate(0 4)"><g fill="#4480c5" transform="translate(2.195455 15.48046)"><path d="m6.17800899 1.98735629c-.01067795.2737684-.09865925.53972322-.25467273.76983907-.25467272.38073562-.39957272.33889654.23271818.66524136.47083687.22722544.97852013.37715949 1.50169088.44349425.87818181.13806896.6805909.04602299.2898-.74891953-.17180484-.35793296-.37602304-.7009166-.61033635-1.02505745-.87818181-1.1505747-1.12407271-1.07108044-1.15919998-.11296552"/><path d="m3.02533631 1.58988503c-.32492727.57319539.17124545.66524137.80792726.87862068.23862838.07912419.48623809.13108642.73767272.15480459.71571817.07531034.53129999-.02510345.21515454-.5773793-.19040283-.34058651-.40152618-.67028235-.6322909-.98740228-1.26019089-1.72377009-.65863635-.30542528-1.12846362.53135631"/><path d="m.30297272 1.33466664c.01066898.1308987.01066898.26238865 0 .39328735-.04390909.47696551-.1009909.39747126.51812727.45186206.2757548.029606.554127.029606.8298818 0 .79036362-.11296551.50056363-.37655171.08781818-.81586205-.14100993-.15308351-.29684411-.29316621-.46543636-.4183908-1.5631636-1.14639078-.9747818-.33889654-.95282725.39328735"/></g><path d="m12.9707452 0s-4.48311807 2.20073559-4.44359989 2.89944823c.03951818.69871263 1.2645818.60248274 1.75636359 1.53967813 0 0-2.74431812 1.80744825-2.56868176 2.63586203.17563636.82841377 1.9451727.5271724 2.38426356 1.18404595 0 0-.43909086 1.64845974-.0395181 2.25094246.3995727.6024828.3381.0836782.8781818.8368157.0395181.0167016-.2766273-6.13364316 2.0329908-11.3467925z" fill="#4480c5"/><path d="m12.0310907 1.99990801c1.5807273 1.43089653 3.5741999 2.33043674 5.3920363 3.43917236 1.2512692.71279259 2.3541913 1.63891312 3.2536636 2.7320919 1.0889454 1.38905745.4390909 3.02496543.7113272 4.72781603.0834273.5773793.1229455 1.1631264.1492909 1.7488735.0468686 1.0649463.014588 2.131718-.0966 3.1923218-.2766272 2.5354482-.4127454 4.6022988-2.2920545 6.501793-2.3447454 2.3764597-4.9265999 2.9287356-7.8553362.861885-1.0322406-.6428221-1.97244768-1.4107216-2.79700905-2.2844137-.60155454-.6694253-1.34800907-1.0961839-1.9934727-1.7195862-.81962631-.8278813-1.79717621-1.4995018-2.88043631-1.9789885-1.13285453-.4183908-1.91443633.1506207-2.47208178.3932874-.28540908.1255172-.68059089.3681839-1.00112725.1255172-.12348673-.0881721-.16865244-.2448248-.10977273-.3807356.16711085-.3812919.42049368-.7227332.74206363-.999954 1.72562724-1.5062069 4.51385446-1.5396781 6.58636352-.4811494.78597271.4183908 1.64219997.8577011 2.55111814.9120919.64108763.0710856 1.28554403-.1035043 1.79149083-.4853333.3924741-.3434761.6509989-.8036987.7332819-1.3053793.146449-.6978405.0933704-1.42036-.1536819-2.091954-.3381-.9706666-.9440454-1.8492873-1.3392272-2.8074022-1.31727272-3.25926435-1.75636362-6.97457463.3820091-10.02045964l.2985818-.41839079z" fill="#4480c5"/><path d="m3.9913363 19.3631261c1.5104727.7196322 3.1175454 2.3304367 4.65875446 4.0667586 2.01542724 2.2802298 7.02545444 5.6399079 11.20120894.359816 3.9122999-4.9704826 2.072509-11.9366894 1.8441817-12.727448l-.0263454-.0836782c-.1317273-.1589885-3.618109-4.40147116-6.8146908-5.02068954-.8518363.70289654-1.0186909 1.9455172.1141636 4.08767804 1.9100455 3.6023448 3.4380818 8.8531493.0439091 12.0789424-.5053824.4924889-1.1250144.8650845-1.8090545 1.087816-2.410609.7572874-3.68836356-.635954-5.19883626-1.9831723-1.09940969-1.0074844-2.5033201-1.6602477-4.01329084-1.866023z" fill="#fbce3b"/><g fill="#eca93f"><path d="m20.3211269 23.1537467c-1.4697253-.1588956-2.8647324-.7018867-4.0308545-1.5689655.8330115 1.1575677 2.1134895 1.953424 3.5610273 2.2132874.1668545-.2091954.3468818-.4267587.4698272-.6443219z"/><path d="m13.5327816 23.4759076c.573421 1.1583237 1.4032937 2.1845859 2.4325636 3.0082299.3287939-.0735834.6493563-.1772683.9572181-.3096092-1.3806019-.5673774-2.5583195-1.5049638-3.3897817-2.6986207z"/><path d="m8.40419986 23.1621145.2458909.276138.11416364.1297011c-.07827419-.3399877-.03979078-.6949454.10977272-1.0125057-.17122556.1915646-.32821582.3942791-.46982726.6066666z"/><path d="m10.0990907 24.7729191c.1756364.1338851.3556637.2677701.5444728.4183908-.1273364-.5773793-.1844182-1.179862.0219545-1.5145747-.2307781.3443073-.4207495.7119514-.5664273 1.0961839z"/></g><path d="m6.78834534 21.4927353.3907909.3807356c-.00645004-.2688477.0230601-.5373836.08781818-.7991264-.17050229.1276275-.33050569.2674994-.47860908.4183908z" fill="#ff8d4e"/><path d="m17.3704361 18.8275859c1.5276917-.4391862 3.1574082-.4391862 4.6850999 0 .0395182-.2091954.0746454-.4183908.1053818-.6192184-3.0692454-.6945287-4.7904817.6192184-4.7904817.6192184z" fill="#eca93f"/><path d="m22.2531269 14.2503906c-.0219546-.2510345-.0483-.4895173-.0746455-.7196322-3.2536635-.0753104-4.9309908 1.4308965-4.9309908 1.4308965 1.5429244-.7496118 3.3003155-.9993242 5.0056363-.7112643z" fill="#eca93f"/><path d="m20.9709815 10.1919998c-.1273364-.1380689-.2678455-.28868962-.4390909-.44767813-3.4556454 0-4.3909091 1.53131033-4.3909091 1.53131033 1.4386277-.8632024 3.1383122-1.2445342 4.83-1.0836322z" fill="#eca93f"/><path d="m22.2092178 13.777609c-.0850956-.7438206-.2126206-1.4826761-.3820091-2.2132874l-.2502818-.1464367c-1.1021182-.6861609-5.9584635-3.46845975-7.3811181-4.30524134-.0246271.20573916-.0246271.41347921 0 .61921838 1.4929091 1.99154019 4.8431727 5.36377006 8.013409 6.04574706z" fill="#eca93f"/></g><g transform="translate(8 25)"><path d="m3.11999995 1.32629883c.48777966-.62515348 1.32458494-.97225794 2.18879996-.90790803 2.42879996.27613792 1.66079997 2.7822988 1.07999998 4.25503441-.40346337 1.05880202-.6360901 2.16135582-.69119999 3.27599994 0 1.45599998.63839999 1.89531031-.13919999 2.46432175-1.2378051.7558405-2.73539836 1.1191006-4.24319993 1.0292414-1.34879998-.2677701-1.38239998-2.68606891.76799998-3.30110338.59519999-1.12965515.57119999-2.28441376.5232-3.48937925-.0336-.8367816-.1152-2.51034479.51359999-3.34712638" fill="#4480c5"/><g fill="#2e578b"><path d="m2.59679996 11.4304366c.19199999-.0251035.38399999-.0543908.57119999-.092046-.168785-.7109663.08371497-1.44827105.67199998-1.96225283-.88319998.43931034-1.17119998 1.18822983-1.24319997 2.05429883z"/><path d="m1.29599998 11.4471722c-.20057426-.7764866.0406886-1.58963181.64799999-2.18399994-.74669077.40254521-1.20633228 1.10919534-1.21919998 1.87439074.1477354.1535708.34784394.2620362.57119999.3096092z"/></g></g><g transform="translate(6 12)"><path d="m4.80666658 11.2337929s-.27066666 1.4016092.79333332 1.8702069c.89599999.4183908 1.9973333.4183908 2.54799996-.1799081.76066665-.8367816 1.86666664-2.5103448-1.16199998-4.15462058-1.86666663-1.01668964-1.9833333 2.43503448-1.9833333 2.43503448z" fill="#2e578b"/><path d="m5.06799991 4.5144367c.39666666.77402298.75599999 1.37232182.77466666 1.42671262.01866666.05439081 2.46399996-2.74045972 2.00666663-3.19232178s-2.39399996 1.15894251-2.78133329 1.76560916z" fill="#2e578b"/><path d="m7.46666654.50625287c2.64599996 2.28859766-2.84666662 5.31774703-2.84666662 5.31774703.59733332.33889655 1.35333331 1.49783906 1.91799997 2.34298847s.78866665.70708044 1.47933331 1.40997698c.69066665.70289655-1.27866665 1.75305745-1.27866665 1.75305745s-6.60799989-3.20068961-6.58937269-5.25080451c0-.25521839 1.53537278-2.53544824 3.08470608-3.94960913.77933332-.71126436 2.96799995-2.71535628 4.2326666-1.62335629z" fill="#4480c5"/><path d="m4.89999992 10.1919998s-.46666666 2.1798161.96133331 2.8157701c0 0 1.18066665.0669425 1.77799997-.317977 0 0 1.48866664-2.0501149.378-3.11282755-1.11066665-1.06271262-3.11733328.61503445-3.11733328.61503445z" fill="#4480c5"/><path d="m4.87199992 10.3468044s1.90866663.9162759 2.23999996.999954c-.33225438.0409982-.67065714-.0040031-.97533332-.1297011 0 0-.46666666.8367816.07933333 1.3555862 0 0-.87733331-.138069-.56466665-1.4518161l-.79799999-.7363678z" fill="#2e578b"/></g><g transform="translate(11)"><path d="m1.30619998 5.52694243s.89459998-5.25498841 3.08279995-5.34285048c1.44059997-.06275862 2.16719996 1.76560917 2.16719996 1.76560917.88238505.00388497 1.74519789.25941409 2.48639996.7363678 0 0 .41999999-.72381608 1.08779995-.48951723.6678.23429884 1.428 1.75724135 1.155 4.25921832.660786.10109837 1.2391581.49701316 1.5708 1.07526434-.176966.25300821-.4472402.42598281-.7518.48114942-.4536.03765517-2.41079997-.67360918-2.93999996-.2091954-.53902068.37578762-.81216878 1.02752788-.70139998 1.67356319 0 0-2.16299997-.21756321-3.12479995-1.44344825s-1.78919997-3.60234476-4.03199993-2.50616088z" fill="#4480c5"/><path d="m8.75279985 5.90767806s.53759999-1.76560917 1.57079995-2.25931031c.0366792.85463242.1306889 1.70586485.2814 2.54799996-.61122354-.13211159-1.22967907-.228506-1.85219995-.28868965z" fill="#f1f1f2" fill-rule="nonzero"/><path d="m4.07399993 2.28859766s1.33139998.64013792 2.22599996 3.38896546c-.99645701-.1689653-2.004853-.2585058-3.01559995-.26777011.4954348-.96802248.76533069-2.03488904.78959999-3.12119535z" fill="#f1f1f2" fill-rule="nonzero"/><path d="m4.61999992 3.51029879c.3234 0 .58799999.35981609.58799999.80749424s-.26459999.80331033-.58799999.80331033c-.32339999 0-.58799999-.35981608-.58799999-.80331033s.2604-.80749424.58799999-.80749424" fill="#2e578b"/><path d="m9.59279984 5.65245967c.25619999 0 .46199996-.27195401.46199996-.61085056s-.20579997-.61085056-.46199996-.61085056c-.04920255.00272543-.09753974.01405531-.1428.03347126-.1411473.1627421-.2482422.35192941-.315.55645976-.00207007.01387013-.00207007.02796895 0 .04183908-.0042.31797701.2016.58993102.4578.58993102z" fill="#2e578b"/><path d="m4.19999993 6.83650563s-1.59599997-1.25517239-2.40659996-.35981609c-.96599998 1.07944826 0 2.75719536 0 2.75719536s.1176-.71963217.47879999-.95811493c0 0 .1428 2.27186203 3.85559994 4.79894243 3.71279993 2.5270804 5.3297999 2.2509425 6.1403999 2.0375632s1.6338-.7907586 1.323-1.4392643c-.3108-.6485058-2.4066-2.409931-2.4066-2.409931s-.7938.0962299-2.41079995-.4685977c-1.61699997-.5648276-3.77999994-1.67356322-5.17439991-3.59816088.20630159-.10952907.40677011-.22962863.60059999-.35981609" fill="#ff8d4e"/><path d="m3.26759994 9.79034466c2.07921299-.49686039 4.26948601.09075093 5.81699991 1.56059764l-.42-.225931s1.90679995-.092046 2.17139995.1715402c1.1314461.7616854 1.8569116 1.9917892 1.974 3.3471264.0546.6485057-1.4868 1.0166896-4.92239993-.6861609-2.13359997-1.0710804-4.61999993-4.16717234-4.61999993-4.16717234z" fill="#ff6b17"/><path d="m7.44239987 10.2212872.0798.0418391z" fill="#ff8d4e"/><path d="m11.0291998 11.2505285s-.462 1.8869425-1.17599997 1.6735632c-.23939999-.0711264-.1428-.6066666-.23939999-.9748505-.0966-.3681839-.3738-1.0710805-.3738-1.0710805z" fill="#ebeef2"/><path d="m14.5613998 10.5350803s-.147 1.9371494-.8862 1.8451034c-.2478-.0292874-.2394-.5731954-.3948-.9204598-.1554-.3472643-.5376-.999954-.5376-.999954z" fill="#ebeef2"/><path d="m15.3467997 8.83641364c-.0924-1.363954-1.8983999-1.96225284-3.2255999-1.00413791-1.0836-.23848276-2.28479997-.95811493-3.35999995.12133333-.43959966.36605737-.57592784.98148135-.33179999 1.49783905 0 0-2.25119997-.35981608-3.02819995-1.50202296-.77699999-1.14220688-1.79339997-2.67351719-2.88119995-2.7822988-.57959999-.0543908-1.55819998-.13806896-2.12519997.96229883-.56699999 1.1003678-.83999998 3.08772409 3.35999995 6.23402292 4.19999992 3.1462988 6.03959989 3.9956321 6.95519986 3.9914635 1.1634 0 1.2348-.4184061 2.5746-.6192337.6846-.0962299 1.2054-1.2551724.4536-2.2593103-.6281461-.7871712-1.3901048-1.4584112-2.2512-1.9831724-.042.0418391 1.6296 1.3765057 1.9404 2.0250115.3108.6485057-.609 1.0585287-1.4154 1.2551724-.8064.1966436-1.8438.4183908-5.55239991-2.091954-3.70859994-2.5103448-4.10759993-5.04997695-4.10759993-5.04997695-.47039999-.07112644-.52499999.9455632-.52499999.9455632s-.54179999-1.17567814.1848-1.87857468c.87779998-.8367816 1.78499997.19664367 1.78499997.19664367h-.0546c-.55019999-.2635862-.62579999.2091954-.62579999.2091954 1.46246772 1.8754841 3.3948314 3.33435556 5.6027999 4.22993096 1.61699995.5648276 2.46539995-.0711264 2.46539995-.0711264.7678902-.005428 1.5343464-.0669571 2.2932-.184092.5796-.1548046 1.9991999-.3974712 1.8689999-2.24257466z" fill="#fbce3b"/><g fill="#eca93f"><path d="m9.96659983 8.68997686c.37799997-.11714942.66779997.38910345.17219997.60666666-.0714.18827586.042.39328735.3444.46441379-.2969083.14210857-.65324481.0175408-.79589996-.27822989-.14265514-.29577069-.01760828-.65074198.27929999-.79285056"/><path d="m14.2253998 8.53517227c-.3108-.10041379-.5502.317977-.1386.50206896.0546.15480459-.0378.32216091-.2898.38073562.798.16317241.84-.7363678.42-.88280458"/></g></g></g></svg>