<svg enable-background="new 0 0 1500 340" viewBox="0 0 1500 340" xmlns="http://www.w3.org/2000/svg" xmlns:xlink="http://www.w3.org/1999/xlink"><linearGradient id="a"><stop offset="0" stop-color="#fce47e"/><stop offset=".3382" stop-color="#fcd96a"/><stop offset="1" stop-color="#fabb34"/></linearGradient><linearGradient id="b" gradientTransform="matrix(2 0 0 -2 -48.6602 1477.0391)" gradientUnits="userSpaceOnUse" x1="219.7896" x2="219.7896" xlink:href="#a" y1="704.6729" y2="620.8806"/><linearGradient id="c" gradientTransform="matrix(2 0 0 -2 -48.6602 1477.0391)" gradientUnits="userSpaceOnUse" x1="298.5127" x2="298.5127" xlink:href="#a" y1="704.6699" y2="620.8749"/><linearGradient id="d" gradientTransform="matrix(2 0 0 -2 -48.6602 1477.0391)" gradientUnits="userSpaceOnUse" x1="365.1919" x2="365.1919" xlink:href="#a" y1="704.6709" y2="620.8751"/><linearGradient id="e" gradientTransform="matrix(2 0 0 -2 -48.6602 1477.0391)" gradientUnits="userSpaceOnUse" x1="417.2349" x2="417.2349" xlink:href="#a" y1="704.6719" y2="620.8815"/><linearGradient id="f" gradientTransform="matrix(2 0 0 -2 -48.6602 1477.0391)" gradientUnits="userSpaceOnUse" x1="482.2515" x2="482.2515" xlink:href="#a" y1="704.6738" y2="620.8778"/><linearGradient id="g" gradientTransform="matrix(2 0 0 -2 -48.6602 1477.0391)" gradientUnits="userSpaceOnUse" x1="563.6724" x2="563.6724" xlink:href="#a" y1="704.6777" y2="620.878"/><linearGradient id="h" gradientTransform="matrix(2 0 0 -2 -48.6602 1477.0391)" gradientUnits="userSpaceOnUse" x1="618.2759" x2="618.2759" xlink:href="#a" y1="704.6719" y2="620.8815"/><linearGradient id="i" gradientTransform="matrix(2 0 0 -2 -48.6602 1477.0391)" gradientUnits="userSpaceOnUse" x1="675.7261" x2="675.7261" xlink:href="#a" y1="704.6699" y2="620.8749"/><linearGradient id="j" gradientTransform="matrix(2 0 0 -2 -48.6602 1477.0391)" gradientUnits="userSpaceOnUse" x1="739.1704" x2="739.1704" xlink:href="#a" y1="704.6689" y2="620.8782"/><g fill="#885e1e"><path d="m1484.959 188.297v-58.426l-5.091-1.498c-6.296-1.796-11.987-2.698-17.08-2.698-10.788 0-20.675 3.298-29.362 10.188v-6.891h-59.622v41.646c-3.596-8.389-8.693-16.178-15.584-23.072-14.377-14.679-32.954-21.872-54.824-21.872-14.084 0-26.669 2.698-37.752 8.393-11.088 5.392-19.777 13.18-26.368 22.467v-27.562h-22.171v-36.553h-62.023v36.554h-18.274v16.777c-2.098-2.396-4.193-4.495-6.593-6.291-12.58-9.29-29.66-14.083-50.331-14.083-24.574 0-43.444 6.291-55.731 18.875-8.386 8.39-13.181 20.374-14.68 35.955l-.601 7.791h20.076c-5.992 2.695-11.086 5.99-14.683 10.186-2.993 3.295-5.092 6.891-6.891 11.086v-50.338h-85.69v51.837h15.883c-4.494 3.294-9.589 5.091-16.181 5.091-10.787 0-17.679-3.592-22.472-11.083-4.795-7.792-7.191-18.278-7.191-31.162 0-11.083 1.796-20.073 5.694-26.966 4.493-7.789 10.783-11.683 20.672-11.683 6.89 0 12.285 2.099 16.478 6.592 2.397 2.396 3.896 5.389 4.797 9.287l1.497 5.392 64.714-1.196-1.494-8.094c-2.397-14.377-8.091-27.263-16.479-37.75-16.479-20.672-40.15-31.46-69.812-31.46-27.263 0-49.738 8.989-67.112 26.966-6.893 6.893-12.282 14.98-16.181 23.67h-19.177v-35.953h-62.02v36.554h-18.272v12.584c-11.385-10.487-28.764-15.882-51.536-15.882-19.475 0-35.954 4.196-48.536 12.286-9.889 6.291-16.179 14.681-18.577 24.57-2.997-5.396-6.89-10.188-11.385-14.984-14.382-14.679-32.957-21.872-54.83-21.872-14.082 0-26.667 2.698-37.751 8.393-12.886 6.29-23.07 15.878-29.961 27.864-3.596 6.29-5.993 12.883-7.79 19.772v-99.772h-66.214v57.827h-35.055v-57.827h-65.618v185.162h65.618v-67.713h35.055v67.713h65.614v-51.831c2.996 12.585 8.988 23.669 18.576 33.253 14.381 14.683 33.258 22.176 56.027 22.176 22.474 0 41.347-7.493 55.73-21.873 4.495-4.495 8.091-9.288 11.085-14.08 2.396 6.29 5.394 11.683 9.889 16.476 12.884 13.185 32.059 19.778 56.926 19.778 19.774 0 36.254-4.198 49.135-12.888 14.083-8.989 20.972-21.869 20.972-38.05 0-13.779-5.09-24.867-15.276-32.957-3.297-2.698-7.491-5.095-12.585-7.192h23.669l-.301-6.59h4.494v40.449c0 17.977 4.196 31.758 12.587 40.447 9.287 9.889 22.17 14.681 38.052 14.681 8.087 0 17.676-1.199 28.163-3.897l5.392-1.196v-37.452c3.895 6.591 8.091 12.886 13.781 18.278 16.78 17.377 37.453 26.066 61.724 26.066 17.076 0 32.657-4.494 46.136-13.184l2.102 9.286h46.736v-22.471c2.399 5.694 6.294 10.486 11.689 14.682 9.585 7.492 21.569 11.386 35.054 11.386 10.784 0 20.973-2.396 30.259-7.192 1.798-1.196 4.193-2.396 6.891-4.193.602 1.495 1.2 2.699 1.798 4.193l2.099 3.896h62.919l-5.992-10.484c-1.198-2.097-2.098-4.196-2.397-6.294-.298-2.396-.6-5.392-.6-8.988v-57.823c0-3.599-.298-6.894-.599-10.188h6.591v40.449c0 17.977 4.196 31.758 12.587 40.447 9.286 9.889 22.169 14.681 38.051 14.681 8.087 0 17.676-1.199 28.163-3.897l5.391-1.196v-23.672c2.1 2.997 4.495 5.99 7.193 8.688 14.38 14.682 33.256 22.174 56.026 22.174 22.472 0 41.347-7.492 55.728-21.877 6.893-6.889 11.984-14.679 15.581-23.068v41.047h62.618v-63.519c0-6.889 1.8-11.984 5.695-15.879 4.194-4.493 9.886-6.592 17.077-6.592 4.193 0 9.586 1.2 16.777 3.895zm-926.706 29.06c-2.396 3.295-5.391 4.797-9.885 4.797-4.496 0-7.491-1.502-9.888-4.797-2.996-3.894-4.494-10.484-4.494-19.174 0-8.988 1.498-15.28 4.494-19.174 2.397-3.298 5.393-4.796 9.589-4.796 4.494 0 14.679 0 14.679 24.269-.001 8.391-1.499 14.982-4.495 18.875zm122.842-49.436c2.697 0 6.292.301 7.491 1.799 0 0 .298.301.298.899l-7.188-1.499c-1.798-.299-3.297-.6-4.197-1.199 1.201.301 2.399 0 3.596 0zm-57.225 42.547c.598-3.595.898-7.49.898-11.087 3.896 4.194 8.991 8.09 16.179 11.087zm65.915 13.481c-1.499.899-3.896 1.498-6.293 1.498-7.189 0-9.887-2.396-11.085-6.289l12.286 2.694c2.995.901 4.79 1.499 5.092 2.097.299 0 .299 0 0 0zm138.119-5.391c-2.099.601-4.794.898-7.49.898-2.397 0-3.895-.6-4.793-1.499 0 0-.898-1.196-.898-5.989v-38.953h9.586v1.501c0 15.879 2.696 29.962 8.09 42.543zm240.59-44.042c.601-.901 2.399-3.896 10.189-3.896 3.294 0 5.992.599 7.787 1.497 1.2.898 1.2 1.199 1.499 1.498 0 0-1.197 1.498-7.789 2.996l-12.586 2.399v-.302c.001-1.797.302-3.298.9-4.192zm16.182 47.935c-3.897 3.896-8.69 5.695-14.382 5.695-2.397 0-4.196-.299-5.095-1.201-.898-.599-1.2-1.199-1.2-2.097 0-.598 0-.899 1.5-1.798.302-.298 2.397-1.497 12.285-4.493l10.785-3.895c-.599 2.997-1.797 5.692-3.893 7.789zm138.12-2.694c-2.397 0-3.893-.599-4.793-1.498 0 0-.898-1.2-.898-5.991v-38.952h13.482c-2.995 8.091-4.495 16.48-4.495 25.167 0 7.192.898 14.083 2.997 20.676-2.099.297-3.896.598-6.293.598zm89.886-2.4c-2.398 3.295-5.394 4.797-9.888 4.797-4.495 0-7.49-1.502-9.886-4.797-2.997-3.894-4.495-10.484-4.495-19.174 0-8.988 1.498-15.28 4.495-19.174 2.396-3.298 5.391-4.796 9.587-4.796 4.493 0 14.679 0 14.679 24.269 0 8.391-1.497 14.982-4.492 18.875z"/><path d="m415.637 147.248h-49.436v-58.123h-51.235v170.778h51.235v-67.413h49.436v67.413h51.234v-170.778h-51.234z"/><path d="m549.265 132.868c-12.882 0-24.567 2.396-34.755 7.49-11.685 5.993-20.673 14.083-26.965 24.869-5.693 10.184-8.689 21.272-8.689 32.958 0 17.676 6.293 32.959 18.576 45.24 13.184 13.186 29.963 19.774 50.936 19.774 20.673 0 37.75-6.589 50.933-19.774 12.284-12.281 18.575-27.564 18.575-45.542 0-17.977-6.291-32.954-18.575-45.539-13.184-12.884-29.961-19.476-50.036-19.476zm14.982 88.686c-3.597 5.094-8.99 7.789-15.879 7.789-6.593 0-11.985-2.695-15.583-7.789-3.893-5.092-5.991-12.883-5.991-23.672 0-10.486 2.098-18.275 5.991-23.668 3.895-5.094 8.99-7.49 15.283-7.49 14.679 0 21.87 10.487 21.87 31.46 0 10.487-1.798 18.278-5.691 23.37z"/><path d="m732.927 192.49c-6.29-5.095-16.477-8.986-30.258-11.684l-22.174-4.494c-7.788-1.498-11.985-4.196-11.985-8.392 0-2.397 1.498-4.495 4.197-5.691 2.397-1.2 5.091-1.499 8.388-1.499 5.993 0 10.186 1.499 12.883 4.495 1.199 1.498 2.097 3.894 2.396 7.49h44.643c-.6-9.887-3.894-17.977-9.589-24.267-9.886-10.487-26.066-15.88-48.836-15.88-18.276 0-33.255 3.594-44.941 11.083-10.788 6.893-16.479 16.479-16.479 28.763 0 18.58 12.284 30.563 36.852 36.256l27.865 6.29c7.491 1.8 11.385 4.495 11.385 8.69 0 2.695-1.5 4.793-4.194 6.29-2.697 1.8-5.992 2.397-10.187 2.397-11.086 0-17.078-5.092-18.576-14.981h-45.84c.598 11.686 4.493 20.974 11.383 28.165 11.387 11.688 28.766 17.676 51.835 17.676 18.275 0 33.556-3.895 45.541-11.683 11.984-7.79 17.675-18.276 17.675-32.06.601-11.384-3.592-20.372-11.984-26.964z"/><path d="m807.832 99.31h-47.942v36.554h-18.271v29.961h18.271v47.639c0 16.18 3.6 28.161 10.49 35.651 8.087 8.393 19.177 12.589 32.959 12.589 7.486 0 16.475-1.204 26.662-3.897v-32.359c-2.696.899-5.992 1.2-9.587 1.2-4.494 0-7.789-1.2-9.885-3.895-1.799-2.101-2.697-5.694-2.697-10.785v-45.844h22.169v-29.961h-22.169z"/><path d="m928.574 203.575h22.472c-1.498 4.495-3.895 8.092-7.189 11.088-5.992 5.392-13.482 8.388-22.77 8.388-12.887 0-22.475-4.792-28.467-14.38-5.392-8.988-8.389-20.374-8.389-35.057 0-12.283 2.098-22.471 6.593-30.26 5.69-10.186 14.38-15.28 26.664-15.28 8.988 0 16.18 2.996 21.573 8.99 2.996 3.293 5.396 7.487 6.592 12.581l50.936-.898c-2.098-13.483-7.192-24.868-14.984-34.456-15.276-19.173-36.849-28.762-64.416-28.762-25.466 0-46.142 8.392-62.017 24.868-15.883 16.479-23.668 38.052-23.668 64.418 0 26.664 8.086 48.536 24.265 65.315 15.278 15.877 34.455 23.971 56.629 23.971 19.475 0 36.253-6.294 50.633-18.578l3.298 14.683h33.854v-94.081h-71.607v37.45z"/><path d="m1141.9 241.625v-58.121c0-17.679-5.393-30.264-15.878-38.051-11.385-8.389-26.665-12.585-46.14-12.585-22.772 0-39.552 5.694-50.638 16.777-7.191 7.192-11.384 17.679-12.584 31.46h44.043c0-.897 0-1.796 0-2.095 0-3.298.602-5.995 2.1-8.093 2.997-4.793 8.388-7.19 16.178-7.19 4.493 0 8.392.899 11.385 2.699 3.297 1.796 4.797 4.491 4.797 7.788 0 4.494-4.495 7.789-13.484 9.59l-35.954 6.89c-11.984 2.396-20.673 6.592-26.067 12.284-5.69 6.292-8.386 14.38-8.386 24.27 0 11.385 4.192 20.374 12.28 26.664 8.392 6.589 18.576 9.888 30.863 9.888 9.886 0 18.875-2.095 26.962-6.291 3.299-1.796 8.091-5.095 14.083-9.589.9 4.494 2.396 8.69 4.195 12.581h46.442c-1.802-2.992-2.699-5.69-2.997-8.385-.899-3.298-1.2-6.594-1.2-10.491zm-46.142-30.559c0 6.891-2.095 12.284-5.989 16.181-5.093 5.393-11.687 7.789-19.475 7.789-3.896 0-6.891-.897-9.289-2.697-2.696-2.098-4.194-4.795-4.194-8.088 0-3.294 1.498-5.992 4.793-7.789 1.8-1.199 6.293-2.697 13.785-5.396l20.369-6.891z"/><path d="m1209.914 99.31h-47.942v36.554h-18.273v29.961h18.273v47.639c0 16.18 3.601 28.161 10.491 35.651 8.088 8.393 19.173 12.589 32.958 12.589 7.486 0 16.479-1.204 26.663-3.897v-32.359c-2.995.899-5.992 1.2-9.589 1.2-4.492 0-7.786-1.2-9.886-3.895-1.799-2.101-2.695-5.694-2.695-10.785v-45.844h22.17v-29.961h-22.17z"/><path d="m1303.691 132.868c-12.883 0-24.565 2.396-34.755 7.49-11.685 5.993-20.674 14.083-26.965 24.869-5.989 10.184-8.689 21.272-8.689 32.958 0 17.676 6.294 32.959 18.575 45.24 13.186 13.186 29.962 19.774 50.937 19.774 20.674 0 37.75-6.589 50.936-19.774 12.283-12.281 18.573-27.564 18.573-45.542 0-17.977-6.29-32.954-18.573-45.539-13.483-12.884-29.962-19.476-50.039-19.476zm14.684 88.686c-3.597 5.094-8.989 7.789-15.88 7.789-6.592 0-11.984-2.695-15.579-7.789-3.896-5.092-5.993-12.883-5.993-23.672 0-10.486 2.098-18.275 5.993-23.668 3.893-5.094 8.987-7.49 15.278-7.49 14.682 0 21.87 10.487 21.87 31.46 0 10.487-1.793 18.278-5.689 23.37z"/><path d="m1478.066 135.264c-5.69-1.796-10.783-2.396-14.979-2.396-14.082 0-26.066 6.891-36.554 20.373v-17.078h-45.239v124.042h47.937v-56.63c0-8.687 2.396-15.577 7.494-20.973 5.689-5.691 12.878-8.686 22.169-8.686 4.793 0 11.386 1.493 19.173 4.493v-43.145z"/><path d="m1484.959 174.214v-58.426l-5.091-1.498c-6.296-1.797-11.987-2.695-17.08-2.695-10.788 0-20.675 3.298-29.362 10.185v-6.887h-59.622v41.642c-3.596-8.388-8.693-16.178-15.584-23.067-14.377-14.684-32.954-21.872-54.824-21.872-14.084 0-26.669 2.695-37.752 8.389-11.088 5.393-19.777 13.185-26.368 22.469v-27.56h-22.171v-36.856h-62.023v36.555h-18.274v16.777c-2.098-2.098-4.193-4.494-6.593-6.291-12.58-9.29-29.66-14.082-50.331-14.082-24.574 0-43.444 6.291-55.731 18.875-8.386 8.389-13.181 20.373-14.68 35.954l-.601 7.789h20.076c-5.992 2.698-11.086 5.992-14.683 10.189-2.993 3.294-5.092 7.191-6.891 11.085v-50.037h-85.69v51.834h15.883c-4.494 3.297-9.589 5.094-16.181 5.094-10.787 0-17.679-3.597-22.472-11.087-4.795-7.79-7.191-17.978-7.191-31.16 0-11.085 1.796-20.074 5.694-26.965 4.493-7.792 10.783-11.686 20.672-11.686 6.89 0 12.285 2.098 16.478 6.593 2.397 2.396 3.896 5.392 4.797 9.287l1.497 5.392 64.714-1.197-1.494-8.09c-2.397-14.382-8.091-27.264-16.479-37.75-16.479-20.676-40.15-31.162-69.812-31.162-27.263 0-49.738 8.992-67.112 26.966-6.893 6.891-12.282 14.98-16.181 23.671h-19.177v-36.554h-62.02v36.555h-18.272v12.582c-11.385-10.484-28.764-15.88-51.536-15.88-19.475 0-35.954 4.195-48.536 12.286-9.889 6.291-16.179 14.679-18.577 24.567-2.997-5.393-6.89-10.186-11.385-14.979-14.382-14.683-32.957-21.875-54.83-21.875-14.082 0-26.667 2.698-37.751 8.389-12.886 6.595-23.07 15.879-29.961 27.864-3.596 6.293-5.993 12.886-7.79 19.777v-99.471h-66.214v57.822h-35.055v-57.822h-65.618v184.862h65.618v-67.414h35.055v67.71h65.614v-51.831c2.996 12.585 8.988 23.669 18.576 33.257 14.381 14.679 33.258 21.871 56.027 21.871 22.474 0 41.347-7.489 55.73-21.871 4.495-4.495 8.091-9.286 11.085-14.082 2.396 6.293 5.394 11.683 9.889 16.479 12.884 13.185 32.059 19.776 56.926 19.776 19.774 0 36.254-4.196 49.135-12.884 14.083-8.987 20.972-21.873 20.972-38.051 0-14.084-5.09-24.868-15.276-32.959-3.297-2.695-7.491-5.094-12.585-7.192h23.669l-.301-6.593h4.494v40.45c0 17.977 4.196 31.762 12.587 40.447 9.287 9.89 22.17 14.685 38.052 14.685 8.087 0 17.676-1.201 28.163-3.896l5.392-1.201v-37.148c3.895 6.589 8.091 12.883 13.781 18.274 16.78 17.377 37.453 26.067 61.724 26.067 17.076 0 32.657-4.494 46.136-13.186l2.102 9.291h46.736v-22.474c2.399 5.692 6.294 10.489 11.689 14.683 9.585 7.489 21.569 11.384 35.054 11.384 10.784 0 20.973-2.396 30.259-7.192 1.798-.896 4.193-2.396 6.891-4.191.602 1.497 1.2 2.697 1.798 4.191l2.099 3.896h62.919l-5.992-10.482c-1.198-2.1-2.098-4.197-2.397-5.995-.298-2.395-.6-5.391-.6-8.989v-58.425c0-3.596-.298-6.89-.599-10.189h6.591v40.45c0 17.977 4.196 31.762 12.587 40.447 9.286 9.89 22.169 14.685 38.051 14.685 8.087 0 17.676-1.201 28.163-3.896l5.391-1.201v-23.67c2.1 2.999 4.495 5.995 7.193 8.69 14.38 14.679 33.256 21.871 56.026 21.871 22.472 0 41.347-7.489 55.728-21.871 6.893-6.893 11.984-14.68 15.581-23.068v41.643h62.618v-63.815c0-6.891 1.8-11.984 5.695-15.88 4.194-4.494 9.886-6.592 17.077-6.592 4.193 0 9.586 1.197 16.777 3.896zm-926.706 29.064c-2.396 3.293-5.391 4.792-9.885 4.792-4.496 0-7.491-1.499-9.888-4.792-2.996-3.897-4.494-10.486-4.494-19.177 0-8.989 1.498-15.28 4.494-19.173 2.397-3.298 5.393-4.796 9.589-4.796 4.494 0 14.679 0 14.679 24.268-.001 8.392-1.499 14.682-4.495 18.878zm122.842-49.438c2.697 0 6.292.299 7.491 1.798 0 0 .298.301.298.897l-7.188-1.495c-1.798-.301-3.297-.599-4.197-1.2zm-57.225 42.545c.598-3.593.898-7.491.898-11.084 3.896 4.193 8.991 8.088 16.179 11.084zm65.915 13.482c-1.499.901-3.896 1.501-6.293 1.501-7.189 0-9.887-2.399-11.085-6.294l12.286 2.698c2.995.597 4.79 1.498 5.092 2.095.299-.298.299 0 0 0zm138.119-5.389c-2.099.597-4.794.896-7.49.896-2.397 0-3.895-.597-4.793-1.498 0 0-.898-1.196-.898-5.993v-38.951h9.586v1.502c0 15.879 2.696 29.961 8.09 42.544zm240.59-44.346c.601-.899 2.399-3.896 10.189-3.896 3.294 0 5.992.601 7.787 1.499 1.2.899 1.2 1.196 1.499 1.498 0 0-1.197 1.798-7.789 2.998l-12.586 2.396v-.299c.001-1.797.302-2.996.9-4.196zm16.182 47.938c-3.897 3.897-8.69 5.694-14.382 5.694-2.397 0-4.196-.301-5.095-1.199-.898-.598-1.2-1.197-1.2-2.397 0-.599 0-.898 1.5-1.799.302-.299 2.397-1.197 12.285-4.494l10.785-3.593c-.599 3.293-1.797 5.691-3.893 7.788zm138.12-2.697c-2.397 0-3.893-.597-4.793-1.498 0 0-.898-1.196-.898-5.993v-38.951h13.482c-2.995 8.094-4.495 16.479-4.495 25.17 0 7.191.898 14.082 2.997 20.675-2.099.298-3.896.597-6.293.597zm89.886-2.095c-2.398 3.293-5.394 4.792-9.888 4.792-4.495 0-7.49-1.499-9.886-4.792-2.997-3.897-4.495-10.486-4.495-19.177 0-8.989 1.498-15.28 4.495-19.173 2.396-3.298 5.391-4.796 9.587-4.796 4.493 0 14.679 0 14.679 24.268 0 8.392-1.497 14.682-4.492 18.878z"/></g><path d="m415.637 132.868h-49.436v-57.826h-51.235v170.778h51.235v-67.712h49.436v67.712h51.234v-170.778h-51.234z" fill="url(#b)"/><path d="m465.073 76.839v167.183h-47.64v-65.913-1.796h-1.796-49.137-1.797v1.796 65.913h-47.938v-167.183h47.938v56.33 1.796h1.797 49.138 1.796v-1.796-56.33zm1.798-1.797h-51.234v57.826h-49.137v-57.826h-51.233v170.778h51.233v-67.712h49.138v67.712h51.234v-170.778z" fill="#fbf0ba" opacity=".61"/><path d="m549.265 118.486c-12.882 0-24.567 2.397-34.755 7.488-11.685 5.995-20.673 14.082-26.965 24.87-5.693 10.186-8.689 21.272-8.689 32.959 0 17.675 6.293 32.957 18.576 45.239 13.184 13.184 29.963 19.775 50.936 19.775 20.673 0 37.75-6.592 50.933-19.775 12.284-12.282 18.575-27.564 18.575-45.539 0-17.98-6.291-32.958-18.575-45.542-13.184-12.883-29.961-19.475-50.036-19.475zm14.982 88.985c-3.597 5.095-8.99 7.792-15.879 7.792-6.593 0-11.985-2.399-15.583-7.792-3.893-5.091-5.991-12.884-5.991-23.369 0-10.487 2.098-18.276 5.991-23.668 3.895-5.094 8.99-7.791 15.283-7.791 14.679 0 21.87 10.486 21.87 31.459 0 10.187-1.798 17.976-5.691 23.369z" fill="url(#c)"/><path d="m549.265 120.283c19.477 0 35.956 6.592 48.837 19.476 11.984 11.984 17.977 26.965 17.977 44.045 0 17.376-5.993 32.056-17.977 44.044-12.882 12.883-29.361 19.472-49.438 19.472-20.373 0-36.852-6.589-49.733-19.472-11.985-11.988-17.978-26.97-17.978-44.044 0-11.389 2.996-22.173 8.389-32.061 5.992-10.487 14.679-18.574 26.067-24.267 9.886-4.797 21.271-7.193 33.856-7.193m-.897 96.478c7.489 0 13.182-2.698 17.076-8.392 4.195-5.392 6.292-13.782 6.292-24.268 0-21.872-8.091-33.257-23.667-33.257-6.894 0-12.585 2.697-16.78 8.388-4.194 5.394-6.293 13.782-6.293 24.571 0 10.783 2.1 19.174 6.293 24.565 4.194 5.695 9.885 8.393 17.079 8.393m.897-98.275c-12.882 0-24.567 2.397-34.755 7.488-11.685 5.995-20.673 14.082-26.965 24.87-5.693 10.186-8.689 21.272-8.689 32.959 0 17.675 6.293 32.957 18.576 45.239 13.184 13.184 29.963 19.775 50.936 19.775 20.673 0 37.75-6.592 50.933-19.775 12.284-12.282 18.575-27.564 18.575-45.539 0-17.98-6.291-32.958-18.575-45.542-13.184-12.883-29.961-19.475-50.036-19.475zm-.897 96.475c-6.593 0-11.985-2.396-15.583-7.789-3.893-5.094-5.991-12.883-5.991-23.368 0-10.488 2.098-18.28 5.991-23.672 3.895-5.092 8.99-7.789 15.283-7.789 14.679 0 21.87 10.486 21.87 31.46 0 10.185-2.097 17.977-5.991 23.368-3.595 5.394-8.69 7.79-15.579 7.79z" fill="#fbf0ba" opacity=".61"/><path d="m732.927 178.108c-6.29-5.094-16.477-8.988-30.258-11.683l-22.174-4.494c-7.788-1.499-11.985-4.197-11.985-8.39 0-2.398 1.498-4.494 4.197-5.693 2.397-1.2 5.091-1.498 8.388-1.498 5.993 0 10.186 1.498 12.883 4.494 1.199 1.499 2.097 3.895 2.396 7.491h44.643c-.6-9.887-3.894-17.978-9.589-24.268-9.886-10.487-26.066-15.883-48.836-15.883-18.276 0-33.255 3.596-44.941 11.087-10.788 6.891-16.479 16.479-16.479 28.765 0 18.574 12.284 30.559 36.852 36.253l27.865 6.29c7.491 1.801 11.385 4.495 11.385 8.69 0 2.698-1.5 4.793-4.194 6.292-2.697 1.796-5.992 2.396-10.187 2.396-11.086 0-17.078-5.094-18.576-14.979h-45.84c.598 11.686 4.493 20.972 11.383 28.165 11.387 11.684 28.766 17.676 51.835 17.676 18.275 0 33.556-3.895 45.541-11.688 11.984-7.787 17.675-18.273 17.675-32.056.601-11.385-3.592-20.375-11.984-26.967z" fill="url(#d)"/><path d="m682.893 120.283c22.171 0 38.051 5.094 47.64 15.279 5.093 5.395 8.089 12.585 8.988 21.274h-41.049c-.598-2.997-1.498-5.396-2.697-6.891-2.995-3.298-7.789-4.795-14.38-4.795-3.596 0-6.593.6-8.989 1.795-4.192 2.102-5.093 5.095-5.093 7.193 0 5.093 4.494 8.392 13.182 9.887l22.174 4.494c13.781 2.697 23.668 6.592 29.661 11.385 8.088 6.294 11.685 14.682 11.685 25.77 0 13.182-5.693 23.07-17.079 30.561-11.685 7.49-26.665 11.386-44.343 11.386-22.47 0-39.549-5.694-50.635-17.079-6.291-6.291-9.888-14.683-10.785-25.169h42.547c2.095 9.89 8.987 14.981 20.072 14.981 4.193 0 8.089-.898 11.085-2.695 3.296-1.8 5.093-4.495 5.093-7.792 0-4.793-4.196-8.389-12.584-10.486l-27.865-6.291c-23.968-5.394-35.652-16.479-35.652-34.456 0-11.688 5.094-20.673 15.58-27.265 10.786-7.49 25.467-11.086 43.444-11.086m0-1.797c-18.277 0-33.257 3.596-44.941 11.087-10.788 6.891-16.479 16.479-16.479 28.763 0 18.576 12.285 30.558 36.853 36.251l27.864 6.291c7.491 1.801 11.385 4.495 11.385 8.691 0 2.698-1.5 4.792-4.194 6.29-2.696 1.8-5.994 2.399-10.187 2.399-11.086 0-17.079-5.095-18.577-14.98h-45.84c.6 11.683 4.495 20.973 11.386 28.162 11.383 11.687 28.763 17.675 51.833 17.675 18.276 0 33.557-3.891 45.542-11.679 11.984-7.793 17.675-18.278 17.675-32.063 0-11.683-4.194-20.673-12.582-27.265-6.293-5.094-16.479-8.988-30.262-11.683l-22.17-4.494c-7.792-1.499-11.984-4.197-11.984-8.39 0-2.398 1.497-4.494 4.192-5.693 2.396-1.2 5.093-1.498 8.39-1.498 5.993 0 10.186 1.498 12.885 4.494 1.197 1.499 2.094 3.895 2.395 7.491h44.942c-.6-9.887-3.894-17.978-9.589-24.268-9.588-10.188-25.766-15.581-48.537-15.581z" fill="#fbf0ba" opacity=".61"/><path d="m807.832 85.229h-47.942v36.551h-18.271v29.962h18.271v47.638c0 16.181 3.6 28.163 10.49 35.655 8.087 8.388 19.177 12.585 32.959 12.585 7.486 0 16.475-1.2 26.662-3.896v-32.357c-2.696.899-5.992 1.197-9.587 1.197-4.494 0-7.789-1.197-9.885-3.895-1.799-2.1-2.697-5.693-2.697-10.789v-46.139h22.169v-29.961h-22.169z" fill="url(#e)"/><path d="m806.032 87.026v35.056 1.797h1.8 20.374v26.365h-20.374-1.8v1.797 46.142c0 5.691.898 9.589 3.295 11.984 2.697 2.996 6.294 4.495 11.388 4.495 2.695 0 5.393-.302 7.789-.898v28.764c-9.286 2.097-17.679 3.292-24.868 3.292-13.482 0-24.268-3.894-31.758-11.983-6.592-7.189-9.89-18.574-9.89-34.456v-47.638-1.796h-1.797-16.476v-26.366h16.476 1.797v-1.8-34.755zm1.8-1.797h-47.942v36.551h-18.271v29.962h18.271v47.638c0 16.181 3.6 28.163 10.49 35.655 8.087 8.388 19.177 12.585 32.959 12.585 7.486 0 16.475-1.2 26.662-3.896v-32.357c-2.696.899-5.992 1.197-9.587 1.197-4.494 0-7.789-1.197-9.885-3.895-1.799-2.1-2.697-5.693-2.697-10.789v-46.139h22.169v-29.961h-22.169z" fill="#fbf0ba" opacity=".61"/><path d="m928.574 189.494h22.472c-1.498 4.494-3.895 8.089-7.189 11.085-5.992 5.394-13.482 8.39-22.77 8.39-12.887 0-22.475-4.793-28.467-14.382-5.392-8.988-8.389-20.373-8.389-35.053 0-12.286 2.098-22.47 6.593-30.561 5.69-10.189 14.38-15.282 26.664-15.282 8.988 0 16.18 2.999 21.573 8.988 2.996 3.295 5.396 7.491 6.592 12.584l50.936-.899c-2.098-13.482-7.192-24.867-14.984-34.456-15.276-19.174-36.849-28.763-64.416-28.763-25.466 0-46.142 8.39-62.017 24.869-15.883 16.479-23.668 38.053-23.668 64.418 0 26.665 8.086 48.536 24.265 65.313 15.278 16.181 34.455 23.972 56.629 23.972 19.475 0 36.253-6.294 50.633-18.575l3.298 14.678h33.854v-93.779h-71.607v37.453z" fill="url(#f)"/><path d="m917.488 72.947c26.969 0 47.939 9.284 62.919 27.864 7.193 8.985 11.985 19.473 14.385 31.758l-47.342.899c-1.498-4.796-3.594-8.691-6.59-11.986-5.992-6.293-13.482-9.287-23.071-9.287-12.883 0-22.472 5.393-28.464 16.178-4.493 8.091-6.592 18.875-6.592 31.161 0 14.68 2.996 26.666 8.392 35.956 6.292 10.186 16.477 15.279 29.962 15.279 9.585 0 17.677-2.996 23.967-8.69 3.298-2.996 5.992-6.891 7.49-11.684l.899-2.396h-2.397-20.672v-34.159h68.012v90.483h-30.86l-2.997-13.181-.6-2.996-2.096 1.795c-13.783 11.985-30.561 17.978-49.436 17.978-21.871 0-40.448-7.789-55.43-23.369-15.879-16.181-23.669-37.75-23.669-63.819 0-25.766 7.79-47.04 23.368-63.218 15.582-16.479 35.954-24.566 60.822-24.566m0-1.801c-25.468 0-46.14 8.39-62.019 24.869-15.88 16.479-23.672 38.053-23.672 64.418 0 26.665 8.092 48.536 24.271 65.313 15.279 16.181 34.457 23.972 56.626 23.972 19.476 0 36.253-6.294 50.635-18.575l3.297 14.678h33.856v-93.779h-71.606v37.453h22.468c-1.496 4.494-3.895 8.089-7.191 11.085-5.99 5.394-13.481 8.39-22.768 8.39-12.886 0-22.472-4.793-28.464-14.382-5.396-8.988-8.392-20.373-8.392-35.053 0-12.286 2.101-22.47 6.595-30.561 5.691-10.189 14.378-15.282 26.664-15.282 8.988 0 16.179 2.999 21.574 8.988 2.992 3.295 5.393 7.491 6.589 12.584l50.935-.899c-2.095-13.482-7.188-24.867-14.98-34.456-15.578-19.174-36.852-28.763-64.418-28.763z" fill="#fbf0ba" opacity=".61"/><path d="m1141.9 227.247v-58.127c0-17.679-5.393-30.26-15.878-38.05-11.385-8.391-26.665-12.584-46.14-12.584-22.772 0-39.552 5.692-50.638 16.778-7.191 7.19-11.384 17.68-12.584 31.46h44.043c0-.898 0-1.795 0-2.097 0-3.295.602-5.992 2.1-8.091 2.997-4.792 8.388-7.188 16.178-7.188 4.493 0 8.392.897 11.385 2.695 3.297 1.799 4.797 4.494 4.797 7.792 0 4.495-4.495 7.789-13.484 9.589l-35.954 6.891c-11.984 2.396-20.673 6.591-26.067 12.282-5.69 6.294-8.386 14.383-8.386 24.269 0 11.388 4.192 20.376 12.28 26.667 8.392 6.59 18.576 9.886 30.863 9.886 9.886 0 18.875-2.097 26.962-6.289 3.299-1.8 8.091-5.094 14.083-9.589.9 4.495 2.396 8.688 4.195 12.582h46.442c-1.802-2.993-2.699-5.691-2.997-8.388-.899-2.997-1.2-6.592-1.2-10.488zm-46.142-30.263c0 6.891-2.095 12.285-5.989 16.18-5.093 5.394-11.687 7.793-19.475 7.793-3.896 0-6.891-.902-9.289-2.698-2.696-2.099-4.194-4.795-4.194-8.091 0-3.295 1.498-5.992 4.793-7.788 1.8-1.2 6.293-2.697 13.785-5.396l20.369-6.891z" fill="url(#g)"/><path d="m1079.883 120.283c18.875 0 33.854 4.196 44.941 12.286 10.186 7.487 15.28 19.774 15.28 36.853v58.122c0 4.197.295 7.492.897 10.489.3 2.097.898 4.193 2.099 6.29h-42.547c-1.498-3.295-2.697-7.193-3.597-11.084l-.597-2.697-2.097 1.797c-5.694 4.494-10.491 7.489-13.785 9.286-8.089 4.195-16.777 6.294-26.366 6.294-11.682 0-21.572-3.294-29.658-9.287-7.793-5.992-11.688-14.082-11.688-25.168 0-9.589 2.698-17.378 8.092-23.37 5.094-5.394 13.481-9.588 25.165-11.985l35.955-6.891c9.891-1.796 14.683-5.694 14.683-11.086 0-3.896-1.799-7.188-5.695-9.288-3.294-1.796-7.49-2.996-12.281-2.996-8.39 0-14.383 2.697-17.679 8.091-1.498 2.396-2.397 5.691-2.397 8.989v.298h-40.147c1.499-12.283 5.394-21.872 11.986-28.463 10.782-11.088 27.262-16.48 49.436-16.48m-9.589 102.47c8.39 0 15.28-2.698 20.671-8.392 4.198-4.193 6.594-10.186 6.594-17.377v-6.59-2.396l-2.396.896-20.375 6.895c-7.791 2.396-12.286 4.195-14.084 5.392-3.594 2.099-5.692 5.392-5.692 9.288 0 3.894 1.498 7.191 4.792 9.289 2.698 2.095 6.294 2.995 10.49 2.995m9.589-104.267c-22.772 0-39.552 5.692-50.638 16.778-7.191 7.19-11.384 17.68-12.584 31.46h44.043c0-.898 0-1.795 0-2.097 0-3.295.602-5.992 2.1-8.091 2.997-4.792 8.388-7.188 16.178-7.188 4.493 0 8.392.897 11.385 2.695 3.297 1.799 4.797 4.494 4.797 7.792 0 4.495-4.495 7.789-13.484 9.589l-35.954 6.891c-11.984 2.396-20.673 6.591-26.067 12.282-5.69 6.294-8.386 14.383-8.386 24.269 0 11.388 4.192 20.376 12.28 26.667 8.392 6.59 18.576 9.886 30.863 9.886 9.886 0 18.875-2.097 26.962-6.289 3.299-1.8 8.091-5.094 14.083-9.589.9 4.495 2.396 8.688 4.195 12.582h46.442c-1.802-2.993-2.699-5.691-2.997-8.388-.599-2.696-.599-5.991-.599-10.188v-58.427c0-17.679-5.395-30.26-15.88-38.05-11.984-8.391-27.566-12.584-46.739-12.584zm-9.589 102.471c-3.896 0-6.891-.902-9.289-2.698-2.696-2.099-4.194-4.795-4.194-8.091 0-3.295 1.498-5.992 4.793-7.788 1.8-1.2 6.293-2.697 13.785-5.396l20.369-6.891v6.593c0 6.889-2.095 12.282-5.989 16.177-5.093 5.396-11.687 8.094-19.475 8.094z" fill="#fbf0ba" opacity=".61"/><path d="m1209.914 85.229h-47.942v36.551h-18.273v29.962h18.273v47.638c0 16.181 3.601 28.163 10.491 35.655 8.088 8.388 19.173 12.585 32.958 12.585 7.486 0 16.479-1.2 26.663-3.896v-32.357c-2.995.899-5.992 1.197-9.589 1.197-4.492 0-7.786-1.197-9.886-3.895-1.799-2.1-2.695-5.693-2.695-10.789v-46.139h22.17v-29.961h-22.17z" fill="url(#h)"/><path d="m1208.115 87.026v35.056 1.797h1.799 20.673v26.365h-20.673-1.799v1.797 46.142c0 5.691 1.199 9.589 3.295 11.984 2.697 2.996 6.294 4.495 11.386 4.495 2.697 0 5.396-.302 7.791-.898v28.764c-9.288 2.097-17.68 3.292-24.867 3.292-13.482 0-24.27-3.894-31.759-11.983-6.591-7.189-9.887-18.574-9.887-34.456v-47.638-1.796h-1.801-16.475v-26.366h16.475 1.801v-1.8-34.755zm1.799-1.797h-47.942v36.551h-18.273v29.962h18.273v47.638c0 16.181 3.601 28.163 10.491 35.655 8.088 8.388 19.173 12.585 32.958 12.585 7.486 0 16.479-1.2 26.663-3.896v-32.357c-2.995.899-5.992 1.197-9.589 1.197-4.492 0-7.786-1.197-9.886-3.895-1.799-2.1-2.695-5.693-2.695-10.789v-46.139h22.17v-29.961h-22.17z" fill="#fbf0ba" opacity=".61"/><path d="m1303.691 118.486c-12.883 0-24.565 2.397-34.755 7.488-11.685 5.995-20.674 14.082-26.965 24.87-5.989 10.186-8.689 21.272-8.689 32.959 0 17.675 6.294 32.957 18.575 45.239 13.186 13.184 29.962 19.775 50.937 19.775 20.674 0 37.75-6.592 50.936-19.775 12.283-12.282 18.573-27.564 18.573-45.539 0-17.98-6.29-32.958-18.573-45.542-13.483-12.883-29.962-19.475-50.039-19.475zm14.684 88.985c-3.597 5.095-8.989 7.792-15.88 7.792-6.592 0-11.984-2.399-15.579-7.792-3.896-5.091-5.993-12.884-5.993-23.369 0-10.487 2.098-18.276 5.993-23.668 3.893-5.094 8.987-7.791 15.278-7.791 14.682 0 21.87 10.486 21.87 31.459 0 10.187-1.793 17.976-5.689 23.369z" fill="url(#i)"/><path d="m1303.691 120.283c19.475 0 35.954 6.592 48.837 19.476 11.984 11.984 17.978 26.667 17.978 44.045 0 17.376-5.993 32.056-17.978 44.044-12.883 12.883-29.362 19.472-49.437 19.472-20.373 0-36.853-6.589-49.735-19.472-11.984-11.988-17.977-26.97-17.977-44.044 0-11.389 2.996-22.173 8.689-32.061 5.992-10.487 14.68-18.574 26.066-24.267 9.29-4.797 20.675-7.193 33.557-7.193m-1.196 96.478c7.487 0 13.182-2.698 17.076-8.392 4.196-5.392 6.293-13.782 6.293-24.268 0-21.872-8.089-33.257-23.67-33.257-7.189 0-12.585 2.697-16.778 8.388-4.196 5.394-6.29 13.782-6.29 24.571 0 10.783 2.094 19.174 6.29 24.565 4.193 5.695 9.888 8.393 17.079 8.393m1.196-98.275c-12.883 0-24.565 2.397-34.755 7.488-11.685 5.995-20.674 14.082-26.965 24.87-5.989 10.186-8.689 21.272-8.689 32.959 0 17.675 6.294 32.957 18.575 45.239 13.186 13.184 29.962 19.775 50.937 19.775 20.674 0 37.75-6.592 50.936-19.775 12.283-12.282 18.573-27.564 18.573-45.539 0-17.98-6.29-32.958-18.573-45.542-13.483-12.883-29.962-19.475-50.039-19.475zm-1.196 96.475c-6.592 0-11.984-2.396-15.579-7.789-3.896-5.094-5.993-12.883-5.993-23.368 0-10.488 2.098-18.28 5.993-23.672 3.893-5.092 8.987-7.789 15.278-7.789 14.682 0 21.87 10.486 21.87 31.46 0 10.185-2.098 17.977-5.991 23.368-3.295 5.394-8.687 7.79-15.578 7.79z" fill="#fbf0ba" opacity=".61"/><path d="m1478.066 120.883c-5.69-1.799-10.783-2.397-14.979-2.397-14.082 0-26.066 6.891-36.554 20.374v-17.08h-45.239v123.742h47.937v-56.327c0-8.689 2.396-15.581 7.494-20.974 5.689-5.69 12.878-8.688 22.169-8.688 4.793 0 11.386 1.497 19.173 4.493v-43.143z" fill="url(#j)"/><path d="m1463.087 120.283c3.597 0 8.09.6 13.181 2.098v38.951c-6.891-2.4-12.879-3.597-17.374-3.597-9.588 0-17.679 2.996-23.671 9.29-5.394 5.39-8.087 12.88-8.087 22.17v54.826h-44.345v-120.44h41.944v15.279 5.094l3.295-4.195c9.891-12.884 21.573-19.476 35.057-19.476m0-1.797c-14.082 0-26.066 6.891-36.554 20.374v-17.08h-45.239v123.742h47.937v-56.327c0-8.689 2.396-15.581 7.494-20.974 5.689-5.69 12.878-8.688 22.169-8.688 4.793 0 11.386 1.497 19.173 4.493v-43.144c-5.993-1.494-10.784-2.396-14.98-2.396z" fill="#fbf0ba" opacity=".61"/><path d="m1005.276 141.256v4.197h-5.393v-6.891z" fill="#885e1e"/><path d="m1008.871 173.614v14.384l4.196-15.882z" fill="#885e1e"/><path d="m1158.082 253.011v14.083l-12.887-15.88z" fill="#885e1e"/><path d="m212.2 168.222c-12.285-6.591-35.654-19.773-35.355-35.653 0-2.996.898-5.694 2.397-8.391l.3-.598.598-.6c2.098-1.796 4.495-2.996 6.893-3.593 9.587-2.698 19.475 2.094 27.264 7.487 11.085 7.789 21.573 18.875 30.56 29.064 2.097 2.396 5.093 5.091 5.694 8.087.598 3.297-1.499 6.593-2.698 9.588-6.591 13.186-16.477 25.17-27.564 35.655l.299 1.198c2.998 10.185 2.097 19.176-5.392 27.265l-.899.899-1.199.3c-5.692 1.799-11.385.599-17.077-.3l-1.2-.301-.899-1.201c-9.288-9.586-14.082-19.772-5.691-32.056 2.996-4.495 5.992-9.286 8.688-14.079 4.493-7.191 8.988-14.981 14.082-21.573.299-.3.897-.899 1.199-1.198" fill="#193051"/><path d="m215.196 164.928c-24.569-13.186-39.549-26.068-32.358-38.352 13.184-10.789 33.854 4.192 58.725 32.354 5.692 6.593 6.291 5.095 2.396 12.888-8.689 17.977-25.465 35.353-44.94 49.436 2.394-1.2 5.092-2.398 7.49-3.596 3.294 5.094 4.493 9.885 1.797 13.483 4.196-3.295 5.094-6.892 2.098-14.084l6.291-5.392c2.398 8.388 2.099 15.877-4.492 23.071-5.094 1.497-11.685 0-14.981-.6-8.091-8.092-12.285-16.182-5.394-26.668 12.285-18.275 24.867-44.642 36.254-45.539-4.798-2.096-9.89-.899-12.886 2.999" fill="#31509e"/><path d="m213.098 209.867c-4.495 3.897-9.289 7.792-14.081 11.09 2.394-1.2 5.092-2.399 7.49-3.6 3.294 5.094 4.493 9.89 1.797 13.483 4.196-3.297 5.094-6.892 2.098-14.08l2.696-2.399c1.498 5.396 2.098 10.789 1.798 16.479-.899 1.196-1.798 2.398-2.696 3.596-5.094 1.497-11.685 0-14.981-.6-8.091-8.091-12.285-16.178-5.394-26.665 8.988-13.481 18.277-31.158 26.966-40.147-.299 14.979-2.697 29.062-5.693 42.843m2.098-44.939c-15.281-8.091-26.666-16.182-31.46-23.971v-14.983c7.19-5.39 16.478-3.295 27.264 3.897 2.398 9.589 4.794 24.57 4.794 34.457-.3 0-.598.298-.598.6z" fill="#223c82"/><path d="m198.118 300.651c2.695 1.795 5.393 3.596 7.788 5.693 4.496 4.494 5.992 9.888 5.693 15.876v2.399l-2.096 1.201c-5.095 2.995-11.087 3.893-16.779 3.893-5.093 0-10.187-.897-14.981-2.094-2.996-.603-7.49-2.102-9.888-3.898-2.397-2.099-4.495-4.494-5.394-7.489-1.796-4.495-1.198-9.888-.897-14.681.3-6.891.3-12.886-.898-19.479l-.299-2.094 1.498-1.498c8.688-8.393 17.377-16.777 26.065-25.17l6.591-6.593v9.288c0 14.084-2.097 31.464 3.597 44.646" fill="#193051"/><path d="m190.626 256.007c-8.689 8.392-17.378 16.779-26.066 25.169 4.194 21.872-3.895 31.46 5.692 39.25 3.595 2.697 25.166 8.99 37.152 1.795.301-11.382-5.994-14.678-12.584-18.871-6.59-14.386-4.194-32.959-4.194-47.343" fill="#31509e"/><path d="m190.626 256.007c-8.689 8.392-17.378 16.779-26.066 25.169.898 4.498 1.198 8.392 1.198 11.984 8.689-2.397 17.079-6.592 24.569-12.58-.299-8.392.299-17.08.299-24.573" fill="#223c82"/><path d="m166.359 279.38-2.099 1.796c4.194 21.872-3.894 31.46 5.693 39.25 3.596 2.697 25.168 8.99 37.152 1.795 0-.298 0-.598 0-.598-11.084 2.699-35.055.902-35.354-10.188-.598-10.784.6-21.267-.3-32.056h-5.092z" fill="#2797cf"/><path d="m196.319 327.62c-1.798-.302-3.294-.603-5.093-.9.897-5.394-.899-10.789-7.19-15.284 8.088 3.596 11.085 9.588 12.283 16.184" fill="#193051"/><path d="m206.507 325.821c-1.797-.303-3.296-.602-5.096-.903.9-5.392-.896-10.785-7.188-15.279 8.089 3.298 11.085 9.287 12.284 16.182" fill="#193051"/><path d="m165.758 292.263v.897m.601-13.78-.301.298-.3.302-.3.299-.298.302-.3.298c0 .298 0 .597.3.897 0 .298 0 .6.298.901v.895.902.898c0 .598 0 1.196.3 1.796v1.796.903 1.795.902c2.097-.601 4.195-1.2 6.292-2.103 0-3.894 0-7.785-.299-11.684z" fill="#31509e"/><path d="m78.271 203.575c0-3.293.6-8.086 4.194-9.286 4.794-1.799 9.29 4.495 11.688 8.091 1.796 2.694 3.594 5.69 4.792 8.687 1.499 2.996 4.196 6.593 2.097 9.891-1.797 2.992-5.691 2.094-8.688 1.796-4.196-.599-8.689-1.796-12.285-3.896-2.396-1.197-5.094-2.696-5.392-5.692-.301-2.396 1.198-3.595 2.097-5.094.899-1.797 1.497-2.998 1.497-4.497" fill="#193051"/><path d="m82.465 203.575c0 2.1-.598 3.896-1.796 5.994-1.798 2.996-2.996 2.698 1.796 5.094 2.996 1.497 6.591 2.694 11.087 3.596 6.592 1.197 5.093.299 2.098-5.693-1.497-2.996-2.996-5.692-4.493-7.789-6.594-9.288-8.692-8.392-8.692-1.202" fill="#1f72b3"/><path d="m82.465 203.575c0 2.1-.598 3.896-1.796 5.994-1.798 2.996-2.996 2.698 1.796 5.094.899.6 2.099.898 2.996 1.497-.298-6.293.601-12.585-2.097-17.678-.598.899-.899 2.698-.899 5.093" fill="#2797cf"/><path d="m50.407 198.784c.299-.302.299-.601.6-1.201 1.198-3.595 0-9.286 4.194-11.085 2.396-.899 4.794.302 6.291 2.097 1.498 1.499 2.998 3.597 4.196 5.394 1.796 2.396 3.294 5.094 4.794 7.792 1.198 2.396 3.594 5.093 2.096 8.087-1.498 2.996-4.794 2.698-7.49 2.4-2.099-.3-4.195-.601-6.291-1.499-3.297-1.199-7.192-2.098-8.691-5.396-1.197-2.095-.898-4.495.301-6.589" fill="#193051"/><path d="m54.003 200.579c-2.398 4.495 1.198 5.096 5.993 6.593 1.796.601 3.594.898 5.392 1.197 5.095.6 3.896-.299 1.498-4.494-1.498-2.396-2.996-5.091-4.494-7.49-9.288-12.881-4.795-2.096-8.389 4.194" fill="#1f72b3"/><path d="m54.003 200.579c-2.098 3.597.3 4.794 3.895 5.992.9-5.392.599-10.783-1.199-16.177-1.498.299-.3 5.991-2.696 10.185" fill="#2797cf"/><path d="m24.939 196.086c0-.298 0-.597 0-.597-.3-3.298-2.396-7.491.899-10.188 2.098-1.797 4.793-1.199 6.893 0 2.096 1.197 4.493 2.996 6.291 4.495 1.498 1.199 2.996 2.396 4.194 3.895 2.098 2.396 5.094 5.094 4.195 8.689-.899 3.295-4.195 4.493-7.191 4.792-2.397.299-5.095.299-7.489 0-2.398-.299-5.095 0-6.893-2.098-1.498-1.796-1.199-3.895-.899-5.992 0-1.2 0-2.098 0-2.996" fill="#193051"/><path d="m29.136 195.788v3.294c-.301 3.896-.901 3.298 4.194 3.597 2.396.299 4.494.299 6.59 0 6.292-.898 3.897-2.996.6-6.593-1.198-1.197-2.398-2.396-3.596-3.294-12.583-9.589-8.089-2.996-7.788 2.996" fill="#1f72b3"/><path d="m29.136 195.788v3.294c-.301 3.896-.901 3.298 4.194 3.597h1.198c-1.198-6.294-2.696-10.487-5.692-14.982-1.499.898.3 4.494.3 8.091" fill="#2797cf"/><path d="m95.049 81.333c-.897-1.495-2.097-2.695-3.596-3.596-1.796-1.495-3.594-2.394-5.691-3.594-2.398-1.196-4.793-2.398-5.693-5.392-.6-2.698.6-5.094 2.396-6.891 2.099-2.098 4.794-4.195 7.192-5.993 6.291-4.494 13.782-8.69 20.671-12.286l8.991-4.792-2.999 9.588c-3.893 11.982-7.788 23.966-11.684 35.954l-2.396 7.189c-.598 7.491-1.199 14.679-1.797 22.17l.3 1.799c2.097 9.887 4.194 19.774 6.592 29.963l3.295 15.578-10.485-11.982c-3.296-3.897-7.79-5.992-12.885-6.894-2.097-.298-4.194-.597-6.59-.898-2.398-.298-5.095-.898-6.293-3.294-1.498-2.698-.299-5.393.9-7.791 1.796-2.695 4.192-5.691 6.291-8.088 2.396-2.999 5.394-5.094 8.688-7.188-.897-.901-2.396-1.501-3.594-1.8-3.896-1.2-9.888-1.498-12.285-5.694-2.397-4.495 1.198-9.588 4.194-12.883 4.793-4.496 10.787-9.289 16.478-13.185" fill="#193051"/><path d="m35.726 199.683c10.486-2.1 22.171-.302 35.654 7.489 26.367 13.183 42.845 8.39 46.141-8.988 3.594-18.278-6.892-29.362-13.184-45.84-10.785-27.566-17.976-66.215 6.292-97.675 32.358 34.456 91.982 34.758 97.077 104.865 1.797 8.987 8.687 76.4-25.769 112.951-20.973 22.177-53.63 31.161-79.697 11.989-15.879-11.688-28.464-30.563-42.845-44.943-12.884-12.883-23.969-21.573-42.246-19.176-2.997.298-5.691 0-5.691-2.695-.6-10.189 15.879-16.48 24.268-17.977" fill="#192e4e"/><path d="m113.626 58.265c14.081 13.479 31.758 21.871 47.938 32.059 11.085 6.891 20.973 14.979 29.062 25.464 9.586 12.884 14.681 27.864 16.779 43.746.898 5.395 1.198 10.786 1.198 16.178.301 9.887 0 19.777-.897 29.661-2.398 23.67-9.588 48.839-26.369 66.515-20.971 22.174-53.63 31.16-79.695 11.987-10.189-7.492-18.577-17.081-26.667-26.665-5.393-6.294-10.486-12.585-16.479-18.278-6.592-6.593-14.082-13.781-23.07-17.378-10.188-3.895-15.58-2.996-24.568 2.697-2.398 1.495-5.992 4.193-8.988 1.495-.899-.596-1.199-2.095-.599-3.592 1.496-4.197 3.594-8.39 6.59-11.687 15.281-17.676 45.841-13.781 64.417-3.896 6.892 3.597 14.683 8.092 22.771 8.39 5.693.302 11.386-.6 15.879-4.493 3.596-2.997 5.693-7.49 6.592-12.284 1.198-6.891.899-13.185-1.499-19.476-2.995-8.988-8.388-17.376-11.984-26.066-11.984-30.56-15.88-65.016 3.297-93.48l2.695-3.895z" fill="#193051"/><path d="m110.929 61.257c-18.275 27.268-14.381 60.523-2.996 89.887 3.594 8.988 8.989 17.377 11.985 26.366 2.397 7.19 2.996 14.081 1.498 21.572-1.198 5.694-3.594 10.785-7.789 14.382-5.394 4.493-11.984 5.992-18.876 5.393-8.688-.598-16.779-4.794-24.268-8.989-16.779-8.989-45.543-13.181-59.625 2.996-2.398 2.698-4.494 5.993-5.693 10.188-.299.898 1.199 0 3.896-1.796 9.887-6.294 16.779-7.49 28.164-2.996 8.988 3.594 16.479 10.186 24.567 18.274 5.692 5.995 11.087 12.285 16.479 18.578 7.791 8.989 16.178 18.871 25.767 26.064 24.27 17.979 54.829 9.286 74.304-11.385 16.18-17.076 22.772-41.645 25.169-64.418.898-9.585 1.199-19.473.898-29.359-.299-5.395-.6-10.788-1.198-15.882-2.098-15.28-6.892-29.664-16.179-41.947-7.491-10.185-17.379-17.676-27.865-24.566-16.478-10.487-33.856-18.577-48.238-32.362" fill="#31509e"/><path d="m111.527 61.86c-.298-.301-.598-.301-.598-.603m0 0c-18.275 27.268-14.381 60.523-2.996 89.887 3.594 8.988 8.989 17.377 11.985 26.366 2.397 7.19 2.996 14.081 1.498 21.572-1.198 5.694-3.594 10.785-7.789 14.382-5.394 4.493-11.984 5.992-18.876 5.393-8.688-.598-16.779-4.794-24.268-8.989-16.779-8.989-45.543-13.181-59.625 2.996-2.398 2.698-4.494 5.993-5.693 10.188 0 .3 0 .601.301.3 21.272-29.66 61.42-13.183 98.272 7.792 30.562 8.987 27.264-25.77 23.669-45.544-5.693-29.659-18.875-65.014-19.773-78.199-.9-12.283 1.797-25.468 10.786-39.848h-.599l-.6-.301-.599-.899-.301-.298-.598-.6-.899-.601-.598-.596-.599-.6-.599-.298c-.301-.301-.301-.301-.6-.6l-.6-.601c-.599-.299-.599-.6-.899-.902z" fill="#2797cf"/><path d="m110.629 157.735c3.295 6.593 6.892 12.884 8.988 19.775v.301c4.495-14.083 7.491-28.166 8.99-42.248z" fill="#223c82"/><path d="m110.629 157.735.299.301.598.895v.301.301l.301.299.3.299v.301.298l.299.601v.299.301.298l.299.301v.298.299.298l.301.301v.299.301.299l.3.302v.298.298.301.299l.299.302v.298.301.295l.298.302v.299.301.299l.3.301v.299.302.298.301.296.303.298.301.302.3.297l.3.299v.301.299.301.299.303.297.302.295.302.298.302.302.299.298.301.3.299c1.198-3.593 2.097-7.193 2.996-10.786-1.499-6.291-3.296-12.283-5.093-18.275z" fill="#31509e"/><path d="m21.944 215.859c16.778-.298 27.865 8.69 39.847 20.674 5.692 5.995 11.087 12.285 16.479 18.578 7.791 8.989 16.178 18.871 25.767 26.064 24.27 17.979 54.829 9.286 74.304-11.385 16.18-17.076 22.772-41.645 25.169-64.418.898-9.585 1.199-19.473.898-29.359-.299-5.395-.6-10.788-1.198-15.882-2.098-15.28-6.892-29.664-16.179-41.947-7.491-10.185-17.379-17.676-27.865-24.566-4.195-2.697-8.09-5.094-12.284-7.49-5.693 1.796-10.487 4.494-13.782 8.688-9.288 11.686-2.996 28.463 2.695 40.149 5.693 11.385 10.487 23.071 13.783 35.354 4.195 16.179 5.993 34.158.898 50.035-2.695 8.688-7.19 16.179-13.483 22.472-4.194 4.194-8.988 7.191-14.378 9.289-19.177 6.29-29.364-5.396-42.248-17.679-17.377-15.878-35.952-23.667-58.423-18.577" fill="#193051"/><path d="m36.924 218.558c9.289 3.295 16.779 10.188 24.868 18.275 5.692 5.993 11.087 12.282 16.479 18.578 7.791 8.987 16.178 18.874 25.767 26.063 24.27 17.977 54.829 9.288 74.304-11.386 16.18-17.078 22.772-41.645 25.169-64.414.898-9.589 1.199-19.476.898-29.362-.299-5.396-.6-10.789-1.198-15.879-2.098-15.282-6.892-29.664-16.179-41.947-7.491-10.188-17.379-17.675-27.865-24.566-2.397-1.5-5.094-2.999-7.492-4.494-17.375 3.891-26.664 15.276-12.283 44.34 17.377 33.259 30.86 82.394.898 112.354-4.495 4.497-9.887 8.092-16.179 10.188-21.572 7.192-32.956-5.992-46.141-18.575-12.882-11.686-26.065-18.877-41.046-19.175" fill="#fc0"/><path d="m146.284 90.921c-13.483 5.094-19.476 17.079-6.59 42.547 17.077 33.557 30.56 82.692.598 112.652-4.495 4.497-9.887 8.092-16.179 10.188-21.572 7.192-32.956-5.992-46.141-18.575-2.097-1.799-4.195-3.594-5.992-5.394 9.588 12.886 24.869 28.161 47.041 26.666 7.489-.6 14.681-2.697 20.674-7.791 40.446-32.955 18.275-88.984 2.695-122.841-6.594-13.781-9.59-28.464 3.894-37.452" fill="#ffeb00"/><path d="m104.637 281.475c10.187 7.489 21.573 10.188 32.658 9.288.3-3.294 20.373-12.581 20.674-15.878-17.378 5.695-22.472-7.791-24.868-22.77-2.697 1.796-5.693 3.296-8.989 4.192-7.49 2.396-13.784 2.396-19.176.902-.3 2.094-.6 4.193-.6 5.988-.298 5.997-.298 11.986.301 18.278" fill="#f29100"/><path d="m61.792 236.833c5.692 5.993 11.087 12.282 16.479 18.578 7.791 8.987 16.178 18.874 25.767 26.063 24.27 17.977 54.829 9.288 74.304-11.386 16.18-17.078 22.772-41.645 25.169-64.414.898-9.589 1.199-19.476.898-29.362-.299-5.396-.6-10.789-1.198-15.879-2.098-15.282-6.892-29.664-16.179-41.947-4.495-6.291-9.887-11.384-15.879-15.879 6.291 11.985 10.185 24.567 13.181 36.253 5.394 10.188 7.791 20.674 6.592 32.057 2.697 13.783 3.297 28.766 0 41.648.301 16.478-6.592 29.661-13.781 41.646-5.694 11.985-18.577 22.47-29.363 25.466-26.067 10.189-55.729-11.984-64.717-25.767-4.495-3.894-8.989-7.49-13.183-11.085-2.696-2.095-5.393-4.193-8.09-5.992" fill="#f29100"/><path d="m110.329 55.268 2.398-7.791c-8.39 4.497-15.279 8.391-20.073 11.984-15.281 10.788-5.992 8.689 1.796 15.282 1.499 1.197 2.699 2.397 3.897 3.895 2.396-8.389 6.29-16.179 11.982-23.37m-15.28 62.619c-3.893 2.098-7.19 4.494-9.887 7.49-12.284 14.083-6.892 11.386 3.294 13.185 5.393.898 9.29 2.996 12.584 5.691-2.694-8.09-4.792-17.079-5.991-26.366zm1.199-32.359c-5.392 3.898-10.485 7.789-14.081 12.284-11.985 14.082 6.591 8.089 12.583 15.879-.9-8.988-.598-18.574 1.498-28.163z" fill="#31509e"/><path d="m95.35 119.984c-6.592 5.094-14.381 11.385-7.791 18.577-9.289-1.498-13.784.597-2.099-12.886 2.697-2.996 5.992-5.392 9.889-7.491-.3.6-.3 1.204.001 1.8m10.786-68.912c-9.289 7.193-19.175 13.781-11.984 20.973 1.796 1.499 2.996 3.596 4.194 5.992l-.301.302c-1.198-1.5-2.396-2.698-3.893-3.898-7.791-6.588-17.08-4.192-1.798-15.279 3.894-2.399 8.389-5.094 13.782-8.09zm-9.888 34.456c-5.392 3.898-10.485 7.789-14.081 12.284-10.787 12.584 2.996 8.988 10.188 13.784-.901-.901-1.798-1.8-2.697-2.698-5.394-5.093-7.491-5.093-4.794-8.988 2.995-4.494 7.189-9.586 11.384-14.382z" fill="#2797cf"/><path d="m143.287 141.558c10.187-5.395 24.568-6.592 35.654-5.694 8.091.899 16.18 2.996 23.071 6.891l2.097 1.199-2.397 4.194-2.097-1.201c-6.292-3.592-14.082-5.69-21.274-6.29-10.187-1.196-23.968 0-32.957 5.094l-2.098 1.196-2.097-4.191z" fill="#193051"/><path d="m154.074 175.712c9.887-5.691 23.969-7.191 35.054-6.29 5.993.298 11.985 1.495 17.677 3.593v5.094c-5.692-2.396-11.984-3.593-17.977-4.191-10.186-.902-23.37.599-32.358 5.689l-2.097 1.2-2.397-4.196z" fill="#193051"/><path d="m154.074 211.968c14.081-6.894 36.553-5.692 50.636 2.993 1.196.601.297 1.199 1.496 1.8l-.3 1.498-1.497 1.197c-.299.301-.299.898-.898.599-12.284-8.687-34.457-10.188-47.639-3.895l-2.097.898-.599-3.595z" fill="#193051"/><path d="m145.385 238.632c10.487 11.086 32.957 17.375 47.64 12.582l1.796-1.496v2.997l-1.796 1.798c-.901.297-.301 1.494-1.2 1.795-16.178 3.897-38.649-2.996-50.036-14.683l-1.198-1.495 3.296-3.297z" fill="#193051"/><path d="m124.112 256.308c2.997 6.891 8.688 12.887 14.981 16.78 6.592 4.494 14.98 7.492 23.069 6.892 2.998-.302 5.094-.9 7.791-1.798l-.3 3.892-1.499 1.802c-10.786 2.995-22.77-.602-31.759-6.896-6.89-4.495-13.182-11.084-16.479-18.875l-.898-2.098 4.194-1.795z" fill="#193051"/><path d="m88.457 247.919c-1.496 1.799-2.396 4.196-2.996 6.293-.598 4.793.301 8.088 2.697 11.985l-4.194.896-1.499-1.5c-3.294-6.589-2.695-14.977 2.099-20.67l1.498-1.797 3.596 2.993z" fill="#193051"/><path d="m75.276 232.938c-2.398 2.996-3.297 6.593-2.998 10.189.3 2.993 1.198 5.389 2.697 8.087l-3.895.601-1.499-1.197c-3.296-6.596-2.696-14.979 2.099-20.676l1.497-.898 2.996 2.397z" fill="#193051"/><path d="m96.848 303.646c1.797-5.391 2.396-11.081 2.695-16.478.3-4.793 0-9.586-.298-14.684 0-4.49-.3-9.286.298-13.78 2.1-22.171 25.469-27.863 31.76-19.174 8.09 9.288 7.19 20.97 2.695 35.054-.897 2.396-1.498 5.094-2.096 7.791-.9 3.896-1.499 8.087-2.097 11.984-.3 2.997-.6 5.992-.6 8.99 0 3.592.3 7.188 1.198 10.783.598 2.998.899 5.696.3 8.69-.599 2.396-1.797 4.194-3.595 5.993-5.095 4.793-14.382 8.687-21.273 10.186-3.896.898-8.389.898-12.284.301-1.198-.301-2.696-.604-3.596-1.498-5.693-3.596-7.19-11.387-5.993-17.68 1.499-7.488 6.293-13.478 12.886-16.478" fill="#193051"/><path d="m107.334 243.127c3.895-6.594 10.786-8.988 15.579-8.389 17.079 2.392 11.685 25.165 7.49 38.649-3.295 10.487-4.794 23.669-4.794 29.962 0 13.181 4.495 17.076-.898 22.472-4.794 4.493-18.276 10.783-29.961 9.286-9.587-2.396-9.887-22.77 5.394-28.166 4.193-10.187 4.193-22.468 3.594-33.252-.299-7.793-.898-23.072 3.596-30.562" fill="#31509e"/><path d="m107.334 243.127c3.594-5.69 7.19-5.997 12.883-6.892-17.978 8.989-8.691 45.838-13.483 69.208 3.895 0 6.593.302 9.888 1.498-14.382-1.796-20.674 10.189-22.173 27.867-8.988-3-9.287-22.773 5.695-28.163 4.193-10.188 4.193-22.473 3.594-33.258-.299-7.491-.898-22.77 3.596-30.26" fill="#2797cf"/><path d="m102.24 336.006c1.797-.3 3.294-.601 5.094-1.197-1.499-6.894-.301-13.784 5.093-19.475-7.49 4.192-9.887 11.684-10.187 20.672" fill="#193051"/><path d="m86.961 334.809c1.797-.302 3.294-.6 5.092-1.199-1.498-7.191-.298-13.78 5.095-19.477-7.79 4.197-9.889 11.985-10.187 20.676" fill="#193051"/><path d="m98.045 207.471c-12.883-8.687-24.569-18.876-32.957-30.86-1.798-2.693-4.495-5.693-4.495-8.988 0-2.996 2.697-6.291 4.495-8.988 7.19-11.386 15.581-23.97 25.467-33.556 6.592-6.592 15.879-13.185 25.466-11.686 2.697.298 5.093 1.2 7.491 2.697l.599.299.599.6c1.797 2.399 4.794 8.687 5.094 11.684 4.793 26.067-22.471 33.558-25.768 37.153 6.291 5.694 8.39 13.781 14.083 20.075 3.594 4.193 7.19 8.389 11.085 12.582 10.187 10.787 7.19 21.572-.598 32.66l-.9 1.196-.899.301c-5.393 1.797-11.085 3.894-16.779 3.294l-1.197-.296-.899-.602c-8.688-6.89-11.085-15.58-9.887-26.067z" fill="#193051"/><path d="m98.944 162.531c16.479-5.996 45.541-30.562 26.067-48.84-7.791-5.691-20.974 6.293-25.768 9.89-9.587 7.188-19.775 20.373-30.56 37.45-4.495 7.49-5.394 5.995-.301 13.184 11.686 16.479 30.861 31.159 52.732 41.646-2.695 0-5.691-.298-8.088-1.196-2.398 5.392-2.699 9.286.599 12.584-4.794-2.697-6.292-5.992-4.496-13.482l-6.891-4.495c-1.199 8.688.6 16.178 8.088 22.171 5.394.597 11.686-1.797 14.982-2.996 6.592-9.286 10.186-18.875.899-27.265-18.875-16.479-19.476-38.648-43.444-39.248 4.198-2.702 11.389-2.101 16.181.597" fill="#31509e"/><path d="m106.435 211.968-4.195-2.698c-1.199 8.39.6 15.881 7.789 21.571-3.295-5.992-5.392-12.283-3.594-18.873m11.386 3.891c-1.5-.298-3.296-.597-4.794-1.196-1.5 3.596-2.099 6.294-1.5 8.688 1.5-2.699 2.998-5.394 6.294-7.492zm-8.989-99.47c-4.195 2.695-7.791 5.693-9.588 7.192-9.587 7.188-19.775 20.373-30.56 37.45-4.495 7.49-5.394 5.995-.301 13.184 11.085 15.582 28.765 29.361 49.138 39.849-15.281-12.883-29.961-25.766-38.951-37.75-8.988-11.985-5.692-11.985 2.398-24.57 8.088-12.284 17.077-24.268 27.864-35.355z" fill="#2797cf"/><path d="m201.113 103.505 8.39 16.479-24.869 4.495-29.062-10.487-.6-.6c-11.385-8.989-20.374-19.774-27.265-32.358-1.798-3.298-4.194-8.69-4.794-12.283l-2.397-20.973 11.686 17.376c8.689 12.582 22.472 23.669 35.953 30.861 7.791 3.894 17.977 9.588 26.966 8.389.599 0 1.198 0 1.797-.298z" fill="#193051"/><path d="m239.463 96.615c1.2 6.291.6 10.487-2.098 16.177-.598 1.2-1.496 2.698-2.395 3.597-1.199 1.498-2.698 2.396-4.495 2.097-3.296-.599-4.195-4.494-4.195-7.49 0-2.099-.6-4.495-1.796-5.992l-2.398-3.298 3.295-2.095c2.995-1.799 6.291-3.897 9.289-5.691l3.895-2.399z" fill="#193051"/><path d="m223.585 69.948c6.89-2.697 14.68-2.994 20.074 2.698 8.39 8.389 5.093 27.562-6.592 31.46-7.49 2.396-18.276 2.396-26.367 3.593 2.698 3.297 5.394 4.795 7.792 5.992 7.188 3.596 12.883 7.192 15.877 15.282 3.597 9.588-.898 19.773-14.679 22.17-11.984 2.097-11.685 6.893-25.467 1.8-13.483-5.095-27.266-13.185-38.951-21.275-7.791-5.39-15.279-11.083-22.171-17.377-11.386-10.185-27.566-25.766-29.961-41.344-1.2-6.894.598-13.785 5.692-18.878 1.497-1.499 2.996-2.695 4.794-3.596l.898-2.695c2.696-8.091 5.991-20.974 10.786-30.86 11.684-23.672 30.262-20.075 40.148-1.8 7.79 1.8 13.783 3.297 22.172 7.49l.299-.298c2.697-2.698 6.293-5.095 10.188-3.895 13.481 2.695 14.979 35.955 13.78 44.943l.302.298c4.492 1.498 8.388 3.594 11.084 6.592z" fill="#193051"/><path d="m193.623 95.416c-12.583-2.699-12.583-23.072 2.697-22.469 9.288.295 20.973 8.386 31.759 5.393-2.996-.302-6.292-.898-9.288-1.199 8.088-5.396 17.079-6.592 21.873-1.499 5.992 6.291 3.895 21.573-5.094 24.566-5.393 1.8-13.783 2.399-19.177 2.399 2.997-2.399 11.386-5.992 17.379-5.694-5.095-2.097-9.887-1.199-14.382.6-22.771 8.989-24.569 13.483-50.935-.298-14.381-7.494-28.164-18.875-36.552-31.161 1.798-1.2 4.194-2.695 6.89-.6-3.894-10.785-25.465-.299-17.377 14.384.599-2.999.599-6.596 4.194-6.596 12.584 28.464 34.156 44.346 55.129 55.131 14.68 7.491 17.977 11.683 34.457 9.287 2.695-.299 5.093-.897 6.891-1.498 8.988-3.295 4.194-10.487-.6-16.479 11.685 7.792 14.681 23.969-2.994 27.263-12.586 2.4-11.087 6.595-23.073 2.102-18.274-6.894-42.545-22.471-59.922-38.052-7.491-6.891-26.065-23.671-28.762-38.951-2.397-14.08 10.187-23.071 23.371-19.476 8.388 2.4 15.581 9.89 20.373 19.774-5.093-16.477-12.883-28.162-32.357-23.37 3.594-11.083 8.688-35.052 18.576-41.645 12.283-8.088 26.365 10.185 34.456 28.762-.9-5.091-1.8-11.385-4.794-15.879 11.982 2.396 15.879 3.293 23.968 10.188-.299-2.996-.299-3.894-.6-4.795 10.787-11.084 19.476 11.985 17.078 31.762-24.268-8.392-41.047-6.592-51.533 2.993 18.277-7.488 33.856-5.989 47.339 2.1-3.895-.6-7.49-.901-11.385-.901 8.389 1.2 10.786 1.8 17.977 4.193 4.794 1.499 8.388 3.599 10.487 6.293-5.693 3.596-22.471-8.687-33.858-1.796-11.986 7.488-5.994 26.065 7.789 25.168" fill="#31509e"/><path d="m129.506 47.778c-3.296-.301-6.89-.301-11.385.898 3.594-11.087 8.688-35.056 18.576-41.648 2.096-1.197 3.894-1.797 5.993-2.096-6.593 10.186-12.884 27.567-13.184 42.846z" fill="#2797cf"/><path d="m197.817 62.459c3.896.899 6.592 1.496 11.687 3.292 4.793 1.499 8.387 3.599 10.486 6.293-2.398 1.499-7.192 0-12.283-1.498-1.2-2.693-4.496-5.392-9.89-8.087m23.37 13.183c1.497-.898 2.997-1.499 4.494-2.098.301.302.6.897.9 1.199-1.199.899-3.297 1.197-5.394.899z" fill="#223c82"/><path d="m195.419 58.562c2.398.899 4.794 2.099 7.192 3.596-1.498-.298-2.996-.6-4.493-.6-.899-.897-1.799-2.097-2.699-2.996" fill="#223c82"/><path d="m184.333 91.222c-.297-1.796-.897-3.596-1.198-5.094-9.887.898-17.975-3.297-26.366-7.189 4.195 3.292 8.09 6.589 12.284 9.585 4.793 2.396 9.588 4.494 14.082 6.891.6-1.495.901-2.698 1.198-4.193" fill="#192e4e"/><path d="m193.623 95.416c-12.583-2.699-12.583-23.072 2.697-22.469 5.092 0 10.786 2.695 16.778 4.495 4.494 1.196 7.191 1.196 8.989.596-1.198-.301-2.396-.301-3.296-.596 8.088-5.396 17.079-6.596 21.873-1.501 5.992 6.291 3.895 21.573-5.094 24.569-5.393 1.797-13.783 2.396-19.177 2.396 5.094-4.195 8.39-5.393 11.386-6.89-2.996 0-5.692.6-8.389 1.797-22.771 8.988-24.569 13.482-50.935-.299-14.381-7.49-28.164-18.875-36.552-31.161 1.798-1.197 4.194-2.695 6.89-.6-3.894-10.782-25.465-.298-17.377 14.384.599-2.996.599-6.592 4.194-6.592 12.584 28.162 34.156 44.044 55.129 54.829 14.68 7.491 17.977 11.683 34.457 9.287 2.695-.299 5.093-.897 6.891-1.498 8.988-3.295 4.194-10.487-.6-16.479 11.685 7.792 14.681 23.969-2.994 27.263-12.586 2.4-11.087 6.595-23.073 2.102-18.274-6.894-42.545-22.471-59.922-38.052-7.491-6.891-26.065-23.671-28.762-38.951-2.397-14.08 10.187-23.071 23.371-19.476 8.388 2.4 15.581 9.89 20.373 19.774-.298-.6-.298-.898-.598-1.499 8.689 11.385 19.473 17.978 32.358 20.076 2.394 2.697 6.29 4.793 11.383 4.495" fill="#fc0"/><path d="m229.877 128.973c3.294 7.491.598 15.578-11.385 17.973-8.391 1.502-10.487 3.898-14.683 3.898 0-8.391 16.18-7.192 21.573-11.085 2.995-2.398 4.195-6.291 4.495-10.786" fill="#f29100"/><path d="m234.369 72.344c2.398.302 4.495 1.2 6.294 2.999 5.992 6.291 3.895 21.57-5.094 24.566-.301 0-.301 0-.599.298 6.89-7.788 5.991-20.97-.601-27.863" fill="#f29100"/><path d="m211.898 100.208c-16.178 6.894-20.372 8.989-43.743-3.294-8.987-4.792-17.976-11.086-25.465-18.275 25.465 20.671 48.537 27.561 69.208 21.569" fill="#ffeb00"/><path d="m189.428 93.618c-8.091-5.694-6.292-21.274 6.891-20.973.899 0 2.097 0 2.996.301-8.988 2.696-12.584 9.586-9.887 20.672" fill="#ffeb00"/><path d="m193.025 147.848c-17.979-7.491-41.049-22.173-57.528-36.852-7.491-6.891-26.065-23.671-28.762-38.951-2.098-13.483 8.988-22.173 20.973-20.072-9.886 2.396-14.38 8.687-14.68 15.879-1.501 27.564 51.533 65.914 79.997 79.996" fill="#ffeb00"/><path d="m228.677 105.901c.6 1.499.9 2.996.9 4.793.3 6.592 2.996 4.494 4.792.301 1.2-2.698 2.098-5.095 2.098-7.491-.598.299-1.497.601-2.098.899-1.796.601-3.594.899-5.692 1.498" fill="#fff"/><path d="m231.673 114.894c.9-.301 2.099-1.8 2.998-3.897 1.198-2.698 2.097-5.095 2.097-7.491-.6.299-1.198.601-2.097.899 0 3.294-.9 6.889-2.998 10.489" fill="#2797cf"/><path d="m196.619 81.932c3.594-1.197 6.292 3.596 1.499 5.694-.6 1.8.298 3.596 3.293 4.193-8.687 1.799-9.287-8.385-4.792-9.887" fill="#193051"/><path d="m236.467 80.434c-2.996-.897-5.092 3-1.199 4.796.601 1.496-.298 2.994-2.695 3.594 7.191 1.198 7.49-7.19 3.894-8.39" fill="#193051"/><path d="m142.689 93.92c9.586 1.496 17.677 4.193 25.166 7.786 2.098.901 4.195 2.098 6.292 2.997 7.19 3.897 13.484 8.391 19.177 12.886-1.798-2.996-3.896-5.695-6.592-8.392 2.996.6 6.293.901 9.29.6 7.49-.898 11.685.601 17.077 7.491 4.195 4.195 13.781 12.883 7.49 14.98-1.797.6-4.195 1.2-6.291 1.499-5.093.599-10.187.898-15.279-.597-2.398-.901-4.794-2.099-6.893-3.298-3.296-1.797-6.292-3.593-9.586-5.094-15.881-8.088-29.365-17.978-39.851-30.858" fill="#e95014"/><path d="m157.969 101.109c10.186 2.094 19.774 6.891 28.763 14.079 2.996 2.4 2.097 5.396-1.797 2.099-8.689-6.891-17.678-13.182-26.966-16.178" fill="#f29100"/><path d="m194.821 107.102c.3 0 .598 0 .899-.302 1.198-.298 2.097-.6 3.297-1.196 2.096-.901 4.194-.301 6.291-.301l3.295.301-.299 3.593c-.299 2.399-1.499 5.094-2.697 7.192-1.798 2.999-5.692 8.988-9.586 7.192-2.996-1.2-2.996-5.095-2.398-7.792.299-1.796 0-2.996-.299-4.792l-.899-3.297z" fill="#193051"/><path d="m196.021 110.396c.598 2.097.897 3.596.598 5.992-1.498 10.486 7.79-1.2 8.388-7.491-1.796 0-3.596-.599-4.794 0-1.196.6-2.095.898-3.295 1.2-.599.001-.897.299-.897.299" fill="#fff"/><path d="m199.615 119.083c2.397-2.394 4.793-7.19 5.392-10.186-1.198 0-2.095-.298-2.994-.298 0 3.596-.301 6.891-2.398 10.484" fill="#2797cf"/><path d="m131.002 52.57c5.695-7.49 7.791-18.275 9.889-29.064-.898-1.196-4.495-2.094-3.296-3.894 5.393 0 8.988 2.698 12.285 6.294 5.693 5.992 10.487 17.075 13.481 25.467 1.8 4.494.9 3.295-9.586 1.796-7.192-.599-14.983-.599-22.773-.599" fill="#193051"/><path d="m136.697 49.275c5.993 0 11.684.298 17.676 1.197 1.798.301 3.596.6 5.393.901-2.996-7.491-7.19-17.38-12.285-23.071-1.198-1.2-2.396-2.396-3.895-3.297-1.197 8.09-2.995 16.781-6.889 24.27" fill="#fff"/><path d="m147.182 33.396c2.998 0 5.395 3.294 5.395 7.49 0 4.193-2.397 7.491-5.395 7.491-2.995 0-5.393-3.297-5.393-7.491 0-4.195 2.398-7.49 5.393-7.49" fill="#193051"/><path d="m198.417 32.499c-6.292 5.392-9.887 11.384-11.984 19.773-.6 3.294 2.098 4.793 5.094 3.895 2.697.899 5.093 2.099 8.089 1.8 2.397 0 4.793-1.203 5.094-3.596-.6-5.396-2.398-13.785-1.798-19.476 1.197-2.098-1.2-5.993-4.495-2.396" fill="#193051"/><path d="m201.411 54.37c-.598-5.694-2.394-12.584-1.796-18.279-4.794 5.094-8.389 9.887-9.888 17.079v.302h1.198l.899-.302.899.302c2.097.597 4.495 1.796 6.891 1.796.001-.298 1.499-.6 1.797-.898" fill="#fff"/><path d="m203.511 59.162c1.199-.6 2.096-1.196 3.294-1.796-8.687-3.895-18.275-5.095-28.163-5.393 1.797.897 3.896 1.796 5.691 2.396 6.293 1.498 12.886 2.997 19.178 4.793" fill="#193051"/><path d="m194.223 40.887c2.396 0 4.194 2.695 4.194 5.691 0 3.294-1.797 5.694-4.194 5.694-2.398 0-4.194-2.698-4.194-5.694-.301-3.295 1.796-5.691 4.194-5.691" fill="#193051"/></svg>