<?xml version="1.0" encoding="utf-8"?>
<!DOCTYPE svg PUBLIC "-//W3C//DTD SVG 1.1//EN" "http://www.w3.org/Graphics/SVG/1.1/DTD/svg11.dtd">
<svg version="1.1" id="Layer_1" xmlns="http://www.w3.org/2000/svg" xmlns:xlink="http://www.w3.org/1999/xlink" x="0px" y="0px" viewBox="0 0 1500 340" enable-background="new 0 0 1500 340" xml:space="preserve">
<g>
	<g>
		<g>
			<g>
				<g>
					<g>
						<g>
							<g>
								<path display="none" fill="#885E1E" d="M912.397,285.072c-23.373,0-44.045-7.192-61.423-20.972v10.483l-15.878,3.897
									c-11.687,2.993-22.472,4.494-31.461,4.494c-19.772,0-36.252-6.294-48.236-18.875c-1.2-1.501-2.697-2.996-3.894-4.495
									c-3.599,3.593-7.491,7.188-12.285,10.186c-15.282,9.887-34.456,14.979-56.927,14.979c-28.763,0-51.533-8.089-67.115-23.969
									c-0.598-0.597-1.197-1.196-1.497-1.797c-17.08,17.08-39.25,25.766-65.315,25.766c-23.969,0-44.346-7.188-60.523-21.271
									v17.676h-93.479h-6.892h-93.481V68.15h93.481h7.19h93.48v64.717c5.092-4.495,11.083-8.091,17.377-11.386
									c12.883-6.588,27.863-9.886,44.043-9.886c25.468,0,47.038,8.688,64.118,25.468c3.597-4.196,8.09-7.792,13.182-11.09
									c14.982-9.585,33.857-14.378,56.029-14.378c14.381,0,26.964,1.797,37.751,5.691v-2.394h18.277V78.339h89.884v31.457
									c3.294-5.093,7.188-9.887,11.385-14.082c20.071-20.971,46.139-31.457,77.298-31.457c34.158,0,61.422,12.284,80.897,36.554
									c7.791,9.586,13.481,20.671,16.777,32.657c14.981-14.684,36.852-22.173,64.72-22.173c16.176,0,30.559,2.698,42.841,7.789
									v-4.491h18.278V78.339h89.886v36.554h22.171v9.883c2.098-1.196,4.193-2.396,6.289-3.295
									c12.884-6.588,27.864-9.886,44.048-9.886c21.87,0,40.745,6.291,56.623,18.575v-15.277h82.693
									c6.293-2.4,13.186-3.298,20.076-3.298c6.291,0,13.182,1.196,20.973,3.298l15.28,4.494v88.981l-28.464-10.487
									c-7.49-2.694-11.087-2.993-11.684-2.993c-4.796,0-6.293,1.496-6.894,2.396c-0.596,0.597-1.796,1.797-1.796,6.29v77.601
									h-89.882v-15.28c-15.884,12.286-35.057,18.578-57.23,18.578c-18.576,0-35.354-4.494-49.435-12.884v2.994l-15.879,3.897
									c-11.687,2.993-22.475,4.494-31.462,4.494c-8.986,0-17.374-1.2-24.866-3.896l1.198,2.097h-95.577l-1.497-2.694
									c-9.888,4.195-20.075,5.992-31.159,5.992c-11.984,0-23.072-2.4-32.959-7.192v3.895h-71.908l-0.6-2.694
									C937.566,282.677,925.28,285.072,912.397,285.072z"/>
								<path fill="#885E1E" d="M1484.959,188.297v-58.426l-5.091-1.498c-6.296-1.796-11.987-2.698-17.08-2.698
									c-10.788,0-20.675,3.298-29.362,10.188v-6.891h-59.622v41.646c-3.596-8.389-8.693-16.178-15.584-23.072
									c-14.377-14.679-32.954-21.872-54.824-21.872c-14.084,0-26.669,2.698-37.752,8.393
									c-11.088,5.392-19.777,13.18-26.368,22.467v-27.562h-22.171V92.419h-62.023v36.554h-18.274v16.777
									c-2.098-2.396-4.193-4.495-6.593-6.291c-12.58-9.29-29.66-14.083-50.331-14.083c-24.574,0-43.444,6.291-55.731,18.875
									c-8.386,8.39-13.181,20.374-14.68,35.955l-0.601,7.791h20.076c-5.992,2.695-11.086,5.99-14.683,10.186
									c-2.993,3.295-5.092,6.891-6.891,11.086v-50.338h-85.69v51.837h15.883c-4.494,3.294-9.589,5.091-16.181,5.091
									c-10.787,0-17.679-3.592-22.472-11.083c-4.795-7.792-7.191-18.278-7.191-31.162c0-11.083,1.796-20.073,5.694-26.966
									c4.493-7.789,10.783-11.683,20.672-11.683c6.89,0,12.285,2.099,16.478,6.592c2.397,2.396,3.896,5.389,4.797,9.287
									l1.497,5.392l64.714-1.196l-1.494-8.094c-2.397-14.377-8.091-27.263-16.479-37.75c-16.479-20.672-40.15-31.46-69.812-31.46
									c-27.263,0-49.738,8.989-67.112,26.966c-6.893,6.893-12.282,14.98-16.181,23.67h-19.177V92.419H753.3v36.554h-18.272v12.584
									c-11.385-10.487-28.764-15.882-51.536-15.882c-19.475,0-35.954,4.196-48.536,12.286
									c-9.889,6.291-16.179,14.681-18.577,24.57c-2.997-5.396-6.89-10.188-11.385-14.984
									c-14.382-14.679-32.957-21.872-54.83-21.872c-14.082,0-26.667,2.698-37.751,8.393c-12.886,6.29-23.07,15.878-29.961,27.864
									c-3.596,6.29-5.993,12.883-7.79,19.772V81.932h-66.214v57.827h-35.055V81.932h-65.618v185.162h65.618v-67.713h35.055v67.713
									h65.614v-51.831c2.996,12.585,8.988,23.669,18.576,33.253c14.381,14.683,33.258,22.176,56.027,22.176
									c22.474,0,41.347-7.493,55.73-21.873c4.495-4.495,8.091-9.288,11.085-14.08c2.396,6.29,5.394,11.683,9.889,16.476
									c12.884,13.185,32.059,19.778,56.926,19.778c19.774,0,36.254-4.198,49.135-12.888c14.083-8.989,20.972-21.869,20.972-38.05
									c0-13.779-5.09-24.867-15.276-32.957c-3.297-2.698-7.491-5.095-12.585-7.192h23.669l-0.301-6.59h4.494v40.449
									c0,17.977,4.196,31.758,12.587,40.447c9.287,9.889,22.17,14.681,38.052,14.681c8.087,0,17.676-1.199,28.163-3.897
									l5.392-1.196v-37.452c3.895,6.591,8.091,12.886,13.781,18.278c16.78,17.377,37.453,26.066,61.724,26.066
									c17.076,0,32.657-4.494,46.136-13.184l2.102,9.286h46.736v-22.471c2.399,5.694,6.294,10.486,11.689,14.682
									c9.585,7.492,21.569,11.386,35.054,11.386c10.784,0,20.973-2.396,30.259-7.192c1.798-1.196,4.193-2.396,6.891-4.193
									c0.602,1.495,1.2,2.699,1.798,4.193l2.099,3.896h62.919l-5.992-10.484c-1.198-2.097-2.098-4.196-2.397-6.294
									c-0.298-2.396-0.6-5.392-0.6-8.988v-57.823c0-3.599-0.298-6.894-0.599-10.188h6.591v40.449
									c0,17.977,4.196,31.758,12.587,40.447c9.286,9.889,22.169,14.681,38.051,14.681c8.087,0,17.676-1.199,28.163-3.897
									l5.391-1.196V240.13c2.1,2.997,4.495,5.99,7.193,8.688c14.38,14.682,33.256,22.174,56.026,22.174
									c22.472,0,41.347-7.492,55.728-21.877c6.893-6.889,11.984-14.679,15.581-23.068v41.047h62.618v-63.519
									c0-6.889,1.8-11.984,5.695-15.879c4.194-4.493,9.886-6.592,17.077-6.592c4.193,0,9.586,1.2,16.777,3.895L1484.959,188.297z
									 M558.253,217.357c-2.396,3.295-5.391,4.797-9.885,4.797c-4.496,0-7.491-1.502-9.888-4.797
									c-2.996-3.894-4.494-10.484-4.494-19.174c0-8.988,1.498-15.28,4.494-19.174c2.397-3.298,5.393-4.796,9.589-4.796
									c4.494,0,14.679,0,14.679,24.269C562.747,206.873,561.249,213.464,558.253,217.357z M681.095,167.921
									c2.697,0,6.292,0.301,7.491,1.799c0,0,0.298,0.301,0.298,0.899l-7.188-1.499c-1.798-0.299-3.297-0.6-4.197-1.199
									C678.7,168.222,679.898,167.921,681.095,167.921z M623.87,210.468c0.598-3.595,0.898-7.49,0.898-11.087
									c3.896,4.194,8.991,8.09,16.179,11.087H623.87z M689.785,223.949c-1.499,0.899-3.896,1.498-6.293,1.498
									c-7.189,0-9.887-2.396-11.085-6.289l12.286,2.694C687.688,222.753,689.483,223.351,689.785,223.949
									C690.084,223.949,690.084,223.949,689.785,223.949z M827.904,218.558c-2.099,0.601-4.794,0.898-7.49,0.898
									c-2.397,0-3.895-0.6-4.793-1.499c0,0-0.898-1.196-0.898-5.989v-38.953h9.586c0,0.6,0,0.902,0,1.501
									c0,15.879,2.696,29.962,8.09,42.543L827.904,218.558z M1068.494,174.516c0.601-0.901,2.399-3.896,10.189-3.896
									c3.294,0,5.992,0.599,7.787,1.497c1.2,0.898,1.2,1.199,1.499,1.498c0,0-1.197,1.498-7.789,2.996l-12.586,2.399v-0.302
									C1067.595,176.911,1067.896,175.41,1068.494,174.516z M1084.676,222.451c-3.897,3.896-8.69,5.695-14.382,5.695
									c-2.397,0-4.196-0.299-5.095-1.201c-0.898-0.599-1.2-1.199-1.2-2.097c0-0.598,0-0.899,1.5-1.798
									c0.302-0.298,2.397-1.497,12.285-4.493l10.785-3.895C1087.97,217.659,1086.772,220.354,1084.676,222.451z M1222.796,219.757
									c-2.397,0-3.893-0.599-4.793-1.498c0,0-0.898-1.2-0.898-5.991v-38.952h13.482c-2.995,8.091-4.495,16.48-4.495,25.167
									c0,7.192,0.898,14.083,2.997,20.676C1226.99,219.456,1225.193,219.757,1222.796,219.757z M1312.682,217.357
									c-2.398,3.295-5.394,4.797-9.888,4.797c-4.495,0-7.49-1.502-9.886-4.797c-2.997-3.894-4.495-10.484-4.495-19.174
									c0-8.988,1.498-15.28,4.495-19.174c2.396-3.298,5.391-4.796,9.587-4.796c4.493,0,14.679,0,14.679,24.269
									C1317.174,206.873,1315.677,213.464,1312.682,217.357z"/>
							</g>
							<g>
								<g>
									<polygon fill="#885E1E" points="415.637,147.248 366.201,147.248 366.201,89.125 314.966,89.125 314.966,259.903
										366.201,259.903 366.201,192.49 415.637,192.49 415.637,259.903 466.871,259.903 466.871,89.125 415.637,89.125
										"/>
								</g>
								<g>
									<path fill="#885E1E" d="M549.265,132.868c-12.882,0-24.567,2.396-34.755,7.49c-11.685,5.993-20.673,14.083-26.965,24.869
										c-5.693,10.184-8.689,21.272-8.689,32.958c0,17.676,6.293,32.959,18.576,45.24c13.184,13.186,29.963,19.774,50.936,19.774
										c20.673,0,37.75-6.589,50.933-19.774c12.284-12.281,18.575-27.564,18.575-45.542c0-17.977-6.291-32.954-18.575-45.539
										C586.117,139.46,569.34,132.868,549.265,132.868z M564.247,221.554c-3.597,5.094-8.99,7.789-15.879,7.789
										c-6.593,0-11.985-2.695-15.583-7.789c-3.893-5.092-5.991-12.883-5.991-23.672c0-10.486,2.098-18.275,5.991-23.668
										c3.895-5.094,8.99-7.49,15.283-7.49c14.679,0,21.87,10.487,21.87,31.46C569.938,208.671,568.14,216.462,564.247,221.554z"
										/>
								</g>
								<g>
									<path fill="#885E1E" d="M732.927,192.49c-6.29-5.095-16.477-8.986-30.258-11.684l-22.174-4.494
										c-7.788-1.498-11.985-4.196-11.985-8.392c0-2.397,1.498-4.495,4.197-5.691c2.397-1.2,5.091-1.499,8.388-1.499
										c5.993,0,10.186,1.499,12.883,4.495c1.199,1.498,2.097,3.894,2.396,7.49h44.643c-0.6-9.887-3.894-17.977-9.589-24.267
										c-9.886-10.487-26.066-15.88-48.836-15.88c-18.276,0-33.255,3.594-44.941,11.083
										c-10.788,6.893-16.479,16.479-16.479,28.763c0,18.58,12.284,30.563,36.852,36.256l27.865,6.29
										c7.491,1.8,11.385,4.495,11.385,8.69c0,2.695-1.5,4.793-4.194,6.29c-2.697,1.8-5.992,2.397-10.187,2.397
										c-11.086,0-17.078-5.092-18.576-14.981h-45.84c0.598,11.686,4.493,20.974,11.383,28.165
										c11.387,11.688,28.766,17.676,51.835,17.676c18.275,0,33.556-3.895,45.541-11.683c11.984-7.79,17.675-18.276,17.675-32.06
										C745.512,208.07,741.319,199.082,732.927,192.49z"/>
								</g>
								<g>
									<path fill="#885E1E" d="M807.832,99.31H759.89v36.554h-18.271v29.961h18.271v47.639c0,16.18,3.6,28.161,10.49,35.651
										c8.087,8.393,19.177,12.589,32.959,12.589c7.486,0,16.475-1.204,26.662-3.897v-32.359c-2.696,0.899-5.992,1.2-9.587,1.2
										c-4.494,0-7.789-1.2-9.885-3.895c-1.799-2.101-2.697-5.694-2.697-10.785v-45.844h22.169v-29.961h-22.169V99.31z"/>
								</g>
								<g>
									<path fill="#885E1E" d="M928.574,203.575h22.472c-1.498,4.495-3.895,8.092-7.189,11.088
										c-5.992,5.392-13.482,8.388-22.77,8.388c-12.887,0-22.475-4.792-28.467-14.38c-5.392-8.988-8.389-20.374-8.389-35.057
										c0-12.283,2.098-22.471,6.593-30.26c5.69-10.186,14.38-15.28,26.664-15.28c8.988,0,16.18,2.996,21.573,8.99
										c2.996,3.293,5.396,7.487,6.592,12.581l50.936-0.898c-2.098-13.483-7.192-24.868-14.984-34.456
										c-15.276-19.173-36.849-28.762-64.416-28.762c-25.466,0-46.142,8.392-62.017,24.868
										c-15.883,16.479-23.668,38.052-23.668,64.418c0,26.664,8.086,48.536,24.265,65.315
										c15.278,15.877,34.455,23.971,56.629,23.971c19.475,0,36.253-6.294,50.633-18.578l3.298,14.683h33.854v-94.081h-71.607
										V203.575L928.574,203.575z"/>
								</g>
								<g>
									<path fill="#885E1E" d="M1141.9,241.625v-58.121c0-17.679-5.393-30.264-15.878-38.051
										c-11.385-8.389-26.665-12.585-46.14-12.585c-22.772,0-39.552,5.694-50.638,16.777c-7.191,7.192-11.384,17.679-12.584,31.46
										h44.043c0-0.897,0-1.796,0-2.095c0-3.298,0.602-5.995,2.1-8.093c2.997-4.793,8.388-7.19,16.178-7.19
										c4.493,0,8.392,0.899,11.385,2.699c3.297,1.796,4.797,4.491,4.797,7.788c0,4.494-4.495,7.789-13.484,9.59l-35.954,6.89
										c-11.984,2.396-20.673,6.592-26.067,12.284c-5.69,6.292-8.386,14.38-8.386,24.27c0,11.385,4.192,20.374,12.28,26.664
										c8.392,6.589,18.576,9.888,30.863,9.888c9.886,0,18.875-2.095,26.962-6.291c3.299-1.796,8.091-5.095,14.083-9.589
										c0.9,4.494,2.396,8.69,4.195,12.581h46.442c-1.802-2.992-2.699-5.69-2.997-8.385
										C1142.201,248.818,1141.9,245.522,1141.9,241.625z M1095.758,211.066c0,6.891-2.095,12.284-5.989,16.181
										c-5.093,5.393-11.687,7.789-19.475,7.789c-3.896,0-6.891-0.897-9.289-2.697c-2.696-2.098-4.194-4.795-4.194-8.088
										c0-3.294,1.498-5.992,4.793-7.789c1.8-1.199,6.293-2.697,13.785-5.396l20.369-6.891V211.066z"/>
								</g>
								<g>
									<path fill="#885E1E" d="M1209.914,99.31h-47.942v36.554h-18.273v29.961h18.273v47.639c0,16.18,3.601,28.161,10.491,35.651
										c8.088,8.393,19.173,12.589,32.958,12.589c7.486,0,16.479-1.204,26.663-3.897v-32.359c-2.995,0.899-5.992,1.2-9.589,1.2
										c-4.492,0-7.786-1.2-9.886-3.895c-1.799-2.101-2.695-5.694-2.695-10.785v-45.844h22.17v-29.961h-22.17V99.31z"/>
								</g>
								<g>
									<path fill="#885E1E" d="M1303.691,132.868c-12.883,0-24.565,2.396-34.755,7.49c-11.685,5.993-20.674,14.083-26.965,24.869
										c-5.989,10.184-8.689,21.272-8.689,32.958c0,17.676,6.294,32.959,18.575,45.24c13.186,13.186,29.962,19.774,50.937,19.774
										c20.674,0,37.75-6.589,50.936-19.774c12.283-12.281,18.573-27.564,18.573-45.542c0-17.977-6.29-32.954-18.573-45.539
										C1340.247,139.46,1323.768,132.868,1303.691,132.868z M1318.375,221.554c-3.597,5.094-8.989,7.789-15.88,7.789
										c-6.592,0-11.984-2.695-15.579-7.789c-3.896-5.092-5.993-12.883-5.993-23.672c0-10.486,2.098-18.275,5.993-23.668
										c3.893-5.094,8.987-7.49,15.278-7.49c14.682,0,21.87,10.487,21.87,31.46
										C1324.064,208.671,1322.271,216.462,1318.375,221.554z"/>
								</g>
								<g>
									<path fill="#885E1E" d="M1478.066,135.264c-5.69-1.796-10.783-2.396-14.979-2.396c-14.082,0-26.066,6.891-36.554,20.373
										v-17.078h-45.239v124.042h47.937v-56.63c0-8.687,2.396-15.577,7.494-20.973c5.689-5.691,12.878-8.686,22.169-8.686
										c4.793,0,11.386,1.493,19.173,4.493V135.264z"/>
								</g>
							</g>
						</g>
					</g>
				</g>
			</g>
			<g>
				<g>
					<g>
						<g>
							<g>
								<path display="none" fill="#885E1E" d="M912.397,270.691c-23.373,0-44.045-7.191-61.423-20.974v10.487l-15.878,3.896
									c-11.687,2.993-22.472,4.493-31.461,4.493c-19.772,0-36.252-6.294-48.236-18.876c-1.2-1.498-2.697-2.999-3.894-4.493
									c-3.599,3.594-7.491,7.188-12.285,10.187c-15.282,9.885-34.456,14.979-56.927,14.979c-28.763,0-51.533-8.091-67.115-23.97
									c-0.598-0.601-1.197-1.196-1.497-1.796c-17.08,17.079-39.25,25.766-65.315,25.766c-23.969,0-44.346-7.192-60.523-21.275
									v17.679h-93.479h-6.892h-93.481V53.77h93.481h7.19h93.48v64.716c5.092-4.494,11.083-8.089,17.377-11.384
									c12.883-6.593,27.863-9.887,44.043-9.887c25.468,0,47.038,8.687,64.118,25.465c3.597-4.193,8.09-7.786,13.182-11.083
									c14.982-9.588,33.857-14.381,56.029-14.381c14.381,0,26.964,1.797,37.751,5.691v-2.396h18.277V64.257h89.884v31.457
									c3.294-5.092,7.188-9.887,11.385-14.08c20.071-20.973,46.139-31.46,77.298-31.46c34.158,0,61.422,12.286,80.897,36.552
									c7.791,9.588,13.481,20.675,16.777,32.958c14.981-14.679,36.852-22.17,64.72-22.17c16.176,0,30.559,2.695,42.841,7.79
									v-4.492h18.278V64.257h89.886v36.554h22.171v9.884c2.098-1.197,4.193-2.396,6.289-3.295
									c12.884-6.589,27.864-9.887,44.048-9.887c21.87,0,40.745,6.292,56.623,18.577v-15.279h82.693
									c6.293-2.101,13.186-3.298,20.076-3.298c6.291,0,13.182,1.197,20.973,3.298l15.28,4.492v88.987l-28.464-10.485
									c-7.49-2.699-11.087-2.997-11.684-2.997c-4.796,0-6.293,1.498-6.894,2.396c-0.596,0.601-1.796,1.796-1.796,6.291v77.6
									h-89.882v-15.279c-15.884,12.286-35.057,18.576-57.23,18.576c-18.576,0-35.354-4.495-49.435-12.883v2.992l-15.879,3.898
									c-11.687,2.997-22.475,4.494-31.462,4.494c-8.986,0-17.374-1.199-24.866-3.897l1.198,2.099h-95.577l-1.497-2.695
									c-9.888,4.195-20.075,6.293-31.159,6.293c-11.984,0-23.072-2.399-32.959-7.191v3.896h-71.908l-0.6-2.696
									C937.566,268.594,925.28,270.691,912.397,270.691z"/>
								<path fill="#885E1E" d="M1484.959,174.214v-58.426l-5.091-1.498c-6.296-1.797-11.987-2.695-17.08-2.695
									c-10.788,0-20.675,3.298-29.362,10.185v-6.887h-59.622v41.642c-3.596-8.388-8.693-16.178-15.584-23.067
									c-14.377-14.684-32.954-21.872-54.824-21.872c-14.084,0-26.669,2.695-37.752,8.389
									c-11.088,5.393-19.777,13.185-26.368,22.469v-27.56h-22.171V78.038h-62.023v36.555h-18.274v16.777
									c-2.098-2.098-4.193-4.494-6.593-6.291c-12.58-9.29-29.66-14.082-50.331-14.082c-24.574,0-43.444,6.291-55.731,18.875
									c-8.386,8.389-13.181,20.373-14.68,35.954l-0.601,7.789h20.076c-5.992,2.698-11.086,5.992-14.683,10.189
									c-2.993,3.294-5.092,7.191-6.891,11.085v-50.037h-85.69v51.834h15.883c-4.494,3.297-9.589,5.094-16.181,5.094
									c-10.787,0-17.679-3.597-22.472-11.087c-4.795-7.79-7.191-17.978-7.191-31.16c0-11.085,1.796-20.074,5.694-26.965
									c4.493-7.792,10.783-11.686,20.672-11.686c6.89,0,12.285,2.098,16.478,6.593c2.397,2.396,3.896,5.392,4.797,9.287
									l1.497,5.392l64.714-1.197l-1.494-8.09c-2.397-14.382-8.091-27.264-16.479-37.75c-16.479-20.676-40.15-31.162-69.812-31.162
									c-27.263,0-49.738,8.992-67.112,26.966c-6.893,6.891-12.282,14.98-16.181,23.671h-19.177V78.038H753.3v36.555h-18.272
									v12.582c-11.385-10.484-28.764-15.88-51.536-15.88c-19.475,0-35.954,4.195-48.536,12.286
									c-9.889,6.291-16.179,14.679-18.577,24.567c-2.997-5.393-6.89-10.186-11.385-14.979
									c-14.382-14.683-32.957-21.875-54.83-21.875c-14.082,0-26.667,2.698-37.751,8.389c-12.886,6.595-23.07,15.879-29.961,27.864
									c-3.596,6.293-5.993,12.886-7.79,19.777V67.853h-66.214v57.822h-35.055V67.853h-65.618v184.862h65.618v-67.414h35.055v67.71
									h65.614V201.18c2.996,12.585,8.988,23.669,18.576,33.257c14.381,14.679,33.258,21.871,56.027,21.871
									c22.474,0,41.347-7.489,55.73-21.871c4.495-4.495,8.091-9.286,11.085-14.082c2.396,6.293,5.394,11.683,9.889,16.479
									c12.884,13.185,32.059,19.776,56.926,19.776c19.774,0,36.254-4.196,49.135-12.884c14.083-8.987,20.972-21.873,20.972-38.051
									c0-14.084-5.09-24.868-15.276-32.959c-3.297-2.695-7.491-5.094-12.585-7.192h23.669l-0.301-6.593h4.494v40.45
									c0,17.977,4.196,31.762,12.587,40.447c9.287,9.89,22.17,14.685,38.052,14.685c8.087,0,17.676-1.201,28.163-3.896
									l5.392-1.201v-37.148c3.895,6.589,8.091,12.883,13.781,18.274c16.78,17.377,37.453,26.067,61.724,26.067
									c17.076,0,32.657-4.494,46.136-13.186l2.102,9.291h46.736v-22.474c2.399,5.692,6.294,10.489,11.689,14.683
									c9.585,7.489,21.569,11.384,35.054,11.384c10.784,0,20.973-2.396,30.259-7.192c1.798-0.896,4.193-2.396,6.891-4.191
									c0.602,1.497,1.2,2.697,1.798,4.191l2.099,3.896h62.919l-5.992-10.482c-1.198-2.1-2.098-4.197-2.397-5.995
									c-0.298-2.395-0.6-5.391-0.6-8.989V169.12c0-3.596-0.298-6.89-0.599-10.189h6.591v40.45
									c0,17.977,4.196,31.762,12.587,40.447c9.286,9.89,22.169,14.685,38.051,14.685c8.087,0,17.676-1.201,28.163-3.896
									l5.391-1.201v-23.67c2.1,2.999,4.495,5.995,7.193,8.69c14.38,14.679,33.256,21.871,56.026,21.871
									c22.472,0,41.347-7.489,55.728-21.871c6.893-6.893,11.984-14.68,15.581-23.068v41.643h62.618v-63.815
									c0-6.891,1.8-11.984,5.695-15.88c4.194-4.494,9.886-6.592,17.077-6.592c4.193,0,9.586,1.197,16.777,3.896L1484.959,174.214z
									 M558.253,203.278c-2.396,3.293-5.391,4.792-9.885,4.792c-4.496,0-7.491-1.499-9.888-4.792
									c-2.996-3.897-4.494-10.486-4.494-19.177c0-8.989,1.498-15.28,4.494-19.173c2.397-3.298,5.393-4.796,9.589-4.796
									c4.494,0,14.679,0,14.679,24.268C562.747,192.792,561.249,199.082,558.253,203.278z M681.095,153.84
									c2.697,0,6.292,0.299,7.491,1.798c0,0,0.298,0.301,0.298,0.897l-7.188-1.495c-1.798-0.301-3.297-0.599-4.197-1.2
									C678.7,153.84,679.898,153.84,681.095,153.84z M623.87,196.385c0.598-3.593,0.898-7.491,0.898-11.084
									c3.896,4.193,8.991,8.088,16.179,11.084H623.87z M689.785,209.867c-1.499,0.901-3.896,1.501-6.293,1.501
									c-7.189,0-9.887-2.399-11.085-6.294l12.286,2.698C687.688,208.369,689.483,209.27,689.785,209.867
									C690.084,209.569,690.084,209.867,689.785,209.867z M827.904,204.478c-2.099,0.597-4.794,0.896-7.49,0.896
									c-2.397,0-3.895-0.597-4.793-1.498c0,0-0.898-1.196-0.898-5.993v-38.951h9.586c0,0.603,0,0.902,0,1.502
									c0,15.879,2.696,29.961,8.09,42.544L827.904,204.478z M1068.494,160.132c0.601-0.899,2.399-3.896,10.189-3.896
									c3.294,0,5.992,0.601,7.787,1.499c1.2,0.899,1.2,1.196,1.499,1.498c0,0-1.197,1.798-7.789,2.998l-12.586,2.396v-0.299
									C1067.595,162.531,1067.896,161.332,1068.494,160.132z M1084.676,208.07c-3.897,3.897-8.69,5.694-14.382,5.694
									c-2.397,0-4.196-0.301-5.095-1.199c-0.898-0.598-1.2-1.197-1.2-2.397c0-0.599,0-0.898,1.5-1.799
									c0.302-0.299,2.397-1.197,12.285-4.494l10.785-3.593C1087.97,203.575,1086.772,205.973,1084.676,208.07z M1222.796,205.373
									c-2.397,0-3.893-0.597-4.793-1.498c0,0-0.898-1.196-0.898-5.993v-38.951h13.482c-2.995,8.094-4.495,16.479-4.495,25.17
									c0,7.191,0.898,14.082,2.997,20.675C1226.99,205.074,1225.193,205.373,1222.796,205.373z M1312.682,203.278
									c-2.398,3.293-5.394,4.792-9.888,4.792c-4.495,0-7.49-1.499-9.886-4.792c-2.997-3.897-4.495-10.486-4.495-19.177
									c0-8.989,1.498-15.28,4.495-19.173c2.396-3.298,5.391-4.796,9.587-4.796c4.493,0,14.679,0,14.679,24.268
									C1317.174,192.792,1315.677,199.082,1312.682,203.278z"/>
							</g>
						</g>
						<g>
							<g>

									<linearGradient id="SVGID_1_" gradientUnits="userSpaceOnUse" x1="219.7896" y1="704.6729" x2="219.7896" y2="620.8806" gradientTransform="matrix(2 0 0 -2 -48.6602 1477.0391)">
									<stop  offset="0" style="stop-color:#FCE47E"/>
									<stop  offset="0.3382" style="stop-color:#FCD96A"/>
									<stop  offset="1" style="stop-color:#FABB34"/>
								</linearGradient>
								<polygon fill="url(#SVGID_1_)" points="415.637,132.868 366.201,132.868 366.201,75.042 314.966,75.042 314.966,245.82
									366.201,245.82 366.201,178.108 415.637,178.108 415.637,245.82 466.871,245.82 466.871,75.042 415.637,75.042 								"/>
								<g opacity="0.61">
									<path fill="#FBF0BA" d="M465.073,76.839v167.183h-47.64v-65.913v-1.796h-1.796H366.5h-1.797v1.796v65.913h-47.938V76.839
										h47.938v56.33v1.796h1.797h49.138h1.796v-1.796v-56.33H465.073 M466.871,75.042h-51.234v57.826H366.5V75.042h-51.233
										V245.82H366.5v-67.712h49.138v67.712h51.234V75.042L466.871,75.042z"/>
								</g>
							</g>
							<g>

									<linearGradient id="SVGID_2_" gradientUnits="userSpaceOnUse" x1="298.5127" y1="704.6699" x2="298.5127" y2="620.8749" gradientTransform="matrix(2 0 0 -2 -48.6602 1477.0391)">
									<stop  offset="0" style="stop-color:#FCE47E"/>
									<stop  offset="0.3382" style="stop-color:#FCD96A"/>
									<stop  offset="1" style="stop-color:#FABB34"/>
								</linearGradient>
								<path fill="url(#SVGID_2_)" d="M549.265,118.486c-12.882,0-24.567,2.397-34.755,7.488
									c-11.685,5.995-20.673,14.082-26.965,24.87c-5.693,10.186-8.689,21.272-8.689,32.959c0,17.675,6.293,32.957,18.576,45.239
									c13.184,13.184,29.963,19.775,50.936,19.775c20.673,0,37.75-6.592,50.933-19.775c12.284-12.282,18.575-27.564,18.575-45.539
									c0-17.98-6.291-32.958-18.575-45.542C586.117,125.078,569.34,118.486,549.265,118.486z M564.247,207.471
									c-3.597,5.095-8.99,7.792-15.879,7.792c-6.593,0-11.985-2.399-15.583-7.792c-3.893-5.091-5.991-12.884-5.991-23.369
									c0-10.487,2.098-18.276,5.991-23.668c3.895-5.094,8.99-7.791,15.283-7.791c14.679,0,21.87,10.486,21.87,31.459
									C569.938,194.289,568.14,202.078,564.247,207.471z"/>
								<g opacity="0.61">
									<path fill="#FBF0BA" d="M549.265,120.283c19.477,0,35.956,6.592,48.837,19.476c11.984,11.984,17.977,26.965,17.977,44.045
										c0,17.376-5.993,32.056-17.977,44.044c-12.882,12.883-29.361,19.472-49.438,19.472c-20.373,0-36.852-6.589-49.733-19.472
										c-11.985-11.988-17.978-26.97-17.978-44.044c0-11.389,2.996-22.173,8.389-32.061c5.992-10.487,14.679-18.574,26.067-24.267
										C525.295,122.679,536.68,120.283,549.265,120.283 M548.368,216.761c7.489,0,13.182-2.698,17.076-8.392
										c4.195-5.392,6.292-13.782,6.292-24.268c0-21.872-8.091-33.257-23.667-33.257c-6.894,0-12.585,2.697-16.78,8.388
										c-4.194,5.394-6.293,13.782-6.293,24.571c0,10.783,2.1,19.174,6.293,24.565
										C535.483,214.063,541.174,216.761,548.368,216.761 M549.265,118.486c-12.882,0-24.567,2.397-34.755,7.488
										c-11.685,5.995-20.673,14.082-26.965,24.87c-5.693,10.186-8.689,21.272-8.689,32.959c0,17.675,6.293,32.957,18.576,45.239
										c13.184,13.184,29.963,19.775,50.936,19.775c20.673,0,37.75-6.592,50.933-19.775
										c12.284-12.282,18.575-27.564,18.575-45.539c0-17.98-6.291-32.958-18.575-45.542
										C586.117,125.078,569.34,118.486,549.265,118.486L549.265,118.486z M548.368,214.961c-6.593,0-11.985-2.396-15.583-7.789
										c-3.893-5.094-5.991-12.883-5.991-23.368c0-10.488,2.098-18.28,5.991-23.672c3.895-5.092,8.99-7.789,15.283-7.789
										c14.679,0,21.87,10.486,21.87,31.46c0,10.185-2.097,17.977-5.991,23.368C560.352,212.565,555.257,214.961,548.368,214.961
										L548.368,214.961z"/>
								</g>
							</g>
							<g>

									<linearGradient id="SVGID_3_" gradientUnits="userSpaceOnUse" x1="365.1919" y1="704.6709" x2="365.1919" y2="620.8751" gradientTransform="matrix(2 0 0 -2 -48.6602 1477.0391)">
									<stop  offset="0" style="stop-color:#FCE47E"/>
									<stop  offset="0.3382" style="stop-color:#FCD96A"/>
									<stop  offset="1" style="stop-color:#FABB34"/>
								</linearGradient>
								<path fill="url(#SVGID_3_)" d="M732.927,178.108c-6.29-5.094-16.477-8.988-30.258-11.683l-22.174-4.494
									c-7.788-1.499-11.985-4.197-11.985-8.39c0-2.398,1.498-4.494,4.197-5.693c2.397-1.2,5.091-1.498,8.388-1.498
									c5.993,0,10.186,1.498,12.883,4.494c1.199,1.499,2.097,3.895,2.396,7.491h44.643c-0.6-9.887-3.894-17.978-9.589-24.268
									c-9.886-10.487-26.066-15.883-48.836-15.883c-18.276,0-33.255,3.596-44.941,11.087
									c-10.788,6.891-16.479,16.479-16.479,28.765c0,18.574,12.284,30.559,36.852,36.253l27.865,6.29
									c7.491,1.801,11.385,4.495,11.385,8.69c0,2.698-1.5,4.793-4.194,6.292c-2.697,1.796-5.992,2.396-10.187,2.396
									c-11.086,0-17.078-5.094-18.576-14.979h-45.84c0.598,11.686,4.493,20.972,11.383,28.165
									c11.387,11.684,28.766,17.676,51.835,17.676c18.275,0,33.556-3.895,45.541-11.688c11.984-7.787,17.675-18.273,17.675-32.056
									C745.512,193.69,741.319,184.7,732.927,178.108z"/>
								<g opacity="0.61">
									<path fill="#FBF0BA" d="M682.893,120.283c22.171,0,38.051,5.094,47.64,15.279c5.093,5.395,8.089,12.585,8.988,21.274
										h-41.049c-0.598-2.997-1.498-5.396-2.697-6.891c-2.995-3.298-7.789-4.795-14.38-4.795c-3.596,0-6.593,0.6-8.989,1.795
										c-4.192,2.102-5.093,5.095-5.093,7.193c0,5.093,4.494,8.392,13.182,9.887l22.174,4.494
										c13.781,2.697,23.668,6.592,29.661,11.385c8.088,6.294,11.685,14.682,11.685,25.77c0,13.182-5.693,23.07-17.079,30.561
										c-11.685,7.49-26.665,11.386-44.343,11.386c-22.47,0-39.549-5.694-50.635-17.079c-6.291-6.291-9.888-14.683-10.785-25.169
										h42.547c2.095,9.89,8.987,14.981,20.072,14.981c4.193,0,8.089-0.898,11.085-2.695c3.296-1.8,5.093-4.495,5.093-7.792
										c0-4.793-4.196-8.389-12.584-10.486l-27.865-6.291c-23.968-5.394-35.652-16.479-35.652-34.456
										c0-11.688,5.094-20.673,15.58-27.265C650.235,123.879,664.916,120.283,682.893,120.283 M682.893,118.486
										c-18.277,0-33.257,3.596-44.941,11.087c-10.788,6.891-16.479,16.479-16.479,28.763c0,18.576,12.285,30.558,36.853,36.251
										l27.864,6.291c7.491,1.801,11.385,4.495,11.385,8.691c0,2.698-1.5,4.792-4.194,6.29c-2.696,1.8-5.994,2.399-10.187,2.399
										c-11.086,0-17.079-5.095-18.577-14.98h-45.84c0.6,11.683,4.495,20.973,11.386,28.162
										c11.383,11.687,28.763,17.675,51.833,17.675c18.276,0,33.557-3.891,45.542-11.679
										c11.984-7.793,17.675-18.278,17.675-32.063c0-11.683-4.194-20.673-12.582-27.265c-6.293-5.094-16.479-8.988-30.262-11.683
										l-22.17-4.494c-7.792-1.499-11.984-4.197-11.984-8.39c0-2.398,1.497-4.494,4.192-5.693c2.396-1.2,5.093-1.498,8.39-1.498
										c5.993,0,10.186,1.498,12.885,4.494c1.197,1.499,2.094,3.895,2.395,7.491h44.942c-0.6-9.887-3.894-17.978-9.589-24.268
										C721.842,123.879,705.664,118.486,682.893,118.486L682.893,118.486z"/>
								</g>
							</g>
							<g>

									<linearGradient id="SVGID_4_" gradientUnits="userSpaceOnUse" x1="417.2349" y1="704.6719" x2="417.2349" y2="620.8815" gradientTransform="matrix(2 0 0 -2 -48.6602 1477.0391)">
									<stop  offset="0" style="stop-color:#FCE47E"/>
									<stop  offset="0.3382" style="stop-color:#FCD96A"/>
									<stop  offset="1" style="stop-color:#FABB34"/>
								</linearGradient>
								<path fill="url(#SVGID_4_)" d="M807.832,85.229H759.89v36.551h-18.271v29.962h18.271v47.638
									c0,16.181,3.6,28.163,10.49,35.655c8.087,8.388,19.177,12.585,32.959,12.585c7.486,0,16.475-1.2,26.662-3.896v-32.357
									c-2.696,0.899-5.992,1.197-9.587,1.197c-4.494,0-7.789-1.197-9.885-3.895c-1.799-2.1-2.697-5.693-2.697-10.789v-46.139
									h22.169V121.78h-22.169V85.229z"/>
								<g opacity="0.61">
									<path fill="#FBF0BA" d="M806.032,87.026v35.056v1.797h1.8h20.374v26.365h-20.374h-1.8v1.797v46.142
										c0,5.691,0.898,9.589,3.295,11.984c2.697,2.996,6.294,4.495,11.388,4.495c2.695,0,5.393-0.302,7.789-0.898v28.764
										c-9.286,2.097-17.679,3.292-24.868,3.292c-13.482,0-24.268-3.894-31.758-11.983c-6.592-7.189-9.89-18.574-9.89-34.456
										v-47.638v-1.796h-1.797h-16.476v-26.366h16.476h1.797v-1.8V87.026H806.032 M807.832,85.229H759.89v36.551h-18.271v29.962
										h18.271v47.638c0,16.181,3.6,28.163,10.49,35.655c8.087,8.388,19.177,12.585,32.959,12.585
										c7.486,0,16.475-1.2,26.662-3.896v-32.357c-2.696,0.899-5.992,1.197-9.587,1.197c-4.494,0-7.789-1.197-9.885-3.895
										c-1.799-2.1-2.697-5.693-2.697-10.789v-46.139h22.169V121.78h-22.169V85.229L807.832,85.229z"/>
								</g>
							</g>
							<g>

									<linearGradient id="SVGID_5_" gradientUnits="userSpaceOnUse" x1="482.2515" y1="704.6738" x2="482.2515" y2="620.8778" gradientTransform="matrix(2 0 0 -2 -48.6602 1477.0391)">
									<stop  offset="0" style="stop-color:#FCE47E"/>
									<stop  offset="0.3382" style="stop-color:#FCD96A"/>
									<stop  offset="1" style="stop-color:#FABB34"/>
								</linearGradient>
								<path fill="url(#SVGID_5_)" d="M928.574,189.494h22.472c-1.498,4.494-3.895,8.089-7.189,11.085
									c-5.992,5.394-13.482,8.39-22.77,8.39c-12.887,0-22.475-4.793-28.467-14.382c-5.392-8.988-8.389-20.373-8.389-35.053
									c0-12.286,2.098-22.47,6.593-30.561c5.69-10.189,14.38-15.282,26.664-15.282c8.988,0,16.18,2.999,21.573,8.988
									c2.996,3.295,5.396,7.491,6.592,12.584l50.936-0.899c-2.098-13.482-7.192-24.867-14.984-34.456
									c-15.276-19.174-36.849-28.763-64.416-28.763c-25.466,0-46.142,8.39-62.017,24.869
									c-15.883,16.479-23.668,38.053-23.668,64.418c0,26.665,8.086,48.536,24.265,65.313
									c15.278,16.181,34.455,23.972,56.629,23.972c19.475,0,36.253-6.294,50.633-18.575l3.298,14.678h33.854v-93.779h-71.607
									V189.494L928.574,189.494z"/>
								<g opacity="0.61">
									<path fill="#FBF0BA" d="M917.488,72.947c26.969,0,47.939,9.284,62.919,27.864c7.193,8.985,11.985,19.473,14.385,31.758
										l-47.342,0.899c-1.498-4.796-3.594-8.691-6.59-11.986c-5.992-6.293-13.482-9.287-23.071-9.287
										c-12.883,0-22.472,5.393-28.464,16.178c-4.493,8.091-6.592,18.875-6.592,31.161c0,14.68,2.996,26.666,8.392,35.956
										c6.292,10.186,16.477,15.279,29.962,15.279c9.585,0,17.677-2.996,23.967-8.69c3.298-2.996,5.992-6.891,7.49-11.684
										l0.899-2.396h-2.397h-20.672V153.84h68.012v90.483h-30.86l-2.997-13.181l-0.6-2.996l-2.096,1.795
										c-13.783,11.985-30.561,17.978-49.436,17.978c-21.871,0-40.448-7.789-55.43-23.369
										c-15.879-16.181-23.669-37.75-23.669-63.819c0-25.766,7.79-47.04,23.368-63.218
										C872.248,81.034,892.62,72.947,917.488,72.947 M917.488,71.146c-25.468,0-46.14,8.39-62.019,24.869
										c-15.88,16.479-23.672,38.053-23.672,64.418c0,26.665,8.092,48.536,24.271,65.313
										c15.279,16.181,34.457,23.972,56.626,23.972c19.476,0,36.253-6.294,50.635-18.575l3.297,14.678h33.856v-93.779h-71.606
										v37.453h22.468c-1.496,4.494-3.895,8.089-7.191,11.085c-5.99,5.394-13.481,8.39-22.768,8.39
										c-12.886,0-22.472-4.793-28.464-14.382c-5.396-8.988-8.392-20.373-8.392-35.053c0-12.286,2.101-22.47,6.595-30.561
										c5.691-10.189,14.378-15.282,26.664-15.282c8.988,0,16.179,2.999,21.574,8.988c2.992,3.295,5.393,7.491,6.589,12.584
										l50.935-0.899c-2.095-13.482-7.188-24.867-14.98-34.456C966.328,80.735,945.054,71.146,917.488,71.146L917.488,71.146z"/>
								</g>
							</g>
							<g>

									<linearGradient id="SVGID_6_" gradientUnits="userSpaceOnUse" x1="563.6724" y1="704.6777" x2="563.6724" y2="620.878" gradientTransform="matrix(2 0 0 -2 -48.6602 1477.0391)">
									<stop  offset="0" style="stop-color:#FCE47E"/>
									<stop  offset="0.3382" style="stop-color:#FCD96A"/>
									<stop  offset="1" style="stop-color:#FABB34"/>
								</linearGradient>
								<path fill="url(#SVGID_6_)" d="M1141.9,227.247V169.12c0-17.679-5.393-30.26-15.878-38.05
									c-11.385-8.391-26.665-12.584-46.14-12.584c-22.772,0-39.552,5.692-50.638,16.778c-7.191,7.19-11.384,17.68-12.584,31.46
									h44.043c0-0.898,0-1.795,0-2.097c0-3.295,0.602-5.992,2.1-8.091c2.997-4.792,8.388-7.188,16.178-7.188
									c4.493,0,8.392,0.897,11.385,2.695c3.297,1.799,4.797,4.494,4.797,7.792c0,4.495-4.495,7.789-13.484,9.589l-35.954,6.891
									c-11.984,2.396-20.673,6.591-26.067,12.282c-5.69,6.294-8.386,14.383-8.386,24.269c0,11.388,4.192,20.376,12.28,26.667
									c8.392,6.59,18.576,9.886,30.863,9.886c9.886,0,18.875-2.097,26.962-6.289c3.299-1.8,8.091-5.094,14.083-9.589
									c0.9,4.495,2.396,8.688,4.195,12.582h46.442c-1.802-2.993-2.699-5.691-2.997-8.388
									C1142.201,234.738,1141.9,231.143,1141.9,227.247z M1095.758,196.984c0,6.891-2.095,12.285-5.989,16.18
									c-5.093,5.394-11.687,7.793-19.475,7.793c-3.896,0-6.891-0.902-9.289-2.698c-2.696-2.099-4.194-4.795-4.194-8.091
									c0-3.295,1.498-5.992,4.793-7.788c1.8-1.2,6.293-2.697,13.785-5.396l20.369-6.891V196.984z"/>
								<g opacity="0.61">
									<path fill="#FBF0BA" d="M1079.883,120.283c18.875,0,33.854,4.196,44.941,12.286c10.186,7.487,15.28,19.774,15.28,36.853
										v58.122c0,4.197,0.295,7.492,0.897,10.489c0.3,2.097,0.898,4.193,2.099,6.29h-42.547
										c-1.498-3.295-2.697-7.193-3.597-11.084l-0.597-2.697l-2.097,1.797c-5.694,4.494-10.491,7.489-13.785,9.286
										c-8.089,4.195-16.777,6.294-26.366,6.294c-11.682,0-21.572-3.294-29.658-9.287c-7.793-5.992-11.688-14.082-11.688-25.168
										c0-9.589,2.698-17.378,8.092-23.37c5.094-5.394,13.481-9.588,25.165-11.985l35.955-6.891
										c9.891-1.796,14.683-5.694,14.683-11.086c0-3.896-1.799-7.188-5.695-9.288c-3.294-1.796-7.49-2.996-12.281-2.996
										c-8.39,0-14.383,2.697-17.679,8.091c-1.498,2.396-2.397,5.691-2.397,8.989v0.298h-40.147
										c1.499-12.283,5.394-21.872,11.986-28.463C1041.229,125.675,1057.709,120.283,1079.883,120.283 M1070.294,222.753
										c8.39,0,15.28-2.698,20.671-8.392c4.198-4.193,6.594-10.186,6.594-17.377v-6.59v-2.396l-2.396,0.896l-20.375,6.895
										c-7.791,2.396-12.286,4.195-14.084,5.392c-3.594,2.099-5.692,5.392-5.692,9.288c0,3.894,1.498,7.191,4.792,9.289
										C1062.502,221.853,1066.098,222.753,1070.294,222.753 M1079.883,118.486c-22.772,0-39.552,5.692-50.638,16.778
										c-7.191,7.19-11.384,17.68-12.584,31.46h44.043c0-0.898,0-1.795,0-2.097c0-3.295,0.602-5.992,2.1-8.091
										c2.997-4.792,8.388-7.188,16.178-7.188c4.493,0,8.392,0.897,11.385,2.695c3.297,1.799,4.797,4.494,4.797,7.792
										c0,4.495-4.495,7.789-13.484,9.589l-35.954,6.891c-11.984,2.396-20.673,6.591-26.067,12.282
										c-5.69,6.294-8.386,14.383-8.386,24.269c0,11.388,4.192,20.376,12.28,26.667c8.392,6.59,18.576,9.886,30.863,9.886
										c9.886,0,18.875-2.097,26.962-6.289c3.299-1.8,8.091-5.094,14.083-9.589c0.9,4.495,2.396,8.688,4.195,12.582h46.442
										c-1.802-2.993-2.699-5.691-2.997-8.388c-0.599-2.696-0.599-5.991-0.599-10.188V169.12c0-17.679-5.395-30.26-15.88-38.05
										C1114.638,122.679,1099.056,118.486,1079.883,118.486L1079.883,118.486z M1070.294,220.957
										c-3.896,0-6.891-0.902-9.289-2.698c-2.696-2.099-4.194-4.795-4.194-8.091c0-3.295,1.498-5.992,4.793-7.788
										c1.8-1.2,6.293-2.697,13.785-5.396l20.369-6.891v6.593c0,6.889-2.095,12.282-5.989,16.177
										C1084.676,218.259,1078.082,220.957,1070.294,220.957L1070.294,220.957z"/>
								</g>
							</g>
							<g>

									<linearGradient id="SVGID_7_" gradientUnits="userSpaceOnUse" x1="618.2759" y1="704.6719" x2="618.2759" y2="620.8815" gradientTransform="matrix(2 0 0 -2 -48.6602 1477.0391)">
									<stop  offset="0" style="stop-color:#FCE47E"/>
									<stop  offset="0.3382" style="stop-color:#FCD96A"/>
									<stop  offset="1" style="stop-color:#FABB34"/>
								</linearGradient>
								<path fill="url(#SVGID_7_)" d="M1209.914,85.229h-47.942v36.551h-18.273v29.962h18.273v47.638
									c0,16.181,3.601,28.163,10.491,35.655c8.088,8.388,19.173,12.585,32.958,12.585c7.486,0,16.479-1.2,26.663-3.896v-32.357
									c-2.995,0.899-5.992,1.197-9.589,1.197c-4.492,0-7.786-1.197-9.886-3.895c-1.799-2.1-2.695-5.693-2.695-10.789v-46.139
									h22.17V121.78h-22.17V85.229z"/>
								<g opacity="0.61">
									<path fill="#FBF0BA" d="M1208.115,87.026v35.056v1.797h1.799h20.673v26.365h-20.673h-1.799v1.797v46.142
										c0,5.691,1.199,9.589,3.295,11.984c2.697,2.996,6.294,4.495,11.386,4.495c2.697,0,5.396-0.302,7.791-0.898v28.764
										c-9.288,2.097-17.68,3.292-24.867,3.292c-13.482,0-24.27-3.894-31.759-11.983c-6.591-7.189-9.887-18.574-9.887-34.456
										v-47.638v-1.796h-1.801h-16.475v-26.366h16.475h1.801v-1.8V87.026H1208.115 M1209.914,85.229h-47.942v36.551h-18.273
										v29.962h18.273v47.638c0,16.181,3.601,28.163,10.491,35.655c8.088,8.388,19.173,12.585,32.958,12.585
										c7.486,0,16.479-1.2,26.663-3.896v-32.357c-2.995,0.899-5.992,1.197-9.589,1.197c-4.492,0-7.786-1.197-9.886-3.895
										c-1.799-2.1-2.695-5.693-2.695-10.789v-46.139h22.17V121.78h-22.17V85.229L1209.914,85.229z"/>
								</g>
							</g>
							<g>

									<linearGradient id="SVGID_8_" gradientUnits="userSpaceOnUse" x1="675.7261" y1="704.6699" x2="675.7261" y2="620.8749" gradientTransform="matrix(2 0 0 -2 -48.6602 1477.0391)">
									<stop  offset="0" style="stop-color:#FCE47E"/>
									<stop  offset="0.3382" style="stop-color:#FCD96A"/>
									<stop  offset="1" style="stop-color:#FABB34"/>
								</linearGradient>
								<path fill="url(#SVGID_8_)" d="M1303.691,118.486c-12.883,0-24.565,2.397-34.755,7.488
									c-11.685,5.995-20.674,14.082-26.965,24.87c-5.989,10.186-8.689,21.272-8.689,32.959c0,17.675,6.294,32.957,18.575,45.239
									c13.186,13.184,29.962,19.775,50.937,19.775c20.674,0,37.75-6.592,50.936-19.775c12.283-12.282,18.573-27.564,18.573-45.539
									c0-17.98-6.29-32.958-18.573-45.542C1340.247,125.078,1323.768,118.486,1303.691,118.486z M1318.375,207.471
									c-3.597,5.095-8.989,7.792-15.88,7.792c-6.592,0-11.984-2.399-15.579-7.792c-3.896-5.091-5.993-12.884-5.993-23.369
									c0-10.487,2.098-18.276,5.993-23.668c3.893-5.094,8.987-7.791,15.278-7.791c14.682,0,21.87,10.486,21.87,31.459
									C1324.064,194.289,1322.271,202.078,1318.375,207.471z"/>
								<g opacity="0.61">
									<path fill="#FBF0BA" d="M1303.691,120.283c19.475,0,35.954,6.592,48.837,19.476c11.984,11.984,17.978,26.667,17.978,44.045
										c0,17.376-5.993,32.056-17.978,44.044c-12.883,12.883-29.362,19.472-49.437,19.472c-20.373,0-36.853-6.589-49.735-19.472
										c-11.984-11.988-17.977-26.97-17.977-44.044c0-11.389,2.996-22.173,8.689-32.061c5.992-10.487,14.68-18.574,26.066-24.267
										C1279.424,122.679,1290.809,120.283,1303.691,120.283 M1302.495,216.761c7.487,0,13.182-2.698,17.076-8.392
										c4.196-5.392,6.293-13.782,6.293-24.268c0-21.872-8.089-33.257-23.67-33.257c-7.189,0-12.585,2.697-16.778,8.388
										c-4.196,5.394-6.29,13.782-6.29,24.571c0,10.783,2.094,19.174,6.29,24.565
										C1289.609,214.063,1295.304,216.761,1302.495,216.761 M1303.691,118.486c-12.883,0-24.565,2.397-34.755,7.488
										c-11.685,5.995-20.674,14.082-26.965,24.87c-5.989,10.186-8.689,21.272-8.689,32.959c0,17.675,6.294,32.957,18.575,45.239
										c13.186,13.184,29.962,19.775,50.937,19.775c20.674,0,37.75-6.592,50.936-19.775
										c12.283-12.282,18.573-27.564,18.573-45.539c0-17.98-6.29-32.958-18.573-45.542
										C1340.247,125.078,1323.768,118.486,1303.691,118.486L1303.691,118.486z M1302.495,214.961
										c-6.592,0-11.984-2.396-15.579-7.789c-3.896-5.094-5.993-12.883-5.993-23.368c0-10.488,2.098-18.28,5.993-23.672
										c3.893-5.092,8.987-7.789,15.278-7.789c14.682,0,21.87,10.486,21.87,31.46c0,10.185-2.098,17.977-5.991,23.368
										C1314.778,212.565,1309.386,214.961,1302.495,214.961L1302.495,214.961z"/>
								</g>
							</g>
							<g>

									<linearGradient id="SVGID_9_" gradientUnits="userSpaceOnUse" x1="739.1704" y1="704.6689" x2="739.1704" y2="620.8782" gradientTransform="matrix(2 0 0 -2 -48.6602 1477.0391)">
									<stop  offset="0" style="stop-color:#FCE47E"/>
									<stop  offset="0.3382" style="stop-color:#FCD96A"/>
									<stop  offset="1" style="stop-color:#FABB34"/>
								</linearGradient>
								<path fill="url(#SVGID_9_)" d="M1478.066,120.883c-5.69-1.799-10.783-2.397-14.979-2.397
									c-14.082,0-26.066,6.891-36.554,20.374v-17.08h-45.239v123.742h47.937v-56.327c0-8.689,2.396-15.581,7.494-20.974
									c5.689-5.69,12.878-8.688,22.169-8.688c4.793,0,11.386,1.497,19.173,4.493V120.883z"/>
								<g opacity="0.61">
									<path fill="#FBF0BA" d="M1463.087,120.283c3.597,0,8.09,0.6,13.181,2.098v38.951c-6.891-2.4-12.879-3.597-17.374-3.597
										c-9.588,0-17.679,2.996-23.671,9.29c-5.394,5.39-8.087,12.88-8.087,22.17v54.826h-44.345V123.581h41.944v15.279v5.094
										l3.295-4.195C1437.921,126.875,1449.603,120.283,1463.087,120.283 M1463.087,118.486c-14.082,0-26.066,6.891-36.554,20.374
										v-17.08h-45.239v123.742h47.937v-56.327c0-8.689,2.396-15.581,7.494-20.974c5.689-5.69,12.878-8.688,22.169-8.688
										c4.793,0,11.386,1.497,19.173,4.493v-43.144C1472.074,119.388,1467.283,118.486,1463.087,118.486L1463.087,118.486z"/>
								</g>
							</g>
						</g>
					</g>
				</g>
			</g>
			<polygon fill="#885E1E" points="1005.276,141.256 1005.276,145.453 999.883,145.453 999.883,138.562 			"/>
			<polygon fill="#885E1E" points="1008.871,173.614 1008.871,187.998 1013.067,172.116 			"/>
			<polygon fill="#885E1E" points="1158.082,253.011 1158.082,267.094 1145.195,251.214 			"/>
		</g>
	</g>
	<g>
		<g>
			<path fill="#193051" d="M212.2,168.222c-12.285-6.591-35.654-19.773-35.355-35.653c0-2.996,0.898-5.694,2.397-8.391l0.3-0.598
				l0.598-0.6c2.098-1.796,4.495-2.996,6.893-3.593c9.587-2.698,19.475,2.094,27.264,7.487c11.085,7.789,21.573,18.875,30.56,29.064
				c2.097,2.396,5.093,5.091,5.694,8.087c0.598,3.297-1.499,6.593-2.698,9.588c-6.591,13.186-16.477,25.17-27.564,35.655
				l0.299,1.198c2.998,10.185,2.097,19.176-5.392,27.265l-0.899,0.899l-1.199,0.3c-5.692,1.799-11.385,0.599-17.077-0.3l-1.2-0.301
				l-0.899-1.201c-9.288-9.586-14.082-19.772-5.691-32.056c2.996-4.495,5.992-9.286,8.688-14.079
				c4.493-7.191,8.988-14.981,14.082-21.573C211.3,169.12,211.898,168.521,212.2,168.222"/>
			<path fill="#31509E" d="M215.196,164.928c-24.569-13.186-39.549-26.068-32.358-38.352c13.184-10.789,33.854,4.192,58.725,32.354
				c5.692,6.593,6.291,5.095,2.396,12.888c-8.689,17.977-25.465,35.353-44.94,49.436c2.394-1.2,5.092-2.398,7.49-3.596
				c3.294,5.094,4.493,9.885,1.797,13.483c4.196-3.295,5.094-6.892,2.098-14.084l6.291-5.392c2.398,8.388,2.099,15.877-4.492,23.071
				c-5.094,1.497-11.685,0-14.981-0.6c-8.091-8.092-12.285-16.182-5.394-26.668c12.285-18.275,24.867-44.642,36.254-45.539
				C223.284,159.833,218.192,161.03,215.196,164.928"/>
			<path fill="#223C82" d="M213.098,209.867c-4.495,3.897-9.289,7.792-14.081,11.09c2.394-1.2,5.092-2.399,7.49-3.6
				c3.294,5.094,4.493,9.89,1.797,13.483c4.196-3.297,5.094-6.892,2.098-14.08l2.696-2.399c1.498,5.396,2.098,10.789,1.798,16.479
				c-0.899,1.196-1.798,2.398-2.696,3.596c-5.094,1.497-11.685,0-14.981-0.6c-8.091-8.091-12.285-16.178-5.394-26.665
				c8.988-13.481,18.277-31.158,26.966-40.147C218.492,182.003,216.094,196.086,213.098,209.867 M215.196,164.928
				c-15.281-8.091-26.666-16.182-31.46-23.971v-14.983c7.19-5.39,16.478-3.295,27.264,3.897c2.398,9.589,4.794,24.57,4.794,34.457
				C215.494,164.328,215.196,164.626,215.196,164.928z"/>
		</g>
		<g>
			<path fill="#193051" d="M198.118,300.651c2.695,1.795,5.393,3.596,7.788,5.693c4.496,4.494,5.992,9.888,5.693,15.876v2.399
				l-2.096,1.201c-5.095,2.995-11.087,3.893-16.779,3.893c-5.093,0-10.187-0.897-14.981-2.094c-2.996-0.603-7.49-2.102-9.888-3.898
				c-2.397-2.099-4.495-4.494-5.394-7.489c-1.796-4.495-1.198-9.888-0.897-14.681c0.3-6.891,0.3-12.886-0.898-19.479l-0.299-2.094
				l1.498-1.498c8.688-8.393,17.377-16.777,26.065-25.17l6.591-6.593v9.288C194.521,270.089,192.424,287.469,198.118,300.651"/>
			<path fill="#31509E" d="M190.626,256.007c-8.689,8.392-17.378,16.779-26.066,25.169c4.194,21.872-3.895,31.46,5.692,39.25
				c3.595,2.697,25.166,8.99,37.152,1.795c0.301-11.382-5.994-14.678-12.584-18.871C188.23,288.964,190.626,270.391,190.626,256.007
				"/>
			<path fill="#223C82" d="M190.626,256.007c-8.689,8.392-17.378,16.779-26.066,25.169c0.898,4.498,1.198,8.392,1.198,11.984
				c8.689-2.397,17.079-6.592,24.569-12.58C190.028,272.188,190.626,263.5,190.626,256.007"/>
			<path fill="#2797CF" d="M166.359,279.38l-2.099,1.796c4.194,21.872-3.894,31.46,5.693,39.25
				c3.596,2.697,25.168,8.99,37.152,1.795c0-0.298,0-0.598,0-0.598c-11.084,2.699-35.055,0.902-35.354-10.188
				c-0.598-10.784,0.6-21.267-0.3-32.056H166.359z"/>
			<path fill="#193051" d="M196.319,327.62c-1.798-0.302-3.294-0.603-5.093-0.9c0.897-5.394-0.899-10.789-7.19-15.284
				C192.124,315.032,195.121,321.024,196.319,327.62"/>
			<path fill="#193051" d="M206.507,325.821c-1.797-0.303-3.296-0.602-5.096-0.903c0.9-5.392-0.896-10.785-7.188-15.279
				C202.312,312.937,205.308,318.926,206.507,325.821"/>
			<path fill="#31509E" d="M165.758,292.263c0,0.302,0,0.6,0,0.897 M166.359,279.38l-0.301,0.298l-0.3,0.302l-0.3,0.299
				l-0.298,0.302l-0.3,0.298c0,0.298,0,0.597,0.3,0.897l0,0l0,0l0,0c0,0.298,0,0.6,0.298,0.901l0,0l0,0c0,0.299,0,0.597,0,0.895l0,0
				l0,0c0,0.304,0,0.602,0,0.902l0,0l0,0c0,0.297,0,0.599,0,0.898l0,0c0,0.598,0,1.196,0.3,1.796l0,0l0,0c0,0.601,0,1.199,0,1.796
				l0,0l0,0c0,0.302,0,0.604,0,0.903l0,0c0,0.595,0,1.196,0,1.795l0,0c0,0.302,0,0.601,0,0.902l0,0
				c2.097-0.601,4.195-1.2,6.292-2.103c0-3.894,0-7.785-0.299-11.684L166.359,279.38z"/>
		</g>
		<g>
			<path fill="#193051" d="M78.271,203.575c0-3.293,0.6-8.086,4.194-9.286c4.794-1.799,9.29,4.495,11.688,8.091
				c1.796,2.694,3.594,5.69,4.792,8.687c1.499,2.996,4.196,6.593,2.097,9.891c-1.797,2.992-5.691,2.094-8.688,1.796
				c-4.196-0.599-8.689-1.796-12.285-3.896c-2.396-1.197-5.094-2.696-5.392-5.692c-0.301-2.396,1.198-3.595,2.097-5.094
				C77.673,206.275,78.271,205.074,78.271,203.575"/>
			<path fill="#1F72B3" d="M82.465,203.575c0,2.1-0.598,3.896-1.796,5.994c-1.798,2.996-2.996,2.698,1.796,5.094
				c2.996,1.497,6.591,2.694,11.087,3.596c6.592,1.197,5.093,0.299,2.098-5.693c-1.497-2.996-2.996-5.692-4.493-7.789
				C84.563,195.489,82.465,196.385,82.465,203.575"/>
			<path fill="#2797CF" d="M82.465,203.575c0,2.1-0.598,3.896-1.796,5.994c-1.798,2.996-2.996,2.698,1.796,5.094
				c0.899,0.6,2.099,0.898,2.996,1.497c-0.298-6.293,0.601-12.585-2.097-17.678C82.766,199.381,82.465,201.18,82.465,203.575"/>
			<path fill="#193051" d="M50.407,198.784c0.299-0.302,0.299-0.601,0.6-1.201c1.198-3.595,0-9.286,4.194-11.085
				c2.396-0.899,4.794,0.302,6.291,2.097c1.498,1.499,2.998,3.597,4.196,5.394c1.796,2.396,3.294,5.094,4.794,7.792
				c1.198,2.396,3.594,5.093,2.096,8.087c-1.498,2.996-4.794,2.698-7.49,2.4c-2.099-0.3-4.195-0.601-6.291-1.499
				c-3.297-1.199-7.192-2.098-8.691-5.396C48.909,203.278,49.208,200.878,50.407,198.784"/>
			<path fill="#1F72B3" d="M54.003,200.579c-2.398,4.495,1.198,5.096,5.993,6.593c1.796,0.601,3.594,0.898,5.392,1.197
				c5.095,0.6,3.896-0.299,1.498-4.494c-1.498-2.396-2.996-5.091-4.494-7.49C53.104,183.504,57.597,194.289,54.003,200.579"/>
			<path fill="#2797CF" d="M54.003,200.579c-2.098,3.597,0.3,4.794,3.895,5.992c0.9-5.392,0.599-10.783-1.199-16.177
				C55.201,190.693,56.399,196.385,54.003,200.579"/>
			<path fill="#193051" d="M24.939,196.086c0-0.298,0-0.597,0-0.597c-0.3-3.298-2.396-7.491,0.899-10.188
				c2.098-1.797,4.793-1.199,6.893,0c2.096,1.197,4.493,2.996,6.291,4.495c1.498,1.199,2.996,2.396,4.194,3.895
				c2.098,2.396,5.094,5.094,4.195,8.689c-0.899,3.295-4.195,4.493-7.191,4.792c-2.397,0.299-5.095,0.299-7.489,0
				c-2.398-0.299-5.095,0-6.893-2.098c-1.498-1.796-1.199-3.895-0.899-5.992C24.939,197.882,24.939,196.984,24.939,196.086"/>
			<path fill="#1F72B3" d="M29.136,195.788c0,0.898,0,2.094,0,3.294c-0.301,3.896-0.901,3.298,4.194,3.597
				c2.396,0.299,4.494,0.299,6.59,0c6.292-0.898,3.897-2.996,0.6-6.593c-1.198-1.197-2.398-2.396-3.596-3.294
				C24.341,183.203,28.835,189.796,29.136,195.788"/>
			<path fill="#2797CF" d="M29.136,195.788c0,0.898,0,2.094,0,3.294c-0.301,3.896-0.901,3.298,4.194,3.597c0.3,0,0.899,0,1.198,0
				c-1.198-6.294-2.696-10.487-5.692-14.982C27.337,188.595,29.136,192.191,29.136,195.788"/>
			<path fill="#193051" d="M95.049,81.333c-0.897-1.495-2.097-2.695-3.596-3.596c-1.796-1.495-3.594-2.394-5.691-3.594
				c-2.398-1.196-4.793-2.398-5.693-5.392c-0.6-2.698,0.6-5.094,2.396-6.891c2.099-2.098,4.794-4.195,7.192-5.993
				c6.291-4.494,13.782-8.69,20.671-12.286l8.991-4.792l-2.999,9.588c-3.893,11.982-7.788,23.966-11.684,35.954l-2.396,7.189
				c-0.598,7.491-1.199,14.679-1.797,22.17l0.3,1.799c2.097,9.887,4.194,19.774,6.592,29.963l3.295,15.578l-10.485-11.982
				c-3.296-3.897-7.79-5.992-12.885-6.894c-2.097-0.298-4.194-0.597-6.59-0.898c-2.398-0.298-5.095-0.898-6.293-3.294
				c-1.498-2.698-0.299-5.393,0.9-7.791c1.796-2.695,4.192-5.691,6.291-8.088c2.396-2.999,5.394-5.094,8.688-7.188l0,0
				c-0.897-0.901-2.396-1.501-3.594-1.8c-3.896-1.2-9.888-1.498-12.285-5.694c-2.397-4.495,1.198-9.588,4.194-12.883
				C83.364,90.022,89.358,85.229,95.049,81.333"/>
			<path fill="#192E4E" d="M35.726,199.683c10.486-2.1,22.171-0.302,35.654,7.489c26.367,13.183,42.845,8.39,46.141-8.988
				c3.594-18.278-6.892-29.362-13.184-45.84c-10.785-27.566-17.976-66.215,6.292-97.675c32.358,34.456,91.982,34.758,97.077,104.865
				c1.797,8.987,8.687,76.4-25.769,112.951c-20.973,22.177-53.63,31.161-79.697,11.989c-15.879-11.688-28.464-30.563-42.845-44.943
				c-12.884-12.883-23.969-21.573-42.246-19.176c-2.997,0.298-5.691,0-5.691-2.695C10.858,207.471,27.337,201.18,35.726,199.683"/>
			<path fill="#193051" d="M113.626,58.265c14.081,13.479,31.758,21.871,47.938,32.059c11.085,6.891,20.973,14.979,29.062,25.464
				c9.586,12.884,14.681,27.864,16.779,43.746c0.898,5.395,1.198,10.786,1.198,16.178c0.301,9.887,0,19.777-0.897,29.661
				c-2.398,23.67-9.588,48.839-26.369,66.515c-20.971,22.174-53.63,31.16-79.695,11.987c-10.189-7.492-18.577-17.081-26.667-26.665
				c-5.393-6.294-10.486-12.585-16.479-18.278c-6.592-6.593-14.082-13.781-23.07-17.378c-10.188-3.895-15.58-2.996-24.568,2.697
				c-2.398,1.495-5.992,4.193-8.988,1.495c-0.899-0.596-1.199-2.095-0.599-3.592c1.496-4.197,3.594-8.39,6.59-11.687
				c15.281-17.676,45.841-13.781,64.417-3.896c6.892,3.597,14.683,8.092,22.771,8.39c5.693,0.302,11.386-0.6,15.879-4.493
				c3.596-2.997,5.693-7.49,6.592-12.284c1.198-6.891,0.899-13.185-1.499-19.476c-2.995-8.988-8.388-17.376-11.984-26.066
				c-11.984-30.56-15.88-65.016,3.297-93.48l2.695-3.895L113.626,58.265z"/>
			<path fill="#31509E" d="M110.929,61.257c-18.275,27.268-14.381,60.523-2.996,89.887c3.594,8.988,8.989,17.377,11.985,26.366
				c2.397,7.19,2.996,14.081,1.498,21.572c-1.198,5.694-3.594,10.785-7.789,14.382c-5.394,4.493-11.984,5.992-18.876,5.393
				c-8.688-0.598-16.779-4.794-24.268-8.989c-16.779-8.989-45.543-13.181-59.625,2.996c-2.398,2.698-4.494,5.993-5.693,10.188
				c-0.299,0.898,1.199,0,3.896-1.796c9.887-6.294,16.779-7.49,28.164-2.996c8.988,3.594,16.479,10.186,24.567,18.274
				c5.692,5.995,11.087,12.285,16.479,18.578c7.791,8.989,16.178,18.871,25.767,26.064c24.27,17.979,54.829,9.286,74.304-11.385
				c16.18-17.076,22.772-41.645,25.169-64.418c0.898-9.585,1.199-19.473,0.898-29.359c-0.299-5.395-0.6-10.788-1.198-15.882
				c-2.098-15.28-6.892-29.664-16.179-41.947c-7.491-10.185-17.379-17.676-27.865-24.566
				C142.689,83.132,125.311,75.042,110.929,61.257"/>
			<path fill="#2797CF" d="M111.527,61.86c-0.298-0.301-0.598-0.301-0.598-0.603 M110.929,61.257
				c-18.275,27.268-14.381,60.523-2.996,89.887c3.594,8.988,8.989,17.377,11.985,26.366c2.397,7.19,2.996,14.081,1.498,21.572
				c-1.198,5.694-3.594,10.785-7.789,14.382c-5.394,4.493-11.984,5.992-18.876,5.393c-8.688-0.598-16.779-4.794-24.268-8.989
				c-16.779-8.989-45.543-13.181-59.625,2.996c-2.398,2.698-4.494,5.993-5.693,10.188c0,0.3,0,0.601,0.301,0.3
				c21.272-29.66,61.42-13.183,98.272,7.792c30.562,8.987,27.264-25.77,23.669-45.544c-5.693-29.659-18.875-65.014-19.773-78.199
				c-0.9-12.283,1.797-25.468,10.786-39.848h-0.599l0,0l0,0l-0.6-0.301l0,0l0,0l0,0l-0.599-0.899l0,0l0,0l0,0l-0.301-0.298l0,0l0,0
				l0,0l-0.598-0.6l-0.899-0.601l-0.598-0.596l0,0l0,0l-0.599-0.6l0,0l0,0l-0.599-0.298l0,0l0,0l0,0
				c-0.301-0.301-0.301-0.301-0.6-0.6l0,0l0,0l0,0l-0.6-0.601l0,0C111.229,61.86,111.229,61.559,110.929,61.257z"/>
			<path fill="#223C82" d="M110.629,157.735c3.295,6.593,6.892,12.884,8.988,19.775v0.301c4.495-14.083,7.491-28.166,8.99-42.248
				L110.629,157.735z"/>
			<path fill="#31509E" d="M110.629,157.735L110.629,157.735l0.299,0.301l0.598,0.895l0,0v0.301v0.301l0,0l0.301,0.299l0.3,0.299
				l0,0v0.301v0.298l0,0l0.299,0.601l0,0l0,0v0.299v0.301l0,0v0.298l0,0l0.299,0.301l0,0v0.298v0.299l0,0v0.298l0,0l0.301,0.301l0,0
				v0.299v0.301l0,0v0.299l0,0l0.3,0.302l0,0v0.298v0.298v0.301v0.299l0,0l0.299,0.302l0,0v0.298l0,0v0.301v0.295l0,0l0.298,0.302
				l0,0v0.299l0,0v0.301v0.299l0,0l0.3,0.301l0,0v0.299l0,0v0.302v0.298l0,0v0.301l0,0v0.296l0,0v0.303v0.298l0,0v0.301l0,0v0.302
				l0,0v0.3v0.297l0.3,0.299l0,0v0.301v0.299v0.301l0,0v0.299l0,0v0.303l0,0v0.297v0.302l0,0v0.295l0,0v0.302v0.298l0,0v0.302l0,0
				v0.302l0,0v0.299l0,0v0.298v0.301l0,0v0.3v0.299c1.198-3.593,2.097-7.193,2.996-10.786c-1.499-6.291-3.296-12.283-5.093-18.275
				L110.629,157.735z"/>
			<path fill="#193051" d="M21.944,215.859c16.778-0.298,27.865,8.69,39.847,20.674c5.692,5.995,11.087,12.285,16.479,18.578
				c7.791,8.989,16.178,18.871,25.767,26.064c24.27,17.979,54.829,9.286,74.304-11.385c16.18-17.076,22.772-41.645,25.169-64.418
				c0.898-9.585,1.199-19.473,0.898-29.359c-0.299-5.395-0.6-10.788-1.198-15.882c-2.098-15.28-6.892-29.664-16.179-41.947
				c-7.491-10.185-17.379-17.676-27.865-24.566c-4.195-2.697-8.09-5.094-12.284-7.49c-5.693,1.796-10.487,4.494-13.782,8.688
				c-9.288,11.686-2.996,28.463,2.695,40.149c5.693,11.385,10.487,23.071,13.783,35.354c4.195,16.179,5.993,34.158,0.898,50.035
				c-2.695,8.688-7.19,16.179-13.483,22.472c-4.194,4.194-8.988,7.191-14.378,9.289c-19.177,6.29-29.364-5.396-42.248-17.679
				C62.99,218.558,44.415,210.769,21.944,215.859"/>
			<path fill="#FFCC00" d="M36.924,218.558c9.289,3.295,16.779,10.188,24.868,18.275c5.692,5.993,11.087,12.282,16.479,18.578
				c7.791,8.987,16.178,18.874,25.767,26.063c24.27,17.977,54.829,9.288,74.304-11.386c16.18-17.078,22.772-41.645,25.169-64.414
				c0.898-9.589,1.199-19.476,0.898-29.362c-0.299-5.396-0.6-10.789-1.198-15.879c-2.098-15.282-6.892-29.664-16.179-41.947
				c-7.491-10.188-17.379-17.675-27.865-24.566c-2.397-1.5-5.094-2.999-7.492-4.494c-17.375,3.891-26.664,15.276-12.283,44.34
				c17.377,33.259,30.86,82.394,0.898,112.354c-4.495,4.497-9.887,8.092-16.179,10.188c-21.572,7.192-32.956-5.992-46.141-18.575
				C65.088,226.047,51.905,218.856,36.924,218.558"/>
			<path fill="#FFEB00" d="M146.284,90.921c-13.483,5.094-19.476,17.079-6.59,42.547c17.077,33.557,30.56,82.692,0.598,112.652
				c-4.495,4.497-9.887,8.092-16.179,10.188c-21.572,7.192-32.956-5.992-46.141-18.575c-2.097-1.799-4.195-3.594-5.992-5.394
				c9.588,12.886,24.869,28.161,47.041,26.666c7.489-0.6,14.681-2.697,20.674-7.791c40.446-32.955,18.275-88.984,2.695-122.841
				C135.796,114.592,132.8,99.909,146.284,90.921"/>
			<path fill="#F29100" d="M104.637,281.475c10.187,7.489,21.573,10.188,32.658,9.288c0.3-3.294,20.373-12.581,20.674-15.878
				c-17.378,5.695-22.472-7.791-24.868-22.77c-2.697,1.796-5.693,3.296-8.989,4.192c-7.49,2.396-13.784,2.396-19.176,0.902
				c-0.3,2.094-0.6,4.193-0.6,5.988C104.038,269.194,104.038,275.183,104.637,281.475"/>
			<path fill="#F29100" d="M61.792,236.833L61.792,236.833c5.692,5.993,11.087,12.282,16.479,18.578
				c7.791,8.987,16.178,18.874,25.767,26.063c24.27,17.977,54.829,9.288,74.304-11.386c16.18-17.078,22.772-41.645,25.169-64.414
				c0.898-9.589,1.199-19.476,0.898-29.362c-0.299-5.396-0.6-10.789-1.198-15.879c-2.098-15.282-6.892-29.664-16.179-41.947
				c-4.495-6.291-9.887-11.384-15.879-15.879c6.291,11.985,10.185,24.567,13.181,36.253c5.394,10.188,7.791,20.674,6.592,32.057
				c2.697,13.783,3.297,28.766,0,41.648c0.301,16.478-6.592,29.661-13.781,41.646c-5.694,11.985-18.577,22.47-29.363,25.466
				c-26.067,10.189-55.729-11.984-64.717-25.767c-4.495-3.894-8.989-7.49-13.183-11.085
				C67.186,240.73,64.489,238.632,61.792,236.833"/>
			<path fill="#31509E" d="M110.329,55.268l2.398-7.791c-8.39,4.497-15.279,8.391-20.073,11.984
				c-15.281,10.788-5.992,8.689,1.796,15.282c1.499,1.197,2.699,2.397,3.897,3.895C100.743,70.249,104.637,62.459,110.329,55.268
				 M95.049,117.887c-3.893,2.098-7.19,4.494-9.887,7.49c-12.284,14.083-6.892,11.386,3.294,13.185
				c5.393,0.898,9.29,2.996,12.584,5.691C98.346,136.163,96.248,127.174,95.049,117.887z M96.248,85.528
				c-5.392,3.898-10.485,7.789-14.081,12.284c-11.985,14.082,6.591,8.089,12.583,15.879C93.85,104.703,94.152,95.117,96.248,85.528z
				"/>
			<path fill="#2797CF" d="M95.35,119.984c-6.592,5.094-14.381,11.385-7.791,18.577c-9.289-1.498-13.784,0.597-2.099-12.886
				c2.697-2.996,5.992-5.392,9.889-7.491C95.049,118.784,95.049,119.388,95.35,119.984 M106.136,51.072
				c-9.289,7.193-19.175,13.781-11.984,20.973c1.796,1.499,2.996,3.596,4.194,5.992l-0.301,0.302
				c-1.198-1.5-2.396-2.698-3.893-3.898c-7.791-6.588-17.08-4.192-1.798-15.279C96.248,56.763,100.743,54.068,106.136,51.072z
				 M96.248,85.528c-5.392,3.898-10.485,7.789-14.081,12.284c-10.787,12.584,2.996,8.988,10.188,13.784
				c-0.901-0.901-1.798-1.8-2.697-2.698c-5.394-5.093-7.491-5.093-4.794-8.988C87.859,95.416,92.053,90.324,96.248,85.528
				L96.248,85.528z"/>
			<path fill="#193051" d="M143.287,141.558c10.187-5.395,24.568-6.592,35.654-5.694c8.091,0.899,16.18,2.996,23.071,6.891
				l2.097,1.199l-2.397,4.194l-2.097-1.201c-6.292-3.592-14.082-5.69-21.274-6.29c-10.187-1.196-23.968,0-32.957,5.094l-2.098,1.196
				l-2.097-4.191L143.287,141.558z"/>
			<path fill="#193051" d="M154.074,175.712c9.887-5.691,23.969-7.191,35.054-6.29c5.993,0.298,11.985,1.495,17.677,3.593v5.094
				c-5.692-2.396-11.984-3.593-17.977-4.191c-10.186-0.902-23.37,0.599-32.358,5.689l-2.097,1.2l-2.397-4.196L154.074,175.712z"/>
			<path fill="#193051" d="M154.074,211.968c14.081-6.894,36.553-5.692,50.636,2.993c1.196,0.601,0.297,1.199,1.496,1.8l-0.3,1.498
				l-1.497,1.197c-0.299,0.301-0.299,0.898-0.898,0.599c-12.284-8.687-34.457-10.188-47.639-3.895l-2.097,0.898l-0.599-3.595
				L154.074,211.968z"/>
			<path fill="#193051" d="M145.385,238.632c10.487,11.086,32.957,17.375,47.64,12.582l1.796-1.496v2.997l-1.796,1.798
				c-0.901,0.297-0.301,1.494-1.2,1.795c-16.178,3.897-38.649-2.996-50.036-14.683l-1.198-1.495l3.296-3.297L145.385,238.632z"/>
			<path fill="#193051" d="M124.112,256.308c2.997,6.891,8.688,12.887,14.981,16.78c6.592,4.494,14.98,7.492,23.069,6.892
				c2.998-0.302,5.094-0.9,7.791-1.798l-0.3,3.892l-1.499,1.802c-10.786,2.995-22.77-0.602-31.759-6.896
				c-6.89-4.495-13.182-11.084-16.479-18.875l-0.898-2.098l4.194-1.795L124.112,256.308z"/>
			<path fill="#193051" d="M88.457,247.919c-1.496,1.799-2.396,4.196-2.996,6.293c-0.598,4.793,0.301,8.088,2.697,11.985
				l-4.194,0.896l-1.499-1.5c-3.294-6.589-2.695-14.977,2.099-20.67l1.498-1.797l3.596,2.993L88.457,247.919z"/>
			<path fill="#193051" d="M75.276,232.938c-2.398,2.996-3.297,6.593-2.998,10.189c0.3,2.993,1.198,5.389,2.697,8.087l-3.895,0.601
				l-1.499-1.197c-3.296-6.596-2.696-14.979,2.099-20.676l1.497-0.898l2.996,2.397L75.276,232.938z"/>
		</g>
		<g>
			<path fill="#193051" d="M96.848,303.646c1.797-5.391,2.396-11.081,2.695-16.478c0.3-4.793,0-9.586-0.298-14.684
				c0-4.49-0.3-9.286,0.298-13.78c2.1-22.171,25.469-27.863,31.76-19.174c8.09,9.288,7.19,20.97,2.695,35.054
				c-0.897,2.396-1.498,5.094-2.096,7.791c-0.9,3.896-1.499,8.087-2.097,11.984c-0.3,2.997-0.6,5.992-0.6,8.99
				c0,3.592,0.3,7.188,1.198,10.783c0.598,2.998,0.899,5.696,0.3,8.69c-0.599,2.396-1.797,4.194-3.595,5.993
				c-5.095,4.793-14.382,8.687-21.273,10.186c-3.896,0.898-8.389,0.898-12.284,0.301c-1.198-0.301-2.696-0.604-3.596-1.498
				c-5.693-3.596-7.19-11.387-5.993-17.68C85.461,312.636,90.255,306.646,96.848,303.646"/>
			<path fill="#31509E" d="M107.334,243.127c3.895-6.594,10.786-8.988,15.579-8.389c17.079,2.392,11.685,25.165,7.49,38.649
				c-3.295,10.487-4.794,23.669-4.794,29.962c0,13.181,4.495,17.076-0.898,22.472c-4.794,4.493-18.276,10.783-29.961,9.286
				c-9.587-2.396-9.887-22.77,5.394-28.166c4.193-10.187,4.193-22.468,3.594-33.252C103.439,265.896,102.84,250.617,107.334,243.127
				"/>
			<path fill="#2797CF" d="M107.334,243.127c3.594-5.69,7.19-5.997,12.883-6.892c-17.978,8.989-8.691,45.838-13.483,69.208
				c3.895,0,6.593,0.302,9.888,1.498c-14.382-1.796-20.674,10.189-22.173,27.867c-8.988-3-9.287-22.773,5.695-28.163
				c4.193-10.188,4.193-22.473,3.594-33.258C103.439,265.896,102.84,250.617,107.334,243.127"/>
			<path fill="#193051" d="M102.24,336.006c1.797-0.3,3.294-0.601,5.094-1.197c-1.499-6.894-0.301-13.784,5.093-19.475
				C104.937,319.526,102.54,327.018,102.24,336.006"/>
			<path fill="#193051" d="M86.961,334.809c1.797-0.302,3.294-0.6,5.092-1.199c-1.498-7.191-0.298-13.78,5.095-19.477
				C89.358,318.33,87.259,326.118,86.961,334.809"/>
		</g>
		<g>
			<path fill="#193051" d="M98.045,207.471c-12.883-8.687-24.569-18.876-32.957-30.86c-1.798-2.693-4.495-5.693-4.495-8.988
				c0-2.996,2.697-6.291,4.495-8.988c7.19-11.386,15.581-23.97,25.467-33.556c6.592-6.592,15.879-13.185,25.466-11.686
				c2.697,0.298,5.093,1.2,7.491,2.697l0.599,0.299l0.599,0.6c1.797,2.399,4.794,8.687,5.094,11.684
				c4.793,26.067-22.471,33.558-25.768,37.153c6.291,5.694,8.39,13.781,14.083,20.075c3.594,4.193,7.19,8.389,11.085,12.582
				c10.187,10.787,7.19,21.572-0.598,32.66l-0.9,1.196l-0.899,0.301c-5.393,1.797-11.085,3.894-16.779,3.294l-1.197-0.296
				l-0.899-0.602c-8.688-6.89-11.085-15.58-9.887-26.067V207.471z"/>
			<path fill="#31509E" d="M98.944,162.531c16.479-5.996,45.541-30.562,26.067-48.84c-7.791-5.691-20.974,6.293-25.768,9.89
				c-9.587,7.188-19.775,20.373-30.56,37.45c-4.495,7.49-5.394,5.995-0.301,13.184c11.686,16.479,30.861,31.159,52.732,41.646
				c-2.695,0-5.691-0.298-8.088-1.196c-2.398,5.392-2.699,9.286,0.599,12.584c-4.794-2.697-6.292-5.992-4.496-13.482l-6.891-4.495
				c-1.199,8.688,0.6,16.178,8.088,22.171c5.394,0.597,11.686-1.797,14.982-2.996c6.592-9.286,10.186-18.875,0.899-27.265
				c-18.875-16.479-19.476-38.648-43.444-39.248C86.961,159.232,94.152,159.833,98.944,162.531"/>
			<path fill="#2797CF" d="M106.435,211.968l-4.195-2.698c-1.199,8.39,0.6,15.881,7.789,21.571
				C106.734,224.849,104.637,218.558,106.435,211.968 M117.821,215.859c-1.5-0.298-3.296-0.597-4.794-1.196
				c-1.5,3.596-2.099,6.294-1.5,8.688C113.027,220.652,114.525,217.957,117.821,215.859z M108.832,116.389
				c-4.195,2.695-7.791,5.693-9.588,7.192c-9.587,7.188-19.775,20.373-30.56,37.45c-4.495,7.49-5.394,5.995-0.301,13.184
				c11.085,15.582,28.765,29.361,49.138,39.849c-15.281-12.883-29.961-25.766-38.951-37.75c-8.988-11.985-5.692-11.985,2.398-24.57
				C89.056,139.46,98.045,127.476,108.832,116.389z"/>
		</g>
		<g>
			<path fill="#193051" d="M201.113,103.505l8.39,16.479l-24.869,4.495l-29.062-10.487l-0.6-0.6
				c-11.385-8.989-20.374-19.774-27.265-32.358c-1.798-3.298-4.194-8.69-4.794-12.283l-2.397-20.973l11.686,17.376
				c8.689,12.582,22.472,23.669,35.953,30.861c7.791,3.894,17.977,9.588,26.966,8.389c0.599,0,1.198,0,1.797-0.298L201.113,103.505z
				"/>
			<path fill="#193051" d="M239.463,96.615c1.2,6.291,0.6,10.487-2.098,16.177c-0.598,1.2-1.496,2.698-2.395,3.597
				c-1.199,1.498-2.698,2.396-4.495,2.097c-3.296-0.599-4.195-4.494-4.195-7.49c0-2.099-0.6-4.495-1.796-5.992l-2.398-3.298
				l3.295-2.095c2.995-1.799,6.291-3.897,9.289-5.691l3.895-2.399L239.463,96.615z"/>
			<path fill="#193051" d="M223.585,69.948c6.89-2.697,14.68-2.994,20.074,2.698c8.39,8.389,5.093,27.562-6.592,31.46
				c-7.49,2.396-18.276,2.396-26.367,3.593c2.698,3.297,5.394,4.795,7.792,5.992c7.188,3.596,12.883,7.192,15.877,15.282
				c3.597,9.588-0.898,19.773-14.679,22.17c-11.984,2.097-11.685,6.893-25.467,1.8c-13.483-5.095-27.266-13.185-38.951-21.275
				c-7.791-5.39-15.279-11.083-22.171-17.377c-11.386-10.185-27.566-25.766-29.961-41.344c-1.2-6.894,0.598-13.785,5.692-18.878
				c1.497-1.499,2.996-2.695,4.794-3.596l0.898-2.695c2.696-8.091,5.991-20.974,10.786-30.86
				c11.684-23.672,30.262-20.075,40.148-1.8c7.79,1.8,13.783,3.297,22.172,7.49l0.299-0.298c2.697-2.698,6.293-5.095,10.188-3.895
				c13.481,2.695,14.979,35.955,13.78,44.943l0.302,0.298c4.492,1.498,8.388,3.594,11.084,6.592L223.585,69.948L223.585,69.948z"/>
			<path fill="#31509E" d="M193.623,95.416c-12.583-2.699-12.583-23.072,2.697-22.469c9.288,0.295,20.973,8.386,31.759,5.393
				c-2.996-0.302-6.292-0.898-9.288-1.199c8.088-5.396,17.079-6.592,21.873-1.499c5.992,6.291,3.895,21.573-5.094,24.566
				c-5.393,1.8-13.783,2.399-19.177,2.399c2.997-2.399,11.386-5.992,17.379-5.694c-5.095-2.097-9.887-1.199-14.382,0.6
				c-22.771,8.989-24.569,13.483-50.935-0.298c-14.381-7.494-28.164-18.875-36.552-31.161c1.798-1.2,4.194-2.695,6.89-0.6
				c-3.894-10.785-25.465-0.299-17.377,14.384c0.599-2.999,0.599-6.596,4.194-6.596c12.584,28.464,34.156,44.346,55.129,55.131
				c14.68,7.491,17.977,11.683,34.457,9.287c2.695-0.299,5.093-0.897,6.891-1.498c8.988-3.295,4.194-10.487-0.6-16.479
				c11.685,7.792,14.681,23.969-2.994,27.263c-12.586,2.4-11.087,6.595-23.073,2.102c-18.274-6.894-42.545-22.471-59.922-38.052
				c-7.491-6.891-26.065-23.671-28.762-38.951c-2.397-14.08,10.187-23.071,23.371-19.476c8.388,2.4,15.581,9.89,20.373,19.774
				c-5.093-16.477-12.883-28.162-32.357-23.37c3.594-11.083,8.688-35.052,18.576-41.645c12.283-8.088,26.365,10.185,34.456,28.762
				c-0.9-5.091-1.8-11.385-4.794-15.879c11.982,2.396,15.879,3.293,23.968,10.188c-0.299-2.996-0.299-3.894-0.6-4.795
				c10.787-11.084,19.476,11.985,17.078,31.762c-24.268-8.392-41.047-6.592-51.533,2.993c18.277-7.488,33.856-5.989,47.339,2.1
				c-3.895-0.6-7.49-0.901-11.385-0.901c8.389,1.2,10.786,1.8,17.977,4.193c4.794,1.499,8.388,3.599,10.487,6.293
				c-5.693,3.596-22.471-8.687-33.858-1.796C173.848,77.736,179.84,96.313,193.623,95.416"/>
			<path fill="#2797CF" d="M129.506,47.778c-3.296-0.301-6.89-0.301-11.385,0.898c3.594-11.087,8.688-35.056,18.576-41.648
				c2.096-1.197,3.894-1.797,5.993-2.096C136.097,15.118,129.806,32.499,129.506,47.778L129.506,47.778L129.506,47.778z"/>
			<path fill="#223C82" d="M197.817,62.459c3.896,0.899,6.592,1.496,11.687,3.292c4.793,1.499,8.387,3.599,10.486,6.293
				c-2.398,1.499-7.192,0-12.283-1.498C206.507,67.853,203.211,65.154,197.817,62.459 M221.187,75.642
				c1.497-0.898,2.997-1.499,4.494-2.098c0.301,0.302,0.6,0.897,0.9,1.199C225.382,75.642,223.284,75.94,221.187,75.642z"/>
			<path fill="#223C82" d="M195.419,58.562c2.398,0.899,4.794,2.099,7.192,3.596c-1.498-0.298-2.996-0.6-4.493-0.6
				C197.219,60.661,196.319,59.461,195.419,58.562"/>
			<path fill="#192E4E" d="M184.333,91.222c-0.297-1.796-0.897-3.596-1.198-5.094c-9.887,0.898-17.975-3.297-26.366-7.189
				c4.195,3.292,8.09,6.589,12.284,9.585c4.793,2.396,9.588,4.494,14.082,6.891C183.735,93.92,184.036,92.717,184.333,91.222"/>
			<path fill="#FFCC00" d="M193.623,95.416c-12.583-2.699-12.583-23.072,2.697-22.469c5.092,0,10.786,2.695,16.778,4.495
				c4.494,1.196,7.191,1.196,8.989,0.596c-1.198-0.301-2.396-0.301-3.296-0.596c8.088-5.396,17.079-6.596,21.873-1.501
				c5.992,6.291,3.895,21.573-5.094,24.569c-5.393,1.797-13.783,2.396-19.177,2.396c5.094-4.195,8.39-5.393,11.386-6.89
				c-2.996,0-5.692,0.6-8.389,1.797c-22.771,8.988-24.569,13.482-50.935-0.299c-14.381-7.49-28.164-18.875-36.552-31.161
				c1.798-1.197,4.194-2.695,6.89-0.6c-3.894-10.782-25.465-0.298-17.377,14.384c0.599-2.996,0.599-6.592,4.194-6.592
				c12.584,28.162,34.156,44.044,55.129,54.829c14.68,7.491,17.977,11.683,34.457,9.287c2.695-0.299,5.093-0.897,6.891-1.498
				c8.988-3.295,4.194-10.487-0.6-16.479c11.685,7.792,14.681,23.969-2.994,27.263c-12.586,2.4-11.087,6.595-23.073,2.102
				c-18.274-6.894-42.545-22.471-59.922-38.052c-7.491-6.891-26.065-23.671-28.762-38.951c-2.397-14.08,10.187-23.071,23.371-19.476
				c8.388,2.4,15.581,9.89,20.373,19.774c-0.298-0.6-0.298-0.898-0.598-1.499c8.689,11.385,19.473,17.978,32.358,20.076
				C184.634,93.618,188.53,95.714,193.623,95.416"/>
			<path fill="#F29100" d="M229.877,128.973c3.294,7.491,0.598,15.578-11.385,17.973c-8.391,1.502-10.487,3.898-14.683,3.898
				c0-8.391,16.18-7.192,21.573-11.085C228.377,137.361,229.577,133.468,229.877,128.973"/>
			<path fill="#F29100" d="M234.369,72.344c2.398,0.302,4.495,1.2,6.294,2.999c5.992,6.291,3.895,21.57-5.094,24.566
				c-0.301,0-0.301,0-0.599,0.298C241.86,92.419,240.961,79.237,234.369,72.344"/>
			<path fill="#FFEB00" d="M211.898,100.208c-16.178,6.894-20.372,8.989-43.743-3.294c-8.987-4.792-17.976-11.086-25.465-18.275
				C168.155,99.31,191.227,106.2,211.898,100.208"/>
			<path fill="#FFEB00" d="M189.428,93.618c-8.091-5.694-6.292-21.274,6.891-20.973c0.899,0,2.097,0,2.996,0.301
				C190.327,75.642,186.731,82.532,189.428,93.618"/>
			<path fill="#FFEB00" d="M193.025,147.848c-17.979-7.491-41.049-22.173-57.528-36.852c-7.491-6.891-26.065-23.671-28.762-38.951
				c-2.098-13.483,8.988-22.173,20.973-20.072c-9.886,2.396-14.38,8.687-14.68,15.879
				C111.527,95.416,164.561,133.766,193.025,147.848"/>
			<path fill="#FFFFFF" d="M228.677,105.901c0.6,1.499,0.9,2.996,0.9,4.793c0.3,6.592,2.996,4.494,4.792,0.301
				c1.2-2.698,2.098-5.095,2.098-7.491c-0.598,0.299-1.497,0.601-2.098,0.899C232.573,105.004,230.775,105.302,228.677,105.901"/>
			<path fill="#2797CF" d="M231.673,114.894c0.9-0.301,2.099-1.8,2.998-3.897c1.198-2.698,2.097-5.095,2.097-7.491
				c-0.6,0.299-1.198,0.601-2.097,0.899C234.671,107.699,233.771,111.294,231.673,114.894"/>
			<path fill="#193051" d="M196.619,81.932c3.594-1.197,6.292,3.596,1.499,5.694c-0.6,1.8,0.298,3.596,3.293,4.193
				C192.724,93.618,192.124,83.434,196.619,81.932"/>
			<path fill="#193051" d="M236.467,80.434c-2.996-0.897-5.092,3-1.199,4.796c0.601,1.496-0.298,2.994-2.695,3.594
				C239.764,90.022,240.063,81.634,236.467,80.434"/>
			<path fill="#E95014" d="M142.689,93.92c9.586,1.496,17.677,4.193,25.166,7.786c2.098,0.901,4.195,2.098,6.292,2.997
				c7.19,3.897,13.484,8.391,19.177,12.886c-1.798-2.996-3.896-5.695-6.592-8.392c2.996,0.6,6.293,0.901,9.29,0.6
				c7.49-0.898,11.685,0.601,17.077,7.491c4.195,4.195,13.781,12.883,7.49,14.98c-1.797,0.6-4.195,1.2-6.291,1.499
				c-5.093,0.599-10.187,0.898-15.279-0.597c-2.398-0.901-4.794-2.099-6.893-3.298c-3.296-1.797-6.292-3.593-9.586-5.094
				C166.659,116.69,153.175,106.8,142.689,93.92"/>
			<path fill="#F29100" d="M157.969,101.109c10.186,2.094,19.774,6.891,28.763,14.079c2.996,2.4,2.097,5.396-1.797,2.099
				C176.246,110.396,167.257,104.105,157.969,101.109"/>
			<path fill="#193051" d="M194.821,107.102c0.3,0,0.598,0,0.899-0.302c1.198-0.298,2.097-0.6,3.297-1.196
				c2.096-0.901,4.194-0.301,6.291-0.301l3.295,0.301l-0.299,3.593c-0.299,2.399-1.499,5.094-2.697,7.192
				c-1.798,2.999-5.692,8.988-9.586,7.192c-2.996-1.2-2.996-5.095-2.398-7.792c0.299-1.796,0-2.996-0.299-4.792l-0.899-3.297
				L194.821,107.102z"/>
			<path fill="#FFFFFF" d="M196.021,110.396c0.598,2.097,0.897,3.596,0.598,5.992c-1.498,10.486,7.79-1.2,8.388-7.491
				c-1.796,0-3.596-0.599-4.794,0c-1.196,0.6-2.095,0.898-3.295,1.2C196.319,110.098,196.021,110.396,196.021,110.396"/>
			<path fill="#2797CF" d="M199.615,119.083c2.397-2.394,4.793-7.19,5.392-10.186c-1.198,0-2.095-0.298-2.994-0.298
				C202.013,112.195,201.712,115.49,199.615,119.083"/>
			<path fill="#193051" d="M131.002,52.57c5.695-7.49,7.791-18.275,9.889-29.064c-0.898-1.196-4.495-2.094-3.296-3.894
				c5.393,0,8.988,2.698,12.285,6.294c5.693,5.992,10.487,17.075,13.481,25.467c1.8,4.494,0.9,3.295-9.586,1.796
				C146.583,52.57,138.792,52.57,131.002,52.57"/>
			<path fill="#FFFFFF" d="M136.697,49.275c5.993,0,11.684,0.298,17.676,1.197c1.798,0.301,3.596,0.6,5.393,0.901
				c-2.996-7.491-7.19-17.38-12.285-23.071c-1.198-1.2-2.396-2.396-3.895-3.297C142.389,33.095,140.591,41.786,136.697,49.275"/>
			<path fill="#193051" d="M147.182,33.396c2.998,0,5.395,3.294,5.395,7.49c0,4.193-2.397,7.491-5.395,7.491
				c-2.995,0-5.393-3.297-5.393-7.491C141.789,36.691,144.187,33.396,147.182,33.396"/>
			<path fill="#193051" d="M198.417,32.499c-6.292,5.392-9.887,11.384-11.984,19.773c-0.6,3.294,2.098,4.793,5.094,3.895
				c2.697,0.899,5.093,2.099,8.089,1.8c2.397,0,4.793-1.203,5.094-3.596c-0.6-5.396-2.398-13.785-1.798-19.476
				C204.109,32.797,201.712,28.902,198.417,32.499"/>
			<path fill="#FFFFFF" d="M201.411,54.37c-0.598-5.694-2.394-12.584-1.796-18.279c-4.794,5.094-8.389,9.887-9.888,17.079v0.302
				c0.301,0,0.899,0,1.198,0l0.899-0.302l0.899,0.302c2.097,0.597,4.495,1.796,6.891,1.796
				C199.615,54.97,201.113,54.668,201.411,54.37"/>
			<path fill="#193051" d="M203.511,59.162c1.199-0.6,2.096-1.196,3.294-1.796c-8.687-3.895-18.275-5.095-28.163-5.393
				c1.797,0.897,3.896,1.796,5.691,2.396C190.626,55.867,197.219,57.366,203.511,59.162"/>
			<path fill="#193051" d="M194.223,40.887c2.396,0,4.194,2.695,4.194,5.691c0,3.294-1.797,5.694-4.194,5.694
				c-2.398,0-4.194-2.698-4.194-5.694C189.728,43.283,191.825,40.887,194.223,40.887"/>
		</g>
	</g>
</g>
</svg>
