<svg width="217" height="306" viewBox="0 0 217 306" fill="none" xmlns="http://www.w3.org/2000/svg">
<path d="M214.885 90.7237C215.903 90.3811 216.999 91.1289 216.974 92.2031C215.804 140.891 175.969 180 127 180C77.2944 180 37 139.706 37 90C37 41.1055 75.99 1.31758 124.574 0.0320555C125.708 0.00205407 126.457 1.20418 126.004 2.24396C94.3826 74.794 131.772 118.681 214.885 90.7237Z" fill="#FFD024"/>
<path d="M214.885 90.7237C215.903 90.3811 217 91.1223 216.98 92.1966C216.485 118.451 206.779 144.244 163 153C100 162 64 103.706 64 54C64 6.38016 105.303 0.440369 124.597 0.0257213C125.731 0.00135082 126.457 1.20418 126.004 2.24396C94.3826 74.794 131.772 118.681 214.885 90.7237Z" fill="#FFD849"/>
<ellipse opacity="0.6" cx="64" cy="63" rx="9" ry="9" fill="#EBB400"/>
<ellipse opacity="0.6" cx="59.5" cy="94.5" rx="4.5" ry="4.5" fill="#EBB400"/>
<ellipse opacity="0.6" cx="185.5" cy="130.5" rx="4.5" ry="4.5" fill="#EBB400"/>
<path d="M120.867 295.782C120.867 293.452 122.756 291.563 125.086 291.563H186.208C188.537 291.563 190.426 293.452 190.426 295.782C190.426 298.111 188.537 300 186.208 300H125.086C122.756 300 120.867 298.111 120.867 295.782Z" fill="#FFD024"/>
<path d="M120.867 295.782C120.867 293.452 122.756 291.563 125.086 291.563H172.139L183.59 300H125.086C122.756 300 120.867 298.111 120.867 295.782Z" fill="#FFC800"/>
<path d="M129.756 284.66H181.538V291.563H129.756V284.66Z" fill="#F3F2F2"/>
<path d="M129.756 284.66H163.552L172.14 291.563H129.756V284.66Z" fill="#E6E6E6"/>
<path d="M129.756 278.525H181.538V284.661H129.756V278.525Z" fill="#B2670E"/>
<path d="M129.756 278.525H156.109C160.434 282.194 162.216 283.672 163.552 284.661H129.756V278.525Z" fill="#824A0A"/>
<path d="M129.756 222.17C129.756 220.467 131.137 219.085 132.841 219.085H178.453C180.157 219.085 181.538 220.467 181.538 222.17V275.44C181.538 277.144 180.157 278.525 178.453 278.525H132.841C131.137 278.525 129.756 277.144 129.756 275.44V222.17Z" fill="#62D2E5"/>
<path d="M129.756 236.583C129.756 236.583 130.589 256.255 149.097 271.964C151.497 274.001 150.153 278.525 147.006 278.525H132.841C131.137 278.525 129.756 277.144 129.756 275.44V236.583Z" fill="#43C9E0"/>
<rect x="120.868" y="267.02" width="69.5585" height="11.5044" rx="1.92808" fill="#C0EDF5"/>
<path d="M120.868 268.949C120.868 267.884 121.731 267.02 122.796 267.02H144.085C149.494 272.824 152.18 275.435 156.109 278.525H122.796C121.731 278.525 120.868 277.662 120.868 276.597V268.949Z" fill="#A1E4F0"/>
<rect x="162.989" y="244.395" width="1.54574" height="10.354" rx="0.772871" fill="#E0F6FA"/>
<rect x="166.467" y="242.478" width="1.15931" height="10.354" rx="0.579656" fill="#E0F6FA"/>
<rect x="174.969" y="245.162" width="1.15931" height="12.2714" rx="0.579654" fill="#E0F6FA"/>
<rect x="161.83" y="235.959" width="15.4574" height="10.7375" rx="3.08493" fill="#C0EDF5"/>
<path d="M129.755 121.012H181.537V130.895H129.755V121.012Z" fill="#B2670E"/>
<path d="M129.588 121.012H145.983L160.738 130.904H129.588V121.012Z" fill="#824A0A"/>
<path d="M124.731 81.416V47.7124C124.731 43.453 128.184 40 132.444 40L178.849 40C183.108 40 186.561 43.453 186.561 47.7124V81.416H124.731Z" fill="#4F4E4E"/>
<path d="M124.731 81.6524C124.731 64.5786 138.573 50.7375 155.646 50.7375C172.72 50.7375 186.561 64.5786 186.561 81.6524V117.825C186.561 119.955 184.835 121.681 182.705 121.681H128.588C126.458 121.681 124.731 119.955 124.731 117.825V81.6524Z" fill="#B2670E"/>
<path d="M124.731 58.4071V47.7124C124.731 43.453 128.184 40 132.444 40L178.849 40C183.108 40 186.561 43.4529 186.561 47.7124V58.4071L124.731 58.4071Z" fill="#333232"/>
<path d="M124.731 89.8526H186.561V117.825C186.561 119.955 184.835 121.681 182.705 121.681H128.588C126.458 121.681 124.731 119.955 124.731 117.825V89.8526Z" fill="#4F4E4E"/>
<path d="M124.998 89.7754C124.038 96.1946 135.447 113.447 146.966 121.663H128.854C126.724 121.663 124.998 119.937 124.998 117.807V89.7754Z" fill="#333232"/>
<path d="M141.082 92.2429C141.205 92.3003 141.323 92.3653 141.446 92.4223L161.361 101.638C162.287 102.066 162.987 102.907 162.866 103.918C162.679 105.466 161.785 107.821 158.379 109.536C152.871 112.309 136.814 109.536 136.814 99.5569C136.814 90.7857 140.25 91.8555 141.082 92.2429Z" fill="white"/>
<path d="M141.685 92.5369L144.826 93.9558C144.826 93.9558 145.697 97.4351 144.825 97.9272C143.54 98.6523 141.511 98.0913 140.987 97.9272C138.848 97.2566 141.685 92.5369 141.685 92.5369Z" fill="#FFD024"/>
<path d="M139.416 75.3335C139.416 71.4919 142.53 68.3776 146.372 68.3776C150.213 68.3776 153.328 71.4919 153.328 75.3335V79.4454C153.328 83.287 150.213 86.4012 146.372 86.4012C142.53 86.4012 139.416 83.287 139.416 79.4454V75.3335Z" fill="white"/>
<path d="M144.826 76.0709C144.826 74.3636 146.21 72.9794 147.917 72.9794C149.625 72.9794 151.009 74.3636 151.009 76.0709V79.0915C151.009 80.7989 149.625 82.183 147.917 82.183C146.21 82.183 144.826 80.7989 144.826 79.0915V76.0709Z" fill="#333232"/>
<ellipse cx="149.918" cy="74.1569" rx="2.62314" ry="2.60307" fill="white"/>
<rect x="157.965" y="68.3777" width="13.9117" height="18.0236" rx="6.95585" fill="white"/>
<path d="M160.284 76.0709C160.284 74.3635 161.668 72.9794 163.375 72.9794C165.083 72.9794 166.467 74.3635 166.467 76.0709V79.0915C166.467 80.7988 165.083 82.183 163.375 82.183C161.668 82.183 160.284 80.7988 160.284 79.0915V76.0709Z" fill="#333232"/>
<ellipse cx="165.001" cy="74.1569" rx="2.62313" ry="2.60307" fill="white"/>
<rect width="14.8331" height="6.21466" transform="matrix(-0.996252 -0.0864942 -0.0878223 0.996136 153.835 81.134)" fill="#B2670E"/>
<rect width="12.8849" height="3.2412" transform="matrix(0.966419 -0.256971 0.260678 0.965426 159.745 84.9353)" fill="#B2670E"/>
<path d="M138.643 66.461C138.643 65.3297 139.357 64.3111 140.44 63.9846C144.697 62.7013 147.689 62.6674 151.951 63.9804C153.016 64.3084 153.714 65.3147 153.714 66.429C153.714 68.3739 151.684 69.6225 149.815 69.0836C147.273 68.3504 145.077 68.3714 142.521 69.1162C140.656 69.6598 138.643 68.4036 138.643 66.461Z" fill="#824A24"/>
<path d="M156.805 63.804C156.805 62.6914 157.469 61.6771 158.512 61.2898C163.289 59.5162 166.568 59.4691 171.356 61.2834C172.385 61.6735 173.036 62.6803 173.036 63.7812C173.036 65.7978 170.944 67.1056 169.009 66.5403C166.144 65.7039 163.699 65.7131 160.816 66.5588C158.885 67.125 156.805 65.8157 156.805 63.804Z" fill="#824A24"/>
<rect x="153.714" y="75.2802" width="3.86436" height="16.1062" rx="1.93218" fill="#824A24"/>
<path d="M154.98 84.4791C155.277 83.9679 156.016 83.9679 156.313 84.4791L160.327 91.3777C160.626 91.8919 160.255 92.5368 159.66 92.5368H151.633C151.038 92.5368 150.667 91.8919 150.966 91.3777L154.98 84.4791Z" fill="#824A24"/>
<ellipse cx="188.107" cy="85.6342" rx="6.56941" ry="6.51917" fill="#B2670E"/>
<ellipse cx="123.186" cy="85.6342" rx="6.56941" ry="6.51917" fill="#B2670E"/>
<rect x="120.867" y="87.5517" width="2.31861" height="2.68436" rx="1.15931" fill="#FFD024"/>
<rect x="188.107" y="87.5517" width="2.31861" height="2.68436" rx="1.15931" fill="#FFD024"/>
<path d="M130.559 50.6232C130.559 50.6232 127.299 49.8735 124.732 48.6283C123.397 57.7094 121.139 63.0678 118.651 71.276C118.155 72.9132 119.126 74.62 120.78 75.0596C122.419 75.4955 124.107 74.5212 124.549 72.8834L130.559 50.6232Z" fill="#333232"/>
<path d="M127.823 45.7522H134.006V72.7705C134.006 74.4743 132.618 75.8554 130.914 75.8554C129.211 75.8554 127.823 74.4743 127.823 72.7705V45.7522Z" fill="#333232"/>
<path d="M133.233 56.2979H139.416V83.3162C139.416 85.02 138.028 86.4012 136.325 86.4012C134.621 86.4012 133.233 85.02 133.233 83.3162V56.2979Z" fill="#333232"/>
<rect x="116.616" y="133.953" width="78.0601" height="10.354" rx="3.08493" fill="#209F15"/>
<rect x="116.616" y="133.953" width="22.9015" height="10.354" rx="3.08493" fill="#209F15"/>
<path d="M127.823 129.36C127.823 128.508 128.514 127.817 129.365 127.817H181.541C182.393 127.817 183.083 128.508 183.083 129.36V132.41C183.083 133.262 182.393 133.953 181.541 133.953H129.365C128.514 133.953 127.823 133.262 127.823 132.41V129.36Z" fill="black"/>
<path d="M129.755 133.953H181.538V211.782C181.538 213.486 180.156 214.867 178.453 214.867H132.84C131.136 214.867 129.755 213.486 129.755 211.782V133.953Z" fill="black"/>
<path d="M107.56 155.549C104.305 158.597 104.305 163.763 107.56 166.81L129.718 187.551C134.645 192.163 142.701 188.67 142.701 181.921V140.439C142.701 133.69 134.645 130.196 129.718 134.809L107.56 155.549Z" fill="black"/>
<path d="M138.322 174.375H159.314V191.409C159.314 192.46 158.462 193.313 157.41 193.313H140.227C139.175 193.313 138.322 192.46 138.322 191.409V174.375Z" fill="#FFDF6D"/>
<rect x="135.49" y="167.868" width="26.6559" height="7.05386" rx="1.04495" fill="#FFDF6D"/>
<rect width="8.0112" height="2.0028" rx="1.0014" transform="matrix(0.709813 -0.704391 0.709813 0.704391 149.707 179.831)" fill="#FFD024"/>
<rect width="8.01119" height="2.0028" rx="1.0014" transform="matrix(0.709814 0.704389 -0.709814 0.704389 151.129 174.188)" fill="#FFD024"/>
<rect width="8.01124" height="2.00281" rx="1.00141" transform="matrix(0.709809 -0.704394 0.709809 0.704394 140.822 179.831)" fill="#FFD024"/>
<rect width="8.01124" height="2.00281" rx="1.00141" transform="matrix(0.709809 0.704394 -0.709809 0.704394 142.243 174.188)" fill="#FFD024"/>
<path d="M138.156 166.249C138.156 162.332 141.331 159.156 145.249 159.156H152.387C156.305 159.156 159.48 162.332 159.48 166.249V167.974H138.156V166.249Z" fill="white"/>
<path d="M155.906 155.366C157.141 155.408 157.743 157.599 156.604 158.078C151.818 160.095 150.825 160.638 151.297 165.271C151.402 166.311 150.092 166.912 149.409 166.118L144.851 160.829C144.511 160.434 144.517 159.846 144.875 159.465C149.437 154.611 151.562 155.217 155.906 155.366Z" fill="white"/>
<ellipse cx="148.785" cy="192.335" rx="12.4599" ry="12.3646" fill="#B2670E"/>
<path d="M169.751 134.724C169.751 134.298 170.097 133.953 170.523 133.953H182.096C182.237 133.953 182.377 133.993 182.497 134.066C215.79 154.183 222.89 172.788 193.549 225.583C193.414 225.828 193.151 225.988 192.871 225.988H170.523C170.097 225.988 169.751 225.643 169.751 225.217V134.724Z" fill="#209F15"/>
<path d="M168.013 134.724C168.013 134.298 168.358 133.953 168.784 133.953H171.104V225.988H168.784C168.358 225.988 168.013 225.643 168.013 225.217V134.724Z" fill="#156A0E"/>
<rect x="190.426" y="224.071" width="3.09148" height="20.3245" rx="1.54574" fill="#209F15"/>
<rect x="188.107" y="214.867" width="3.09149" height="20.3245" rx="1.54575" fill="#209F15"/>
<rect x="176.127" y="219.085" width="3.09149" height="20.3245" rx="1.54574" fill="#209F15"/>
<path d="M142.249 134.724C142.249 134.298 141.903 133.953 141.477 133.953H129.904C129.763 133.953 129.623 133.993 129.503 134.066C96.2104 154.183 89.11 172.788 118.451 225.583C118.586 225.828 118.849 225.988 119.129 225.988H141.477C141.903 225.988 142.249 225.643 142.249 225.217V134.724Z" fill="#209F15"/>
<path d="M142.249 134.724C142.249 134.298 141.903 133.953 141.477 133.953H129.904C129.763 133.953 129.623 133.993 129.503 134.066C96.2104 154.183 89.11 172.788 118.451 225.583C118.586 225.828 118.849 225.988 119.129 225.988H141.477C141.903 225.988 142.249 225.643 142.249 225.217V134.724Z" fill="#209F15"/>
<path d="M143.987 134.724C143.987 134.298 143.642 133.953 143.216 133.953H140.896V225.988H143.216C143.642 225.988 143.987 225.643 143.987 225.217V134.724Z" fill="#156A0E"/>
<rect width="3.09149" height="20.3245" rx="1.54574" transform="matrix(-1 0 0 1 121.574 224.071)" fill="#209F15"/>
<rect width="3.09149" height="20.3245" rx="1.54574" transform="matrix(-1 0 0 1 123.893 214.867)" fill="#209F15"/>
<rect width="3.09149" height="20.3245" rx="1.54574" transform="matrix(-1 0 0 1 135.873 219.085)" fill="#209F15"/>
<path d="M104 303C104 301.343 105.343 300 107 300H205C206.657 300 208 301.343 208 303C208 304.657 206.657 306 205 306H107C105.343 306 104 304.657 104 303Z" fill="#E6E6E6"/>
<path d="M81.5087 274.561C81.5087 280.073 76.958 284.541 71.3444 284.541C65.7307 284.541 61.18 280.073 61.18 274.561C61.18 269.049 65.7307 264.581 71.3444 264.581C76.958 264.581 81.5087 269.049 81.5087 274.561Z" fill="#FC4EA8"/>
<path d="M62.9063 290.796C60.2968 292.171 57.1375 289.887 57.7507 287.042C59.3212 279.756 60.5953 273.713 62.1918 270.264C62.8757 268.787 64.7017 268.603 66.0418 269.552L77.7955 277.88C79.152 278.841 79.5777 280.652 78.3558 281.774C75.3818 284.504 69.7893 287.168 62.9063 290.796Z" fill="#FC4EA8"/>
<path d="M81.5083 274.56C81.5083 280.072 65.344 291.194 61.1797 291.194C54.4948 291.194 57.8653 277.923 61.1796 271.234C64.5529 264.426 71.3278 264.414 71.3438 264.581C71.3598 264.747 81.5083 269.049 81.5083 274.56Z" fill="#FF7171"/>
<path d="M81.508 274.561C81.508 281.214 61.7298 291.234 61.1793 291.194C54.9824 290.753 65.7818 264.143 71.3437 264.581C76.9573 264.581 81.5081 269.049 81.508 274.561Z" fill="#FFB349"/>
<path d="M81.5092 274.561C81.5092 287.867 62.3834 291.349 61.1803 291.194C59.9772 291.039 71.6433 264.942 74.7331 265.179C75.219 265.217 81.5092 267.438 81.5092 274.561Z" fill="#FFD849"/>
<path d="M81.5084 274.561C81.5083 283.154 69.1389 290.677 61.9454 291.194C61.683 291.213 61.4274 291.194 61.1796 291.194C73.1271 282.045 76.4263 265.911 76.4263 265.911C76.4263 265.911 81.5085 267.907 81.5084 274.561Z" fill="#70DE66"/>
<path d="M81.5076 274.527C81.5086 286.203 67.956 291.193 61.5186 291.193C81.5085 284.54 78.1198 266.975 78.1198 266.975C78.1198 266.975 81.5072 269.181 81.5076 274.527Z" fill="#43C9E0"/>
<path d="M49.9703 277.312H62.5859V294.648H49.9703V277.312Z" fill="#F3F2F2"/>
<path d="M35.252 277.312H47.8677V294.337H35.252V277.312Z" fill="#F3F2F2"/>
<path d="M48.919 287.957C37.3066 287.957 27.8929 278.425 27.8929 266.668V260.281C27.8929 248.524 37.3066 238.992 48.919 238.992C60.5314 238.992 69.945 248.524 69.945 260.281V266.668C69.945 278.425 60.5314 287.957 48.919 287.957Z" fill="#F3F2F2"/>
<path d="M29.5291 247.508L38.4497 256.54L26.6008 268.578L17.7339 259.6L29.5291 247.508Z" fill="#F3F2F2"/>
<path d="M68.3526 247.508L59.432 256.54L71.4284 268.578L80.2954 260.099L68.3526 247.508Z" fill="#F3F2F2"/>
<path d="M35.2518 282.846L47.8674 287.93L47.8674 297.536C47.8674 298.712 46.9261 299.665 45.7648 299.665H37.3544C36.1932 299.665 35.2518 295.806 35.2518 294.63V282.846Z" fill="#E6E6E6"/>
<path d="M47.8674 287.93C36.255 287.93 27.8927 278.994 27.8927 267.236V260.281C27.8927 248.524 29.5289 247.508 29.5289 247.508C27.9448 269.315 47.8674 287.93 47.8674 287.93Z" fill="#E6E6E6"/>
<path d="M29.5289 247.508L27.8927 267.236L26.5023 268.648C26.5023 268.648 18.4073 260.431 17.5862 259.6L29.5289 247.508Z" fill="#E6E6E6"/>
<path d="M49.97 289.803C52.1123 292.504 53.9136 294.259 55.9522 295.793C57.6909 297.101 56.9023 300 54.7264 300H52.1041C50.9255 300 49.97 299.044 49.97 297.866V289.803Z" fill="#E6E6E6"/>
<path d="M49.97 294.633H62.5856V297.866C62.5856 299.044 61.6301 300 60.4515 300H52.1041C50.9255 300 49.97 299.044 49.97 297.866V294.633Z" fill="#FD81C1"/>
<path d="M49.97 294.633H54.5C54.5 294.633 60.7006 300 60.483 300C60.1134 300 55.0652 300 52.101 300C50.9224 300 49.97 299.044 49.97 297.866V294.633Z" fill="#FD68B5"/>
<path d="M35.2518 294.633H47.8675V297.866C47.8675 299.044 46.912 300 45.7333 300H37.386C36.2073 300 35.2518 299.044 35.2518 297.866V294.633Z" fill="#FD68B5"/>
<path d="M17.6348 259.551L26.5441 268.67L24.3233 270.943C23.4996 271.786 22.1641 271.786 21.3404 270.943L15.414 264.877C14.5903 264.034 14.5903 262.667 15.414 261.824L17.6348 259.551Z" fill="#FD68B5"/>
<path d="M20.608 265.622L19.6654 269.214L17.0903 266.585L20.608 265.622Z" fill="#FD9BCE"/>
<path d="M79.8029 259.6L71.3255 268.658L73.5491 270.928C74.3738 271.77 75.711 271.77 76.5357 270.928L82.373 264.969C83.2345 264.089 83.1903 262.65 82.2765 261.827L79.8029 259.6Z" fill="#FD81C1"/>
<path d="M77.2725 265.622L78.2151 269.214L80.7902 266.584L77.2725 265.622Z" fill="#FEB4DA"/>
<path d="M20.4084 185.506H78.6682L93.7119 231.78C96.5519 240.516 90.1253 249.508 81.042 249.508H18.0345C8.95127 249.508 2.52471 240.516 5.36468 231.78L20.4084 185.506Z" fill="#F3F2F2"/>
<path d="M25.7827 171.682C26.7905 169.083 30.3013 168.775 31.7351 171.16L40.4242 185.613H20.3807L25.7827 171.682Z" fill="#F3F2F2"/>
<path d="M67.5625 171.34C68.9895 168.915 72.5508 169.229 73.5433 171.866L78.7965 185.901H59.4914L67.5625 171.34Z" fill="#F3F2F2"/>
<path d="M26.9355 170.194C19.6879 190.33 22.3939 221.691 22.562 222.223C22.7302 222.756 2.70518 239.921 5.53425 231.261C20.7779 183.555 25.1351 170.815 26.9355 170.194Z" fill="#E6E6E6"/>
<ellipse cx="70.9958" cy="186.835" rx="3.15391" ry="3.19331" fill="white"/>
<ellipse cx="75.7269" cy="193.754" rx="1.57695" ry="1.59665" fill="white"/>
<path d="M59.4318 248.572H69.9448V253.96C69.9448 256.863 67.5914 259.217 64.6883 259.217C61.7852 259.217 59.4318 256.863 59.4318 253.96V248.572Z" fill="#FFB8B8"/>
<path d="M62.9359 248.572H66.2558V253.635C66.2558 254.552 65.5126 255.295 64.5959 255.295C63.6791 255.295 62.9359 254.552 62.9359 253.635V248.572Z" fill="#FF8D8D"/>
<path d="M8.41674 224.356C40.9923 217.43 59.2586 217.533 91.8344 224.356L94.4135 232.495C97.1796 241.223 90.6638 250.123 81.5074 250.123L18.8205 250.123C9.71246 250.124 3.20266 241.311 5.87989 232.605L8.41674 224.356Z" fill="#FD81C1"/>
<path d="M7.78264 224.188C18.1811 221.991 22.8861 221.644 22.8861 221.644C24.4938 235.978 38.3842 250.014 38.9163 250.123H17.7698C8.82926 250.123 2.10518 241.542 4.75084 233.002C5.59736 230.27 6.55951 227.431 7.78264 224.188Z" fill="#FD68B5"/>
<rect x="38.4055" y="227.284" width="9.46173" height="11.7088" rx="4.73086" fill="#FC4EA8"/>
<rect x="49.9698" y="227.284" width="9.46173" height="11.7088" rx="4.73086" fill="#FC4EA8"/>
<rect x="49.97" y="197.48" width="14.7182" height="21.2887" rx="7.35912" fill="#333232"/>
<rect x="52.0726" y="202.802" width="7.35912" height="10.6444" rx="3.67956" fill="white"/>
<rect x="33.1492" y="197.48" width="14.7182" height="21.2887" rx="7.35912" fill="#333232"/>
<rect x="38.4056" y="202.802" width="7.35912" height="10.6444" rx="3.67956" fill="white"/>
<path d="M59.8526 185.144C59.8526 190.656 55.3019 195.124 49.6882 195.124C44.0746 195.124 39.5239 190.656 39.5239 185.144C39.5239 179.632 44.0746 175.164 49.6882 175.164C55.3019 175.164 59.8526 179.632 59.8526 185.144Z" fill="#FC4EA8"/>
<path d="M41.2502 201.379C38.6407 202.754 35.4814 200.47 36.0946 197.625C37.665 190.339 38.9392 184.295 40.5357 180.847C41.2195 179.369 43.0456 179.186 44.3857 180.135L56.1393 188.463C57.4959 189.424 57.9216 191.235 56.6996 192.357C53.7256 195.087 48.1331 197.751 41.2502 201.379Z" fill="#FC4EA8"/>
<path d="M59.8528 185.143C59.8528 190.655 43.6885 201.777 39.5241 201.777C32.8393 201.777 36.2098 188.506 39.5241 181.817C42.8974 175.009 49.6723 174.997 49.6883 175.164C49.7043 175.33 59.8528 179.632 59.8528 185.143Z" fill="#FF7171"/>
<path d="M59.8522 185.144C59.8521 191.797 40.0739 201.816 39.5234 201.777C33.3265 201.336 44.1259 174.726 49.6878 175.164C55.3015 175.164 59.8522 179.632 59.8522 185.144Z" fill="#FFB349"/>
<path d="M59.8532 185.143C59.8532 198.45 40.7274 201.932 39.5243 201.777C38.3212 201.622 49.9873 175.524 53.0771 175.762C53.563 175.8 59.8532 178.02 59.8532 185.143Z" fill="#FFD849"/>
<path d="M59.8524 185.143C59.8523 193.737 47.4829 201.26 40.2894 201.777C40.0269 201.795 39.7714 201.777 39.5236 201.777C51.4711 192.628 54.7703 176.494 54.7703 176.494C54.7703 176.494 59.8525 178.49 59.8524 185.143Z" fill="#70DE66"/>
<path d="M59.8516 185.11C59.8526 196.786 46.3 201.776 39.8625 201.776C59.8524 195.123 56.4638 177.558 56.4638 177.558C56.4638 177.558 59.8512 179.764 59.8516 185.11Z" fill="#43C9E0"/>
<path d="M46.4186 146.071C47.338 143.839 50.4998 143.839 51.4192 146.071L59.2171 165.006C59.9501 166.786 58.6416 168.74 56.7168 168.74H41.121C39.1962 168.74 37.8877 166.786 38.6207 165.006L46.4186 146.071Z" fill="#FFD849"/>
<path d="M44.7135 150.219C44.1769 160.056 46.574 164.059 55.2265 168.74H41.5596C39.9093 168.862 37.88 167.143 38.4057 165.546C38.9313 163.95 44.7135 150.219 44.7135 150.219Z" fill="#FFD024"/>
<ellipse cx="43.7595" cy="161.909" rx="0.854181" ry="0.833037" fill="#EBB400"/>
<ellipse cx="50.5075" cy="153.579" rx="2.13546" ry="2.08259" fill="#EBB400"/>
<rect x="19" y="300" width="62" height="6" rx="3" fill="#E6E6E6"/>
</svg>
