<svg width="100" height="161" viewBox="0 0 100 161" fill="none" xmlns="http://www.w3.org/2000/svg">
<path d="M81.5087 134.957C81.5087 140.469 76.958 144.937 71.3444 144.937C65.7307 144.937 61.18 140.469 61.18 134.957C61.18 129.446 65.7307 124.977 71.3444 124.977C76.958 124.977 81.5087 129.446 81.5087 134.957Z" fill="#FC4EA8"/>
<path d="M62.9063 151.192C60.2968 152.567 57.1375 150.283 57.7507 147.438C59.3211 140.152 60.5953 134.109 62.1918 130.66C62.8756 129.183 64.7017 128.999 66.0418 129.948L77.7955 138.276C79.152 139.238 79.5777 141.048 78.3558 142.17C75.3817 144.901 69.7893 147.564 62.9063 151.192Z" fill="#FC4EA8"/>
<path d="M81.5083 134.957C81.5083 140.468 65.344 151.59 61.1797 151.59C54.4948 151.59 57.8653 138.319 61.1796 131.63C64.5529 124.822 71.3278 124.81 71.3438 124.977C71.3598 125.143 81.5083 129.445 81.5083 134.957Z" fill="#FF7171"/>
<path d="M81.5081 134.957C81.5081 141.611 61.7299 151.63 61.1793 151.59C54.9825 151.149 65.7819 124.539 71.3438 124.977C76.9574 124.977 81.5081 129.446 81.5081 134.957Z" fill="#FFB349"/>
<path d="M81.5092 134.957C81.5092 148.263 62.3834 151.745 61.1803 151.59C59.9772 151.435 71.6433 125.338 74.7331 125.576C75.219 125.613 81.5092 127.834 81.5092 134.957Z" fill="#FFD849"/>
<path d="M81.5084 134.957C81.5082 143.55 69.1389 151.073 61.9454 151.59C61.6829 151.609 61.4274 151.59 61.1795 151.59C73.1271 142.441 76.4263 126.307 76.4263 126.307C76.4263 126.307 81.5084 128.303 81.5084 134.957Z" fill="#70DE66"/>
<path d="M81.5077 134.923C81.5086 146.6 67.956 151.589 61.5186 151.589C81.5085 144.936 78.1199 127.372 78.1199 127.372C78.1199 127.372 81.5072 129.577 81.5077 134.923Z" fill="#43C9E0"/>
<path d="M49.9704 137.708H62.586V155.045H49.9704V137.708Z" fill="#F3F2F2"/>
<path d="M35.2521 137.708H47.8678V154.734H35.2521V137.708Z" fill="#F3F2F2"/>
<path d="M48.9191 148.353C37.3067 148.353 27.893 138.821 27.893 127.064V120.677C27.893 108.92 37.3067 99.3886 48.9191 99.3886C60.5314 99.3886 69.9451 108.92 69.9451 120.677V127.064C69.9451 138.821 60.5314 148.353 48.9191 148.353Z" fill="#F3F2F2"/>
<path d="M29.5292 107.904L38.4498 116.936L26.6009 128.974L17.734 119.996L29.5292 107.904Z" fill="#F3F2F2"/>
<path d="M68.3527 107.904L59.4321 116.936L71.4285 128.974L80.2955 120.495L68.3527 107.904Z" fill="#F3F2F2"/>
<path d="M35.2518 143.242L47.8675 148.326L47.8675 157.932C47.8675 159.108 46.9261 160.061 45.7649 160.061H37.3544C36.1932 160.061 35.2518 156.202 35.2518 155.027V143.242Z" fill="#E6E6E6"/>
<path d="M47.8675 148.326C36.2551 148.326 27.8927 139.39 27.8927 127.633V120.677C27.8927 108.92 29.5289 107.904 29.5289 107.904C27.9448 129.712 47.8675 148.326 47.8675 148.326Z" fill="#E6E6E6"/>
<path d="M29.5289 107.904L27.8927 127.633L26.5024 129.044C26.5024 129.044 18.4073 120.828 17.5862 119.996L29.5289 107.904Z" fill="#E6E6E6"/>
<path d="M49.9701 150.2C52.1124 152.9 53.9137 154.655 55.9523 156.189C57.691 157.497 56.9023 160.396 54.7265 160.396H52.1042C50.9255 160.396 49.9701 159.441 49.9701 158.262V150.2Z" fill="#E6E6E6"/>
<path d="M49.97 155.029H62.5856V158.262C62.5856 159.441 61.6301 160.396 60.4515 160.396H52.1041C50.9255 160.396 49.97 159.441 49.97 158.262V155.029Z" fill="#FD81C1"/>
<path d="M49.97 155.029H54.5001C54.5001 155.029 60.7007 160.396 60.483 160.396C60.1134 160.396 55.0652 160.396 52.101 160.396C50.9224 160.396 49.97 159.441 49.97 158.262V155.029Z" fill="#FD68B5"/>
<path d="M35.2519 155.03H47.8675V158.262C47.8675 159.441 46.912 160.396 45.7334 160.396H37.386C36.2073 160.396 35.2519 159.441 35.2519 158.262V155.03Z" fill="#FD68B5"/>
<path d="M17.6348 119.947L26.5441 129.066L24.3233 131.339C23.4996 132.182 22.1641 132.182 21.3404 131.339L15.414 125.273C14.5903 124.43 14.5903 123.063 15.414 122.22L17.6348 119.947Z" fill="#FD68B5"/>
<path d="M20.608 126.019L19.6655 129.61L17.0903 126.981L20.608 126.019Z" fill="#FD9BCE"/>
<path d="M79.803 119.996L71.3255 129.054L73.5491 131.324C74.3739 132.166 75.711 132.166 76.5358 131.324L82.3731 125.365C83.2346 124.485 83.1904 123.046 82.2766 122.223L79.803 119.996Z" fill="#FD81C1"/>
<path d="M77.2725 126.018L78.2151 129.61L80.7903 126.981L77.2725 126.018Z" fill="#FEB4DA"/>
<path d="M20.4084 45.9019H78.6682L93.7119 92.1761C96.5519 100.912 90.1253 109.904 81.042 109.904H18.0345C8.95127 109.904 2.52472 100.912 5.36468 92.1761L20.4084 45.9019Z" fill="#F3F2F2"/>
<path d="M25.7827 32.0781C26.7905 29.4791 30.3013 29.1714 31.7351 31.5564L40.4242 46.0094H20.3807L25.7827 32.0781Z" fill="#F3F2F2"/>
<path d="M67.5625 31.7362C68.9895 29.3113 72.5508 29.6247 73.5433 32.2625L78.7966 46.2968H59.4914L67.5625 31.7362Z" fill="#F3F2F2"/>
<path d="M26.9355 30.59C19.688 50.7256 22.3939 82.0874 22.5621 82.6196C22.7303 83.1518 2.7052 100.317 5.53427 91.6571C20.7779 43.9506 25.1351 31.2113 26.9355 30.59Z" fill="#E6E6E6"/>
<ellipse cx="70.9958" cy="47.2313" rx="3.15391" ry="3.19331" fill="white"/>
<ellipse cx="75.7268" cy="54.1501" rx="1.57695" ry="1.59665" fill="white"/>
<path d="M59.4317 108.969H69.9448V114.356C69.9448 117.259 67.5913 119.613 64.6882 119.613C61.7852 119.613 59.4317 117.259 59.4317 114.356V108.969Z" fill="#FFB8B8"/>
<path d="M62.9358 108.968H66.2557V114.031C66.2557 114.948 65.5126 115.691 64.5958 115.691C63.679 115.691 62.9358 114.948 62.9358 114.031V108.968Z" fill="#FF8D8D"/>
<path d="M8.41679 84.7522C40.9924 77.8266 59.2586 77.9287 91.8344 84.7522L94.4136 92.891C97.1796 101.62 90.6639 110.52 81.5075 110.52L18.8205 110.52C9.71251 110.52 3.20272 101.707 5.87994 93.0014L8.41679 84.7522Z" fill="#FD81C1"/>
<path d="M7.78264 84.5839C18.1811 82.3867 22.8861 82.0402 22.8861 82.0402C24.4938 96.3741 38.3842 110.41 38.9163 110.52H17.7698C8.82926 110.52 2.10518 101.938 4.75084 93.3983C5.59736 90.6657 6.55951 87.8267 7.78264 84.5839Z" fill="#FD68B5"/>
<rect x="38.4056" y="87.6798" width="9.46173" height="11.7088" rx="4.73086" fill="#FC4EA8"/>
<rect x="49.9699" y="87.6798" width="9.46173" height="11.7088" rx="4.73086" fill="#FC4EA8"/>
<rect x="49.97" y="57.8756" width="14.7182" height="21.2887" rx="7.35912" fill="#333232"/>
<rect x="52.0726" y="63.1979" width="7.35912" height="10.6444" rx="3.67956" fill="white"/>
<rect x="33.1492" y="57.8756" width="14.7182" height="21.2887" rx="7.35912" fill="#333232"/>
<rect x="38.4057" y="63.1979" width="7.35912" height="10.6444" rx="3.67956" fill="white"/>
<path d="M59.8525 45.5402C59.8525 51.0519 55.3018 55.5201 49.6882 55.5201C44.0745 55.5201 39.5238 51.0519 39.5238 45.5402C39.5238 40.0284 44.0745 35.5603 49.6882 35.5603C55.3018 35.5603 59.8525 40.0284 59.8525 45.5402Z" fill="#FC4EA8"/>
<path d="M41.2502 61.7748C38.6406 63.1502 35.4813 60.8662 36.0945 58.0212C37.665 50.7353 38.9391 44.6916 40.5356 41.2428C41.2195 39.7656 43.0455 39.5817 44.3856 40.5312L56.1393 48.8592C57.4958 49.8204 57.9215 51.6311 56.6996 52.753C53.7256 55.4834 48.1331 58.147 41.2502 61.7748Z" fill="#FC4EA8"/>
<path d="M59.8528 45.5395C59.8528 51.0513 43.6884 62.1727 39.5241 62.1727C32.8393 62.1727 36.2098 48.902 39.5241 42.2129C42.8973 35.4047 49.6723 35.3928 49.6883 35.5596C49.7043 35.7264 59.8528 40.0278 59.8528 45.5395Z" fill="#FF7171"/>
<path d="M59.8521 45.5402C59.8521 52.1935 40.0738 62.2126 39.5233 62.1734C33.3264 61.7323 44.1258 35.1222 49.6877 35.5603C55.3014 35.5603 59.8521 40.0285 59.8521 45.5402Z" fill="#FFB349"/>
<path d="M59.8532 45.5395C59.8532 58.846 40.7274 62.3277 39.5243 62.1727C38.3212 62.0177 49.9873 35.9206 53.0771 36.1584C53.563 36.1958 59.8532 38.4165 59.8532 45.5395Z" fill="#FFD849"/>
<path d="M59.8523 45.5395C59.8522 54.1328 47.4829 61.6557 40.2894 62.1727C40.0269 62.1915 39.7713 62.1727 39.5235 62.1727C51.4711 53.0237 54.7702 36.8903 54.7702 36.8903C54.7702 36.8903 59.8524 38.8862 59.8523 45.5395Z" fill="#70DE66"/>
<path d="M59.8516 45.5061C59.8526 57.1824 46.3 62.1723 39.8626 62.1723C59.8525 55.5193 56.4639 37.9544 56.4639 37.9544C56.4639 37.9544 59.8512 40.1602 59.8516 45.5061Z" fill="#43C9E0"/>
<path d="M46.4185 6.46736C47.3379 4.2349 50.4998 4.2349 51.4192 6.46736L59.2171 25.4021C59.95 27.1819 58.6415 29.1359 56.7168 29.1359H41.1209C39.1962 29.1359 37.8876 27.1819 38.6206 25.4021L46.4185 6.46736Z" fill="#FFD849"/>
<path d="M44.7135 10.6147C44.1769 20.4523 46.574 24.455 55.2265 29.1359H41.5596C39.9093 29.2577 37.88 27.5392 38.4057 25.9426C38.9313 24.3459 44.7135 10.6147 44.7135 10.6147Z" fill="#FFD024"/>
<ellipse cx="43.7594" cy="22.305" rx="0.854181" ry="0.833037" fill="#EBB400"/>
<ellipse cx="50.5075" cy="13.9747" rx="2.13546" ry="2.08259" fill="#EBB400"/>
</svg>
