<?xml version="1.0" encoding="UTF-8"?>
<svg width="140px" height="40px" viewBox="0 0 478 130" version="1.1" xmlns="http://www.w3.org/2000/svg" xmlns:xlink="http://www.w3.org/1999/xlink">
    <g id="Page-1" stroke="none" stroke-width="1" fill="none" fill-rule="evenodd">
        <g id="SANT-LOGO">
            <g id="WOLF">
                <path d="M119.706,0.134 L78.222,16.631 L39.556,16.631 L7.10542736e-15,2.84217094e-14 L8.986,54.304 L0.356,83.701 L22.869,97.161 C33.529,103.533 43.076,111.507 51.247,120.859 L60.014,130.892 L69.214,120.342 C77.108,111.287 86.301,103.515 96.537,97.24 L118.615,83.7 L110.665,54.346 L119.706,0.134 Z" id="FOX-SILHOUETTE" fill="#0C0C0B"></path>
                <g id="HALF-FACES" transform="translate(5.000000, 7.000000)">
                    <path d="M53.014,14.7251158 L34.9422099,14.7251158 L0,1.42108547e-13 L7.9378779,48.0808542 L0.314476356,74.1090081 L20.2015724,86.0265151 C29.6181959,91.6682947 38.051639,98.7284879 45.2695781,107.008765 L53.014,115.892 L53.014,14.7251158 Z" id="LEFT-SIDE" fill="#B3A9B6"></path>
                    <path d="M108.014,14.7251158 L90.6239841,14.7251158 L57,2.84217094e-14 L64.6384144,48.0808542 L57.3026125,74.1090081 L76.4394502,86.0265151 C85.5008232,91.6682947 93.6161073,98.7284879 100.561743,107.008765 L108.014,115.892 L108.014,14.7251158 Z" id="RIGHT-SIDE" fill="#878189" transform="translate(82.507000, 57.946000) scale(-1, 1) translate(-82.507000, -57.946000) "></path>
                </g>
                <g id="EARS" transform="translate(9.000000, 12.000000)" stroke="#000000" stroke-width="3">
                    <polygon id="EAR-LEFT" fill="#CC1762" transform="translate(9.887146, 15.404849) scale(-1, 1) translate(-9.887146, -15.404849) " points="19.7742921 0 14.7808342 30.8096976 0 9.06649929"></polygon>
                    <path d="M45,66 C42.2092248,67.8836337 38.690795,70.5081846 34.4447106,73.8736527 C30.1986262,77.2391207 27.0503893,79.9479032 25,82 L25,66 L45,66 Z" id="EAR-LEFT-Copy" fill="#BA1CC5" transform="translate(35.000000, 74.000000) scale(-1, 1) translate(-35.000000, -74.000000) "></path>
                    <path d="M77,66 C74.2092248,67.8836337 70.690795,70.5081846 66.4447106,73.8736527 C62.1986262,77.2391207 59.0503893,79.9479032 57,82 L57,66 L77,66 Z" id="EAR-LEFT-Copy-2" fill="#C51CA7"></path>
                    <polygon id="EAR-RIGHT" fill="#FFE049" points="99.7742921 1 94.7808342 31.8096976 80 10.0664993"></polygon>
                </g>
                <path d="M59.9956021,106.189362 L49.7547543,117.033563 L59.9954679,128.621693 L70.1542026,117.033416 L59.9956021,106.189362 Z" id="NOSE" stroke="#000000" stroke-width="3" fill="#FF9A72"></path>
                <g id="EYES" transform="translate(19.000000, 56.000000)" stroke="#000000" stroke-width="3">
                    <polygon id="LEFT-EYE" fill="#97FE95" transform="translate(16.500000, 5.500000) scale(1, -1) translate(-16.500000, -5.500000) " points="16.5 0 33 11 0 11"></polygon>
                    <polygon id="RIGHT-EYE" fill="#75F8CF" transform="translate(64.500000, 5.500000) scale(1, -1) translate(-64.500000, -5.500000) " points="64.5 0 81 11 48 11"></polygon>
                </g>
            </g>
            <g id="SANT" transform="translate(164.000000, 26.000000)" fill="#0C0C0B">
                <polygon id="Path-Copy" points="205.935 69.788 213.957 69.788 213.957 61.766 205.934 61.766"></polygon>
                <path d="M30.027,8.407 C21.309,8.407 12.004,11.834 12.004,20.16 C12.004,27.605 20.524,29.76 30.614,31.425 C44.327,33.58 57.844,36.323 57.844,51.799 C57.746,67.176 43.054,72.171 29.928,72.171 C17.781,72.171 6.224,67.763 0.934,56.303 L7.986,52.189 C12.396,60.319 21.601,64.237 30.026,64.237 C38.351,64.237 49.419,61.593 49.419,51.504 C49.519,42.982 39.919,40.534 29.634,38.967 C16.411,36.909 3.58,33.873 3.58,19.964 C3.385,5.664 17.98,0.766 29.83,0.766 C40.018,0.766 49.715,2.823 55.787,13.206 L49.323,17.222 C45.601,11.247 37.667,8.504 30.028,8.407 L30.027,8.407 Z" id="Path-Copy-2"></path>
                <path d="M87.271,28.863 C77.671,28.863 69.934,35.72 69.934,46.493 C69.934,57.269 77.672,64.223 87.271,64.223 C110.581,64.223 110.581,28.766 87.369,28.766 L87.271,28.863 Z" id="Path-Copy-3"></path>
                <path d="M104.737,70.1317432 L104.541,61.3167432 C100.721,67.9787432 93.375,71.1127432 86.714,71.1127432 C72.807,71.1127432 61.934,61.5127432 61.934,45.7427432 C61.934,30.0727432 73.004,20.6697432 86.814,20.7667432 C94.062,20.7667432 101.212,24.0967432 104.739,30.3667432 L104.836,21.5507432 L112.672,21.5507432 L112.672,69.9377432 L104.935,69.9377432 L104.74,70.1337432 L104.737,70.1317432 Z" id="Path-Copy-4"></path>
                <path d="M128.867,30.384 C132.981,24.018 139.445,21.864 145.617,21.766 C159.23,21.766 165.891,30.776 165.891,44.096 L165.891,70.74 L157.958,70.74 L157.958,44.197 C157.958,34.697 153.061,29.307 144.246,29.307 C135.43,29.307 128.966,36.263 128.966,45.077 L128.966,70.741 L120.934,70.741 L120.934,21.766 L128.966,21.766 L128.867,30.384 Z" id="Path-Copy-5"></path>
                <path d="M196.067,63.536 C195.432,63.636 194.807,63.694 194.207,63.694 C188.427,63.694 186.567,60.07 186.567,54.389 L186.567,29.449 L196.874,29.449 L196.874,22.489 L186.664,22.489 L186.664,7.766 L178.631,8.646 L178.631,22.49 L168.934,22.49 L168.934,29.45 L178.63,29.45 L178.63,54.39 C178.63,65.065 183.528,71.138 193.91,70.943 C195.19,70.903 196.425,70.753 197.65,70.498 L196.065,63.535 L196.067,63.536 Z" id="Path-Copy-6"></path>
            </g>
        </g>
    </g>
</svg>
