<svg xmlns="http://www.w3.org/2000/svg" width="134.615" height="17.033" viewBox="0 0 134.615 17.033">
  <defs>
    <style>
      .cls-1 {
        fill: #dc4848;
      }

      .cls-2 {
        fill: #767676;
      }
    </style>
  </defs>
  <g id="Group_491" data-name="Group 491" transform="translate(-49.084 -35)">
    <g id="Group_489" data-name="Group 489" transform="translate(-1565.469 -244.943)">
      <path id="Path_972" data-name="Path 972" class="cls-1" d="M1614.553,296.976l4.118-2.343V283.623l1.057.6v9.807l3.88-2.208v-6.737l-1.454-.826v7.072l-.973.553v-8.152l-3.965-2.257v12.665l-1.21.689V280.769l-1.453-.826Z"/>
      <path id="Path_973" data-name="Path 973" class="cls-1" d="M1656.224,296.142l1.453.807V280l-4.118,2.343v11.011l-1.058-.6V282.95l-3.879,2.207v6.761l1.453.807v-7.077l.973-.553v8.152l1.414.805,2.551,1.417v-12.63l1.211-.689Z" transform="translate(-23.732 -0.043)"/>
    </g>
    <g id="Group_490" data-name="Group 490" transform="translate(-500.583 -341.72)">
      <path id="Path_974" data-name="Path 974" class="cls-2" d="M590.944,377.184c-.086-.237-.172-.259-.409-.259h-.69c-.237,0-.323.021-.431.259l-2.069,5-2.069-5c-.108-.259-.194-.259-.431-.259h-.69c-.215,0-.323.043-.409.237l-6.12,14.719a.32.32,0,0,0-.043.194c0,.172.13.28.366.28h1.1c.41,0,.453-.3.884-1.38l4.59-11.292c.6,1.573,1.25,3.146,1.9,4.72l-3.125,7.478a.625.625,0,0,0-.043.194c0,.172.129.28.366.28h1.1c.431,0,.453-.3.884-1.38l4.59-11.271,4.59,11.271c.409,1.077.452,1.38.883,1.38h1.1c.215,0,.345-.109.345-.28a.638.638,0,0,0-.043-.194Z" transform="translate(0 -0.119)"/>
      <path id="Path_975" data-name="Path 975" class="cls-2" d="M640.372,377.154c-.108-.216-.151-.28-.431-.28h-.065a.423.423,0,0,0-.453.28L633,391.808a.322.322,0,0,0-.043.194c0,.194.172.324.41.324h13.038c.237,0,.366-.086.366-.259a.531.531,0,0,0-.065-.259C646.708,391.787,640.372,377.154,640.372,377.154Zm-4.849,13.339,4.375-10.258,4.354,10.258Z" transform="translate(-32.079 -0.089)"/>
      <path id="Path_976" data-name="Path 976" class="cls-2" d="M687.033,381.752a4.877,4.877,0,0,0-4.762-4.827h-5.215a.3.3,0,0,0-.345.323v1.077a.323.323,0,0,0,.345.366h5.193a3.118,3.118,0,0,1,2.974,3.082,3.179,3.179,0,0,1-2.823,3.082h-6.271a.346.346,0,0,0-.345.366v6.81c0,.215.108.324.345.324h1.121a.286.286,0,0,0,.323-.324v-5.409h3.685l3.254,5.409a.578.578,0,0,0,.474.324H686.6c.129,0,.194-.022.194-.065a.432.432,0,0,0-.065-.172l-3.362-5.6A5.063,5.063,0,0,0,687.033,381.752Z" transform="translate(-56.887 -0.119)"/>
      <path id="Path_977" data-name="Path 977" class="cls-2" d="M722.669,376.925H716.7a.323.323,0,0,0-.345.323V392.01a.34.34,0,0,0,.345.345h1.078a.359.359,0,0,0,.366-.345v-13.3h4.526a.368.368,0,0,0,.388-.409v-1.056A.392.392,0,0,0,722.669,376.925Z" transform="translate(-80.39 -0.119)"/>
      <path id="Path_978" data-name="Path 978" class="cls-2" d="M743.719,376.925H742.6a.318.318,0,0,0-.324.323v14.784a.287.287,0,0,0,.324.324h1.12c.216,0,.366-.109.366-.324V377.27C744.085,377.076,744,376.925,743.719,376.925Z" transform="translate(-95.405 -0.119)"/>
      <path id="Path_979" data-name="Path 979" class="cls-2" d="M765.364,377.154c-.108-.216-.151-.28-.431-.28h-.064a.423.423,0,0,0-.453.28l-6.422,14.654a.322.322,0,0,0-.043.194c0,.194.172.324.409.324H771.4c.237,0,.366-.086.366-.259a.531.531,0,0,0-.065-.259C771.7,391.787,765.364,377.154,765.364,377.154Zm-4.849,13.339,4.375-10.258,4.353,10.258Z" transform="translate(-104.486 -0.089)"/>
      <path id="Path_980" data-name="Path 980" class="cls-2" d="M812.574,376.785h-1.056a.332.332,0,0,0-.324.323l-.086,12.133-9.158-12.348a.42.42,0,0,0-.345-.173h-1.487a.346.346,0,0,0-.366.345v14.891c0,.172.108.28.323.28H805.9a.359.359,0,0,0,.344-.366v-1.1a.322.322,0,0,0-.323-.345H801.54v-11.12l9.568,12.93h1.38c.258,0,.388-.109.388-.323l.108-14.784C812.984,376.936,812.9,376.785,812.574,376.785Z" transform="translate(-128.701)"/>
    </g>
  </g>
</svg>
