<svg xmlns="http://www.w3.org/2000/svg" xmlns:xlink="http://www.w3.org/1999/xlink" width="667.254" height="560.724" viewBox="0 0 667.254 560.724">
  <defs>
    <style>
      .cls-1 {
        fill: url(#radial-gradient);
      }

      .cls-2 {
        fill: url(#radial-gradient-2);
      }

      .cls-3 {
        fill: url(#radial-gradient-3);
      }

      .cls-4 {
        fill: url(#radial-gradient-4);
      }

      .cls-5 {
        fill: url(#radial-gradient-5);
      }

      .cls-6 {
        fill: url(#radial-gradient-6);
      }

      .cls-7 {
        fill: url(#radial-gradient-7);
      }

      .cls-8 {
        fill: url(#radial-gradient-8);
      }

      .cls-9 {
        fill: url(#radial-gradient-9);
      }

      .cls-10 {
        fill: url(#radial-gradient-10);
      }

      .cls-11 {
        fill: url(#radial-gradient-11);
      }

      .cls-12 {
        fill: url(#radial-gradient-12);
      }

      .cls-13 {
        fill: url(#radial-gradient-13);
      }

      .cls-14 {
        fill: url(#radial-gradient-14);
      }

      .cls-15 {
        fill: url(#radial-gradient-15);
      }

      .cls-16 {
        fill: url(#radial-gradient-16);
      }

      .cls-17 {
        fill: url(#radial-gradient-17);
      }

      .cls-18 {
        fill: url(#radial-gradient-18);
      }

      .cls-19 {
        fill: url(#radial-gradient-19);
      }

      .cls-20 {
        fill: #fff;
      }
    </style>
    <radialGradient id="radial-gradient" cx="333.628" cy="212.662" r="523.416" gradientTransform="translate(120.964 126.261) scale(0.637 0.406)" gradientUnits="userSpaceOnUse">
      <stop offset="0.102" stop-color="#ab2100"/>
      <stop offset="0.123" stop-color="#a11f00"/>
      <stop offset="0.223" stop-color="#761600"/>
      <stop offset="0.328" stop-color="#520f00"/>
      <stop offset="0.438" stop-color="#340a00"/>
      <stop offset="0.553" stop-color="#1d0500"/>
      <stop offset="0.677" stop-color="#0c0200"/>
      <stop offset="0.815" stop-color="#030000"/>
      <stop offset="0.995"/>
    </radialGradient>
    <radialGradient id="radial-gradient-2" cx="232.692" cy="431.107" r="507.77" gradientTransform="matrix(1, 0, 0, 1, 0, 0)" xlink:href="#radial-gradient"/>
    <radialGradient id="radial-gradient-3" cx="227.076" cy="425.493" r="507.767" gradientTransform="matrix(1, 0, 0, 1, 0, 0)" xlink:href="#radial-gradient"/>
    <radialGradient id="radial-gradient-4" cx="221.461" cy="419.875" r="507.79" gradientTransform="matrix(1, 0, 0, 1, 0, 0)" xlink:href="#radial-gradient"/>
    <radialGradient id="radial-gradient-5" cx="215.845" cy="414.262" r="507.768" gradientTransform="matrix(1, 0, 0, 1, 0, 0)" xlink:href="#radial-gradient"/>
    <radialGradient id="radial-gradient-6" cx="210.229" cy="408.644" r="507.791" gradientTransform="matrix(1, 0, 0, 1, 0, 0)" xlink:href="#radial-gradient"/>
    <radialGradient id="radial-gradient-7" cx="204.614" cy="403.028" r="507.814" gradientTransform="matrix(1, 0, 0, 1, 0, 0)" xlink:href="#radial-gradient"/>
    <radialGradient id="radial-gradient-8" cx="198.998" cy="397.412" r="507.789" gradientTransform="matrix(1, 0, 0, 1, 0, 0)" xlink:href="#radial-gradient"/>
    <radialGradient id="radial-gradient-9" cx="193.382" cy="391.798" r="507.761" gradientTransform="matrix(1, 0, 0, 1, 0, 0)" xlink:href="#radial-gradient"/>
    <radialGradient id="radial-gradient-10" cx="187.766" cy="386.182" r="507.791" gradientTransform="matrix(1, 0, 0, 1, 0, 0)" xlink:href="#radial-gradient"/>
    <radialGradient id="radial-gradient-11" cx="182.151" cy="380.568" r="507.759" gradientTransform="matrix(1, 0, 0, 1, 0, 0)" xlink:href="#radial-gradient"/>
    <radialGradient id="radial-gradient-12" cx="176.535" cy="374.95" r="507.79" gradientTransform="matrix(1, 0, 0, 1, 0, 0)" xlink:href="#radial-gradient"/>
    <radialGradient id="radial-gradient-13" cx="170.92" cy="369.334" r="507.823" gradientTransform="matrix(1, 0, 0, 1, 0, 0)" xlink:href="#radial-gradient"/>
    <radialGradient id="radial-gradient-14" cx="165.304" cy="363.717" r="507.823" gradientTransform="matrix(1, 0, 0, 1, 0, 0)" xlink:href="#radial-gradient"/>
    <radialGradient id="radial-gradient-15" cx="159.689" cy="358.103" r="507.826" gradientTransform="matrix(1, 0, 0, 1, 0, 0)" xlink:href="#radial-gradient"/>
    <radialGradient id="radial-gradient-16" cx="154.073" cy="352.487" r="507.83" gradientTransform="matrix(1, 0, 0, 1, 0, 0)" xlink:href="#radial-gradient"/>
    <radialGradient id="radial-gradient-17" cx="148.457" cy="346.873" r="507.744" gradientTransform="matrix(1, 0, 0, 1, 0, 0)" xlink:href="#radial-gradient"/>
    <radialGradient id="radial-gradient-18" cx="142.841" cy="341.256" r="507.84" gradientTransform="matrix(1, 0, 0, 1, 0, 0)" xlink:href="#radial-gradient"/>
    <radialGradient id="radial-gradient-19" cx="137.226" cy="335.639" r="507.843" gradientTransform="matrix(1, 0, 0, 1, 0, 0)" xlink:href="#radial-gradient"/>
  </defs>
  <g id="Martian-wallpaper" transform="translate(-349.627 -41.703)">
    <ellipse id="Ellipse_3" data-name="Ellipse 3" class="cls-1" cx="333.627" cy="212.663" rx="333.627" ry="212.663" transform="translate(1016.881 534.787) rotate(180)"/>
    <g id="Group_186" data-name="Group 186" transform="translate(963.752 602.427) rotate(180)">
      <path id="Path_954" data-name="Path 954" class="cls-2" d="M240.836,510.227-39.526,229.865,240.836-50.5,521.2,229.865ZM-38.418,229.865,240.836,509.121,520.088,229.865,240.836-49.389Z" transform="translate(39.526 50.497)"/>
      <path id="Path_955" data-name="Path 955" class="cls-3" d="M235.221,493.85l-269.6-269.6,269.6-269.6,269.6,269.6ZM-33.272,224.25,235.221,492.742,503.713,224.25,235.221-44.241Z" transform="translate(45.142 56.113)"/>
      <path id="Path_956" data-name="Path 956" class="cls-4" d="M229.605,477.472-29.234,218.633,229.605-40.2,488.442,218.633ZM-28.126,218.633,229.605,476.364,487.334,218.633,229.605-39.1Z" transform="translate(50.757 61.729)"/>
      <path id="Path_957" data-name="Path 957" class="cls-5" d="M223.99,461.1-24.088,213.019,223.99-35.059,472.065,213.019ZM-22.98,213.019,223.99,459.986,470.957,213.019,223.99-33.949Z" transform="translate(56.373 67.344)"/>
      <path id="Path_958" data-name="Path 958" class="cls-6" d="M218.373,444.718-18.941,207.4,218.373-29.912,455.689,207.4ZM-17.833,207.4,218.373,443.61,454.576,207.4,218.373-28.8Z" transform="translate(61.989 72.96)"/>
      <path id="Path_959" data-name="Path 959" class="cls-7" d="M212.759,428.339-13.8,201.786,212.759-24.766,439.311,201.786ZM-12.688,201.786,212.759,427.23,438.2,201.786,212.759-23.656Z" transform="translate(67.604 78.576)"/>
      <path id="Path_960" data-name="Path 960" class="cls-8" d="M207.142,411.962-8.649,196.171,207.142-19.62,422.933,196.171ZM-7.541,196.171,207.142,410.856l214.68-214.685L207.142-18.512Z" transform="translate(73.22 84.191)"/>
      <path id="Path_961" data-name="Path 961" class="cls-9" d="M201.526,395.585-3.5,190.555,201.526-14.474,406.554,190.555ZM-2.395,190.555,201.526,394.476,405.447,190.555,201.526-13.364Z" transform="translate(78.836 89.807)"/>
      <path id="Path_962" data-name="Path 962" class="cls-10" d="M195.911,379.208,1.643,184.94,195.911-9.328,390.179,184.94ZM2.751,184.94,195.911,378.1,389.068,184.94,195.911-8.218Z" transform="translate(84.451 95.422)"/>
      <path id="Path_963" data-name="Path 963" class="cls-11" d="M190.3,362.831,6.789,179.324,190.3-4.182,373.8,179.324ZM7.9,179.324l182.4,182.4,182.4-182.4L190.3-3.072Z" transform="translate(90.067 101.038)"/>
      <path id="Path_964" data-name="Path 964" class="cls-12" d="M184.68,346.453,11.935,173.708,184.68.965,357.423,173.708ZM13.043,173.708,184.68,345.344,356.314,173.708,184.68,2.073Z" transform="translate(95.682 106.654)"/>
      <path id="Path_965" data-name="Path 965" class="cls-13" d="M179.064,330.073,17.081,168.092,179.064,6.111,341.046,168.092ZM18.189,168.092,179.064,328.965,339.937,168.092,179.064,7.219Z" transform="translate(101.298 112.27)"/>
      <path id="Path_966" data-name="Path 966" class="cls-14" d="M173.449,313.7,22.227,162.477,173.449,11.257l151.22,151.22ZM23.337,162.477,173.449,312.59,323.558,162.477,173.449,12.365Z" transform="translate(106.913 117.885)"/>
      <path id="Path_967" data-name="Path 967" class="cls-15" d="M167.833,297.319,27.373,156.861,167.833,16.4,308.291,156.861ZM28.483,156.861l139.35,139.35,139.35-139.35L167.833,17.513Z" transform="translate(112.529 123.501)"/>
      <path id="Path_968" data-name="Path 968" class="cls-16" d="M162.218,280.942l-129.7-129.7,129.7-129.7,129.7,129.7ZM33.629,151.246,162.218,279.834,290.8,151.246,162.218,22.659Z" transform="translate(118.144 129.117)"/>
      <path id="Path_969" data-name="Path 969" class="cls-17" d="M156.6,264.565,37.666,145.63,156.6,26.695,275.534,145.63ZM38.774,145.63,156.6,263.455,274.426,145.63,156.6,27.805Z" transform="translate(123.761 134.732)"/>
      <path id="Path_970" data-name="Path 970" class="cls-18" d="M150.986,248.187,42.812,140.013,150.986,31.842,259.159,140.013ZM43.92,140.013,150.986,247.079,258.049,140.013,150.986,32.95Z" transform="translate(129.377 140.349)"/>
      <path id="Path_971" data-name="Path 971" class="cls-19" d="M145.37,231.808,47.958,134.4l97.412-97.41,97.41,97.41Zm-96.3-97.41,96.3,96.3,96.3-96.3-96.3-96.3Z" transform="translate(134.992 145.964)"/>
    </g>
    <g id="Group_187" data-name="Group 187" transform="translate(-963.553 15.057)">
      <path id="Path_972" data-name="Path 972" class="cls-20" d="M1614.553,336.077l13.57-7.721V292.069l3.484,1.983v32.318l12.788-7.275v-22.2l-4.791-2.722v23.306L1636.4,319.3V292.436L1623.332,285v41.739l-3.989,2.27V282.664l-4.79-2.721Z"/>
      <path id="Path_973" data-name="Path 973" class="cls-20" d="M1673.675,333.186l4.789,2.66V280l-13.569,7.721v36.287l-3.486-1.984V289.711l-12.785,7.274v22.28l4.789,2.661V298.6l3.207-1.824v26.866l4.659,2.653,8.406,4.67V289.344l3.99-2.271Z"/>
    </g>
    <g id="Group_188" data-name="Group 188" transform="translate(-20.582 -10.72)">
      <path id="Path_974" data-name="Path 974" class="cls-20" d="M609.342,377.54c-.2-.564-.409-.615-.973-.615h-1.64c-.563,0-.768.051-1.024.615l-4.917,11.884L595.87,377.54c-.256-.615-.461-.615-1.024-.615h-1.64c-.512,0-.768.1-.973.563l-14.548,34.987a.761.761,0,0,0-.1.461c0,.408.308.666.871.666h2.612c.974,0,1.077-.719,2.1-3.279l10.91-26.841c1.435,3.739,2.971,7.477,4.508,11.218l-7.428,17.775a1.49,1.49,0,0,0-.1.461c0,.408.307.666.871.666h2.612c1.024,0,1.076-.719,2.1-3.279l10.91-26.79,10.911,26.79c.973,2.56,1.075,3.279,2.1,3.279h2.613c.512,0,.819-.258.819-.666a1.518,1.518,0,0,0-.1-.461Z"/>
      <path id="Path_975" data-name="Path 975" class="cls-20" d="M650.58,377.54c-.256-.513-.358-.666-1.024-.666H649.4a1,1,0,0,0-1.076.666l-15.265,34.832a.765.765,0,0,0-.1.461c0,.461.41.769.974.769h30.99c.563,0,.871-.2.871-.615a1.262,1.262,0,0,0-.154-.615C665.64,412.321,650.58,377.54,650.58,377.54Zm-11.525,31.707,10.4-24.382L659.8,409.247Z"/>
      <path id="Path_976" data-name="Path 976" class="cls-20" d="M702.523,388.4a11.592,11.592,0,0,0-11.32-11.474h-12.4a.717.717,0,0,0-.82.768v2.561a.769.769,0,0,0,.82.871h12.344a7.412,7.412,0,0,1,7.07,7.325,7.557,7.557,0,0,1-6.711,7.326H676.6a.822.822,0,0,0-.819.871v16.186c0,.511.257.769.819.769h2.665a.68.68,0,0,0,.768-.769V399.975h8.759l7.735,12.858a1.374,1.374,0,0,0,1.127.769H701.5c.307,0,.461-.053.461-.154a1.026,1.026,0,0,0-.154-.41l-7.991-13.319A12.035,12.035,0,0,0,702.523,388.4Z"/>
      <path id="Path_977" data-name="Path 977" class="cls-20" d="M731.363,376.925H717.175a.768.768,0,0,0-.82.768v35.089a.809.809,0,0,0,.82.82h2.561a.854.854,0,0,0,.87-.82V381.176h10.757a.875.875,0,0,0,.922-.973v-2.51A.931.931,0,0,0,731.363,376.925Z"/>
      <path id="Path_978" data-name="Path 978" class="cls-20" d="M745.708,376.925h-2.663a.756.756,0,0,0-.77.768v35.14a.681.681,0,0,0,.77.769h2.663c.513,0,.87-.258.87-.769V377.745C746.578,377.283,746.373,376.925,745.708,376.925Z"/>
      <path id="Path_979" data-name="Path 979" class="cls-20" d="M775.572,377.54c-.257-.513-.359-.666-1.025-.666h-.153a1,1,0,0,0-1.076.666l-15.265,34.832a.765.765,0,0,0-.1.461c0,.461.409.769.973.769h30.99c.563,0,.871-.2.871-.615a1.262,1.262,0,0,0-.154-.615C790.631,412.321,775.572,377.54,775.572,377.54Zm-11.525,31.707,10.4-24.382,10.347,24.382Z"/>
      <path id="Path_980" data-name="Path 980" class="cls-20" d="M830.229,376.874H827.72a.788.788,0,0,0-.769.768l-.205,28.839L804.977,377.13a1,1,0,0,0-.821-.41h-3.534a.821.821,0,0,0-.87.82v35.4c0,.41.256.666.767.666h13.854a.852.852,0,0,0,.818-.871v-2.613a.766.766,0,0,0-.767-.819H804V382.867L826.746,413.6h3.279c.614,0,.922-.258.922-.769l.256-35.14C831.2,377.233,831,376.874,830.229,376.874Z"/>
    </g>
    <g id="Group_190" data-name="Group 190" transform="translate(-20.934 -6.758)">
      <g id="Group_189" data-name="Group 189">
        <path id="Path_981" data-name="Path 981" class="cls-20" d="M635.143,434.669l5.648,6.943v-6.943h.636v8.394h-.252l-5.66-6.932v6.932h-.648v-8.394Z"/>
        <path id="Path_982" data-name="Path 982" class="cls-20" d="M657.139,438.542h4.917v.587h-4.917v3.311h5.3v.623H656.5v-8.394H662.3v.611h-5.157Z"/>
        <path id="Path_983" data-name="Path 983" class="cls-20" d="M679.949,435.256h-3.034v-.576h6.716v.576H680.6v7.807h-.648Z"/>
        <path id="Path_984" data-name="Path 984" class="cls-20" d="M703.624,434.669h.359l2.567,7.675,2.6-7.675h.7l-2.962,8.419h-.7l-1.332-3.935-1.054-3.322-1.056,3.3-1.343,3.959h-.7l-2.938-8.419h.684l2.59,7.675Z"/>
        <path id="Path_985" data-name="Path 985" class="cls-20" d="M732.29,438.877a4.235,4.235,0,1,1-8.468-.023,4.235,4.235,0,1,1,8.468.023Zm-7.831-.011a3.606,3.606,0,1,0,7.207,0,3.606,3.606,0,1,0-7.207,0Z"/>
        <path id="Path_986" data-name="Path 986" class="cls-20" d="M753.734,443.063h-.851l-2.9-3.178h-2.291v3.178h-.646v-8.394h3.693a2.594,2.594,0,0,1,2.758,2.613,2.479,2.479,0,0,1-2.723,2.568Zm-6.045-3.789h2.975a1.878,1.878,0,0,0,2.123-2,1.935,1.935,0,0,0-2.051-2h-3.047Z"/>
        <path id="Path_987" data-name="Path 987" class="cls-20" d="M773.919,443.063H773.1l-4.425-4.137v4.125h-.648v-8.382h.648v3.826l4.078-3.826h.779v.06l-4.222,3.957,4.606,4.33Z"/>
      </g>
      <path id="Path_988" data-name="Path 988" class="cls-20" d="M826.854,424.758h0Z"/>
    </g>
  </g>
</svg>
