<svg enable-background="new 0 0 815 272" viewBox="0 0 815 272" xmlns="http://www.w3.org/2000/svg"><circle cx="-1144.703491" cy="-202.940277" fill="#ff1f1f" r="146.779816"/><g fill="#dc4848"><path d="m145.963394 0v271.361786c70.502304-5.081665 126.122543-63.883209 126.122543-135.680923s-55.620239-130.599195-126.122543-135.680863z"/><path d="m33.746037 130.726196 12.083508 34.822067 12.083508-34.822067 55.363422-129.18132c-45.310456 7.635096-83.015632 37.661057-101.33083 78.313782z"/><path d="m126.397934 20.803789h-.854721l-68.496651 161.72229h-22.445804l-31.704859-74.868807c-1.894036 9.044312-2.895899 18.416512-2.895899 28.02359 0 71.890991 55.765411 130.749954 126.397934 135.69841z"/></g><path d="m-1155.109741-50.160465v-276.723328h-.922241l-73.902588 174.48584h-24.217285l-73.889893-174.48584h-.922241v203.824768h-21.109619v-228.661072h33.527832l61.47168 143.434128 13.037231 37.570282 13.037109-37.570282 61.471802-143.434128h33.527832v301.559631h-21.109619z" fill="#fff"/><path d="m368.512695 123.918945v-61.254394h-.327148l-25.94043 61.254395h-8.501953l-25.94043-61.254395h-.326172v61.254395h-7.412109v-69.973634h11.771484l21.581055 50.35498 4.577148 13.187988 4.578125-13.187988 21.580078-50.35498h11.771484v69.973633z"/><path d="m445.03125 123.918945-8.829102-21.907715h-31.716797l-8.719727 21.907715h-8.06543l28.011719-69.973633h9.373047l28.011719 69.973633zm-20.164062-50.246093-4.141602-13.187988h-.654297l-4.141602 13.187988-9.155273 22.779785h27.248047z"/><path d="m513.700195 123.918945-18.52832-25.177734h-22.453125v25.177734h-7.847656v-69.973633h28.338867c20.708008 0 27.248047 3.269531 27.248047 22.452637 0 15.258789-4.141602 20.381836-16.240234 21.907715l19.401367 25.613281zm-20.272461-31.390136c13.624023 0 18.855469-.87207 18.855469-16.130859 0-15.913086-5.231445-16.240234-18.855469-16.240234h-20.708984v32.371094h20.708984z"/><path d="m554.685547 123.918945v-63.76123h-24.742188l1.089844-6.212402h57.658203l-1.089844 6.212402h-25.069336v63.76123z"/><path d="m596.977539 123.918945v-69.973633h7.847656v69.973633z"/><path d="m675.018555 123.918945-8.829102-21.907715h-31.716797l-8.719727 21.907715h-8.06543l28.011719-69.973633h9.373047l28.011719 69.973633zm-20.164063-50.246093-4.141602-13.187988h-.654297l-4.141602 13.187988-9.155273 22.779785h27.248047z"/><path d="m743.579102 123.918945-41.308594-59.29248v59.29248h-7.412109v-69.973633h8.719727l41.308594 59.074219v-59.074219h7.302734v69.973633z"/><path d="m348.785156 214.361328-41.308594-59.292969v59.292969h-7.412109v-69.974121h8.719727l41.308594 59.074707v-59.074707h7.302734v69.974121z"/><path d="m374.729492 214.361328v-69.974121h52.317383l-1.089844 6.212402h-43.379883v24.415039h35.205078v6.211914h-35.205078v26.8125h44.469727l-1.089844 6.322266z"/><path d="m458.767578 214.361328v-63.761719h-24.742188l1.089844-6.212402h57.658203l-1.089844 6.212402h-25.069336v63.761719z"/><path d="m560.679688 214.361328-16.022461-57.984863-15.041016 57.984863h-9.264648l-20.381836-69.974121h8.06543l16.676758 63.434082h.65332l15.477539-63.434082h7.520508l16.675781 63.434082h.654297l15.476562-63.434082h8.283203l-19.509766 69.974121z"/><path d="m632.509766 142.970215c19.400391 0 35.095703 4.904785 35.095703 36.29541 0 31.389648-15.695312 36.293945-35.095703 36.293945-19.401367 0-35.095703-4.904297-35.095703-36.293945-.000001-31.390625 15.694335-36.29541 35.095703-36.29541zm-27.030274 36.29541c0 30.082031 12.751953 30.19043 27.030273 30.19043 14.060547 0 27.030273-.108398 27.030273-30.19043 0-30.083008-13.188477-30.191895-27.030273-30.191895-14.27832 0-27.030273.108887-27.030273 30.191895z"/><path d="m731.261719 214.361328-18.52832-25.177734h-22.453125v25.177734h-7.847656v-69.974121h28.338867c20.708008 0 27.248047 3.269531 27.248047 22.452637 0 15.258789-4.141602 20.381836-16.240234 21.908203l19.401367 25.613281zm-20.272461-31.390625c13.624023 0 18.855469-.87207 18.855469-16.130859 0-15.913086-5.231445-16.240234-18.855469-16.240234h-20.708984v32.371094h20.708984z"/><path d="m804.073242 214.361328-23.433594-31.826172h-17.548828v31.826172h-7.738281v-69.974121h7.738281v31.935059h17.548828l23.433594-31.935059h10.245117c-8.829102 11.553223-17.875 23.434082-26.8125 34.986816 8.9375 11.553711 17.983398 23.542969 26.8125 34.987305z"/></svg>