<svg fill="none" height="1467" viewBox="0 0 1083 1467" width="1083" xmlns="http://www.w3.org/2000/svg"><g fill="#fff"><g opacity=".4"><circle cx="1.5" cy="1.5" r="1.5"/><circle cx="1.5" cy="184.5" r="1.5"/><circle cx="1.5" cy="367.5" r="1.5"/><circle cx="1.5" cy="550.5" r="1.5"/><circle cx="1.5" cy="733.5" r="1.5"/><circle cx="1.5" cy="916.5" r="1.5"/><circle cx="1.5" cy="1099.5" r="1.5"/><circle cx="1.5" cy="1282.5" r="1.5"/><ellipse cx="1.5" cy="1424" rx="1.5" ry="2"/></g><g opacity=".4"><circle cx="181.5" cy="1.5" r="1.5"/><circle cx="181.5" cy="184.5" r="1.5"/><circle cx="181.5" cy="367.5" r="1.5"/><circle cx="181.5" cy="550.5" r="1.5"/><circle cx="181.5" cy="733.5" r="1.5"/><circle cx="181.5" cy="916.5" r="1.5"/><circle cx="181.5" cy="1099.5" r="1.5"/><circle cx="181.5" cy="1282.5" r="1.5"/><circle cx="181.5" cy="1465.5" r="1.5"/></g><g opacity=".4"><circle cx="361.5" cy="1.5" r="1.5"/><circle cx="361.5" cy="184.5" r="1.5"/><circle cx="361.5" cy="367.5" r="1.5"/><circle cx="361.5" cy="550.5" r="1.5"/><circle cx="361.5" cy="733.5" r="1.5"/><circle cx="361.5" cy="916.5" r="1.5"/><circle cx="361.5" cy="1099.5" r="1.5"/><circle cx="361.5" cy="1282.5" r="1.5"/><circle cx="361.5" cy="1465.5" r="1.5"/></g><g opacity=".4"><circle cx="541.5" cy="1.5" r="1.5"/><circle cx="541.5" cy="184.5" r="1.5"/><circle cx="541.5" cy="367.5" r="1.5"/><circle cx="541.5" cy="550.5" r="1.5"/><circle cx="541.5" cy="733.5" r="1.5"/><circle cx="541.5" cy="916.5" r="1.5"/><circle cx="541.5" cy="1099.5" r="1.5"/><circle cx="541.5" cy="1282.5" r="1.5"/><circle cx="541.5" cy="1465.5" r="1.5"/></g><g opacity=".4"><circle cx="721.5" cy="1.5" r="1.5"/><circle cx="721.5" cy="184.5" r="1.5"/><circle cx="721.5" cy="367.5" r="1.5"/><circle cx="721.5" cy="550.5" r="1.5"/><circle cx="721.5" cy="733.5" r="1.5"/><circle cx="721.5" cy="916.5" r="1.5"/><circle cx="721.5" cy="1099.5" r="1.5"/><circle cx="721.5" cy="1282.5" r="1.5"/><circle cx="721.5" cy="1465.5" r="1.5"/></g><g opacity=".2"><circle cx="901.5" cy="1.5" r="1.5"/><circle cx="901.5" cy="184.5" r="1.5"/><circle cx="901.5" cy="367.5" r="1.5"/><circle cx="901.5" cy="550.5" r="1.5"/><circle cx="901.5" cy="733.5" r="1.5"/><circle cx="901.5" cy="916.5" r="1.5"/><circle cx="901.5" cy="1099.5" r="1.5"/><circle cx="901.5" cy="1282.5" r="1.5"/><circle cx="901.5" cy="1465.5" r="1.5"/></g><g opacity=".1"><circle cx="1081.5" cy="1.5" r="1.5"/><circle cx="1081.5" cy="184.5" r="1.5"/><circle cx="1081.5" cy="367.5" r="1.5"/><circle cx="1081.5" cy="550.5" r="1.5"/><circle cx="1081.5" cy="733.5" r="1.5"/><circle cx="1081.5" cy="916.5" r="1.5"/><circle cx="1081.5" cy="1099.5" r="1.5"/><circle cx="1081.5" cy="1282.5" r="1.5"/><circle cx="1081.5" cy="1465.5" r="1.5"/></g></g></svg>