<?xml version="1.0" encoding="UTF-8"?>
<svg width="118px" height="128px" viewBox="0 0 118 128" version="1.1" xmlns="http://www.w3.org/2000/svg" xmlns:xlink="http://www.w3.org/1999/xlink">
    <!-- Generator: Sketch 52.6 (67491) - http://www.bohemiancoding.com/sketch -->
    <title>sant</title>
    <desc>Created with Sketch.</desc>
    <defs>
        <path d="M58.6647728,109.321429 C91.0644322,109.321429 117.329546,83.0581323 117.329546,50.6607144 C117.329546,49.8427473 105.116682,72.0884202 90.6146045,74.3285728 C79.8101801,75.9975448 63.6728568,76.9465096 50.703125,74.3285728 C41.0937076,72.3889146 32.0271454,63.85842 29.1333716,60.6497566 C23.0355499,53.8883928 19.9962641,43.6912315 20.1134838,34.0842097 C20.3233962,16.8803257 28.5003712,0.334675739 27.5265876,0.936075996 C10.948995,11.1742532 0,29.7019881 0,50.6607144 C0,83.0581323 26.2651134,109.321429 58.6647728,109.321429 Z" id="path-1"></path>
        <path d="M5.86647728,78.2142856 L0,78.2142856 L0,0 L129.0625,0 L129.0625,78.2142856 L123.196023,78.2142856 C123.196023,110.611704 96.9309094,136.875 64.53125,136.875 C32.1315906,136.875 5.86647728,110.611704 5.86647728,78.2142856 Z" id="path-3"></path>
        <path d="M60.620265,70.6913316 L60.620265,79.6808034 L75.2746212,79.6808034 C87.7010281,79.6808034 97.7746212,89.7543966 97.7746212,102.180803 L97.7746212,119.276786 L0,119.276786 L0,102.180803 C0,89.7543966 10.0735931,79.6808034 22.5,79.6808034 L37.1543559,79.6808034 L37.1543559,70.6913316 C28.7279688,66.6883909 22.6708492,58.5076541 21.65977,48.8258947 C18.8120808,48.4234084 16.6216856,45.9762269 16.6216856,43.0174513 L16.6216856,36.1745131 C16.6216856,33.2676772 18.7358532,30.8546316 21.5104167,30.389148 L21.5104167,27.3768939 C21.5104167,12.2570529 33.7674697,0 48.8873106,0 C64.0071516,0 76.2642047,12.2570529 76.2642047,27.3768939 L76.2642047,30.389148 C79.0387681,30.8546316 81.1529356,33.2676772 81.1529356,36.1745131 L81.1529356,43.0174513 C81.1529356,45.9762269 78.9625403,48.4234084 76.1148513,48.8258947 C75.1037719,58.5076541 69.0466525,66.6883909 60.6202666,70.6913309 L60.620265,70.6913316 Z" id="path-5"></path>
        <path d="M60.620265,70.6913316 L60.620265,79.6808034 L75.2746212,79.6808034 C87.7010281,79.6808034 97.7746212,89.7543966 97.7746212,102.180803 L97.7746212,119.276786 L0,119.276786 L0,102.180803 C0,89.7543966 10.0735931,79.6808034 22.5,79.6808034 L37.1543559,79.6808034 L37.1543559,70.6913316 C28.7279688,66.6883909 22.6708492,58.5076541 21.65977,48.8258947 C18.8120808,48.4234084 16.6216856,45.9762269 16.6216856,43.0174513 L16.6216856,36.1745131 C16.6216856,33.2676772 18.7358532,30.8546316 21.5104167,30.389148 L21.5104167,27.3768939 C21.5104167,12.2570529 33.7674697,0 48.8873106,0 C64.0071516,0 76.2642047,12.2570529 76.2642047,27.3768939 L76.2642047,30.389148 C79.0387681,30.8546316 81.1529356,33.2676772 81.1529356,36.1745131 L81.1529356,43.0174513 C81.1529356,45.9762269 78.9625403,48.4234084 76.1148513,48.8258947 C75.1037719,58.5076541 69.0466525,66.6883909 60.6202666,70.6913309 L60.620265,70.6913316 Z" id="path-7"></path>
        <path d="M32.8027516,0.133228531 C32.7833013,0.342708469 32.7734375,0.553842594 32.7734375,0.766453188 C32.7734375,6.56319162 40.1057816,11.2623766 49.1506866,11.2623766 C58.1955916,11.2623766 65.5279356,6.56319162 65.5279356,0.766453188 C65.5279356,0.553842594 65.5180719,0.342708469 65.4986216,0.133228531 L75.2935606,0.133228531 C87.7199675,0.133228531 97.7935606,10.2068217 97.7935606,22.6332284 L97.7935606,39.6875 L0.0189394062,39.6875 L0.0189394062,22.6332284 C0.0189394062,10.2068217 10.0925325,0.133228531 22.5189394,0.133228531 L32.8027516,0.133228531 Z" id="path-9"></path>
        <path d="M32.8027516,0.133228531 C32.7833013,0.342708469 32.7734375,0.553842594 32.7734375,0.766453188 C32.7734375,6.56319162 40.1057816,11.2623766 49.1506866,11.2623766 C58.1955916,11.2623766 65.5279356,6.56319162 65.5279356,0.766453188 C65.5279356,0.553842594 65.5180719,0.342708469 65.4986216,0.133228531 L75.2935606,0.133228531 C87.7199675,0.133228531 97.7935606,10.2068217 97.7935606,22.6332284 L97.7935606,39.6875 L0.0189394062,39.6875 L0.0189394062,22.6332284 C0.0189394062,10.2068217 10.0925325,0.133228531 22.5189394,0.133228531 L32.8027516,0.133228531 Z" id="path-11"></path>
        <path d="M0.297788281,1.16361737 C0.815090687,5.81510209 4.75171253,9.43181819 9.53125,9.43181819 C14.3255519,9.43181819 18.2717225,5.79272287 18.7694078,1.12048131 C18.8094619,0.7444565 18.3904213,0.120738625 17.8652419,0.120738625 C10.5820005,0.120738625 5.00205066,0.120738625 1.26062881,0.120738625 C0.732402313,0.120738625 0.246032906,0.698242937 0.297788281,1.16361737 Z" id="path-13"></path>
        <path d="M0.297788281,1.16361737 C0.815090687,5.81510209 4.75171253,9.43181819 9.53125,9.43181819 C14.3255519,9.43181819 18.2717225,5.79272287 18.7694078,1.12048131 C18.8094619,0.7444565 18.3904213,0.120738625 17.8652419,0.120738625 C10.5820005,0.120738625 5.00205066,0.120738625 1.26062881,0.120738625 C0.732402313,0.120738625 0.246032906,0.698242937 0.297788281,1.16361737 Z" id="path-15"></path>
        <path d="M6.8359375,6.88437634 C11.5283119,6.88437634 13.671875,9.06577991 13.671875,5.66592503 C13.671875,2.26607013 10.6113215,3.55271368e-15 6.8359375,3.55271368e-15 C3.06055347,3.55271368e-15 0,2.26607013 0,5.66592503 C0,9.06577991 2.14356311,6.88437634 6.8359375,6.88437634 Z" id="path-17"></path>
        <path d="M6.8359375,6.88437634 C11.5283119,6.88437634 13.671875,9.06577991 13.671875,5.66592503 C13.671875,2.26607013 10.6113215,3.55271368e-15 6.8359375,3.55271368e-15 C3.06055347,3.55271368e-15 0,2.26607013 0,5.66592503 C0,9.06577991 2.14356311,6.88437634 6.8359375,6.88437634 Z" id="path-19"></path>
        <polygon id="path-21" points="0 0 129.0625 0 129.0625 136.875 0 136.875"></polygon>
        <path d="M36.4949216,35.534785 C35.2652569,36.6572856 33.9553363,37.1621003 32.2997106,36.80909 C32.01481,36.7484009 30.8533056,34.5884622 27.9686691,34.5884622 C25.0840322,34.5884622 23.9226913,36.7484009 23.6376275,36.80909 C21.9820016,37.1621003 20.6720809,36.6572856 19.4424163,35.534785 C17.1308493,33.4244116 15.2084664,30.514285 16.3635961,27.3391553 C16.9655973,25.6841947 17.944687,23.8672878 19.7258456,23.3398987 C21.6277966,22.7770128 24.2981453,23.3389175 26.2148072,22.9544994 C26.8357691,22.8298497 27.5141034,22.6083594 27.9686691,22.2409541 C28.4232347,22.6083594 29.1017325,22.8298497 29.7223672,22.9544994 C31.6391928,23.3389175 34.3095413,22.7770128 36.2114925,23.3398987 C37.9926509,23.8672878 38.9717406,25.6841947 39.5739053,27.3391553 C40.729035,30.514285 38.8066522,33.4244116 36.4949216,35.534785 M55.4042253,0.222039469 C53.7358488,4.33236072 54.3801794,9.44944959 54.0714344,13.7640987 C53.8206509,17.2711353 53.0834497,22.5275681 49.9699809,24.7924719 C48.3778437,25.9507075 45.4797556,27.8973187 43.3993897,27.3543303 C41.9673059,26.9805912 41.8144978,22.8722097 39.9325519,21.3342544 C37.7978466,19.5900309 35.1322641,18.8236397 32.4446166,18.9419687 C31.2848875,18.9930506 28.9394122,18.9809269 27.9687172,19.8729216 C26.9980225,18.9809269 24.6527119,18.9930506 23.4929825,18.9419687 C20.8051706,18.8236397 18.1395881,19.5900309 16.0048828,21.3342544 C14.1229368,22.8722097 13.9702932,26.9805912 12.5382096,27.3543303 C10.4578434,27.8973187 7.55975537,25.9507075 5.96745356,24.7924719 C2.85382019,22.5275681 2.11694837,17.2711353 1.86583562,13.7640987 C1.55725512,9.44944959 2.20158572,4.33236072 0.533209094,0.222039469 C-0.278420219,0.222039469 0.25690275,8.11404378 0.25690275,8.11404378 L0.25690275,18.074545 C0.272381187,25.5551453 4.94406622,36.7516366 15.3020964,41.0270044 C17.8352889,42.0725684 23.5733384,43.7705591 27.9687172,43.7705591 C32.3640959,43.7705591 38.1021456,42.2342203 40.6353381,41.1886559 C50.9933684,36.9132884 55.6650534,25.5551453 55.6806966,18.074545 L55.6806966,8.11404378 C55.6806966,8.11404378 56.2158547,0.222039469 55.4042253,0.222039469" id="path-23"></path>
        <path d="M55.8199919,27.0767778 C56.6787703,27.5600519 57.3587472,32.4047225 57.3916522,34.2572916 C57.4122347,35.4004694 57.4306638,39.7598397 56.2219037,39.3830028 C55.8538784,39.2682694 55.2921756,36.9603737 55.2122828,35.6096366 C55.1323903,34.2588994 54.3652594,29.66335 53.1882644,27.5489844 C52.9193378,27.0658209 52.1492537,26.2174678 52.4819594,25.8087559 C52.8946928,25.3019534 53.2955103,25.596005 53.7993756,25.7989247 C54.3444059,26.018635 55.7235791,27.0226512 55.8199919,27.0767778 Z M56.2134456,25.6238675 C55.8488203,26.0942356 53.3588637,24.7738275 52.3204984,24.2000669 C43.5989681,19.3801523 41.9060266,17.8474589 28.1651953,18.0474735 C14.4243641,18.247488 5.01042156,24.6869753 4.48089344,25.3456462 C4.11248344,25.803905 3.64214688,27.0274887 3.25538781,30.4359784 C2.86862844,33.8444681 3.36231875,39.9572228 1.9622675,39.9498066 C0.770286563,39.9434925 0.510961875,28.3224794 1.0255075,23.7124106 C1.10450688,23.0046166 1.40897563,21.7384792 1.18858969,21.1017584 C0.995973125,20.5456393 0.053755625,20.5467723 0.204157188,19.6201769 C0.375104688,18.5653958 1.43834969,19.0893066 1.90143281,18.5849797 C2.77848156,17.6295749 1.42550844,17.4034694 1.20111,16.5676723 C0.867561875,15.3253062 1.83144844,15.0048418 2.69982969,14.6125156 C3.66082719,14.1787557 3.53594719,14.5597523 4.315885,13.710036 C3.27414875,12.9462624 2.89726188,11.9057241 4.32375,11.347501 C4.92953,11.1103897 6.5056175,11.4242182 6.9802575,11.0679848 C7.10401375,10.9750825 7.15297063,10.4425936 7.22921469,10.3336681 C7.98716219,9.24910638 7.80016312,8.46396853 7.72327687,7.24636556 C7.66003438,6.25001253 7.66854187,5.33539409 8.86116094,5.23585591 C9.65698969,5.16949709 10.3041822,5.81981331 11.0171856,6.01128272 C11.8081988,6.22379269 11.5110875,6.37884569 12.1308322,5.95220719 C13.2187963,5.2026765 12.478345,3.74229744 13.3411081,2.871055 C14.5250597,1.67546372 15.301145,3.42798334 16.2517091,3.56021538 C18.3152775,3.84782413 17.6529966,1.75153356 18.8746691,0.983390031 C20.3348653,0.0660201563 20.4761178,2.08365125 21.3881584,2.15551297 C22.1785297,2.21750178 23.6014866,0.69205875 24.2904128,0.407848875 C26.3345591,-0.435878937 27.3474028,1.93830931 29.2933144,1.63548659 C30.7053566,1.41569331 31.0865775,1.23620088 32.3608984,2.03978969 C33.5978197,2.81974831 33.8917209,2.26217259 35.2923663,2.25100491 C36.2819353,2.24355975 36.8880366,3.07061694 37.7158075,3.15688338 C38.1286494,3.20009753 38.523835,2.76989831 38.9668538,2.79692738 C40.5490406,2.89290484 40.6490409,4.93934538 41.9060266,5.50274775 C43.0545044,6.01759488 44.4047484,5.294284 45.5445588,5.16043347 C48.325625,4.83398056 46.4211259,7.43217019 46.4996172,8.98286194 C47.5912734,9.237615 48.6993019,8.218441 49.7859819,8.40602597 C51.4972219,8.70156541 50.8513134,10.4754493 50.4546834,11.6713643 C51.6404006,11.65 54.7355928,10.3335062 55.5038131,12.0172393 C55.8999616,12.8854066 54.9770059,14.0444196 54.9920944,14.9269916 C55.0132822,16.1693577 55.925965,17.1972716 56.2489191,18.3731171 C56.6847147,19.9603871 57.3057834,24.2147475 56.2134456,25.6238675 Z" id="path-25"></path>
    </defs>
    <g id="Page-1" stroke="none" stroke-width="1" fill="none" fill-rule="evenodd">
        <g id="sant" transform="translate(-5.625000, -9.062500)">
            <g id="Group" transform="translate(5.866477, 19.553572)">
                <g id="a-link" fill="#202020">
                    <ellipse id="a" cx="58.6647728" cy="58.6607144" rx="58.6647728" ry="58.6607144"></ellipse>
                </g>
                <g id="Clipped" transform="translate(0.000000, 8.000000)">
                    <mask id="mask-2" fill="white">
                        <use xlink:href="#path-1"></use>
                    </mask>
                    <g id="a"></g>
                    <g id="Group" mask="url(#mask-2)" fill="#B8BABE">
                        <g transform="translate(0.000000, -8.000000)" id="Path">
                            <polygon points="0 0 117.1875 0 117.1875 117.1875 0 117.1875"></polygon>
                        </g>
                    </g>
                </g>
            </g>
            <circle id="Oval" fill="#8F8E8E" cx="23.125" cy="102.5625" r="3.5"></circle>
            <g id="Clipped">
                <mask id="mask-4" fill="white">
                    <use xlink:href="#path-3"></use>
                </mask>
                <g id="Path"></g>
                <g id="Group" mask="url(#mask-4)">
                    <g transform="translate(15.643939, 17.598214)">
                        <g id="b-link" fill="#D0C6AC">
                            <path d="M60.620265,70.6913316 L60.620265,79.6808034 L75.2746212,79.6808034 C87.7010281,79.6808034 97.7746212,89.7543966 97.7746212,102.180803 L97.7746212,119.276786 L0,119.276786 L0,102.180803 C0,89.7543966 10.0735931,79.6808034 22.5,79.6808034 L37.1543559,79.6808034 L37.1543559,70.6913316 C28.7279688,66.6883909 22.6708492,58.5076541 21.65977,48.8258947 C18.8120808,48.4234084 16.6216856,45.9762269 16.6216856,43.0174513 L16.6216856,36.1745131 C16.6216856,33.2676772 18.7358532,30.8546316 21.5104167,30.389148 L21.5104167,27.3768939 C21.5104167,12.2570529 33.7674697,0 48.8873106,0 C64.0071516,0 76.2642047,12.2570529 76.2642047,27.3768939 L76.2642047,30.389148 C79.0387681,30.8546316 81.1529356,33.2676772 81.1529356,36.1745131 L81.1529356,43.0174513 C81.1529356,45.9762269 78.9625403,48.4234084 76.1148513,48.8258947 C75.1037719,58.5076541 69.0466525,66.6883909 60.6202666,70.6913309 L60.620265,70.6913316 Z" id="b"></path>
                        </g>
                        <g id="Clipped">
                            <mask id="mask-6" fill="white">
                                <use xlink:href="#path-5"></use>
                            </mask>
                            <g id="b"></g>
                            <g id="Group" mask="url(#mask-6)" fill="#D08B5B">
                                <g transform="translate(-15.937500, 0.000000)" id="Path">
                                    <polygon points="0.293560625 0 129.356061 0 129.356061 119.375 0.293560625 119.375"></polygon>
                                </g>
                            </g>
                        </g>
                        <g id="Clipped">
                            <mask id="mask-8" fill="white">
                                <use xlink:href="#path-7"></use>
                            </mask>
                            <g id="b"></g>
                            <path d="M76.2642047,45.9489991 L76.2642047,49.8597131 C76.2642047,64.9795544 64.0071516,77.2366072 48.8873106,77.2366072 C33.7674697,77.2366072 21.5104167,64.9795544 21.5104167,49.8597131 L21.5104167,45.9489991 C21.5104167,61.06884 33.7674697,73.3258928 48.8873106,73.3258928 C64.0071516,73.3258928 76.2642047,61.06884 76.2642047,45.9489991 Z" id="Path" fill-opacity="0.1" fill="#000000" mask="url(#mask-8)"></path>
                        </g>
                    </g>
                    <g transform="translate(15.625000, 97.165178)">
                        <g id="c-link" fill="#E6E6E6">
                            <path d="M32.8027516,0.133228531 C32.7833013,0.342708469 32.7734375,0.553842594 32.7734375,0.766453188 C32.7734375,6.56319162 40.1057816,11.2623766 49.1506866,11.2623766 C58.1955916,11.2623766 65.5279356,6.56319162 65.5279356,0.766453188 C65.5279356,0.553842594 65.5180719,0.342708469 65.4986216,0.133228531 L75.2935606,0.133228531 C87.7199675,0.133228531 97.7935606,10.2068217 97.7935606,22.6332284 L97.7935606,39.6875 L0.0189394062,39.6875 L0.0189394062,22.6332284 C0.0189394062,10.2068217 10.0925325,0.133228531 22.5189394,0.133228531 L32.8027516,0.133228531 Z" id="c"></path>
                        </g>
                        <g id="Clipped">
                            <mask id="mask-10" fill="white">
                                <use xlink:href="#path-9"></use>
                            </mask>
                            <g id="c"></g>
                            <g id="Group" mask="url(#mask-10)" fill="#3C4F5C">
                                <g transform="translate(-15.625000, -14.062500)" id="Path">
                                    <polygon points="0 0 129.0625 0 129.0625 53.75 0 53.75"></polygon>
                                </g>
                            </g>
                        </g>
                        <g id="Clipped">
                            <mask id="mask-12" fill="white">
                                <use xlink:href="#path-11"></use>
                            </mask>
                            <use id="c" fill="#75EFB2" xlink:href="#path-11"></use>
                            <g id="Group" opacity="0.6" mask="url(#mask-12)" fill="#000000" fill-opacity="0.16">
                                <g transform="translate(29.687500, -11.875000)" id="Oval">
                                    <ellipse cx="19.4631866" cy="13.3744075" rx="19.3765369" ry="13.1510747"></ellipse>
                                </g>
                            </g>
                        </g>
                    </g>
                    <g transform="translate(42.779356, 42.272322)">
                        <g transform="translate(12.227746, 29.482143)">
                            <g id="d-link" fill="#000000" fill-opacity="0.7">
                                <path d="M0.297788281,1.16361737 C0.815090687,5.81510209 4.75171253,9.43181819 9.53125,9.43181819 C14.3255519,9.43181819 18.2717225,5.79272287 18.7694078,1.12048131 C18.8094619,0.7444565 18.3904213,0.120738625 17.8652419,0.120738625 C10.5820005,0.120738625 5.00205066,0.120738625 1.26062881,0.120738625 C0.732402313,0.120738625 0.246032906,0.698242937 0.297788281,1.16361737 Z" id="d"></path>
                            </g>
                            <g id="Clipped">
                                <mask id="mask-14" fill="white">
                                    <use xlink:href="#path-13"></use>
                                </mask>
                                <g id="d"></g>
                                <rect id="Rectangle" fill="#FFFFFF" mask="url(#mask-14)" x="2.19618062" y="-5.26988625" width="15.1591434" height="7.84090906" rx="1.5625"></rect>
                            </g>
                            <g id="Clipped">
                                <mask id="mask-16" fill="white">
                                    <use xlink:href="#path-15"></use>
                                </mask>
                                <g id="d"></g>
                                <g id="Group" mask="url(#mask-16)">
                                    <g transform="translate(1.562500, 5.312500)">
                                        <g transform="translate(0.144676, 0.198864)">
                                            <ellipse id="Oval" fill="#FF4F6D" cx="5.37905094" cy="5.390625" rx="5.37905094" ry="5.390625"></ellipse>
                                            <ellipse id="Oval" fill="#FF4F6D" cx="10.2690972" cy="5.390625" rx="5.37905094" ry="5.390625"></ellipse>
                                        </g>
                                    </g>
                                </g>
                            </g>
                        </g>
                        <path d="M15.9205897,21.3244049 C15.9205897,23.510532 18.5589117,25.2827382 21.8134469,25.2827382 C25.067982,25.2827382 27.706304,23.510532 27.706304,21.3244049" id="Path" fill-opacity="0.16" fill="#000000"></path>
                        <g transform="translate(2.187500, 8.093953)">
                            <g id="e-link" fill="#FFFFFF">
                                <path d="M6.8359375,6.88437634 C11.5283119,6.88437634 13.671875,9.06577991 13.671875,5.66592503 C13.671875,2.26607013 10.6113215,3.55271368e-15 6.8359375,3.55271368e-15 C3.06055347,3.55271368e-15 0,2.26607013 0,5.66592503 C0,9.06577991 2.14356311,6.88437634 6.8359375,6.88437634 Z" id="e"></path>
                            </g>
                            <g id="Clipped">
                                <mask id="mask-18" fill="white">
                                    <use xlink:href="#path-17"></use>
                                </mask>
                                <g id="e"></g>
                                <ellipse id="Oval" fill-opacity="0.7" fill="#000000" mask="url(#mask-18)" cx="6.8359375" cy="4.90056812" rx="2.9296875" ry="2.94034094"></ellipse>
                            </g>
                        </g>
                        <g transform="translate(27.578125, 8.093953)">
                            <g id="f-link" fill="#FFFFFF">
                                <path d="M6.8359375,6.88437634 C11.5283119,6.88437634 13.671875,9.06577991 13.671875,5.66592503 C13.671875,2.26607013 10.6113215,3.55271368e-15 6.8359375,3.55271368e-15 C3.06055347,3.55271368e-15 0,2.26607013 0,5.66592503 C0,9.06577991 2.14356311,6.88437634 6.8359375,6.88437634 Z" id="f"></path>
                            </g>
                            <g id="Clipped">
                                <mask id="mask-20" fill="white">
                                    <use xlink:href="#path-19"></use>
                                </mask>
                                <g id="f"></g>
                                <ellipse id="Oval" fill-opacity="0.7" fill="#000000" mask="url(#mask-20)" cx="6.8359375" cy="4.90056812" rx="2.9296875" ry="2.94034094"></ellipse>
                            </g>
                        </g>
                        <g fill="#000000" fill-opacity="0.6" id="Path">
                            <path d="M7.08940104,0.885217446 C4.27615004,1.2678589 -0.110873467,3.75259665 0.255986284,6.6286045 C0.268041002,6.72273525 0.408559628,6.75207266 0.469193128,6.6734735 C1.68330275,5.09599918 11.0707018,2.77850037 14.4893883,3.26248927 C14.8022716,3.30688759 15.0088214,2.9796264 14.7954346,2.77536268 C12.9670733,1.02609977 9.60956008,0.539914517 7.08940104,0.885217446" transform="translate(7.558594, 3.750000) rotate(5.000000) translate(-7.558594, -3.750000) "></path>
                            <path d="M35.8979945,0.885217377 C33.0847435,1.26785883 28.6977201,3.75259658 29.0645798,6.62860443 C29.0766344,6.72273518 29.2171532,6.75207259 29.2777866,6.67347343 C30.4918963,5.09599912 39.8792954,2.7785003 43.297982,3.26248921 C43.6108651,3.30688752 43.8174151,2.97962633 43.6040282,2.77536261 C41.775667,1.0260997 38.4181535,0.539914448 35.8979945,0.885217377" transform="translate(36.367187, 3.750000) scale(-1, 1) rotate(5.000000) translate(-36.367187, -3.750000) "></path>
                        </g>
                    </g>
                    <g id="Clipped">
                        <mask id="mask-22" fill="white">
                            <use xlink:href="#path-21"></use>
                        </mask>
                        <g id="Path"></g>
                        <g id="Group" mask="url(#mask-22)">
                            <g transform="translate(35.000000, 9.062500)">
                                <g transform="translate(1.583495, 38.633928)">
                                    <g id="g-link" fill="#331B0C" fill-rule="nonzero">
                                        <path d="M36.4949216,35.534785 C35.2652569,36.6572856 33.9553363,37.1621003 32.2997106,36.80909 C32.01481,36.7484009 30.8533056,34.5884622 27.9686691,34.5884622 C25.0840322,34.5884622 23.9226913,36.7484009 23.6376275,36.80909 C21.9820016,37.1621003 20.6720809,36.6572856 19.4424163,35.534785 C17.1308493,33.4244116 15.2084664,30.514285 16.3635961,27.3391553 C16.9655973,25.6841947 17.944687,23.8672878 19.7258456,23.3398987 C21.6277966,22.7770128 24.2981453,23.3389175 26.2148072,22.9544994 C26.8357691,22.8298497 27.5141034,22.6083594 27.9686691,22.2409541 C28.4232347,22.6083594 29.1017325,22.8298497 29.7223672,22.9544994 C31.6391928,23.3389175 34.3095413,22.7770128 36.2114925,23.3398987 C37.9926509,23.8672878 38.9717406,25.6841947 39.5739053,27.3391553 C40.729035,30.514285 38.8066522,33.4244116 36.4949216,35.534785 M55.4042253,0.222039469 C53.7358488,4.33236072 54.3801794,9.44944959 54.0714344,13.7640987 C53.8206509,17.2711353 53.0834497,22.5275681 49.9699809,24.7924719 C48.3778437,25.9507075 45.4797556,27.8973187 43.3993897,27.3543303 C41.9673059,26.9805912 41.8144978,22.8722097 39.9325519,21.3342544 C37.7978466,19.5900309 35.1322641,18.8236397 32.4446166,18.9419687 C31.2848875,18.9930506 28.9394122,18.9809269 27.9687172,19.8729216 C26.9980225,18.9809269 24.6527119,18.9930506 23.4929825,18.9419687 C20.8051706,18.8236397 18.1395881,19.5900309 16.0048828,21.3342544 C14.1229368,22.8722097 13.9702932,26.9805912 12.5382096,27.3543303 C10.4578434,27.8973187 7.55975537,25.9507075 5.96745356,24.7924719 C2.85382019,22.5275681 2.11694837,17.2711353 1.86583562,13.7640987 C1.55725512,9.44944959 2.20158572,4.33236072 0.533209094,0.222039469 C-0.278420219,0.222039469 0.25690275,8.11404378 0.25690275,8.11404378 L0.25690275,18.074545 C0.272381187,25.5551453 4.94406622,36.7516366 15.3020964,41.0270044 C17.8352889,42.0725684 23.5733384,43.7705591 27.9687172,43.7705591 C32.3640959,43.7705591 38.1021456,42.2342203 40.6353381,41.1886559 C50.9933684,36.9132884 55.6650534,25.5551453 55.6806966,18.074545 L55.6806966,8.11404378 C55.6806966,8.11404378 56.2158547,0.222039469 55.4042253,0.222039469" id="g"></path>
                                    </g>
                                    <g id="Clipped">
                                        <mask id="mask-24" fill="white">
                                            <use xlink:href="#path-23"></use>
                                        </mask>
                                        <g id="g"></g>
                                        <g id="Group" mask="url(#mask-24)" fill="#4A312C">
                                            <g transform="translate(-13.125000, -12.500000)" id="Path">
                                                <polygon points="0 0 82.1875 0 82.1875 74.375 0 74.375"></polygon>
                                            </g>
                                        </g>
                                    </g>
                                </g>
                                <g transform="translate(-0.000151, 0.000000)">
                                    <g id="h-link" fill="#2E3257" fill-rule="nonzero">
                                        <path d="M55.8199919,27.0767778 C56.6787703,27.5600519 57.3587472,32.4047225 57.3916522,34.2572916 C57.4122347,35.4004694 57.4306638,39.7598397 56.2219037,39.3830028 C55.8538784,39.2682694 55.2921756,36.9603737 55.2122828,35.6096366 C55.1323903,34.2588994 54.3652594,29.66335 53.1882644,27.5489844 C52.9193378,27.0658209 52.1492537,26.2174678 52.4819594,25.8087559 C52.8946928,25.3019534 53.2955103,25.596005 53.7993756,25.7989247 C54.3444059,26.018635 55.7235791,27.0226512 55.8199919,27.0767778 Z M56.2134456,25.6238675 C55.8488203,26.0942356 53.3588637,24.7738275 52.3204984,24.2000669 C43.5989681,19.3801523 41.9060266,17.8474589 28.1651953,18.0474735 C14.4243641,18.247488 5.01042156,24.6869753 4.48089344,25.3456462 C4.11248344,25.803905 3.64214688,27.0274887 3.25538781,30.4359784 C2.86862844,33.8444681 3.36231875,39.9572228 1.9622675,39.9498066 C0.770286563,39.9434925 0.510961875,28.3224794 1.0255075,23.7124106 C1.10450688,23.0046166 1.40897563,21.7384792 1.18858969,21.1017584 C0.995973125,20.5456393 0.053755625,20.5467723 0.204157188,19.6201769 C0.375104688,18.5653958 1.43834969,19.0893066 1.90143281,18.5849797 C2.77848156,17.6295749 1.42550844,17.4034694 1.20111,16.5676723 C0.867561875,15.3253062 1.83144844,15.0048418 2.69982969,14.6125156 C3.66082719,14.1787557 3.53594719,14.5597523 4.315885,13.710036 C3.27414875,12.9462624 2.89726188,11.9057241 4.32375,11.347501 C4.92953,11.1103897 6.5056175,11.4242182 6.9802575,11.0679848 C7.10401375,10.9750825 7.15297063,10.4425936 7.22921469,10.3336681 C7.98716219,9.24910638 7.80016312,8.46396853 7.72327687,7.24636556 C7.66003438,6.25001253 7.66854187,5.33539409 8.86116094,5.23585591 C9.65698969,5.16949709 10.3041822,5.81981331 11.0171856,6.01128272 C11.8081988,6.22379269 11.5110875,6.37884569 12.1308322,5.95220719 C13.2187963,5.2026765 12.478345,3.74229744 13.3411081,2.871055 C14.5250597,1.67546372 15.301145,3.42798334 16.2517091,3.56021538 C18.3152775,3.84782413 17.6529966,1.75153356 18.8746691,0.983390031 C20.3348653,0.0660201563 20.4761178,2.08365125 21.3881584,2.15551297 C22.1785297,2.21750178 23.6014866,0.69205875 24.2904128,0.407848875 C26.3345591,-0.435878937 27.3474028,1.93830931 29.2933144,1.63548659 C30.7053566,1.41569331 31.0865775,1.23620088 32.3608984,2.03978969 C33.5978197,2.81974831 33.8917209,2.26217259 35.2923663,2.25100491 C36.2819353,2.24355975 36.8880366,3.07061694 37.7158075,3.15688338 C38.1286494,3.20009753 38.523835,2.76989831 38.9668538,2.79692738 C40.5490406,2.89290484 40.6490409,4.93934538 41.9060266,5.50274775 C43.0545044,6.01759488 44.4047484,5.294284 45.5445588,5.16043347 C48.325625,4.83398056 46.4211259,7.43217019 46.4996172,8.98286194 C47.5912734,9.237615 48.6993019,8.218441 49.7859819,8.40602597 C51.4972219,8.70156541 50.8513134,10.4754493 50.4546834,11.6713643 C51.6404006,11.65 54.7355928,10.3335062 55.5038131,12.0172393 C55.8999616,12.8854066 54.9770059,14.0444196 54.9920944,14.9269916 C55.0132822,16.1693577 55.925965,17.1972716 56.2489191,18.3731171 C56.6847147,19.9603871 57.3057834,24.2147475 56.2134456,25.6238675 Z" id="h"></path>
                                    </g>
                                    <g id="Clipped">
                                        <mask id="mask-26" fill="white">
                                            <use xlink:href="#path-25"></use>
                                        </mask>
                                        <g id="h"></g>
                                        <g id="Group" mask="url(#mask-26)" fill="#2C1B18">
                                            <g transform="translate(-35.000000, -9.062500)" id="Path">
                                                <polygon points="0 0 129.0625 0 129.0625 136.875 0 136.875"></polygon>
                                            </g>
                                        </g>
                                    </g>
                                </g>
                            </g>
                        </g>
                    </g>
                </g>
            </g>
            <circle id="Oval" fill="#8F8E8E" cx="25.125" cy="40.5625" r="1.5"></circle>
            <circle id="Oval" fill="#8F8E8E" cx="20.625" cy="48.0625" r="3"></circle>
        </g>
    </g>
</svg>