<svg viewBox="0 0 400 410" xmlns="http://www.w3.org/2000/svg" xmlns:xlink="http://www.w3.org/1999/xlink"><defs><ellipse id="a" cx="187.727273" cy="187" rx="187.727273" ry="187.714286"/><path id="b" d="m193.984848 226.212261v28.76631h46.89394c39.764502 0 72 32.235498 72 72v54.707143h-312.878788v-54.707143c0-39.764502 32.235498-72 72-72h46.893939v-28.76631c-26.9644387-12.80941-46.3472214-38.987768-49.5826751-69.969398-9.1126054-1.287956-16.12187-9.118937-16.12187-18.587019v-21.897402c0-9.301875 6.7653363-17.023621 15.6439394-18.5131684v-9.639213c0-48.3834913 39.2225697-87.6060606 87.6060607-87.6060606s87.606061 39.2225693 87.606061 87.6060606v9.639213c8.878603 1.4895474 15.643939 9.2112934 15.643939 18.5131684v21.897402c0 9.468082-7.009265 17.299063-16.12187 18.587019-3.235454 30.98163-22.618236 57.159988-49.582671 69.969396z"/><path id="c" d="m154.968805 45.4263313c-.062241.6703358-.093805 1.345965-.093805 2.0263189 0 18.549563 23.463501 33.5869549 52.407197 33.5869549s52.407197-15.0373919 52.407197-33.5869549c0-.6803539-.031564-1.3559831-.093805-2.0263189h31.343805c39.764502 0 72 32.235498 72 71.9999997v54.573669h-312.8787879v-54.573669c0-39.7645017 32.235498-71.9999997 71.9999999-71.9999997z"/><path id="d" d="m54.9529225 23.7235756c1.6553677 14.8847511 14.2525576 26.4582426 29.5470775 26.4582426 15.341766 0 27.969512-11.645105 29.562105-26.596278.128173-1.2032794-1.212757-3.1991766-2.893331-3.1991766-23.3063725 0-41.1622119 0-53.1347618 0-1.6903248 0-3.2467069 1.8480138-3.0810897 3.337212z"/><path id="e" d="m21.875 22.0300043c15.015598 0 21.875 6.9804914 21.875-3.8990442 0-10.87953568-9.7937711-18.1309601-21.875-18.1309601s-21.875 7.25142442-21.875 18.1309601c0 10.8795356 6.85940196 3.8990442 21.875 3.8990442z"/><path id="f" d="m21.875 22.0300043c15.015598 0 21.875 6.9804914 21.875-3.8990442 0-10.87953568-9.7937711-18.1309601-21.875-18.1309601s-21.875 7.25142442-21.875 18.1309601c0 10.8795356 6.85940196 3.8990442 21.875 3.8990442z"/><path id="g" d="m158.783749 153.711312c-3.934927 3.592002-8.126673 5.207409-13.424675 4.077776-.911682-.194205-4.628496-7.106009-13.859333-7.106009-9.230838 0-12.947129 6.911804-13.859333 7.106009-5.298003 1.129633-9.489749-.485774-13.424676-4.077776-7.3970141-6.753195-13.5486394-16.0656-9.8522245-26.226015 1.9264039-5.295874 5.0594908-11.109976 10.7591985-12.797621 6.086243-1.801235 14.631359-.00314 20.764677-1.233278 1.987078-.398879 4.157748-1.107648 5.612358-2.283345 1.45461 1.175697 3.625803 1.884466 5.611834 2.283345 6.133842 1.230138 14.678957-.567957 20.765201 1.233278 5.699707 1.687645 8.832794 7.501747 10.759721 12.797621 3.696415 10.160415-2.45521 19.47282-9.852748 26.226015m60.509772-113.0007857c-5.338805 13.153028-3.276947 29.5277124-4.264931 43.3345897-.802507 11.2225171-3.161551 28.043102-13.124651 35.290794-5.094839 3.706354-14.368721 9.93551-21.025892 8.197947-4.582668-1.195965-5.071654-14.342786-11.093881-19.264243-6.831057-5.581515-15.360921-8.033967-23.961393-7.655314-3.711133.163462-11.216654.124666-14.322878 2.979049-3.106223-2.854383-10.611217-2.815587-14.322351-2.979049-8.600998-.378653-17.130862 2.073799-23.9619191 7.655314-6.022227 4.921457-6.5106865 18.068278-11.0933542 19.264243-6.6571717 1.737563-15.9310535-4.491593-21.0264193-8.197947-9.9636268-7.247692-12.3216166-24.0682769-13.1251774-35.290794-.9874576-13.8068773 1.0744003-30.1815617-4.2644049-43.3345897-2.5972138 0-.8841803 25.2544138-.8841803 25.2544138v31.8736038c.049531 23.9379211 14.9989231 59.7666931 48.1446198 73.4478701 8.1062158 3.345805 26.4679744 8.779375 40.5331864 8.779375s32.426971-4.916284 40.533187-8.26209c33.145697-13.681176 48.095089-50.027234 48.145147-73.9651551v-31.8736038s1.712506-25.2544138-.884708-25.2544138"/><path id="h" d="m290.623974 115.645689c2.748091 1.546477 4.924017 17.049423 5.029313 22.977644.065864 3.658169.124837 17.608154-3.743195 16.402276-1.177681-.367147-2.97513-7.752413-3.230787-12.074772-.255656-4.322359-2.710475-19.028117-6.476859-25.794087-.860565-1.546123-3.324834-4.260853-2.260176-5.568731 1.320747-1.621768 2.603363-.680803 4.215732-.03146 1.744097.703073 6.157451 3.915925 6.465972 4.08913zm1.259052-4.649313c-1.166801 1.505178-9.134662-2.720128-12.457431-4.556162-27.908897-15.4237266-33.32631-20.3283455-77.29697-19.6882989-43.97066.6400465-74.095276 21.2464059-75.789766 23.3541529-1.178912 1.466428-2.683989 5.381896-3.921618 16.289063-1.23763 10.907167.342179 30.467982-4.137985 30.44425-3.814339-.020205-4.644178-37.207447-2.997632-51.959667.252798-2.264941 1.227098-6.3165807.521863-8.354087-.616373-1.7795811-3.631469-1.7759556-3.150184-4.7410609.547032-3.3752996 3.949416-1.6987851 5.431282-3.312631 2.806556-3.0572954-1.522958-3.7808329-2.241033-6.4553837-1.067354-3.9755716 2.017083-5.0010578 4.795903-6.2565015 3.075192-1.3880318 2.675576-.1688427 5.171377-2.8879348-3.333556-2.4440754-4.539594-5.7737979.025168-7.5601119 1.938496-.7587562 6.981976.2454951 8.500824-.8944519.39602-.2972874.552682-2.0012518.796663-2.3498135 2.425432-3.4705974 1.827035-5.9830385 1.580999-9.879368-.202376-3.1883297-.175152-6.1151087 3.641229-6.4336309 2.546652-.2123482 4.617668 1.8686637 6.899279 2.4813658 2.531242.6800319 1.580486 1.1762015 3.563669-.1890417 3.481485-2.3984982 1.112041-7.0717112 3.872883-9.859687 3.788645-3.8258921 6.272118 1.7821707 9.313923 2.2053132 6.603419.920348 4.48412-5.7877818 8.393472-8.2458411 4.672628-2.9355836 5.124636 3.5208359 8.043166 3.7507934 2.529188.1983642 7.08265-4.6830535 9.287214-5.5925251 6.541268-2.699929 9.782368 4.8974734 16.009285 3.9284407 4.518535-.7033385 5.738442-1.2777143 9.816269 1.2937699 3.958148 2.4958676 4.898632.7116253 9.380697.6758887 3.166621-.0238245 5.106145 2.6227585 7.755012 2.8988111 1.321094.1382853 2.585688-1.2383522 4.003348-1.1518592 5.062998.3071279 5.382999 6.8557376 9.405353 8.6586252 3.675129 1.6475108 7.99591-.667084 11.643303-1.0954057 8.899412-1.0446493 2.805015 7.2695575 3.056187 12.2317711 3.4933.8152098 7.038991-2.446147 10.516367-1.8458751 5.475968.9457262 3.409061 6.6221547 2.139845 10.4490826 3.794295-.0683657 13.69891-4.2811458 16.157215 1.1068 1.267675 2.7781353-1.685783 6.4869769-1.6375 9.3112073.067801 3.9755716 2.988386 7.2648962 4.021839 11.0276018 1.394546 5.079264 3.381966 18.6932172-.113515 23.2024012z"/><mask id="i" fill="#fff"><use fill="#fff" fill-rule="evenodd" xlink:href="#a"/></mask><mask id="j" fill="#fff"><path d="m18.7727273 250.285714h-18.7727273v-250.285714h413v250.285714h-18.772727c0 103.671738-84.048363 187.714286-187.727273 187.714286s-187.7272727-84.042548-187.7272727-187.714286z" fill="#fff" fill-rule="evenodd"/></mask><mask id="k" fill="#fff"><use fill="#fff" fill-rule="evenodd" xlink:href="#b"/></mask><mask id="l" fill="#fff"><use fill="#fff" fill-rule="evenodd" xlink:href="#c"/></mask><mask id="m" fill="#fff"><use fill="#fff" fill-rule="evenodd" xlink:href="#d"/></mask><mask id="n" fill="#fff"><use fill="#fff" fill-rule="evenodd" xlink:href="#e"/></mask><mask id="o" fill="#fff"><use fill="#fff" fill-rule="evenodd" xlink:href="#f"/></mask><mask id="p" fill="#fff"><path d="m0 0h413v438h-413z" fill="#fff" fill-rule="evenodd"/></mask><mask id="q" fill="#fff"><use fill="#fff" fill-rule="evenodd" xlink:href="#g"/></mask><mask id="r" fill="#fff"><use fill="#fff" fill-rule="evenodd" xlink:href="#h"/></mask></defs><g fill="none" fill-rule="evenodd" transform="translate(-18 -29)"><g transform="translate(18.772727 62.571429)"><use fill="#e6e6e6" xlink:href="#a"/><g fill="#b8babe" mask="url(#i)"><path d="m0 0h375v375h-375z"/></g></g><circle cx="93.125" cy="317.5625" fill="#8f8e8e" r="12.5"/><g mask="url(#j)"><g transform="translate(50.060606 56.314286)"><use fill="#d0c6ac" xlink:href="#b"/><g fill="#d08b5b" mask="url(#k)"><path d="m0 0h413v382h-413z" transform="translate(-50.060606)"/></g><path d="m244.045455 147.036797v12.514285c0 48.383492-39.22257 87.606061-87.606061 87.606061s-87.6060607-39.222569-87.6060607-87.606061v-12.514285c0 48.383491 39.2225697 87.60606 87.6060607 87.60606s87.606061-39.222569 87.606061-87.60606z" fill="#000" fill-opacity=".1" mask="url(#k)"/></g><g fill-rule="evenodd" transform="translate(0 265.928571)"><use fill="#e6e6e6" xlink:href="#c"/><g fill="#82e1f3" mask="url(#l)"><path d="m0 0h413v172h-413z"/></g><g fill="#000" fill-opacity=".16" mask="url(#l)" opacity=".6"><ellipse cx="63.357955" cy="43.543559" rx="62.004918" ry="42.083439" transform="translate(143.924242 6.254545)"/></g></g><g transform="translate(118.893939 128.271429)"><g fill-rule="evenodd" transform="translate(3.128788 81.342857)"><use fill="#000" fill-opacity=".7" xlink:href="#d"/><rect fill="#fff" height="25.090909" mask="url(#m)" rx="5" width="48.509259" x="61.027778" y="3.136364"/><g fill="#ff4f6d" mask="url(#m)"><g transform="translate(59.462963 37.636364)"><ellipse cx="17.212963" cy="17.25" rx="17.212963" ry="17.25"/><ellipse cx="32.861111" cy="17.25" rx="17.212963" ry="17.25"/></g></g></g><path d="m25.1428571 12.6666667c0 6.9956068 8.4426305 12.6666666 18.8571429 12.6666666s18.8571429-5.6710598 18.8571429-12.6666666" fill="#000" fill-opacity=".16" transform="translate(43.80303 62.571429)"/><g transform="translate(25 32.90065)"><use fill="#fff" xlink:href="#e"/><ellipse cx="21.875" cy="15.681818" fill="#000" fill-opacity=".7" mask="url(#n)" rx="9.375" ry="9.409091"/></g><g transform="translate(106.25 32.90065)"><use fill="#fff" xlink:href="#f"/><ellipse cx="21.875" cy="15.681818" fill="#000" fill-opacity=".7" mask="url(#o)" rx="9.375" ry="9.409091"/></g><g fill="#000" fill-opacity=".6"><path d="m40.6860835 9.83269576c-9.0024032 1.22445264-23.0408784 9.17561344-21.8669272 18.37883854.0385751.3012184.4882347.3950981.6822619.1435808 3.8851508-5.0479178 33.9248276-12.463914 44.8646245-10.9151495 1.0012266.1420746 1.6621858-.9051612.9793481-1.5588051-5.850756-5.5976413-16.5947984-7.15343411-24.6593073-6.04846474" transform="matrix(.9961947 .08715574 -.08715574 .9961947 1.816495 -3.604582)"/><path d="m132.873583 9.83269576c-9.002403 1.22445264-23.040878 9.17561344-21.866927 18.37883854.038575.3012184.488235.3950981.682262.1435808 3.885151-5.0479178 33.924828-12.463914 44.864625-10.9151495 1.001226.1420746 1.662186-.9051612.979348-1.5588051-5.850756-5.5976413-16.594799-7.15343411-24.659308-6.04846474" transform="matrix(-.9961947 .08715574 .08715574 .9961947 266.582703 -11.639252)"/></g></g><g fill-rule="evenodd" mask="url(#p)"><g transform="translate(75.067185 112.628571)"><use fill="#331b0c" xlink:href="#g"/><g fill="#4a312c" mask="url(#q)"><path d="m0 0h263v238h-263z"/></g></g><g transform="translate(-.000484)"><use fill="#2e3257" xlink:href="#h"/><g fill="#2c1b18" mask="url(#r)"><path d="m0 0h413v438h-413z"/></g></g></g></g></g><g fill="#8f8e8e"><circle cx="75.125" cy="90.5625" r="3.5"/><circle cx="63.625" cy="108.0625" r="5"/></g></svg>
