<svg width="48" height="106" viewBox="0 0 48 106" fill="none" xmlns="http://www.w3.org/2000/svg">
<rect x="11" y="102" width="26" height="4" rx="2" fill="#C38C00"/>
<rect x="15" y="72" width="18" height="30" fill="#B56838"/>
<rect x="15" y="69" width="18" height="26" fill="#80AEC4"/>
<rect x="12" y="94" width="24" height="4" rx="1" fill="#588398"/>
<path d="M26 82H27V86.5C27 86.7761 26.7761 87 26.5 87C26.2239 87 26 86.7761 26 86.5V82Z" fill="#588398"/>
<path d="M31 82H32V87.5C32 87.7761 31.7761 88 31.5 88C31.2239 88 31 87.7761 31 87.5V82Z" fill="#588398"/>
<path d="M28 82H29V84.5C29 84.7761 28.7761 85 28.5 85C28.2239 85 28 84.7761 28 84.5V82Z" fill="#588398"/>
<rect x="26" y="79" width="6" height="4" rx="1" fill="#8FC1D9"/>
<rect x="15" y="100" width="18" height="2" fill="#E6E6E6"/>
<rect x="17" y="31" width="14" height="4" fill="#A56643"/>
<rect x="13" y="5" width="22" height="11" fill="#4F4E4E"/>
<path d="M13 16C13 9.92487 17.9249 5 24 5C30.0751 5 35 9.92487 35 16V29.1379C35 31.2709 33.2709 33 31.1379 33H16.8621C14.7291 33 13 31.2709 13 29.1379V16Z" fill="#A56643"/>
<path d="M13 4C13 1.79086 14.7909 0 17 0H31C33.2091 0 35 1.79086 35 4V10H13V4Z" fill="#333232"/>
<rect x="15" y="4" width="2" height="10" rx="1" fill="#333232"/>
<rect x="14" y="4" width="2" height="8" rx="1" fill="#333232"/>
<rect x="14.2261" y="1" width="2" height="10" rx="1" transform="rotate(25 14.2261 1)" fill="#333232"/>
<circle cx="36" cy="19" r="3" fill="#A56643"/>
<circle cx="12" cy="19" r="3" fill="#A56643"/>
<rect x="11" y="20" width="1" height="1" rx="0.5" fill="#FFD024"/>
<rect x="36" y="20" width="1" height="1" rx="0.5" fill="#FFD024"/>
<rect width="6" height="9" rx="3" transform="matrix(-1 0 0 1 23 12)" fill="#F3F2F2"/>
<rect width="3" height="5" rx="1.5" transform="matrix(-1 0 0 1 22 14)" fill="#333232"/>
<rect width="6" height="9" rx="3" transform="matrix(-1 0 0 1 31 12)" fill="#F3F2F2"/>
<rect width="3" height="5" rx="1.5" transform="matrix(-1 0 0 1 29 14)" fill="#333232"/>
<path d="M23 17C23 16.4477 23.4477 16 24 16C24.5523 16 25 16.4477 25 17V23H23V17Z" fill="#8D4D2B"/>
<rect x="22" y="21" width="4" height="3" rx="1.5" fill="#8D4D2B"/>
<path d="M17.8245 23.0859C17.9249 22.912 18.1473 22.8524 18.3213 22.9528L24.6196 26.5892C24.7936 26.6896 24.8531 26.912 24.7527 27.0859C23.7486 28.8252 21.5246 29.4211 19.7854 28.4169L19.1555 28.0533C17.4163 27.0491 16.8204 24.8252 17.8245 23.0859Z" fill="#F3F2F2"/>
<path d="M19.3053 23.521L20.1714 24.021L19.8794 25.0416C19.7397 25.53 19.1782 25.757 18.7383 25.503C18.2984 25.2491 18.2143 24.6493 18.5674 24.2841L19.3053 23.521Z" fill="#FFD024"/>
<path d="M16.342 18C19.0701 18.4079 20.395 18.9116 22.45 20.2231L21.766 22.1025L15.658 19.8794L16.342 18Z" fill="#A56643"/>
<path d="M11 41C11 38.7909 12.7909 37 15 37H33C35.2091 37 37 38.7909 37 41V61C37 64.3137 34.3137 67 31 67H17C13.6863 67 11 64.3137 11 61V41Z" fill="#333232"/>
<rect x="15" y="34" width="18" height="3" rx="1" fill="#333232"/>
<path d="M20 49C20 47.3431 21.3431 46 23 46C24.6569 46 26 47.3431 26 49V50H20V49Z" fill="#F3F2F2"/>
<path d="M22.168 45.2481C22.5638 44.6543 23.4362 44.6543 23.8321 45.2481L25 47H21L22.168 45.2481Z" fill="#F3F2F2"/>
<path d="M20 50H26V57H20V50Z" fill="#FFD849"/>
<rect x="19" y="49" width="8" height="3" rx="1" fill="#FFDF6D"/>
<rect x="20.4395" y="53.6464" width="1" height="2" rx="0.5" transform="rotate(-45 20.4395 53.6464)" fill="#C38C00"/>
<rect width="1" height="2" rx="0.5" transform="matrix(-0.707107 -0.707107 -0.707107 0.707107 22.5608 53.6464)" fill="#C38C00"/>
<rect x="23.4395" y="53.6464" width="1" height="2" rx="0.5" transform="rotate(-45 23.4395 53.6464)" fill="#C38C00"/>
<rect width="1" height="2" rx="0.5" transform="matrix(-0.707107 -0.707107 -0.707107 0.707107 25.5608 53.6464)" fill="#C38C00"/>
<circle cx="22" cy="59" r="5" fill="#B56838"/>
<path d="M10 38C10 37.4477 10.4477 37 11 37H19C19.5523 37 20 37.4477 20 38V43H11C10.4477 43 10 42.5523 10 42V38Z" fill="#778457"/>
<path d="M4 54C4 45.7157 10.7157 39 19 39H20V72H19C10.7157 72 4 65.2843 4 57V54Z" fill="#778457"/>
<path d="M18 37H19C19.5523 37 20 37.4477 20 38V72H18V37Z" fill="#56613D"/>
<path d="M16 71H18V76C18 76.5523 17.5523 77 17 77C16.4477 77 16 76.5523 16 76V71Z" fill="#778457"/>
<path d="M13 70H15V73C15 73.5523 14.5523 74 14 74C13.4477 74 13 73.5523 13 73V70Z" fill="#778457"/>
<path d="M11 69H13V80C13 80.5523 12.5523 81 12 81C11.4477 81 11 80.5523 11 80V69Z" fill="#778457"/>
<path d="M37 38C37 37.4477 36.5523 37 36 37H28C27.4477 37 27 37.4477 27 38V43H36C36.5523 43 37 42.5523 37 42V38Z" fill="#778457"/>
<path d="M43 54C43 45.7157 36.2843 39 28 39H27V72H28C36.2843 72 43 65.2843 43 57V54Z" fill="#778457"/>
<path d="M29 37H28C27.4477 37 27 37.4477 27 38V72H29V37Z" fill="#56613D"/>
<path d="M31 71H29V76C29 76.5523 29.4477 77 30 77C30.5523 77 31 76.5523 31 76V71Z" fill="#778457"/>
<path d="M34 70H32V73C32 73.5523 32.4477 74 33 74C33.5523 74 34 73.5523 34 73V70Z" fill="#778457"/>
<path d="M36 69H34V80C34 80.5523 34.4477 81 35 81C35.5523 81 36 80.5523 36 80V69Z" fill="#778457"/>
</svg>
