<svg width="30" height="30" viewBox="0 0 30 30" fill="none" xmlns="http://www.w3.org/2000/svg">
<path d="M27.8965 15.6577C28.9322 15.3718 29.9968 16.1264 29.8413 17.1895C28.7816 24.436 22.5406 30 15 30C6.71573 30 0 23.2843 0 15C0 7.53598 5.45167 1.34527 12.5904 0.192521C13.7101 0.0117042 14.4727 1.17414 14.0963 2.24412C10.4171 12.7037 15.9734 18.9481 27.8965 15.6577Z" fill="#FFD024"/>
<path d="M27.8964 15.6577C28.9322 15.3718 30.0073 16.1262 29.8605 17.1906C29.3504 20.8891 27.2757 24.2448 21 25.5C10.5 27 4.49995 17.2843 4.49995 9C4.49995 2.47853 9.14771 0.647296 12.5892 0.163249C13.7124 0.00527134 14.4726 1.17414 14.0962 2.24412C10.4171 12.7037 15.9733 18.9481 27.8964 15.6577Z" fill="#FFD849"/>
<ellipse opacity="0.6" cx="4.5" cy="10.5" rx="1.5" ry="1.5" fill="#EBB400"/>
<ellipse opacity="0.6" cx="3.75" cy="15.75" rx="0.75" ry="0.749997" fill="#EBB400"/>
<circle opacity="0.6" cx="24.75" cy="21.75" r="0.750003" fill="#EBB400"/>
</svg>
