<svg width="30" height="30" viewBox="0 0 30 30" fill="none" xmlns="http://www.w3.org/2000/svg">
<mask id="mask0_2019_1087" style="mask-type:alpha" maskUnits="userSpaceOnUse" x="0" y="0" width="30" height="30">
<rect width="30" height="30" fill="#D9D9D9"/>
</mask>
<g mask="url(#mask0_2019_1087)">
<circle cx="15" cy="14.9998" r="11.6168" fill="#FFA424"/>
<mask id="mask1_2019_1087" style="mask-type:alpha" maskUnits="userSpaceOnUse" x="5" y="5" width="20" height="20">
<circle cx="14.9999" cy="15.0002" r="9.2934" fill="#FFD849"/>
</mask>
<g mask="url(#mask1_2019_1087)">
<circle cx="14.9999" cy="15.0002" r="9.2934" fill="#FFD849"/>
<path d="M5.70653 5.70679H11.5149C8.529 13.4234 10.2654 17.3902 14.9999 24.2936H5.70653V5.70679Z" fill="#FFC800"/>
</g>
<ellipse cx="18.485" cy="9.19164" rx="1.16168" ry="1.16168" fill="#EBB400"/>
<circle cx="20.2275" cy="10.9344" r="0.580838" fill="#EBB400"/>
<path d="M13.9802 0.502583C14.4334 -0.282392 15.5664 -0.282392 16.0196 0.502584L18.0043 3.94025C18.4575 4.72522 17.891 5.70644 16.9846 5.70644H13.0151C12.1087 5.70644 11.5422 4.72522 11.9954 3.94025L13.9802 0.502583Z" fill="#FFA424"/>
<path d="M0.502732 16.0195C-0.282243 15.5663 -0.282243 14.4333 0.502733 13.9801L3.9404 11.9953C4.72537 11.5421 5.70659 12.1086 5.70659 13.015V16.9845C5.70659 17.8909 4.72537 18.4574 3.94039 18.0042L0.502732 16.0195Z" fill="#FFA424"/>
<path d="M29.4971 16.0195C30.2821 15.5663 30.2821 14.4333 29.4971 13.9801L26.0594 11.9953C25.2745 11.5421 24.2932 12.1086 24.2932 13.015V16.9845C24.2932 17.8909 25.2745 18.4574 26.0594 18.0042L29.4971 16.0195Z" fill="#FFA424"/>
<path d="M13.9802 29.4972C14.4334 30.2822 15.5664 30.2822 16.0196 29.4972L18.0043 26.0596C18.4575 25.2746 17.891 24.2934 16.9846 24.2934H13.0151C12.1087 24.2934 11.5422 25.2746 11.9954 26.0596L13.9802 29.4972Z" fill="#FFA424"/>
<path d="M4.02775 5.46989C3.79315 4.59437 4.59432 3.79321 5.46984 4.0278L9.30406 5.05518C10.1796 5.28978 10.4728 6.38418 9.8319 7.02511L7.02506 9.83195C6.38413 10.4729 5.28972 10.1796 5.05513 9.30411L4.02775 5.46989Z" fill="#FFA424"/>
<path d="M5.47002 25.9721C4.5945 26.2067 3.79334 25.4056 4.02793 24.5301L5.05531 20.6958C5.2899 19.8203 6.38431 19.5271 7.02524 20.168L9.83208 22.9748C10.473 23.6158 10.1798 24.7102 9.30424 24.9448L5.47002 25.9721Z" fill="#FFA424"/>
<path d="M25.9721 5.46989C26.2067 4.59437 25.4056 3.79321 24.53 4.0278L20.6958 5.05518C19.8203 5.28978 19.527 6.38418 20.168 7.02511L22.9748 9.83195C23.6157 10.4729 24.7102 10.1796 24.9447 9.30411L25.9721 5.46989Z" fill="#FFA424"/>
<path d="M24.5301 25.9721C25.4056 26.2067 26.2068 25.4056 25.9722 24.5301L24.9448 20.6958C24.7102 19.8203 23.6158 19.5271 22.9749 20.168L20.168 22.9748C19.5271 23.6158 19.8204 24.7102 20.6959 24.9448L24.5301 25.9721Z" fill="#FFA424"/>
</g>
</svg>
