<svg height="25" viewBox="0 0 24 23" width="30" xmlns="http://www.w3.org/2000/svg"><g fill="none" stroke="#fff" transform="translate(1)"><circle cx="11" cy="11.507" r="5"/><path d="m12.4412109 2.97817383h-3.04829552" transform="matrix(0 -1 1 0 8.006689 12.963037)"/><path d="m19.0388351 4.43089148h-1.9563477" transform="matrix(.70710678 -.70710678 .70710678 .70710678 2.156732 14.068594)"/><path d="m21.9697266 11.5066895h-2.8986454"/><path d="m19.0388351 18.5824874h-1.9563477" transform="matrix(.70710678 .70710678 -.70710678 .70710678 18.429648 -7.328131)"/><path d="m12.9412109 21.5352051h-2.95311328" transform="matrix(0 1 -1 0 32.520068 9.550342)"/><path d="m4.88723914 18.5824874h-1.95634766" transform="matrix(-.70710678 .70710678 -.70710678 -.70710678 19.812994 28.958163)"/><path d="m3.00918598 11.5066895h-3.00918598" transform="matrix(-1 0 0 -1 3.009186 23.013378)"/><path d="m4.88723914 4.43089148h-1.95634766" transform="matrix(-.70710678 -.70710678 .70710678 -.70710678 3.540078 10.32813)"/></g></svg>