<?xml version="1.0" encoding="UTF-8"?>
<svg width="80px" height="80px" viewBox="0 0 80 80" version="1.1" xmlns="http://www.w3.org/2000/svg" xmlns:xlink="http://www.w3.org/1999/xlink">
    <!-- Generator: Sketch 52.6 (67491) - http://www.bohemiancoding.com/sketch -->
    <title>WOLF</title>
    <desc>Created with Sketch.</desc>
    <g id="Page-1" stroke="none" stroke-width="1" fill="none" fill-rule="evenodd">
        <g id="SANT-LOGO-Copy">
            <g id="WOLF">
                <path d="M79.804,0.0818320611 L52.148,10.1563359 L26.3706667,10.1563359 L7.10542736e-15,2.84217094e-14 L5.99066667,33.1627481 L0.237333333,51.1151145 L15.246,59.3349618 C22.3526667,63.2262595 28.7173333,68.0958779 34.1646667,73.8070229 L40.0093333,79.9340458 L46.1426667,73.4912977 C51.4053333,67.9615267 57.534,63.2152672 64.358,59.3832061 L79.0766667,51.1145038 L73.7766667,33.1883969 L79.804,0.0818320611 Z" id="FOX-SILHOUETTE" fill="#0C0C0B"></path>
                <g id="HALF-FACES" transform="translate(3.333333, 4.274809)">
                    <path d="M35.3426667,8.99243711 L23.2948066,8.99243711 L0,1.42108547e-13 L5.2919186,29.3623537 L0.209650904,45.2574095 L13.4677149,52.5352764 C19.7454639,55.980638 25.3677593,60.2922064 30.1797187,65.3488639 L35.3426667,70.7737405 L35.3426667,8.99243711 Z" id="LEFT-SIDE" fill="#B3A9B6"></path>
                    <path d="M72.0093333,8.99243711 L60.4159894,8.99243711 L38,2.84217094e-14 L43.0922763,29.3623537 L38.2017416,45.2574095 L50.9596335,52.5352764 C57.0005488,55.980638 62.4107382,60.2922064 67.0411622,65.3488639 L72.0093333,70.7737405 L72.0093333,8.99243711 Z" id="RIGHT-SIDE" fill="#878189" transform="translate(55.004667, 35.386870) scale(-1, 1) translate(-55.004667, -35.386870) "></path>
                </g>
                <g id="EARS" transform="translate(6.000000, 7.328244)" stroke="#000000" stroke-width="3">
                    <polygon id="EAR-LEFT" fill="#CC1762" transform="translate(6.591431, 9.407541) scale(-1, 1) translate(-6.591431, -9.407541) " points="13.1828614 0 9.85388945 18.8150825 0 5.53679346"></polygon>
                    <path d="M30,40.3053435 C28.1394832,41.4556542 25.7938633,43.0584333 22.9631404,45.113681 C20.1324175,47.1689287 18.0335929,48.823147 16.6666667,50.0763359 L16.6666667,40.3053435 L30,40.3053435 Z" id="EAR-LEFT-Copy" fill="#BA1CC5" transform="translate(23.333333, 45.190840) scale(-1, 1) translate(-23.333333, -45.190840) "></path>
                    <path d="M51.3333333,40.3053435 C49.4728165,41.4556542 47.1271966,43.0584333 44.2964737,45.113681 C41.4657508,47.1689287 39.3669262,48.823147 38,50.0763359 L38,40.3053435 L51.3333333,40.3053435 Z" id="EAR-LEFT-Copy-2" fill="#C51CA7"></path>
                    <polygon id="EAR-RIGHT" fill="#FFE049" points="66.5161947 0.610687023 63.1872228 19.4257696 53.3333333 6.14748049"></polygon>
                </g>
                <path d="M39.9957876,65.605279 L33.9336816,71.4855204 L39.9956464,77.7690906 L46.0091434,71.4853784 L39.9957876,65.605279 Z" id="NOSE" stroke="#000000" stroke-width="3" fill="#FF9A72"></path>
                <g id="EYES" transform="translate(12.666667, 34.198473)" stroke="#000000" stroke-width="3">
                    <polygon id="LEFT-EYE" fill="#97FE95" transform="translate(11.000000, 3.358779) scale(1, -1) translate(-11.000000, -3.358779) " points="11 0 22 6.71755725 0 6.71755725"></polygon>
                    <polygon id="RIGHT-EYE" fill="#75F8CF" transform="translate(43.000000, 3.358779) scale(1, -1) translate(-43.000000, -3.358779) " points="43 0 54 6.71755725 32 6.71755725"></polygon>
                </g>
            </g>
        </g>
    </g>
</svg>