<svg width="119" height="26" viewBox="0 0 119 26" fill="none" xmlns="http://www.w3.org/2000/svg">
<g clip-path="url(#clip0_2431_806)">
<mask id="mask0_2431_806" style="mask-type:alpha" maskUnits="userSpaceOnUse" x="0" y="3" width="24" height="24">
<path d="M0.631592 14.9172C0.631592 -0.972408 23.0611 -0.972401 23.3524 14.9172C23.5546 25.946 21.7922 26.897 20.6949 26.4467C20.0894 26.1983 19.4427 25.8911 18.8073 26.0485C13.657 27.325 10.3569 27.3075 5.21592 26.054C4.56078 25.8943 3.9039 26.2525 3.26821 26.4775C2.23324 26.8437 0.631592 25.673 0.631592 14.9172Z" fill="#BD68D5"/>
</mask>
<g mask="url(#mask0_2431_806)">
<path d="M23.3689 26.999H0.631592V3H23.3689V26.999ZM8.21069 8.68457C6.81545 8.68457 5.68433 9.81569 5.68433 11.2109V15C5.68433 16.3952 6.81545 17.5264 8.21069 17.5264C9.60586 17.5263 10.7371 16.3952 10.7371 15V11.2109C10.7371 9.81575 9.60586 8.68466 8.21069 8.68457ZM15.7898 8.68457C14.3945 8.68457 13.2634 9.81569 13.2634 11.2109V15C13.2634 16.3952 14.3945 17.5264 15.7898 17.5264C17.1849 17.5262 18.3162 16.3951 18.3162 15V11.2109C18.3162 9.8158 17.1849 8.68474 15.7898 8.68457Z" fill="#A568CC"/>
</g>
</g>
<path d="M40.63 25H37.06V24.28C36.61 24.73 35.26 25.24 33.79 25.24C31.09 25.24 28.81 23.68 28.81 20.89C28.81 18.34 31.09 16.6 34 16.6C35.17 16.6 36.52 16.99 37.06 17.38V16.39C37.06 15.25 36.37 14.32 34.87 14.32C33.82 14.32 33.19 14.8 32.89 15.58H29.35C29.74 13.15 31.93 11.29 34.99 11.29C38.56 11.29 40.63 13.24 40.63 16.45V25ZM37.06 21.34V20.38C36.73 19.66 35.71 19.21 34.63 19.21C33.46 19.21 32.26 19.72 32.26 20.86C32.26 22.03 33.46 22.51 34.63 22.51C35.71 22.51 36.73 22.06 37.06 21.34ZM53.4632 13C54.3332 12.04 55.6232 11.29 57.5132 11.29C60.2732 11.29 61.9232 13.21 61.9232 16.24V25H58.2032V17.02C58.2032 15.58 57.5732 14.62 56.2832 14.62C55.3232 14.62 54.4532 15.22 54.2132 16.36V25H50.4632V17.02C50.4632 15.58 49.8632 14.62 48.5732 14.62C47.6132 14.62 46.7132 15.22 46.4732 16.36V25H42.7532V11.59H46.4732V12.7C47.1332 11.86 48.3632 11.29 49.8632 11.29C51.4532 11.29 52.7132 12.01 53.4632 13ZM76.4188 18.31C76.4188 22.42 73.7488 25.3 69.8488 25.3C65.9488 25.3 63.2788 22.42 63.2788 18.31C63.2788 14.17 65.9488 11.29 69.8488 11.29C73.7488 11.29 76.4188 14.17 76.4188 18.31ZM72.7288 18.31C72.7288 16.06 71.7088 14.44 69.8488 14.44C67.9888 14.44 66.9688 16.06 66.9688 18.31C66.9688 20.53 67.9888 22.15 69.8488 22.15C71.7088 22.15 72.7288 20.53 72.7288 18.31ZM86.1737 20.62H89.6237C89.1437 23.47 87.0437 25.3 83.6837 25.3C79.7837 25.3 77.1737 22.45 77.1737 18.31C77.1737 14.26 79.8737 11.29 83.6237 11.29C87.5537 11.29 89.7138 14.02 89.7138 17.95V19.09H80.7737C80.8937 21.1 82.0337 22.3 83.6837 22.3C84.9438 22.3 85.8737 21.76 86.1737 20.62ZM83.6537 14.32C82.2137 14.32 81.1937 15.19 80.8637 16.84H86.0538C86.0237 15.43 85.1837 14.32 83.6537 14.32ZM94.8963 23.89V25H91.1463V5.5H94.8963V12.7C95.4963 11.98 96.8163 11.29 98.2563 11.29C102.156 11.29 104.346 14.47 104.346 18.31C104.346 22.15 102.156 25.3 98.2563 25.3C96.8163 25.3 95.4963 24.61 94.8963 23.89ZM94.8963 16.09V20.5C95.3163 21.43 96.3063 22.06 97.4163 22.06C99.4263 22.06 100.626 20.44 100.626 18.31C100.626 16.15 99.4263 14.53 97.4163 14.53C96.3363 14.53 95.3163 15.19 94.8963 16.09ZM116.872 25H113.302V24.28C112.852 24.73 111.502 25.24 110.032 25.24C107.332 25.24 105.052 23.68 105.052 20.89C105.052 18.34 107.332 16.6 110.242 16.6C111.412 16.6 112.762 16.99 113.302 17.38V16.39C113.302 15.25 112.612 14.32 111.112 14.32C110.062 14.32 109.432 14.8 109.132 15.58H105.592C105.982 13.15 108.172 11.29 111.232 11.29C114.802 11.29 116.872 13.24 116.872 16.45V25ZM113.302 21.34V20.38C112.972 19.66 111.952 19.21 110.872 19.21C109.702 19.21 108.502 19.72 108.502 20.86C108.502 22.03 109.702 22.51 110.872 22.51C111.952 22.51 112.972 22.06 113.302 21.34Z" fill="#A568CC"/>
<defs>
<clipPath id="clip0_2431_806">
<rect width="24" height="24" fill="white" transform="translate(0 3)"/>
</clipPath>
</defs>
</svg>
