<svg width="120" height="281" viewBox="0 0 120 281" fill="none" xmlns="http://www.w3.org/2000/svg">
<path d="M22.3581 276.255C22.3581 273.74 24.3972 271.701 26.9125 271.701H92.3304C94.8457 271.701 96.8848 273.74 96.8848 276.255V276.255C96.8848 278.77 94.8457 280.809 92.3304 280.809H26.9125C24.3972 280.809 22.3581 278.77 22.3581 276.255V276.255Z" fill="#FFC800"/>
<path d="M31.881 264.248H87.362V271.701H31.881V264.248Z" fill="#F3F2F2"/>
<path d="M31.881 257.623H87.362V264.248H31.881V257.623Z" fill="#B66A00"/>
<path d="M31.881 196.76C31.881 194.931 33.3639 193.448 35.1933 193.448H84.0497C85.879 193.448 87.362 194.931 87.362 196.76V254.311C87.362 256.14 85.879 257.623 84.0497 257.623H35.1933C33.3639 257.623 31.881 256.14 31.881 254.311V196.76Z" fill="#7DD9EA"/>
<rect x="67.4883" y="220.774" width="1.65615" height="11.179" rx="0.828075" fill="#E3F7FA"/>
<rect x="71.2145" y="218.704" width="1.24211" height="11.179" rx="0.621056" fill="#E3F7FA"/>
<rect x="80.3234" y="221.602" width="1.24211" height="13.2492" rx="0.621056" fill="#E3F7FA"/>
<rect x="66.2462" y="211.665" width="16.5615" height="11.593" rx="3.3123" fill="#D0F1F7"/>
<rect x="22.3582" y="245.202" width="74.5267" height="12.4211" rx="2.07019" fill="#D0F1F7"/>
<path d="M26.4984 44.8081L26.4984 8.37284C26.4984 3.79951 30.2058 0.0920982 34.7792 0.0920982L84.4636 0.0920982C89.037 0.0920982 92.7444 3.79951 92.7444 8.37284V44.8081L26.4984 44.8081Z" fill="#4F4E4E"/>
<path d="M31.8809 78.7592H87.3619V98.219H31.8809V78.7592Z" fill="#B66A00"/>
<path d="M26.4984 44.8082C26.4984 26.5148 41.3281 11.6852 59.6214 11.6852V11.6852C77.9147 11.6852 92.7444 26.5148 92.7444 44.8082V84.1417C92.7444 86.4284 90.8907 88.2821 88.604 88.2821H30.6388C28.3521 88.2821 26.4984 86.4284 26.4984 84.1417V44.8082Z" fill="#B66A00"/>
<path d="M42.2319 38.1835C42.2319 34.0675 45.5685 30.7308 49.6845 30.7308V30.7308C53.8005 30.7308 57.1372 34.0675 57.1372 38.1835V42.7379C57.1372 46.8539 53.8005 50.1906 49.6845 50.1906V50.1906C45.5685 50.1906 42.2319 46.8539 42.2319 42.7379V38.1835Z" fill="white"/>
<path d="M48.0283 39.0116C48.0283 37.1823 49.5113 35.6993 51.3406 35.6993V35.6993C53.17 35.6993 54.6529 37.1823 54.6529 39.0116V42.3239C54.6529 44.1532 53.17 45.6362 51.3406 45.6362V45.6362C49.5113 45.6362 48.0283 44.1532 48.0283 42.3239V39.0116Z" fill="#333232"/>
<path d="M41.4038 28.6534C41.4038 27.4363 42.1708 26.3397 43.3354 25.9861C47.8915 24.6028 51.0955 24.5663 55.6578 25.9816C56.8027 26.3368 57.5513 27.42 57.5513 28.6188V28.6188C57.5513 30.7192 55.3559 32.0645 53.3376 31.4826C50.6409 30.7051 48.3066 30.7275 45.5955 31.5178C43.5813 32.105 41.4038 30.7515 41.4038 28.6534V28.6534Z" fill="#6D4000"/>
<rect width="26.2541" height="7.51052" transform="matrix(-0.996195 -0.0871557 -0.0871557 0.996195 58.9208 44.6121)" fill="#B66A00"/>
<rect x="62.1057" y="30.7308" width="14.9053" height="19.4598" rx="7.45267" fill="white"/>
<path d="M64.5899 39.0116C64.5899 37.1823 66.0729 35.6993 67.9022 35.6993V35.6993C69.7315 35.6993 71.2145 37.1823 71.2145 39.0116V42.3239C71.2145 44.1532 69.7315 45.6362 67.9022 45.6362V45.6362C66.0729 45.6362 64.5899 44.1532 64.5899 42.3239V39.0116Z" fill="#333232"/>
<path d="M60.8636 25.7842C60.8636 24.5876 61.5754 23.4959 62.6962 23.0767C67.8109 21.1638 71.3235 21.113 76.4495 23.0699C77.5555 23.4921 78.2532 24.5756 78.2532 25.7595V25.7595C78.2532 27.9376 75.991 29.3468 73.9003 28.736C70.8601 27.8479 68.2585 27.8576 65.1981 28.7559C63.1133 29.3679 60.8636 27.957 60.8636 25.7842V25.7842Z" fill="#6D4000"/>
<rect x="62.1057" y="49.119" width="26.2541" height="5.47231" transform="rotate(-15 62.1057 49.119)" fill="#B66A00"/>
<path d="M26.4984 53.917H92.7444V84.1417C92.7444 86.4284 90.8907 88.2821 88.604 88.2821H30.6388C28.3521 88.2821 26.4984 86.4284 26.4984 84.1417V53.917Z" fill="#4F4E4E"/>
<rect x="57.5512" y="38.1835" width="4.14037" height="17.3896" rx="2.07019" fill="#6D4000"/>
<path d="M58.9043 48.1204C59.223 47.5684 60.0198 47.5684 60.3386 48.1204L64.6414 55.5731C64.9601 56.1252 64.5617 56.8152 63.9242 56.8152H55.3186C54.6812 56.8152 54.2828 56.1252 54.6015 55.5731L58.9043 48.1204Z" fill="#6D4000"/>
<path d="M44.0154 56.4973C44.1481 56.5595 44.2757 56.6301 44.4085 56.692L65.7385 66.6384C66.7337 67.1025 67.4869 68.0129 67.3567 69.1033C67.1572 70.7742 66.1994 73.317 62.5497 75.1687C56.6479 78.163 39.4443 75.1687 39.4445 64.3946C39.4447 54.9287 43.1223 56.0785 44.0154 56.4973Z" fill="white"/>
<path d="M44.663 56.8152L48.0284 58.3472C48.0284 58.3472 48.9616 62.1037 48.0271 62.635C46.6502 63.4179 44.4761 62.8121 43.9154 62.635C41.6233 61.911 44.663 56.8152 44.663 56.8152Z" fill="#DBAB00"/>
<path d="M26.4984 19.9659V8.37284C26.4984 3.79951 30.2058 0.0920887 34.7792 0.0920887L84.4636 0.0920887C89.037 0.0920887 92.7444 3.79951 92.7444 8.37283V19.9659L26.4984 19.9659Z" fill="#333232"/>
<path d="M32.7426 11.5618C32.7426 11.5618 29.2493 10.7523 26.4984 9.40797C25.0673 19.2206 22.6453 25.0074 19.9769 33.8817C19.4489 35.6378 20.4928 37.4707 22.264 37.9453V37.9453C24.0207 38.416 25.8263 37.3735 26.297 35.6168L32.7426 11.5618Z" fill="#333232"/>
<path d="M35.6072 17.6887H42.2318V46.8784C42.2318 48.7077 40.7488 50.1907 38.9195 50.1907V50.1907C37.0901 50.1907 35.6072 48.7077 35.6072 46.8784V17.6887Z" fill="#333232"/>
<path d="M29.8107 6.30267H36.4353V35.4923C36.4353 37.3216 34.9523 38.8046 33.123 38.8046V38.8046C31.2936 38.8046 29.8107 37.3216 29.8107 35.4923V6.30267Z" fill="#333232"/>
<circle cx="94.4006" cy="49.3625" r="7.03863" fill="#B66A00"/>
<circle cx="24.8423" cy="49.3625" r="7.03863" fill="#B66A00"/>
<rect x="22.3581" y="51.4327" width="2.48422" height="2.89826" rx="1.24211" fill="#DBAB00"/>
<rect x="94.4006" y="51.4327" width="2.48422" height="2.89826" rx="1.24211" fill="#DBAB00"/>
<rect x="17.8036" y="101.531" width="83.6355" height="11.179" rx="3.3123" fill="#207218"/>
<path d="M29.8109 96.5628C29.8109 95.6481 30.5523 94.9067 31.467 94.9067H87.362C88.2767 94.9067 89.0182 95.6481 89.0182 96.5628V99.8751C89.0182 100.79 88.2767 101.531 87.362 101.531H31.467C30.5523 101.531 29.8109 100.79 29.8109 99.8751V96.5628Z" fill="black"/>
<path d="M31.881 101.531H87.362V185.581C87.362 187.41 85.879 188.893 84.0497 188.893H35.1933C33.3639 188.893 31.881 187.41 31.881 185.581V101.531Z" fill="black"/>
<path d="M8.0422 124.904C4.57725 128.173 4.57726 133.683 8.04221 136.952L31.7885 159.351C37.0707 164.333 45.7512 160.589 45.7512 153.327L45.7512 108.529C45.7512 101.267 37.0707 97.5223 31.7885 102.505L8.0422 124.904Z" fill="black"/>
<path d="M43.06 128.03H47.2004C56.1022 127.616 61.0119 133.756 60.4496 147.075H43.06V128.03Z" fill="white"/>
<rect x="45.5442" y="145.005" width="14.9053" height="21.1159" fill="#FFDF6D"/>
<rect x="40.5757" y="138.381" width="22.358" height="6.6246" rx="0.828075" fill="#FFDF6D"/>
<rect x="51.7548" y="149.689" width="6.6246" height="1.65615" rx="0.828075" transform="rotate(-45 51.7548 149.689)" fill="#FFD024"/>
<rect x="52.9258" y="145.005" width="6.6246" height="1.65615" rx="0.828075" transform="rotate(45 52.9258 145.005)" fill="#FFD024"/>
<rect x="43.0601" y="149.689" width="6.6246" height="1.65615" rx="0.828075" transform="rotate(-45 43.0601 149.689)" fill="#FFD024"/>
<rect x="44.2311" y="145.005" width="6.6246" height="1.65615" rx="0.828075" transform="rotate(45 44.2311 145.005)" fill="#FFD024"/>
<path d="M53.5875 123.483C54.5632 123.517 55.0425 125.259 54.1438 125.641C50.3485 127.252 49.5633 127.682 49.9389 131.385C50.0228 132.212 48.9888 132.687 48.4486 132.055L44.8403 127.835C44.5715 127.521 44.5763 127.054 44.8584 126.751C48.4687 122.88 50.1488 123.365 53.5875 123.483Z" fill="white"/>
<circle cx="51.7547" cy="164.051" r="12.8352" fill="#B66A00"/>
<path d="M74.7338 102.359C74.7338 101.902 75.1045 101.531 75.5618 101.531H87.9582C88.1098 101.531 88.262 101.575 88.3915 101.654C124.06 123.374 131.667 143.462 100.232 200.463C100.086 200.727 99.8031 200.9 99.5018 200.9H75.5618C75.1045 200.9 74.7338 200.529 74.7338 200.072V102.359Z" fill="#207218"/>
<path d="M72.8706 102.359C72.8706 101.902 73.2413 101.531 73.6987 101.531H76.1829V200.9H73.6987C73.2413 200.9 72.8706 200.529 72.8706 200.072V102.359Z" fill="#13450F"/>
<rect x="96.8848" y="198.83" width="3.3123" height="21.944" rx="1.65615" fill="#207218"/>
<rect x="94.4005" y="188.893" width="3.3123" height="21.944" rx="1.65615" fill="#207218"/>
<rect x="81.5654" y="193.448" width="3.3123" height="21.944" rx="1.65615" fill="#207218"/>
<path d="M45.2662 102.359C45.2662 101.902 44.8955 101.531 44.4382 101.531H32.0418C31.8902 101.531 31.738 101.575 31.6085 101.654C-4.06037 123.374 -11.6673 143.462 19.7685 200.463C19.914 200.727 20.1969 200.9 20.4982 200.9H44.4382C44.8955 200.9 45.2662 200.529 45.2662 200.072V102.359Z" fill="#207218"/>
<path d="M47.1295 102.359C47.1295 101.902 46.7587 101.531 46.3014 101.531H43.8172V200.9H46.3014C46.7587 200.9 47.1295 200.529 47.1295 200.072V102.359Z" fill="#13450F"/>
<rect width="3.3123" height="21.944" rx="1.65615" transform="matrix(-1 0 0 1 23.1153 198.83)" fill="#207218"/>
<rect width="3.3123" height="21.944" rx="1.65615" transform="matrix(-1 0 0 1 25.5995 188.893)" fill="#207218"/>
<rect width="3.3123" height="21.944" rx="1.65615" transform="matrix(-1 0 0 1 38.4348 193.448)" fill="#207218"/>
</svg>
