<svg width="51" height="57" viewBox="0 0 51 57" fill="none" xmlns="http://www.w3.org/2000/svg">
<mask id="mask0_2464_816" style="mask-type:alpha" maskUnits="userSpaceOnUse" x="0" y="0" width="51" height="57">
<rect width="51" height="57" fill="#D9D9D9"/>
</mask>
<g mask="url(#mask0_2464_816)">
<mask id="mask1_2464_816" style="mask-type:alpha" maskUnits="userSpaceOnUse" x="19" y="-1" width="32" height="59">
<rect x="19" y="-1" width="32" height="59" fill="#D9D9D9"/>
</mask>
<g mask="url(#mask1_2464_816)">
<path d="M47.0203 47.6275C47.0203 49.6541 45.35 51.297 43.2896 51.297C41.2293 51.297 39.559 49.6541 39.559 47.6275C39.559 45.6008 41.2293 43.9579 43.2896 43.9579C45.35 43.9579 47.0203 45.6008 47.0203 47.6275Z" fill="#FC75B8"/>
<path d="M40.1926 53.5969C39.2348 54.1026 38.0753 53.2628 38.3003 52.2167C38.8767 49.5377 39.3444 47.3154 39.9304 46.0473C40.1813 45.5042 40.8516 45.4366 41.3434 45.7857L45.6574 48.8479C46.1553 49.2013 46.3115 49.8671 45.863 50.2796C44.7715 51.2836 42.7189 52.263 40.1926 53.5969Z" fill="#FC75B8"/>
<path d="M47.0201 47.6272C47.0201 49.6539 41.0873 53.7432 39.5588 53.7432C37.1053 53.7432 38.3424 48.8636 39.5588 46.4041C40.7969 43.9007 43.2835 43.8963 43.2894 43.9577C43.2953 44.019 47.0201 45.6006 47.0201 47.6272Z" fill="#FF4A59"/>
<path d="M47.0201 47.6275C47.0201 50.0738 39.7608 53.7578 39.5588 53.7434C37.2843 53.5812 41.248 43.7968 43.2895 43.9579C45.3498 43.9579 47.0201 45.6008 47.0201 47.6275Z" fill="#FF981D"/>
<path d="M47.0205 47.6272C47.0205 52.52 40.0007 53.8002 39.5592 53.7432C39.1176 53.6862 43.3994 44.0904 44.5335 44.1778C44.7118 44.1916 47.0205 45.0081 47.0205 47.6272Z" fill="#FFBE1D"/>
<path d="M47.0201 47.6273C47.0201 50.787 42.4801 53.5532 39.8399 53.7433C39.7436 53.7502 39.6498 53.7433 39.5588 53.7433C43.9439 50.3792 45.1548 44.447 45.1548 44.447C45.1548 44.447 47.0202 45.1809 47.0201 47.6273Z" fill="#87E234"/>
<path d="M47.02 47.615C47.0203 51.9083 42.0461 53.7431 39.6833 53.7431C47.0203 51.2968 45.7766 44.8383 45.7766 44.8383C45.7766 44.8383 47.0198 45.6493 47.02 47.615Z" fill="#32BDEC"/>
<path d="M34.7112 48.639H39.3415V55.0135H34.7112V48.639Z" fill="#F7F7F7"/>
<path d="M29.6761 48.639H34.3065V54.8992H29.6761V48.639Z" fill="#F7F7F7"/>
<path d="M34.3253 52.5529C30.0632 52.5529 26.9751 49.0483 26.9751 44.7252V42.3768C26.9751 38.0537 30.4302 34.549 34.6923 34.549C38.9544 34.549 40.9414 38.0537 40.9414 42.3768L42.4096 44.7252C42.4096 49.0483 38.5874 52.5529 34.3253 52.5529Z" fill="#F7F7F7"/>
<path d="M27.5756 37.6802L30.8498 41.0012L26.5009 45.4275L23.2464 42.1264L27.5756 37.6802Z" fill="#F7F7F7"/>
<path d="M39.9899 37.6802L36.7158 41.0012L41.1189 45.4275L44.3733 42.3098L39.9899 37.6802Z" fill="#F7F7F7"/>
<path d="M29.6755 50.6739L34.3058 52.5432L34.3058 56.0754C34.3058 56.5077 33.9603 56.8581 33.5341 56.8581H30.4472C30.021 56.8581 29.6755 55.4392 29.6755 55.0069V50.6739Z" fill="#E5E5E5"/>
<path d="M34.3058 52.5432C30.0437 52.5432 26.9745 49.2573 26.9745 44.9342V42.3768C26.9745 38.0536 27.575 37.6801 27.575 37.6801C26.9936 45.6986 34.3058 52.5432 34.3058 52.5432Z" fill="#E5E5E5"/>
<path d="M27.575 37.6801L26.9745 44.9342L25.8902 45.8284C25.8902 45.8284 23.493 42.432 23.1917 42.1263L27.575 37.6801Z" fill="#E5E5E5"/>
<path d="M34.7107 53.232C35.4987 54.227 36.1609 54.8731 36.9112 55.438C37.5489 55.9181 37.2592 56.9812 36.4609 56.9812H35.494C35.0614 56.9812 34.7107 56.6305 34.7107 56.1979V53.232Z" fill="#E5E5E5"/>
<path d="M34.7104 55.0079H39.3408V56.1979C39.3408 56.6305 38.9901 56.9812 38.5575 56.9812H35.4937C35.0611 56.9812 34.7104 56.6305 34.7104 56.1979V55.0079Z" fill="#FC75B8"/>
<path d="M34.7104 55.0079H36.3731C36.3731 55.0079 38.649 56.9812 38.5691 56.9812C38.4334 56.9812 36.5806 56.9812 35.4926 56.9812C35.06 56.9812 34.7104 56.6305 34.7104 56.1979V55.0079Z" fill="#E369A6"/>
<path d="M29.6754 55.008H34.3057V56.1979C34.3057 56.6305 33.955 56.9812 33.5224 56.9812H30.4587C30.0261 56.9812 29.6754 56.6305 29.6754 56.1979V55.008Z" fill="#E369A6"/>
<path d="M44.192 42.1265L41.0805 45.4571L41.8971 46.2924C42.1995 46.6017 42.6899 46.6017 42.9923 46.2924L45.1358 44.1C45.4517 43.7769 45.4355 43.2481 45.1004 42.9459L44.192 42.1265Z" fill="#FC75B8"/>
<path d="M43.2631 44.3406L43.609 45.6611L44.5542 44.6944L43.2631 44.3406Z" fill="#FEBADC"/>
<path d="M24.9615 14.8822H44.5096L50.0311 31.8971C51.0735 35.1091 48.7147 38.4155 45.3809 38.4155H24.0902C20.7564 38.4155 18.3976 35.1091 19.44 31.8971L24.9615 14.8822Z" fill="#F7F7F7"/>
<path d="M26.9341 9.79925C27.304 8.8436 28.5925 8.73047 29.1188 9.60744L32.308 14.9217H24.9513L26.9341 9.79925Z" fill="#F7F7F7"/>
<path d="M40.4334 9.67355C40.9572 8.78192 42.2643 8.89715 42.6286 9.86707L44.5567 15.0274H37.4711L40.4334 9.67355Z" fill="#F7F7F7"/>
<path d="M27.3573 9.25211C24.6972 16.6559 25.6904 28.1875 25.7521 28.3832C25.8139 28.5789 18.464 34.8904 19.5024 31.7063C25.0973 14.1648 26.6965 9.48055 27.3573 9.25211Z" fill="#E5E5E5"/>
<path d="M33.6204 24.5156C33.6204 24.3522 33.683 24.1936 33.8047 24.0847C34.9759 23.0373 36.8201 22.6633 38.5524 24.0825C38.6865 24.1923 38.7589 24.3595 38.7589 24.5329C38.7589 25.033 38.1916 25.323 37.7515 25.0856C36.6231 24.4772 35.7688 24.4745 34.6429 25.0775C34.1957 25.317 33.6204 25.0229 33.6204 24.5156Z" fill="#CFCFCF"/>
<path d="M27.381 24.5156C27.381 24.3522 27.4435 24.1936 27.5653 24.0847C28.7364 23.0373 30.5806 22.6633 32.3129 24.0825C32.4471 24.1923 32.5194 24.3595 32.5194 24.5329C32.5194 25.033 31.9522 25.323 31.512 25.0856C30.3837 24.4772 29.5294 24.4745 28.4035 25.0775C27.9563 25.317 27.381 25.0229 27.381 24.5156Z" fill="#CFCFCF"/>
<path d="M20.5882 29.1613C32.5445 26.6148 37.1652 26.5847 49.1216 29.0937C49.5183 30.3061 49.8463 31.3389 50.1435 32.3028C51.1173 35.4612 48.705 38.6359 45.3999 38.6359L24.4031 38.6359C21.0612 38.6359 18.6721 35.4033 19.6528 32.2086L20.5882 29.1613Z" fill="#FC75B8"/>
<path d="M20.3275 29.1054C24.1441 28.2975 25.8709 28.1701 25.8709 28.1701C26.461 33.4406 31.5593 38.6016 31.7545 38.6418H23.99C20.7095 38.6418 18.2422 35.4942 19.2106 32.3598C19.5223 31.3509 19.8766 30.3031 20.3275 29.1054Z" fill="#E369A6"/>
<rect x="28.2637" y="30.2438" width="3.47276" height="4.30528" rx="1.73638" fill="#CA5E93"/>
<rect x="32.5082" y="30.2438" width="3.47276" height="4.30528" rx="1.73638" fill="#CA5E93"/>
<path d="M39.0718 14.7491C39.0718 16.7758 37.4016 18.4187 35.3412 18.4187C33.2808 18.4187 31.6105 16.7758 31.6105 14.7491C31.6105 12.7225 33.2808 11.0795 35.3412 11.0795C37.4016 11.0795 39.0718 12.7225 39.0718 14.7491Z" fill="#FC75B8"/>
<path d="M32.2442 20.7185C31.2864 21.2242 30.1268 20.3844 30.3519 19.3383C30.9283 16.6594 31.3959 14.4371 31.9819 13.169C32.2329 12.6258 32.9031 12.5582 33.395 12.9074L37.7089 15.9695C38.2068 16.3229 38.3631 16.9887 37.9146 17.4012C36.823 18.4052 34.7704 19.3846 32.2442 20.7185Z" fill="#FC75B8"/>
<path d="M39.0718 14.7489C39.0718 16.7756 33.139 20.8649 31.6106 20.8649C29.157 20.8649 30.3941 15.9853 31.6106 13.5257C32.8487 11.0224 35.3353 11.018 35.3411 11.0794C35.347 11.1407 39.0718 12.7223 39.0718 14.7489Z" fill="#FF4A59"/>
<path d="M39.0715 14.7492C39.0715 17.1956 31.8123 20.8796 31.6102 20.8652C29.3358 20.703 33.2995 10.9186 35.3409 11.0797C37.4013 11.0797 39.0715 12.7226 39.0715 14.7492Z" fill="#FF981D"/>
<path d="M39.072 14.7489C39.072 19.6417 32.0523 20.9218 31.6107 20.8649C31.1691 20.8079 35.4509 11.2121 36.585 11.2995C36.7633 11.3133 39.072 12.1298 39.072 14.7489Z" fill="#FFBE1D"/>
<path d="M39.0717 14.7489C39.0717 17.9086 34.5317 20.6747 31.8915 20.8648C31.7951 20.8718 31.7013 20.8648 31.6104 20.8648C35.9955 17.5008 37.2064 11.5686 37.2064 11.5686C37.2064 11.5686 39.0717 12.3025 39.0717 14.7489Z" fill="#87E234"/>
<path d="M39.0714 14.7366C39.0718 19.03 34.0975 20.8647 31.7348 20.8647C39.0717 18.4185 37.828 11.9599 37.828 11.9599C37.828 11.9599 39.0713 12.771 39.0714 14.7366Z" fill="#32BDEC"/>
<path d="M34.1001 1.48199C34.4428 0.648424 35.6294 0.666266 35.9469 1.50975L38.5308 8.37537C38.7751 9.02438 38.2954 9.71743 37.6019 9.71743H32.1957C31.4895 9.71743 31.0092 9.00075 31.2777 8.3476L34.1001 1.48199Z" fill="#FFBE1D"/>
<ellipse cx="32.7981" cy="7.20576" rx="0.313512" ry="0.306304" fill="#CC9817"/>
<ellipse cx="35.275" cy="4.14268" rx="0.783783" ry="0.765761" fill="#CC9817"/>
<mask id="mask2_2464_816" style="mask-type:alpha" maskUnits="userSpaceOnUse" x="23" y="33" width="7" height="5">
<path d="M23.6958 36.3544C22.8919 34.7705 23.943 33.2275 25.5929 33.8806C27.0562 34.4599 28.3511 34.9708 29.1747 34.0515C29.3388 33.8684 29.6485 33.8492 29.784 34.0544C29.8478 34.1509 29.8546 34.2756 29.8014 34.3784C28.738 36.4309 27.7361 37.2711 26.0701 37.622C25.0935 37.8277 24.1478 37.245 23.6958 36.3544Z" fill="#FC83BF"/>
</mask>
<g mask="url(#mask2_2464_816)">
<rect x="21.4658" y="31.391" width="9.1758" height="6.61853" fill="white"/>
</g>
<ellipse cx="41.3281" cy="37.8611" rx="1.83516" ry="1.83848" fill="#FC75B8"/>
<ellipse cx="41.3281" cy="37.8611" rx="1.1011" ry="1.10309" fill="#FC83BF"/>
</g>
<path d="M22.2367 41.5156C22.6951 41.2867 23.1965 41.2131 23.6605 41.3658C24.1179 41.5162 24.616 41.9127 25.0247 42.7782C25.8521 44.5304 25.634 46.3804 25.1805 47.8307C24.9598 48.5364 24.6859 49.134 24.4651 49.5607L21.1517 43.3452L21.138 43.3182L21.1198 43.293L21.0817 43.2286C21.0044 43.0663 21.0096 42.8173 21.1921 42.4858C21.3952 42.117 21.7745 41.7465 22.2367 41.5156Z" stroke="#FC83BF" stroke-width="0.91395"/>
<path d="M14.9964 44.1095L20.5989 41.7145L25.8914 50.2199L17.4876 53.8124L14.9964 44.1095Z" fill="#FC83BF"/>
<rect x="16.9081" y="53.2318" width="9.7488" height="0.91395" rx="0.456975" transform="rotate(-23.1459 16.9081 53.2318)" fill="#FC75B8"/>
<rect x="14.3761" y="44.2089" width="7.3116" height="0.91395" rx="0.456975" transform="rotate(-23.1459 14.3761 44.2089)" fill="#FC75B8"/>
<path d="M9.72511 47.9586L16.591 49.9712L17.139 52.2219L9.60946 48.7727L9.72511 47.9586Z" fill="#FC83BF"/>
<path d="M8.41434 49.6795C8.76231 49.7849 9.14722 49.7171 9.48438 49.4909C9.82154 49.2647 10.0833 48.8987 10.2122 48.4734C10.341 48.0481 10.3264 47.5983 10.1714 47.223C10.0165 46.8478 9.73393 46.5777 9.38596 46.4723L8.90015 48.0759L8.41434 49.6795Z" fill="#FC83BF"/>
<rect x="9.71701" y="46.2952" width="3.80812" height="0.456975" rx="0.228487" transform="rotate(106.854 9.71701 46.2952)" fill="#FC75B8"/>
<ellipse cx="7.98354" cy="46.4628" rx="0.508443" ry="0.254221" transform="rotate(39.4209 7.98354 46.4628)" fill="#2DAAD4"/>
<ellipse cx="6.71244" cy="46.9712" rx="0.508443" ry="0.254221" transform="rotate(11.8288 6.71244 46.9712)" fill="#2DAAD4"/>
<ellipse cx="1.89644" cy="50.4698" rx="0.508443" ry="0.254221" transform="rotate(-27.2255 1.89644 50.4698)" fill="#2DAAD4"/>
<ellipse cx="4.3971" cy="49.5438" rx="0.508443" ry="0.254221" transform="rotate(-48.6184 4.3971 49.5438)" fill="#2DAAD4"/>
<ellipse cx="4.14289" cy="47.51" rx="0.508443" ry="0.254221" transform="rotate(-30.7161 4.14289 47.51)" fill="#2DAAD4"/>
<ellipse cx="4.42794" cy="54.5907" rx="0.508443" ry="0.254221" transform="rotate(-53.9035 4.42794 54.5907)" fill="#2DAAD4"/>
<ellipse cx="7.74097" cy="48.1432" rx="0.508443" ry="0.254221" transform="rotate(-21.0821 7.74097 48.1432)" fill="#2DAAD4"/>
<path d="M24.2202 41.0109C25.3012 41.9424 26.2259 43.7081 26.0293 45.6032L25.4255 45.9386C25.0624 46.1404 24.6085 46.0147 24.3942 45.6532L22.8836 43.104C22.6904 42.7779 22.7515 42.3573 23.029 42.1029L24.2202 41.0109Z" fill="#E369A6"/>
<mask id="mask3_2464_816" style="mask-type:alpha" maskUnits="userSpaceOnUse" x="-1" y="50" width="8" height="8">
<rect x="-1" y="50" width="8" height="8" fill="#D9D9D9"/>
</mask>
<g mask="url(#mask3_2464_816)">
<path d="M2.60232 51.1961C2.66457 51.078 2.78555 51 2.91903 51C3.15423 51 3.31763 51.2416 3.35743 51.4734C3.39039 51.6654 3.47656 51.8847 3.58925 52.2239C3.6029 52.265 3.62019 52.3052 3.64022 52.3436C4.13636 53.2942 4.11296 53.8496 3.60963 54.8571C3.30105 55.4024 3.23081 55.7885 3.31758 56.2065C3.39787 56.5934 3.15745 57 2.76238 57C2.55653 57 2.36668 56.8836 2.28111 56.6963C1.92256 55.9118 1.84282 55.3793 2.42617 54.5143C2.82765 54.051 2.72136 53.3059 2.42617 52.5429C2.17594 51.9212 2.38887 51.601 2.60232 51.1961Z" fill="#51881F"/>
<path d="M6 57C6 56.7374 5.9224 56.4773 5.77164 56.2346C5.62087 55.992 5.3999 55.7715 5.12132 55.5858C4.84274 55.4001 4.51203 55.2528 4.14805 55.1522C3.78407 55.0517 3.39397 55 3 55C2.60603 55 2.21593 55.0517 1.85195 55.1522C1.48797 55.2528 1.15726 55.4001 0.87868 55.5858C0.600104 55.7715 0.379125 55.992 0.228361 56.2346C0.0775972 56.4773 -3.44416e-08 56.7374 0 57L3 57H6Z" fill="#997211"/>
<mask id="mask4_2464_816" style="mask-type:alpha" maskUnits="userSpaceOnUse" x="0" y="52" width="3" height="3">
<path d="M0.494368 52.8424C0.426955 52.9573 0.479084 53.9145 1.52208 54.5781L2.51086 52.8933C1.4454 52.268 0.561781 52.7276 0.494368 52.8424Z" fill="#5F9E24"/>
<path d="M2.51086 52.8933L1.52208 54.5781C1.52208 54.5781 0.553869 54.009 1.50513 54.5672C2.4564 55.1255 3.41079 53.4215 2.49758 52.8855C1.58437 52.3496 2.51086 52.8933 2.51086 52.8933Z" fill="#5F9E24"/>
</mask>
<g mask="url(#mask4_2464_816)">
<rect width="1.95355" height="2.73554" transform="matrix(-0.506147 0.862447 0.862447 0.506147 0.988556 52.0004)" fill="#51881F"/>
<path d="M2.89856 54.1504L1.5451 53.4062C1.52344 53.3943 1.49623 53.4018 1.48372 53.4231C1.47121 53.4444 1.47794 53.4718 1.4989 53.4849L2.80867 54.3036L2.89856 54.1504Z" fill="#44711A"/>
</g>
<mask id="mask5_2464_816" style="mask-type:alpha" maskUnits="userSpaceOnUse" x="3" y="50" width="4" height="4">
<path d="M6.50814 51.1179C6.59302 51.2688 6.50245 52.5118 5.13092 53.3495L3.88582 51.136C5.28565 50.3486 6.42325 50.967 6.50814 51.1179Z" fill="#5F9E24"/>
<path d="M3.88582 51.136L5.13092 53.3495C5.13092 53.3495 6.39739 52.6363 5.1476 53.3393C3.89781 54.0423 2.71289 51.7959 3.91269 51.121C5.11248 50.4462 3.88582 51.136 3.88582 51.136Z" fill="#5F9E24"/>
</mask>
<g mask="url(#mask5_2464_816)">
<rect x="5.88574" y="50.0114" width="2.53972" height="3.55634" transform="rotate(60.6427 5.88574 50.0114)" fill="#5F9E24"/>
<path d="M3.35193 52.7608L5.12894 51.8257C5.15737 51.8107 5.19256 51.8211 5.20831 51.8491C5.22407 51.8771 5.21467 51.9126 5.18711 51.9291L3.46512 52.9621L3.35193 52.7608Z" fill="#51881F"/>
</g>
<path d="M5.93603 50.9334C5.87407 50.9568 5.81794 50.9938 5.77085 51.0423C5.72376 51.0908 5.68663 51.1499 5.66158 51.2162C5.63653 51.2825 5.62406 51.3546 5.62486 51.4286C5.62567 51.5026 5.63974 51.5768 5.66627 51.6472C5.69281 51.7176 5.73129 51.7827 5.77952 51.8387C5.82775 51.8948 5.88478 51.9408 5.94736 51.974C5.90524 51.9516 6.00993 52.0072 5.94736 51.974C6.26348 52.1047 6.32993 52.7938 6.39177 52.7938C6.21379 52.0673 5.93603 50.9334 5.93603 50.9334Z" fill="#32BDEC"/>
<path d="M5.93603 50.9334C5.998 50.9101 6.06457 50.9008 6.13197 50.9061C6.19938 50.9115 6.26628 50.9313 6.32886 50.9645C6.39144 50.9978 6.44847 51.0437 6.4967 51.0998C6.54493 51.1559 6.58341 51.221 6.60995 51.2913C6.63649 51.3617 6.65056 51.436 6.65136 51.5099C6.65216 51.5839 6.65136 51.54 6.65136 51.54C6.6636 51.9728 6.51544 52.7938 6.39177 52.7938C6.21379 52.0673 5.93603 50.9334 5.93603 50.9334Z" fill="#32BDEC"/>
<path d="M6.1735 51.1898C6.11873 51.1857 6.07046 51.1201 6.08544 51.0621C6.09082 51.0413 6.10374 51.0252 6.12196 51.02C6.27586 50.9758 6.42712 51.067 6.52531 51.2318C6.53758 51.2524 6.54063 51.277 6.53519 51.298C6.5206 51.3545 6.45484 51.3585 6.41257 51.312C6.34025 51.2326 6.2706 51.1971 6.1735 51.1898Z" fill="#47C4EE"/>
</g>
</g>
</svg>
