<svg width="150" height="150" viewBox="0 0 150 150" fill="none" xmlns="http://www.w3.org/2000/svg">
<mask id="mask0_2237_1021" style="mask-type:alpha" maskUnits="userSpaceOnUse" x="0" y="0" width="150" height="150">
<circle cx="75" cy="75" r="75" fill="#FFD877"/>
</mask>
<g mask="url(#mask0_2237_1021)">
<rect width="150" height="150" rx="75" fill="#DBC3EB"/>
<rect x="33.3148" y="60.9999" width="7" height="73.5" rx="3.5" fill="#66371A"/>
<rect x="40.3148" y="53.9999" width="7" height="73.5" rx="3.5" fill="#66371A"/>
<rect x="108.673" y="46.9999" width="7" height="80.5" rx="3.5" fill="#66371A"/>
<rect x="96.3148" y="46.9999" width="10.5" height="91" rx="5.25" fill="#66371A"/>
<circle cx="113.815" cy="75" r="10.5" fill="#E39C80"/>
<circle cx="33.3148" cy="75" r="10.5" fill="#E39C80"/>
<rect x="113.815" y="78.5" width="3.5" height="3.5" rx="1.75" fill="#FFBE1D"/>
<rect x="29.8148" y="78.5" width="3.5" height="3.5" rx="1.75" fill="#FFBE1D"/>
<path d="M36 64.5C36 43.237 53.237 26 74.5 26V26C95.763 26 113 43.237 113 64.5V110C113 117.732 106.732 124 99 124H50C42.268 124 36 117.732 36 110V64.5Z" fill="#E39C80"/>
<path d="M29.8148 152C29.8148 140.402 39.2168 131 50.8148 131H99.8148C111.413 131 120.815 140.402 120.815 152V162.5H29.8148V152Z" fill="#1E1E1E"/>
<path d="M89.3148 131C89.3148 131.919 88.9526 132.83 88.2491 133.679C87.5455 134.528 86.5143 135.3 85.2143 135.95C83.9142 136.6 82.3709 137.115 80.6723 137.467C78.9738 137.819 77.1533 138 75.3148 138C73.4763 138 71.6557 137.819 69.9572 137.467C68.2586 137.115 66.7153 136.6 65.4153 135.95C64.1152 135.3 63.084 134.528 62.3804 133.679C61.6769 132.83 61.3148 131.919 61.3148 131L89.3148 131Z" fill="#E39C80"/>
<path d="M61.3148 124H89.3148V131C89.3148 132.933 87.7478 134.5 85.8148 134.5H64.8148C62.8818 134.5 61.3148 132.933 61.3148 131V124Z" fill="#E39C80"/>
<path d="M32.5 50.5C32.5 31.17 48.17 15.5 67.5 15.5H81.5C100.83 15.5 116.5 31.17 116.5 50.5V61L74.5 52.25L32.5 61V50.5Z" fill="#353535"/>
<mask id="mask1_2237_1021" style="mask-type:alpha" maskUnits="userSpaceOnUse" x="68" y="22" width="15" height="15">
<path d="M68.3148 29.4517C68.3148 20.1828 82.1255 20.1828 82.3049 29.4517C82.4302 35.9278 81.3297 36.447 80.6552 36.1719C80.2951 36.0251 79.9097 35.8499 79.5312 35.9391C76.3373 36.6916 74.3006 36.6812 71.1126 35.9424C70.7217 35.8518 70.329 36.056 69.951 36.1908C69.3142 36.4178 68.3148 35.768 68.3148 29.4517Z" fill="#BD68D5"/>
</mask>
<g mask="url(#mask1_2237_1021)">
<path d="M68.3148 22.111L82.3148 22.111V36.8884H68.3148V22.111Z" fill="white"/>
<rect x="71.4261" y="25.8161" width="3.11111" height="5.1579" rx="1.55556" fill="#4B4B4B"/>
<rect x="76.093" y="25.8161" width="3.11111" height="5.1579" rx="1.55556" fill="#4B4B4B"/>
</g>
<path d="M33.3148 61C33.3148 61 57.8321 50.5 75.3148 50.5C92.7974 50.5 117.315 61 117.315 61" stroke="#1E1E1E" stroke-width="10.5" stroke-linecap="round"/>
<path d="M67.5 19C67.5 15.134 70.634 12 74.5 12V12C78.366 12 81.5 15.134 81.5 19V19H67.5V19Z" fill="#353535"/>
<rect x="77.0648" y="55.75" width="31.5" height="31.5" rx="15.75" fill="white" stroke="#FFBE1D" stroke-width="3.5"/>
<rect x="81.5" y="68" width="7" height="10.5" rx="3.5" fill="#353535"/>
<rect x="-1.75" y="1.75" width="31.5" height="31.5" rx="15.75" transform="matrix(-1 0 0 1 71.8148 54)" fill="white" stroke="#FFBE1D" stroke-width="3.5"/>
<rect width="7" height="10.5" rx="3.5" transform="matrix(-1 0 0 1 68.3148 68)" fill="#353535"/>
<path d="M71 89C71 87.1435 69.1563 85.363 65.8744 84.0503C62.5925 82.7375 58.1413 82 53.5 82C48.8587 82 44.4075 82.7375 41.1256 84.0503C37.8437 85.363 36 87.1435 36 89L53.5 89H71Z" fill="#E39C80"/>
<path d="M113 89C113 87.1435 111.156 85.363 107.874 84.0503C104.592 82.7375 100.141 82 95.5 82C90.8587 82 86.4075 82.7375 83.1256 84.0503C79.8437 85.363 78 87.1435 78 89L95.5 89H113Z" fill="#E39C80"/>
<path d="M29.8148 105.2C29.8148 94.3202 38.5604 84.5484 49.3731 83.3379C55.0799 82.6991 61.0825 82.8949 70.3008 86.1851C73.6202 87.3699 77.1738 87.9557 80.684 87.6381C92.3004 86.5873 98.3488 86.4637 102.518 86.6918C112.651 87.2463 120.815 96.3776 120.815 106.526V106.526C120.815 116.674 112.588 124.901 102.44 124.901H49.5152C38.6349 124.901 29.8148 116.081 29.8148 105.2V105.2Z" fill="#66371A"/>
<path d="M65.1266 89C65.1266 89 63.1634 101.612 69.9193 101.612C76.6752 101.612 75.6267 94.2502 75.6267 94.2502" stroke="#36200C" stroke-width="3.5" stroke-linecap="round"/>
<rect x="70.3186" y="90.4773" width="9.65427" height="9.65427" rx="4.82713" transform="rotate(-90 70.3186 90.4773)" fill="#E39C80"/>
</g>
</svg>
